<?xml version="1.0" encoding="UTF-8" standalone="no"?><!DOCTYPE svg PUBLIC "-//W3C//DTD SVG 1.1//EN" "http://www.w3.org/Graphics/SVG/1.1/DTD/svg11.dtd"><svg width="100%" height="100%" viewBox="0 0 80 80" version="1.1" xmlns="http://www.w3.org/2000/svg" xmlns:xlink="http://www.w3.org/1999/xlink" xml:space="preserve" xmlns:serif="http://www.serif.com/" style="fill-rule:evenodd;clip-rule:evenodd;stroke-linejoin:round;stroke-miterlimit:2;"><g id="Checkbox_PlayOnSelection_Normal"><rect id="Base-Block" serif:id="Base Block" x="2.934" y="0.573" width="79.167" height="79.167" style="fill:#fff;fill-opacity:0;"/><g opacity="0.7"><g id="Transport_AutoSelectRegions"><g id="Calque-1" serif:id="Calque 1"><g id="ObjectIcons_AudioFile_nor"><g id="Icons"><g id="Base-Block1" serif:id="Base Block"><path d="M63.893,25.081c-0,-3.348 -2.718,-6.066 -6.066,-6.066l-31.199,0c-3.348,0 -6.066,2.718 -6.066,6.066l0,31.199c0,3.348 2.718,6.066 6.066,6.066l31.199,-0c3.348,-0 6.066,-2.718 6.066,-6.066l-0,-31.199Z" style="fill:#dcdcdc;fill-opacity:0;"/></g><rect x="29.141" y="33.3" width="4.158" height="24.949" style="fill:#dcdcdc;"/><rect x="37.458" y="24.983" width="4.158" height="24.949" style="fill:#dcdcdc;"/><rect x="45.774" y="29.141" width="4.158" height="12.475" style="fill:#dcdcdc;"/></g></g><g><path d="M16.667,16.667l12.474,-0l0,4.158l-4.158,-0l0,41.521l4.158,-0l0,4.22l-12.474,-0l-0,-4.22l4.175,-0l-0,-41.521l-4.175,-0l-0,-4.158Z" style="fill:#dcdcdc;fill-rule:nonzero;"/></g><path d="M54.074,46.135l0.064,-25.31l-4.332,-0l0.11,-4.158l12.584,-0l-0.11,4.158l-4.158,-0l-0.064,26.33l-4.094,-1.02Z" style="fill:#dcdcdc;fill-rule:nonzero;"/><path d="M45.93,51.411l2.458,-2.458l16.793,5.875l-0.016,3.693l-5.623,1.586l6.712,6.712l-2.458,2.458l-6.712,-6.712l-1.454,5.491l-3.676,-0l-6.024,-16.645Z" style="fill:#dcdcdc;fill-rule:nonzero;"/></g></g></g></g></svg>