<?xml version="1.0" encoding="UTF-8" standalone="no"?><!DOCTYPE svg PUBLIC "-//W3C//DTD SVG 1.1//EN" "http://www.w3.org/Graphics/SVG/1.1/DTD/svg11.dtd"><svg width="100%" height="100%" viewBox="0 0 80 80" version="1.1" xmlns="http://www.w3.org/2000/svg" xmlns:xlink="http://www.w3.org/1999/xlink" xml:space="preserve" xmlns:serif="http://www.serif.com/" style="fill-rule:evenodd;clip-rule:evenodd;stroke-linejoin:round;stroke-miterlimit:2;"><g id="Checkbox_PlayOnSelection_Checked" opacity="0.3"><path id="Transparent-BG" serif:id="Transparent BG" d="M75,10.542c0,-3.519 -2.857,-6.375 -6.375,-6.375l-58.083,-0c-3.519,-0 -6.375,2.856 -6.375,6.375l-0,58.083c-0,3.518 2.856,6.375 6.375,6.375l58.083,-0c3.518,-0 6.375,-2.857 6.375,-6.375l0,-58.083Z" style="fill:#008cff;"/><path d="M79.167,10.542l-0,58.083c-0,5.818 -4.724,10.542 -10.542,10.542l-58.083,-0c-5.818,-0 -10.542,-4.724 -10.542,-10.542l-0,-58.083c-0,-5.818 4.724,-10.542 10.542,-10.542l58.083,-0c5.818,-0 10.542,4.724 10.542,10.542Zm-4.167,-0c0,-3.519 -2.857,-6.375 -6.375,-6.375l-58.083,-0c-3.519,-0 -6.375,2.856 -6.375,6.375l-0,58.083c-0,3.518 2.856,6.375 6.375,6.375l58.083,-0c3.518,-0 6.375,-2.857 6.375,-6.375l0,-58.083Z" style="fill:#004a86;"/><rect id="Base-Block" serif:id="Base Block" x="0" y="0" width="79.167" height="79.167" style="fill:#fff;fill-opacity:0;"/><g><g id="Play"><path id="Play1" serif:id="Play" d="M45.422,41.089l-3.005,-1.052l-1.675,-0.585l-1.255,1.254l-3.727,3.728l0.658,1.818l-16.429,9.423l0,-39.536l34.467,19.768l-9.034,5.182Z" style="fill:#fff;"/></g><g id="Calque-1" serif:id="Calque 1"><path d="M39.027,45.161l2.458,-2.458l16.793,5.875l-0.016,3.693l-5.623,1.586l6.712,6.712l-2.458,2.458l-6.712,-6.712l-1.454,5.491l-3.676,-0l-6.024,-16.645Z" style="fill:#fff;fill-rule:nonzero;"/></g></g></g></svg>