<?xml version="1.0" encoding="UTF-8" standalone="no"?>
<svg
   width="100%"
   height="100%"
   viewBox="0 0 84 84"
   version="1.1"
   xml:space="preserve"
   style="fill-rule:evenodd;clip-rule:evenodd;stroke-miterlimit:10;"
   id="svg4"
   sodipodi:docname="3DToolBar_GameObjectVoices_CheckedDisabled.svg"
   inkscape:version="1.4.2 (f4327f4, 2025-05-13)"
   inkscape:export-filename="3DToolBar_GameObjectVoices_CheckedDisabled.png"
   inkscape:export-xdpi="96"
   inkscape:export-ydpi="96"
   xmlns:inkscape="http://www.inkscape.org/namespaces/inkscape"
   xmlns:sodipodi="http://sodipodi.sourceforge.net/DTD/sodipodi-0.dtd"
   xmlns="http://www.w3.org/2000/svg"
   xmlns:svg="http://www.w3.org/2000/svg"
   xmlns:serif="http://www.serif.com/"><defs
     id="defs4" /><sodipodi:namedview
     id="namedview4"
     pagecolor="#505050"
     bordercolor="#ffffff"
     borderopacity="1"
     inkscape:showpageshadow="0"
     inkscape:pageopacity="0"
     inkscape:pagecheckerboard="1"
     inkscape:deskcolor="#505050"
     inkscape:zoom="10.75"
     inkscape:cx="42"
     inkscape:cy="42.093023"
     inkscape:window-width="1920"
     inkscape:window-height="1147"
     inkscape:window-x="3832"
     inkscape:window-y="-8"
     inkscape:window-maximized="1"
     inkscape:current-layer="svg4" /><g
     id="_3DToolBar_GameObjectVoices_CheckedDisabled"
     serif:id="3DToolBar_GameObjectVoices_CheckedDisabled"
     transform="translate(-4,0.27906977)"><rect
       id="Transparent-BG"
       serif:id="Transparent BG"
       x="6.4840002"
       y="2.1689999"
       width="79.167"
       height="79.167"
       style="fill:none" /><g
       id="Calque-11"
       serif:id="Calque 11"><path
         d="M 37.478,75.146 V 33.824 h 41.684"
         style="fill:none;fill-rule:nonzero;stroke:#ffffff;stroke-width:4.17px"
         id="path1" /><path
         d="M 39.701,36.645 16.766,13.711"
         style="fill:none;fill-rule:nonzero;stroke:#ffffff;stroke-width:4.17px"
         id="path2" /><path
         d="M 60.549,12.898 H 16.765 V 57.281 L 34.632,75.519 H 79.236 V 31.361 Z"
         style="fill:none;fill-rule:nonzero;stroke:#ffffff;stroke-width:4.17px"
         id="path3" /><g
         id="Mode-Isolation"
         serif:id="Mode Isolation"><path
           id="rect3"
           style="fill:#ffffff;fill-rule:nonzero"
           d="M 37.478516,32.699219 V 76.269531 H 81.261719 V 32.699219 Z m 17.076172,2.746093 h 7.488281 l -5.933594,11 c 1.479,1.084001 2.970734,2.326797 4.427734,3.716797 L 72.03125,35.445312 h 4.992188 v 7.488282 L 62.46875,52.109375 c 1.385,1.474 2.624219,2.978703 3.699219,4.470703 l 10.855469,-6.158203 v 7.490234 l -9.015626,1.472657 c 3.104,5.258 3.947657,10.005375 1.722657,12.234375 -3.384,3.389 -12.595266,-0.336266 -20.572266,-8.322266 -7.977,-7.981 -11.698453,-17.202797 -8.314453,-20.591797 2.265,-2.265 7.124469,-1.352141 12.480469,1.88086 z m -5.28125,17.4375 c -0.339149,0.0065 -0.618485,0.09584 -0.81836,0.277344 -1.057,0.968 0.503188,4.180922 3.492188,7.169922 2.994,2.993 6.275796,4.635969 7.341796,3.667969 1.057,-0.964 -0.507093,-4.179828 -3.496093,-7.173828 -2.428563,-2.431813 -5.049887,-3.969377 -6.519531,-3.941407 z m -7.044922,7.238282 c 0.405,2.025 1.494359,4.427375 3.443359,6.359375 2.07,2.047 4.618359,3.184406 6.693359,3.566406 l -2.353515,2.332031 c -0.653,0.639 -0.570407,0.568047 -2.191407,0.373047 -1.625,-0.196 -3.77914,-1.061906 -5.49414,-2.753906 -1.887,-1.874 -2.695563,-4.334672 -2.726563,-6.013672 -0.018,-1.182 -0.154875,-1.104984 0.453125,-1.708984 z" /></g></g></g></svg>
