<?xml version="1.0" encoding="UTF-8" standalone="no"?><!DOCTYPE svg PUBLIC "-//W3C//DTD SVG 1.1//EN" "http://www.w3.org/Graphics/SVG/1.1/DTD/svg11.dtd"><svg width="100%" height="100%" viewBox="0 0 84 84" version="1.1" xmlns="http://www.w3.org/2000/svg" xmlns:xlink="http://www.w3.org/1999/xlink" xml:space="preserve" xmlns:serif="http://www.serif.com/" style="fill-rule:evenodd;clip-rule:evenodd;stroke-linejoin:round;stroke-miterlimit:2;"><g id="_3DToolBar_RoomExtentOpacity_Normal" serif:id="3DToolBar_RoomExtentOpacity_Normal" opacity="0.45"><rect id="Transparent-BG" serif:id="Transparent BG" x="0.172" y="-0.987" width="79.167" height="79.167" style="fill:none;"/><g id="Calque-3" serif:id="Calque 3"><path d="M28.925,39.039c-2.909,-0 -5.271,-2.513 -5.271,-5.605l-0,-6.875c-0,-3.091 2.362,-5.604 5.271,-5.604l6.462,0c2.913,0 5.275,2.513 5.275,5.604l0,6.875c0,3.092 -2.362,5.605 -5.275,5.605l-6.462,-0Zm10.966,1.333l9.271,-0l0,-10.375l8.504,-0c1.875,-0 3.529,-1.304 4.071,-3.213c0.542,-1.904 -0.15,-3.966 -1.712,-5.07l-25.509,-18.084c-1.429,-1.012 -3.291,-1.012 -4.721,0l-25.508,18.084c-1.562,1.104 -2.254,3.166 -1.712,5.07c0.541,1.909 2.195,3.213 4.07,3.213l8.505,-0l-0,13.562c-0,2.496 1.904,4.521 4.25,4.521l20.491,0l0,-7.708Z" style="fill:#f7f7f7;"/><g><g opacity="0.5"><rect x="56.272" y="44.415" width="9.524" height="9.524" style="fill:#fff;"/></g><g opacity="0.5"><rect x="68.177" y="56.319" width="9.524" height="9.524" style="fill:#fff;"/></g><rect x="44.368" y="68.223" width="9.525" height="9.525" style="fill:#fff;"/><g opacity="0.5"><rect x="56.272" y="68.224" width="9.524" height="9.524" style="fill:#fff;"/></g><rect x="68.176" y="44.415" width="9.525" height="9.525" style="fill:#fff;"/><rect x="44.368" y="44.415" width="9.525" height="9.525" style="fill:#fff;"/><rect x="56.272" y="56.319" width="9.525" height="9.525" style="fill:#fff;"/><g opacity="0.5"><rect x="44.368" y="56.319" width="9.524" height="9.524" style="fill:#fff;"/></g><rect x="68.176" y="68.223" width="9.525" height="9.525" style="fill:#fff;"/></g></g></g></svg>