<?xml version="1.0" encoding="UTF-8" standalone="no"?><!DOCTYPE svg PUBLIC "-//W3C//DTD SVG 1.1//EN" "http://www.w3.org/Graphics/SVG/1.1/DTD/svg11.dtd"><svg width="100%" height="100%" viewBox="0 0 84 84" version="1.1" xmlns="http://www.w3.org/2000/svg" xmlns:xlink="http://www.w3.org/1999/xlink" xml:space="preserve" xmlns:serif="http://www.serif.com/" style="fill-rule:evenodd;clip-rule:evenodd;stroke-linejoin:round;stroke-miterlimit:2;"><g id="_3DToolBar_InaudiblePaths_CheckedDisabled" serif:id="3DToolBar_InaudiblePaths_CheckedDisabled"><rect id="Transparent-BG" serif:id="Transparent BG" x="7.255" y="4.643" width="79.167" height="79.167" style="fill:none;"/><g id="Calque-6" serif:id="Calque 6"><rect x="35.901" y="19.228" width="4.167" height="41.667" style="fill:#fff;"/><path d="M14.245,27.561c3.408,-4.592 5.629,-7.654 10.079,-11.154c4.213,-3.309 8.917,-5.567 14.209,-5.504c9.97,0.116 12.804,5.279 19.429,12.625l3.091,-2.792c-7.566,-8.4 -11.075,-13.871 -22.47,-14.008c-12.188,-0.142 -20.255,8.337 -27.684,18.345l3.346,2.488Z" style="fill:#fff;"/><path d="M67.152,23.394c3.45,0 6.25,2.8 6.25,6.25c-0,3.45 -2.8,6.25 -6.25,6.25c-3.45,0 -6.25,-2.8 -6.25,-6.25c-0,-3.45 2.8,-6.25 6.25,-6.25" style="fill:#fff;"/><path d="M64.027,77.561c-3.271,-0 -6.259,-1.121 -8.692,-2.946l20.329,-20.329c1.825,2.433 2.946,5.421 2.946,8.692c0,8.041 -6.542,14.583 -14.583,14.583m-0,-29.167c3.271,0 6.258,1.121 8.691,2.946l-20.329,20.329c-1.825,-2.433 -2.946,-5.421 -2.946,-8.691c0,-8.042 6.542,-14.584 14.584,-14.584m-0,-4.166c-10.338,-0 -18.75,8.412 -18.75,18.75c-0,10.337 8.412,18.75 18.75,18.75c10.337,-0 18.75,-8.413 18.75,-18.75c-0,-10.338 -8.413,-18.75 -18.75,-18.75" style="fill:#fff;fill-rule:nonzero;"/></g></g></svg>