<?xml version="1.0" encoding="UTF-8" standalone="no"?><!DOCTYPE svg PUBLIC "-//W3C//DTD SVG 1.1//EN" "http://www.w3.org/Graphics/SVG/1.1/DTD/svg11.dtd"><svg width="100%" height="100%" viewBox="0 0 84 84" version="1.1" xmlns="http://www.w3.org/2000/svg" xmlns:xlink="http://www.w3.org/1999/xlink" xml:space="preserve" xmlns:serif="http://www.serif.com/" style="fill-rule:evenodd;clip-rule:evenodd;stroke-miterlimit:10;"><g id="_3DToolBar_GameObjectName_Checked" serif:id="3DToolBar_GameObjectName_Checked"><rect id="Transparent-BG" serif:id="Transparent BG" x="1.901" y="2.169" width="79.167" height="79.167" style="fill:none;"/><g id="Calque-11" serif:id="Calque 11"><path d="M34.456,74.897l0,-41.448l40.991,-0" style="fill:none;fill-rule:nonzero;stroke:#fff;stroke-width:4.17px;"/><path d="M35.712,36.124l-22.661,-22.661" style="fill:none;fill-rule:nonzero;stroke:#fff;stroke-width:4.17px;"/><path d="M57.27,12.875l-43.83,-0l-0.437,44.158l17.914,18.238l44.591,-0l-0,-44.159l-18.238,-18.237Z" style="fill:none;fill-rule:nonzero;stroke:#fff;stroke-width:4.17px;"/><path d="M74.069,48.174l-4.279,-0l-0,-8.426l-8.554,0l0,29.425l4.231,0l-0,3.848l-16.636,-0l-0,-3.848l4.117,0l-0,-29.425l-8.56,0l-0,8.426l-4.018,-0l0,-12.269l33.699,0l0,12.269Zm-40.439,27.097l41.817,-0l-0,-43.571l-41.817,-0l-0,43.571Z" style="fill:#fff;fill-rule:nonzero;"/></g></g></svg>