<?xml version="1.0" encoding="UTF-8" standalone="no"?><!DOCTYPE svg PUBLIC "-//W3C//DTD SVG 1.1//EN" "http://www.w3.org/Graphics/SVG/1.1/DTD/svg11.dtd"><svg width="100%" height="100%" viewBox="0 0 84 84" version="1.1" xmlns="http://www.w3.org/2000/svg" xmlns:xlink="http://www.w3.org/1999/xlink" xml:space="preserve" xmlns:serif="http://www.serif.com/" style="fill-rule:evenodd;clip-rule:evenodd;stroke-linejoin:round;stroke-miterlimit:2;"><g id="_3DToolBar_AttenuationSpread_Normal" serif:id="3DToolBar_AttenuationSpread_Normal" opacity="0.45"><rect id="Transparent-BG" serif:id="Transparent BG" x="2.464" y="1.443" width="79.167" height="79.167" style="fill:none;"/><g id="Calque-6" serif:id="Calque 6"><g opacity="0.5"><path d="M42.048,72.276c-17.234,-0 -31.25,-14.017 -31.25,-31.25c-0,-17.233 14.016,-31.25 31.25,-31.25c17.233,-0 31.25,14.017 31.25,31.25c-0,17.233 -14.017,31.25 -31.25,31.25m-0,-58.333c-14.934,-0 -27.084,12.15 -27.084,27.083c0,14.933 12.15,27.083 27.084,27.083c14.933,0 27.083,-12.15 27.083,-27.083c-0,-14.933 -12.15,-27.083 -27.083,-27.083" style="fill:#fff;fill-rule:nonzero;"/></g><g opacity="0.5"><path d="M42.048,61.828c-11.467,0 -20.805,-9.329 -20.805,-20.804c0,-11.471 9.338,-20.8 20.805,-20.8c11.466,0 20.804,9.329 20.804,20.8c-0,11.475 -9.338,20.804 -20.804,20.804m-0,-35.387c-8.046,-0 -14.584,6.542 -14.584,14.583c0,8.046 6.538,14.584 14.584,14.584c8.045,-0 14.583,-6.538 14.583,-14.584c-0,-8.041 -6.538,-14.583 -14.583,-14.583" style="fill:#fff;fill-rule:nonzero;"/></g><g opacity="0.5"><path d="M50.541,41.026c-0,4.692 -3.804,8.492 -8.492,8.492c-4.691,-0 -8.496,-3.8 -8.496,-8.492c0,-4.692 3.805,-8.492 8.496,-8.492c4.688,0 8.492,3.8 8.492,8.492" style="fill:#fff;fill-rule:nonzero;"/></g><path d="M40.965,41.451l-16.271,30.467c-0.4,0.645 -1.271,0.85 -1.896,0.425c-10.617,-7.2 -17.012,-20.171 -14.637,-34.375c2.479,-14.842 14.954,-26.567 29.904,-28.255c20.733,-2.341 38.362,13.884 38.362,34.155c0,11.354 -5.529,21.437 -14.037,27.7c-0.609,0.45 -1.484,0.279 -1.909,-0.346l-17.283,-29.813c-0.542,-0.804 -1.725,-0.779 -2.233,0.042" style="fill:#fff;fill-rule:nonzero;"/></g></g></svg>