<?xml version="1.0" encoding="UTF-8" standalone="no"?><!DOCTYPE svg PUBLIC "-//W3C//DTD SVG 1.1//EN" "http://www.w3.org/Graphics/SVG/1.1/DTD/svg11.dtd"><svg width="100%" height="100%" viewBox="0 0 84 84" version="1.1" xmlns="http://www.w3.org/2000/svg" xmlns:xlink="http://www.w3.org/1999/xlink" xml:space="preserve" xmlns:serif="http://www.serif.com/" style="fill-rule:evenodd;clip-rule:evenodd;stroke-linejoin:round;stroke-miterlimit:2;"><g id="_3DToolBar_DiffractionPaths_CheckedDisabled" serif:id="3DToolBar_DiffractionPaths_CheckedDisabled"><rect id="Transparent-BG" serif:id="Transparent BG" x="8.113" y="6.298" width="79.167" height="79.167" style="fill:none;"/><g id="Calque-6" serif:id="Calque 6"><path d="M18.308,40.422c3.408,-4.592 5.629,-7.654 10.079,-11.154c4.213,-3.309 8.917,-5.567 14.209,-5.505c9.97,0.117 12.804,5.28 19.429,12.625l3.091,-2.795c-7.566,-8.396 -11.075,-13.867 -22.47,-14.005c-12.188,-0.141 -20.255,8.338 -27.684,18.346l3.346,2.488Z" style="fill:#fff;"/><rect x="40.042" y="31.907" width="4.167" height="41.547" style="fill:#fff;"/><path d="M71.215,36.255c3.45,0 6.25,2.8 6.25,6.25c-0,3.45 -2.8,6.25 -6.25,6.25c-3.45,0 -6.25,-2.8 -6.25,-6.25c-0,-3.45 2.8,-6.25 6.25,-6.25" style="fill:#fff;"/></g></g></svg>