<?xml version="1.0" encoding="UTF-8" standalone="no"?><!DOCTYPE svg PUBLIC "-//W3C//DTD SVG 1.1//EN" "http://www.w3.org/Graphics/SVG/1.1/DTD/svg11.dtd"><svg width="100%" height="100%" viewBox="0 0 84 84" version="1.1" xmlns="http://www.w3.org/2000/svg" xmlns:xlink="http://www.w3.org/1999/xlink" xml:space="preserve" xmlns:serif="http://www.serif.com/" style="fill-rule:evenodd;clip-rule:evenodd;stroke-linejoin:round;stroke-miterlimit:2;"><g id="_3DToolBar_Transmission-_CheckedDisabled" serif:id="3DToolBar_Transmission%_CheckedDisabled"><rect id="Transparent-BG" serif:id="Transparent BG" x="9.428" y="6.201" width="79.167" height="79.167" style="fill:none;"/><g id="Calque-6" serif:id="Calque 6"><g><path d="M59.212,52.201c2.029,0 3.676,1.643 3.676,3.664c0,2.024 -1.647,3.667 -3.676,3.667c-2.029,0 -3.676,-1.643 -3.676,-3.667c-0,-2.021 1.647,-3.664 3.676,-3.664" style="fill:#fff;"/><path d="M76.494,69.408c2.041,-0 3.697,1.66 3.697,3.702c0,2.042 -1.656,3.702 -3.697,3.702c-2.042,0 -3.698,-1.66 -3.698,-3.702c-0,-2.042 1.656,-3.702 3.698,-3.702" style="fill:#fff;"/><path d="M73.765,49.76l3.131,1.807l-15.605,27.046l-3.131,-1.807l15.605,-27.046Z" style="fill:#fff;"/></g><g id="Calque-11" serif:id="Calque 11"><rect x="11.081" y="31.894" width="16.775" height="4.167" style="fill:#fff;"/><rect x="40.01" y="31.894" width="17.044" height="4.167" style="fill:#919191;"/><rect x="31.937" y="11.148" width="3.926" height="62.389" style="fill:#fff;"/><path d="M66.002,30.048c3.45,0 6.25,2.8 6.25,6.25c0,3.45 -2.8,6.25 -6.25,6.25c-3.45,0 -6.25,-2.8 -6.25,-6.25c0,-3.45 2.8,-6.25 6.25,-6.25" style="fill:#fff;"/></g></g></g></svg>