<?xml version="1.0" encoding="UTF-8" standalone="no"?><!DOCTYPE svg PUBLIC "-//W3C//DTD SVG 1.1//EN" "http://www.w3.org/Graphics/SVG/1.1/DTD/svg11.dtd"><svg width="100%" height="100%" viewBox="0 0 84 84" version="1.1" xmlns="http://www.w3.org/2000/svg" xmlns:xlink="http://www.w3.org/1999/xlink" xml:space="preserve" xmlns:serif="http://www.serif.com/" style="fill-rule:evenodd;clip-rule:evenodd;stroke-linejoin:round;stroke-miterlimit:2;"><g id="_3DToolBar_RadiusOpacity_CheckedDisabled" serif:id="3DToolBar_RadiusOpacity_CheckedDisabled"><rect id="Transparent-BG" serif:id="Transparent BG" x="8.84" y="4.884" width="79.167" height="79.167" style="fill:none;"/><g id="Calque-1" serif:id="Calque 1"><g opacity="0"><path d="M73.423,15.718c0,-4.83 -3.92,-8.75 -8.75,-8.75l-45,-0c-4.829,-0 -8.75,3.92 -8.75,8.75l0,45c0,4.829 3.921,8.75 8.75,8.75l45,-0c4.83,-0 8.75,-3.921 8.75,-8.75l0,-45Z"/></g><g><g opacity="0.5"><path d="M48.423,51.34c-1.9,0.908 -4.004,1.462 -6.25,1.462c-8.045,0 -14.583,-6.541 -14.583,-14.583c0,-8.046 6.538,-14.583 14.583,-14.583c8.046,-0 14.584,6.537 14.584,14.583c-0,2.246 -0.55,4.346 -1.463,6.25l6.617,-0c0.629,-1.988 1.067,-4.058 1.067,-6.25c-0,-11.475 -9.338,-20.804 -20.805,-20.804c-11.466,-0 -20.804,9.329 -20.804,20.804c0,11.471 9.338,20.8 20.804,20.8c2.192,-0 4.263,-0.433 6.25,-1.063l0,-6.616Z" style="fill:#fff;fill-rule:nonzero;"/></g><g opacity="0.5"><path d="M48.423,64.544c-2.008,0.479 -4.095,0.758 -6.25,0.758c-14.933,0 -27.083,-12.15 -27.083,-27.083c0,-14.933 12.15,-27.083 27.083,-27.083c14.934,-0 27.084,12.15 27.084,27.083c-0,2.154 -0.279,4.237 -0.759,6.25l4.296,-0c0.413,-2.021 0.629,-4.113 0.629,-6.25c0,-17.233 -14.016,-31.25 -31.25,-31.25c-17.233,-0 -31.25,14.017 -31.25,31.25c0,17.233 14.017,31.25 31.25,31.25c2.142,-0 4.23,-0.221 6.25,-0.629l0,-4.296Z" style="fill:#fff;fill-rule:nonzero;"/></g></g><g><g opacity="0.5"><rect x="64.495" y="48.634" width="9.524" height="9.524" style="fill:#fff;"/></g><g opacity="0.5"><rect x="76.4" y="60.539" width="9.524" height="9.524" style="fill:#fff;"/></g><rect x="52.59" y="72.443" width="9.525" height="9.525" style="fill:#fff;"/><g opacity="0.5"><rect x="64.495" y="72.444" width="9.524" height="9.524" style="fill:#fff;"/></g><rect x="76.398" y="48.634" width="9.525" height="9.525" style="fill:#fff;"/><rect x="52.59" y="48.634" width="9.525" height="9.525" style="fill:#fff;"/><rect x="64.494" y="60.538" width="9.525" height="9.525" style="fill:#fff;"/><g opacity="0.5"><rect x="52.59" y="60.539" width="9.524" height="9.524" style="fill:#fff;"/></g><rect x="76.398" y="72.443" width="9.525" height="9.525" style="fill:#fff;"/></g></g></g></svg>