<?xml version="1.0" encoding="UTF-8" standalone="no"?>
<svg
   width="100%"
   height="100%"
   viewBox="0 0 84 84"
   version="1.1"
   xml:space="preserve"
   style="fill-rule:evenodd;clip-rule:evenodd;stroke-miterlimit:10;"
   id="svg4"
   sodipodi:docname="3DToolBar_GameObjectVoices_Disabled.svg"
   inkscape:export-filename="3DToolBar_GameObjectVoices_Disabled.png"
   inkscape:export-xdpi="96"
   inkscape:export-ydpi="96"
   inkscape:version="1.4.2 (f4327f4, 2025-05-13)"
   xmlns:inkscape="http://www.inkscape.org/namespaces/inkscape"
   xmlns:sodipodi="http://sodipodi.sourceforge.net/DTD/sodipodi-0.dtd"
   xmlns="http://www.w3.org/2000/svg"
   xmlns:svg="http://www.w3.org/2000/svg"
   xmlns:serif="http://www.serif.com/"><defs
     id="defs4" /><sodipodi:namedview
     id="namedview4"
     pagecolor="#505050"
     bordercolor="#ffffff"
     borderopacity="1"
     inkscape:showpageshadow="0"
     inkscape:pageopacity="0"
     inkscape:pagecheckerboard="1"
     inkscape:deskcolor="#505050"
     inkscape:zoom="10.75"
     inkscape:cx="42"
     inkscape:cy="42"
     inkscape:window-width="1920"
     inkscape:window-height="1147"
     inkscape:window-x="3832"
     inkscape:window-y="-8"
     inkscape:window-maximized="1"
     inkscape:current-layer="svg4" /><g
     id="_3DToolBar_GameObjectVoices_Disabled"
     serif:id="3DToolBar_GameObjectVoices_Disabled"
     opacity="0.3"><rect
       id="Transparent-BG"
       serif:id="Transparent BG"
       x="2.317"
       y="2.169"
       width="79.167"
       height="79.167"
       style="fill:none;" /><g
       id="Calque-11"
       serif:id="Calque 11"><path
         d="M 33.311,75.146 V 33.824 h 41.684"
         style="display:inline;fill:none;fill-rule:nonzero;stroke:#ffffff;stroke-width:4.17px"
         id="path1" /><path
         d="M 35.534,36.645 12.6,13.711"
         style="display:inline;fill:none;fill-rule:nonzero;stroke:#ffffff;stroke-width:4.17px"
         id="path2" /><path
         d="M 56.382,12.898 H 12.599 V 57.281 L 30.465,75.519 H 75.069 V 31.361 Z"
         style="display:inline;fill:none;fill-rule:nonzero;stroke:#ffffff;stroke-width:4.17px"
         id="path3" /><g
         id="Mode-Isolation"
         serif:id="Mode Isolation"><path
           id="rect3"
           style="fill:#fff;fill-rule:nonzero;"
           d="M 33.310547 32.699219 L 33.310547 76.269531 L 77.09375 76.269531 L 77.09375 32.699219 L 33.310547 32.699219 z M 50.386719 35.445312 L 57.875 35.445312 L 51.941406 46.445312 C 53.420406 47.529313 54.912141 48.772109 56.369141 50.162109 L 67.863281 35.445312 L 72.855469 35.445312 L 72.855469 42.933594 L 58.302734 52.109375 C 59.688734 53.583375 60.927953 55.088078 62.001953 56.580078 L 72.855469 50.421875 L 72.855469 57.912109 L 63.839844 59.384766 C 66.944844 64.642766 67.7875 69.390141 65.5625 71.619141 C 62.1785 75.008141 52.967234 71.282875 44.990234 63.296875 C 37.014234 55.315875 33.293734 46.094078 36.677734 42.705078 C 38.942734 40.440078 43.80025 41.352937 49.15625 44.585938 L 50.386719 35.445312 z M 45.105469 52.882812 C 44.766387 52.889267 44.48875 52.978656 44.289062 53.160156 C 43.231063 54.128156 44.790297 57.341078 47.779297 60.330078 C 50.773297 63.323078 54.055094 64.966047 55.121094 63.998047 C 56.178094 63.034047 54.615953 59.818219 51.626953 56.824219 C 49.198391 54.392406 46.574824 52.854842 45.105469 52.882812 z M 38.0625 60.121094 C 38.4665 62.146094 39.555859 64.548469 41.505859 66.480469 C 43.574859 68.527469 46.123266 69.664875 48.197266 70.046875 L 45.84375 72.378906 C 45.19075 73.017906 45.275297 72.946953 43.654297 72.751953 C 42.029297 72.555953 39.874156 71.690047 38.160156 69.998047 C 36.272156 68.124047 35.464594 65.663375 35.433594 63.984375 C 35.415594 62.802375 35.277719 62.879391 35.886719 62.275391 L 38.0625 60.121094 z " /></g></g></g></svg>
