<?xml version="1.0" encoding="UTF-8" standalone="no"?><!DOCTYPE svg PUBLIC "-//W3C//DTD SVG 1.1//EN" "http://www.w3.org/Graphics/SVG/1.1/DTD/svg11.dtd"><svg width="100%" height="100%" viewBox="0 0 84 84" version="1.1" xmlns="http://www.w3.org/2000/svg" xmlns:xlink="http://www.w3.org/1999/xlink" xml:space="preserve" xmlns:serif="http://www.serif.com/" style="fill-rule:evenodd;clip-rule:evenodd;stroke-linejoin:round;stroke-miterlimit:2;"><g id="_3DToolBar_AttenuationCone_CheckedDisabled" serif:id="3DToolBar_AttenuationCone_CheckedDisabled"><rect id="Transparent-BG" serif:id="Transparent BG" x="9.761" y="4.48" width="79.167" height="79.167" style="fill:none;"/><g id="Calque-6" serif:id="Calque 6"><path d="M70.024,32.196c3.779,4.555 6.05,10.38 6.05,16.713c-0,14.562 -11.988,26.404 -26.73,26.404c-14.737,0 -26.729,-11.842 -26.729,-26.404c0,-6.171 2.154,-11.85 5.759,-16.35l2.15,2.771c-2.755,3.725 -4.38,8.308 -4.38,13.258c0,12.438 10.263,22.558 22.88,22.558c12.616,0 22.883,-10.12 22.883,-22.558c-0,-4.933 -1.613,-9.5 -4.346,-13.212l2.463,-3.18Zm-5.338,6.888c1.933,2.837 3.054,6.229 3.054,9.867c0,9.937 -8.379,18.029 -18.679,18.029c-10.304,-0 -18.683,-8.092 -18.683,-18.029c-0,-3.638 1.125,-7.03 3.054,-9.867l2.617,3.375c-1.05,1.921 -1.642,4.104 -1.642,6.417c-0,7.687 6.537,13.937 14.583,13.937c8.046,0 14.584,-6.25 14.584,-13.937c-0,-2.271 -0.571,-4.417 -1.584,-6.313l2.696,-3.479Zm-5.483,7.079c0.133,0.667 0.204,1.358 0.204,2.067c-0,5.741 -4.671,10.416 -10.417,10.416c-5.741,0 -10.416,-4.675 -10.416,-10.416c-0,-0.759 0.083,-1.496 0.237,-2.204l6.833,8.82c2.046,1.771 4.3,1.93 6.825,0.005l6.734,-8.688Z" style="fill:#919191;"/><path d="M27.425,22.473l21.633,28.846l21.638,-28.846c-11.638,-13.571 -30.955,-12.167 -43.271,-0" style="fill:#fff;"/></g></g></svg>