<?xml version="1.0" encoding="UTF-8" standalone="no"?><!DOCTYPE svg PUBLIC "-//W3C//DTD SVG 1.1//EN" "http://www.w3.org/Graphics/SVG/1.1/DTD/svg11.dtd"><svg width="100%" height="100%" viewBox="0 0 84 84" version="1.1" xmlns="http://www.w3.org/2000/svg" xmlns:xlink="http://www.w3.org/1999/xlink" xml:space="preserve" xmlns:serif="http://www.serif.com/" style="fill-rule:evenodd;clip-rule:evenodd;stroke-linejoin:round;stroke-miterlimit:2;"><g id="_3DToolBar_AttenuationRadius_Disabled" serif:id="3DToolBar_AttenuationRadius_Disabled" opacity="0.3"><rect id="Transparent-BG" serif:id="Transparent BG" x="1.981" y="2.714" width="79.167" height="79.167" style="fill:none;"/><g id="Calque-6" serif:id="Calque 6"><g opacity="0"><path d="M72.815,19.797c-0,-4.829 -3.921,-8.75 -8.75,-8.75l-45,-0c-4.83,-0 -8.75,3.921 -8.75,8.75l-0,45c-0,4.829 3.92,8.75 8.75,8.75l45,-0c4.829,-0 8.75,-3.921 8.75,-8.75l-0,-45Z"/></g><path d="M41.565,73.547c-17.234,-0 -31.25,-14.017 -31.25,-31.25c-0,-17.233 14.016,-31.25 31.25,-31.25c17.233,-0 31.25,14.017 31.25,31.25c-0,17.233 -14.017,31.25 -31.25,31.25m-0,-58.333c-14.934,-0 -27.084,12.15 -27.084,27.083c0,14.933 12.15,27.083 27.084,27.083c14.933,0 27.083,-12.15 27.083,-27.083c-0,-14.933 -12.15,-27.083 -27.083,-27.083" style="fill:#919191;fill-rule:nonzero;"/><path d="M41.565,63.099c-11.467,0 -20.805,-9.329 -20.805,-20.804c0,-11.471 9.338,-20.8 20.805,-20.8c11.466,0 20.804,9.329 20.804,20.8c-0,11.475 -9.338,20.804 -20.804,20.804m-0,-35.387c-8.046,-0 -14.584,6.542 -14.584,14.583c0,8.046 6.538,14.584 14.584,14.584c8.045,-0 14.583,-6.538 14.583,-14.584c-0,-8.041 -6.538,-14.583 -14.583,-14.583" style="fill:#919191;fill-rule:nonzero;"/><path d="M50.058,42.297c-0,4.692 -3.804,8.492 -8.492,8.492c-4.691,-0 -8.496,-3.8 -8.496,-8.492c0,-4.692 3.805,-8.492 8.496,-8.492c4.688,0 8.492,3.8 8.492,8.492" style="fill:#fff;fill-rule:nonzero;"/></g></g></svg>