<?xml version="1.0" encoding="UTF-8" standalone="no"?><!DOCTYPE svg PUBLIC "-//W3C//DTD SVG 1.1//EN" "http://www.w3.org/Graphics/SVG/1.1/DTD/svg11.dtd"><svg width="100%" height="100%" viewBox="0 0 84 84" version="1.1" xmlns="http://www.w3.org/2000/svg" xmlns:xlink="http://www.w3.org/1999/xlink" xml:space="preserve" xmlns:serif="http://www.serif.com/" style="fill-rule:evenodd;clip-rule:evenodd;stroke-linejoin:round;stroke-miterlimit:2;"><g id="_3DToolBar_RoomExtentOpacity_Disabled" serif:id="3DToolBar_RoomExtentOpacity_Disabled" opacity="0.3"><rect id="Transparent-BG" serif:id="Transparent BG" x="0.049" y="-1.142" width="79.167" height="79.167" style="fill:none;"/><g id="Calque-3" serif:id="Calque 3"><path d="M28.802,38.883c-2.909,0 -5.271,-2.512 -5.271,-5.604l-0,-6.875c-0,-3.092 2.362,-5.604 5.271,-5.604l6.462,-0c2.913,-0 5.275,2.512 5.275,5.604l0,6.875c0,3.092 -2.362,5.604 -5.275,5.604l-6.462,0Zm10.966,1.333l9.271,0l0,-10.375l8.504,0c1.875,0 3.529,-1.304 4.071,-3.212c0.542,-1.904 -0.15,-3.967 -1.712,-5.071l-25.509,-18.083c-1.429,-1.013 -3.291,-1.013 -4.721,-0l-25.508,18.083c-1.562,1.104 -2.254,3.167 -1.712,5.071c0.541,1.908 2.195,3.212 4.07,3.212l8.505,0l-0,13.563c-0,2.496 1.904,4.521 4.25,4.521l20.491,-0l0,-7.709Z" style="fill:#f7f7f7;"/><g><g opacity="0.5"><rect x="56.149" y="44.259" width="9.524" height="9.524" style="fill:#fff;"/></g><g opacity="0.5"><rect x="68.054" y="56.164" width="9.524" height="9.524" style="fill:#fff;"/></g><rect x="44.245" y="68.067" width="9.525" height="9.525" style="fill:#fff;"/><g opacity="0.5"><rect x="56.149" y="68.069" width="9.524" height="9.524" style="fill:#fff;"/></g><rect x="68.053" y="44.259" width="9.525" height="9.525" style="fill:#fff;"/><rect x="44.245" y="44.259" width="9.525" height="9.525" style="fill:#fff;"/><rect x="56.149" y="56.163" width="9.525" height="9.525" style="fill:#fff;"/><g opacity="0.5"><rect x="44.245" y="56.164" width="9.524" height="9.524" style="fill:#fff;"/></g><rect x="68.053" y="68.067" width="9.525" height="9.525" style="fill:#fff;"/></g></g></g></svg>