<?xml version="1.0" encoding="UTF-8" standalone="no"?><!DOCTYPE svg PUBLIC "-//W3C//DTD SVG 1.1//EN" "http://www.w3.org/Graphics/SVG/1.1/DTD/svg11.dtd"><svg width="100%" height="100%" viewBox="0 0 84 84" version="1.1" xmlns="http://www.w3.org/2000/svg" xmlns:xlink="http://www.w3.org/1999/xlink" xml:space="preserve" xmlns:serif="http://www.serif.com/" style="fill-rule:evenodd;clip-rule:evenodd;stroke-linejoin:round;stroke-miterlimit:2;"><g id="_3DToolBar_VirtualVoices_Normal" serif:id="3DToolBar_VirtualVoices_Normal" opacity="0.45"><rect id="Transparent-BG" serif:id="Transparent BG" x="5.261" y="5.793" width="79.167" height="79.167" style="fill:none;"/><g><g id="Calque-1" serif:id="Calque 1"><path d="M79.334,53.71l-10.759,25l-4.07,-0l-11.313,-25l6.925,-0c0,-0 5.783,14.975 6.496,15c0.608,-0 6.217,-15 6.217,-15l6.504,-0Z" style="fill:#fff;fill-rule:nonzero;"/><path d="M15.352,47.737l-3.15,3.116c-0.879,0.871 -0.679,0.763 -0.65,2.475c0.037,2.425 1.208,5.988 3.941,8.696c2.484,2.454 5.596,3.704 7.946,3.988c2.35,0.283 2.221,0.387 3.167,-0.546l3.404,-3.371c-2.996,-0.554 -6.683,-2.2 -9.679,-5.158c-2.821,-2.796 -4.392,-6.271 -4.979,-9.2" style="fill:#919191;fill-rule:nonzero;"/><path d="M40.025,53.347c-1.542,1.4 -6.287,-0.975 -10.617,-5.304c-4.325,-4.33 -6.579,-8.971 -5.05,-10.375c1.538,-1.396 6.288,0.975 10.613,5.304c4.325,4.329 6.587,8.979 5.054,10.375m6.05,2.079l-2.662,-5.883l10.783,-0c-0.467,-0.942 -0.983,-1.896 -1.554,-2.867l13.037,-2.133l0,-10.834l-15.704,8.904c-1.554,-2.154 -3.346,-4.333 -5.35,-6.462l21.054,-13.275l0,-10.833l-7.225,-0l-16.621,21.291c-2.108,-2.008 -4.262,-3.808 -6.408,-5.375l8.588,-15.916l-10.834,-0l-1.783,13.225c-7.742,-4.68 -14.775,-5.996 -18.046,-2.721c-4.896,4.904 0.488,18.241 12.021,29.787c9.071,9.079 19.229,14.321 25.542,13.784l-4.838,-10.692Z" style="fill:#919191;fill-rule:nonzero;"/></g></g></g></svg>