<?xml version="1.0" encoding="UTF-8" standalone="no"?><!DOCTYPE svg PUBLIC "-//W3C//DTD SVG 1.1//EN" "http://www.w3.org/Graphics/SVG/1.1/DTD/svg11.dtd"><svg width="100%" height="100%" viewBox="0 0 84 84" version="1.1" xmlns="http://www.w3.org/2000/svg" xmlns:xlink="http://www.w3.org/1999/xlink" xml:space="preserve" xmlns:serif="http://www.serif.com/" style="fill-rule:evenodd;clip-rule:evenodd;stroke-linejoin:round;stroke-miterlimit:2;"><g id="_3DToolBar_InaudibleRadius_Normal" serif:id="3DToolBar_InaudibleRadius_Normal" opacity="0.45"><rect id="Transparent-BG" serif:id="Transparent BG" x="4.61" y="4.322" width="79.167" height="79.167" style="fill:none;"/><g id="Calque-6" serif:id="Calque 6"><path d="M70.549,66.469l-2.533,2.533l-50.179,-50.179l2.533,-2.533l50.179,50.179Z" style="fill:#fff;"/><path d="M68.017,69.001l-50.18,-50.179l2.534,-2.533l50.179,50.179l-2.533,2.533Z" style="fill:#fff;"/><g opacity="0.5"><path d="M27.235,17.261c4.855,-3.254 10.688,-5.158 16.959,-5.158c16.841,-0 30.546,13.704 30.546,30.545c-0,6.271 -1.909,12.1 -5.163,16.959l3.363,3.358c4.075,-5.75 6.495,-12.75 6.495,-20.317c0,-19.437 -15.808,-35.245 -35.241,-35.245c-7.571,-0 -14.571,2.42 -20.321,6.495l3.362,3.363Z" style="fill:#fff;fill-rule:nonzero;"/></g><g opacity="0.5"><path d="M61.152,68.032c-4.854,3.254 -10.687,5.158 -16.958,5.158c-16.842,0 -30.546,-13.704 -30.546,-30.542c-0,-6.275 1.908,-12.104 5.162,-16.962l-3.362,-3.358c-4.075,5.75 -6.496,12.75 -6.496,20.32c0,19.434 15.808,35.242 35.242,35.242c7.571,0 14.571,-2.421 20.321,-6.496l-3.363,-3.362Z" style="fill:#fff;fill-rule:nonzero;"/></g><g opacity="0.5"><path d="M37.583,27.609c2.025,-0.896 4.254,-1.409 6.609,-1.409c9.075,0 16.45,7.375 16.45,16.446c-0,2.354 -0.517,4.584 -1.413,6.609l5.2,5.2c2.038,-3.471 3.225,-7.5 3.225,-11.809c0,-12.937 -10.529,-23.462 -23.462,-23.462c-4.305,-0 -8.334,1.187 -11.809,3.225l5.2,5.2Z" style="fill:#fff;fill-rule:nonzero;"/></g><g opacity="0.5"><path d="M50.804,57.683c-2.025,0.896 -4.254,1.409 -6.608,1.409c-9.075,-0 -16.45,-7.375 -16.45,-16.446c-0,-2.354 0.516,-4.583 1.412,-6.608l-5.2,-5.2c-2.037,3.47 -3.225,7.5 -3.225,11.808c0,12.937 10.529,23.462 23.463,23.462c4.304,0 8.333,-1.187 11.808,-3.225l-5.2,-5.2Z" style="fill:#fff;fill-rule:nonzero;"/></g><g opacity="0.5"><path d="M52.527,42.553l0,-8.242l-8.242,-0l8.242,8.242Z" style="fill:#fff;fill-rule:nonzero;"/><path d="M35.86,42.74l0,8.241l8.242,0l-8.242,-8.241Z" style="fill:#fff;fill-rule:nonzero;"/></g></g></g></svg>