<?xml version="1.0" encoding="UTF-8" standalone="no"?><!DOCTYPE svg PUBLIC "-//W3C//DTD SVG 1.1//EN" "http://www.w3.org/Graphics/SVG/1.1/DTD/svg11.dtd"><svg width="100%" height="100%" viewBox="0 0 84 84" version="1.1" xmlns="http://www.w3.org/2000/svg" xmlns:xlink="http://www.w3.org/1999/xlink" xml:space="preserve" xmlns:serif="http://www.serif.com/" style="fill-rule:evenodd;clip-rule:evenodd;stroke-linejoin:round;stroke-miterlimit:2;"><g id="_3DToolBar_ActiveVoicesOnly_Normal" serif:id="3DToolBar_ActiveVoicesOnly_Normal" opacity="0.45"><rect id="Transparent-BG" serif:id="Transparent BG" x="6.233" y="6.966" width="79.167" height="79.167" style="fill:none;"/><g><g id="Calque-6" serif:id="Calque 6"><path d="M61.35,66.58l6.4,0l-2.688,-8.404c-0.196,-0.625 -0.337,-1.375 -0.416,-2.246l-0.142,0c-0.058,0.729 -0.2,1.454 -0.433,2.179l-2.721,8.471m6.712,-15.117l8.892,25l-6.138,0l-1.779,-5.558l-8.891,0l-1.759,5.558l-6.104,0l9.1,-25l6.679,0Z" style="fill:#fff;fill-rule:nonzero;"/><path d="M25.361,38.55c1.538,-1.396 6.288,0.975 10.613,5.304c4.325,4.329 6.583,8.975 5.054,10.371c-1.542,1.404 -6.287,-0.971 -10.617,-5.3c-4.325,-4.329 -6.583,-8.975 -5.05,-10.375m20.55,27.625l7.392,-20.3l0.996,-2.742l12.379,0l0,-8.541l-15.7,8.904c-1.554,-2.158 -3.346,-4.333 -5.35,-6.467l21.05,-13.271l0,-10.833l-7.221,0l-16.625,21.292c-2.108,-2.009 -4.262,-3.809 -6.404,-5.379l8.583,-15.913l-10.833,0l-1.779,13.225c-7.746,-4.679 -14.775,-5.996 -18.046,-2.725c-4.896,4.908 0.488,18.242 12.021,29.792c6.562,6.566 13.7,11.133 19.537,12.958" style="fill:#fff;fill-rule:nonzero;"/><path d="M16.353,48.617l-3.15,3.117c-0.879,0.871 -0.679,0.762 -0.65,2.475c0.037,2.425 1.208,5.987 3.941,8.696c2.484,2.454 5.596,3.704 7.946,3.987c2.346,0.283 2.221,0.388 3.167,-0.546l3.404,-3.371c-2.996,-0.554 -6.683,-2.2 -9.679,-5.158c-2.825,-2.796 -4.396,-6.271 -4.979,-9.2" style="fill:#fff;fill-rule:nonzero;"/></g></g></g></svg>