<?xml version="1.0" encoding="UTF-8" standalone="no"?><!DOCTYPE svg PUBLIC "-//W3C//DTD SVG 1.1//EN" "http://www.w3.org/Graphics/SVG/1.1/DTD/svg11.dtd"><svg width="100%" height="100%" viewBox="0 0 84 84" version="1.1" xmlns="http://www.w3.org/2000/svg" xmlns:xlink="http://www.w3.org/1999/xlink" xml:space="preserve" xmlns:serif="http://www.serif.com/" style="fill-rule:evenodd;clip-rule:evenodd;stroke-miterlimit:10;"><g id="_3DToolBar_GameObjectName_CheckedDisabled" serif:id="3DToolBar_GameObjectName_CheckedDisabled"><rect id="Transparent-BG" serif:id="Transparent BG" x="6.067" y="2.169" width="79.167" height="79.167" style="fill:none;"/><g id="Calque-11" serif:id="Calque 11"><path d="M38.623,74.897l-0,-41.448l40.99,-0" style="fill:none;fill-rule:nonzero;stroke:#fff;stroke-width:4.17px;"/><path d="M39.879,36.124l-22.661,-22.661" style="fill:none;fill-rule:nonzero;stroke:#fff;stroke-width:4.17px;"/><path d="M61.437,12.875l-43.831,-0l-0.437,44.158l17.914,18.238l44.592,-0l-0,-44.159l-18.238,-18.237Z" style="fill:none;fill-rule:nonzero;stroke:#fff;stroke-width:4.17px;"/><path d="M78.236,48.174l-4.28,-0l0,-8.426l-8.553,0l-0,29.425l4.231,0l-0,3.848l-16.636,-0l-0,-3.848l4.116,0l0,-29.425l-8.56,0l0,8.426l-4.017,-0l-0,-12.269l33.699,0l0,12.269Zm-40.44,27.097l41.817,-0l0,-43.571l-41.817,-0l0,43.571Z" style="fill:#fff;fill-rule:nonzero;"/></g></g></svg>