<?xml version="1.0" encoding="UTF-8" standalone="no"?><!DOCTYPE svg PUBLIC "-//W3C//DTD SVG 1.1//EN" "http://www.w3.org/Graphics/SVG/1.1/DTD/svg11.dtd"><svg width="100%" height="100%" viewBox="0 0 84 84" version="1.1" xmlns="http://www.w3.org/2000/svg" xmlns:xlink="http://www.w3.org/1999/xlink" xml:space="preserve" xmlns:serif="http://www.serif.com/" style="fill-rule:evenodd;clip-rule:evenodd;stroke-miterlimit:10;"><g id="_3DToolBar_GameObjectPosition_Normal" serif:id="3DToolBar_GameObjectPosition_Normal" opacity="0.45"><rect id="Transparent-BG" serif:id="Transparent BG" x="2.024" y="2.324" width="79.167" height="79.167" style="fill:none;"/><g id="Calque-11" serif:id="Calque 11"><path d="M33.018,74.953l-0,-41.322l41.684,0" style="fill:none;fill-rule:nonzero;stroke:#fff;stroke-width:4.17px;"/><path d="M35.24,36.452l-22.934,-22.934" style="fill:none;fill-rule:nonzero;stroke:#fff;stroke-width:4.17px;"/><path d="M56.088,12.705l-43.783,0l-0,44.384l17.867,18.237l44.604,0l-0,-44.158l-18.688,-18.463Z" style="fill:none;fill-rule:nonzero;stroke:#fff;stroke-width:4.17px;"/><g id="Mode-Isolation" serif:id="Mode Isolation"><path d="M52.56,47.225c-2.082,-0 -3.765,1.686 -3.765,3.765c-0,2.081 1.683,3.767 3.765,3.767c2.078,0 3.764,-1.686 3.764,-3.767c0,-2.079 -1.686,-3.765 -3.764,-3.765" style="fill:#fff;fill-rule:nonzero;"/><path d="M64.022,55.803c-0.208,0.485 -0.486,0.939 -0.786,1.376l-10.598,15.468l-11.243,-16.103c-0.865,-1.698 -1.35,-3.621 -1.35,-5.659c0,-7.776 7.106,-13.894 15.177,-12.209c4.737,0.988 8.561,4.825 9.532,9.562c0.555,2.709 0.233,5.311 -0.732,7.565m-32.948,17.663l44.213,0l-0,-39.872l-44.213,-0l-0,39.872Z" style="fill:#fff;fill-rule:nonzero;"/></g></g></g></svg>