<?xml version="1.0" encoding="UTF-8" standalone="no"?><!DOCTYPE svg PUBLIC "-//W3C//DTD SVG 1.1//EN" "http://www.w3.org/Graphics/SVG/1.1/DTD/svg11.dtd"><svg width="100%" height="100%" viewBox="0 0 84 84" version="1.1" xmlns="http://www.w3.org/2000/svg" xmlns:xlink="http://www.w3.org/1999/xlink" xml:space="preserve" xmlns:serif="http://www.serif.com/" style="fill-rule:evenodd;clip-rule:evenodd;stroke-linejoin:round;stroke-miterlimit:2;"><g id="_3DToolBar_InaudibleRadius_CheckedDisabled" serif:id="3DToolBar_InaudibleRadius_CheckedDisabled"><rect id="Transparent-BG" serif:id="Transparent BG" x="8.654" y="4.166" width="79.167" height="79.167" style="fill:none;"/><g id="Calque-6" serif:id="Calque 6"><g><path d="M56.391,45.009l0,-9.413l-9.413,-0l9.413,9.413Z" style="fill:#919191;fill-rule:nonzero;"/></g><g><path d="M40.084,42.491l-0,9.413l9.413,-0l-9.413,-9.413Z" style="fill:#919191;fill-rule:nonzero;"/></g><g><path d="M39.884,28.501c2.493,-1.37 5.312,-2.222 8.353,-2.222c9.635,-0 17.473,7.838 17.473,17.472c-0,3.041 -0.853,5.861 -2.223,8.353l2.533,2.533c1.95,-3.174 3.099,-6.894 3.099,-10.886c-0,-11.513 -9.369,-20.882 -20.882,-20.882c-3.992,0 -7.712,1.146 -10.886,3.099l2.533,2.533Z" style="fill:#919191;fill-rule:nonzero;"/></g><g><path d="M56.591,58.998c-2.492,1.371 -5.312,2.223 -8.353,2.223c-9.635,-0 -17.472,-7.838 -17.472,-17.473c-0,-3.041 0.852,-5.86 2.222,-8.352l-2.533,-2.533c-1.95,3.174 -3.099,6.893 -3.099,10.885c0,11.514 9.369,20.882 20.882,20.882c3.992,0 7.712,-1.145 10.886,-3.099l-2.533,-2.533Z" style="fill:#919191;fill-rule:nonzero;"/></g><g><path d="M33.876,22.493c4.102,-2.778 9.045,-4.404 14.36,-4.404c14.152,-0 25.665,11.509 25.665,25.661c0,5.315 -1.626,10.259 -4.408,14.36l2.434,2.434c3.375,-4.749 5.383,-10.538 5.383,-16.794c0,-16.03 -13.04,-29.071 -29.074,-29.071c-6.256,0 -12.042,2.005 -16.791,5.383l2.431,2.431Z" style="fill:#919191;fill-rule:nonzero;"/></g><g><path d="M62.599,65.006c-4.102,2.779 -9.045,4.405 -14.36,4.405c-14.152,0 -25.665,-11.513 -25.665,-25.662c-0,-5.315 1.626,-10.258 4.408,-14.359l-2.434,-2.435c-3.375,4.749 -5.384,10.538 -5.384,16.794c0,16.031 13.041,29.071 29.075,29.071c6.256,0 12.045,-2.004 16.79,-5.383l-2.43,-2.431Z" style="fill:#919191;fill-rule:nonzero;"/></g><path d="M69.802,63.242l-2.073,2.073l-41.058,-41.058l2.073,-2.073l41.058,41.058Z" style="fill:#fff;"/><path d="M67.73,65.314l-41.058,-41.058l2.073,-2.073l41.058,41.058l-2.073,2.073Z" style="fill:#fff;"/></g></g></svg>