<?xml version="1.0" encoding="UTF-8" standalone="no"?>
<svg
   width="100%"
   height="100%"
   viewBox="0 0 84 84"
   version="1.1"
   xml:space="preserve"
   style="fill-rule:evenodd;clip-rule:evenodd;stroke-miterlimit:10;"
   id="svg4"
   sodipodi:docname="3DToolBar_GameObjectVoices_Normal.svg"
   inkscape:export-filename="3DToolBar_GameObjectVoices_Normal.png"
   inkscape:export-xdpi="96"
   inkscape:export-ydpi="96"
   inkscape:version="1.4.2 (f4327f4, 2025-05-13)"
   xmlns:inkscape="http://www.inkscape.org/namespaces/inkscape"
   xmlns:sodipodi="http://sodipodi.sourceforge.net/DTD/sodipodi-0.dtd"
   xmlns="http://www.w3.org/2000/svg"
   xmlns:svg="http://www.w3.org/2000/svg"
   xmlns:serif="http://www.serif.com/"><defs
     id="defs4" /><sodipodi:namedview
     id="namedview4"
     pagecolor="#505050"
     bordercolor="#ffffff"
     borderopacity="1"
     inkscape:showpageshadow="0"
     inkscape:pageopacity="0"
     inkscape:pagecheckerboard="1"
     inkscape:deskcolor="#505050"
     inkscape:zoom="10.75"
     inkscape:cx="42"
     inkscape:cy="42"
     inkscape:window-width="1920"
     inkscape:window-height="1147"
     inkscape:window-x="3832"
     inkscape:window-y="-8"
     inkscape:window-maximized="1"
     inkscape:current-layer="svg4" /><g
     id="_3DToolBar_GameObjectVoices_Normal"
     serif:id="3DToolBar_GameObjectVoices_Normal"
     opacity="0.45"><rect
       id="Transparent-BG"
       serif:id="Transparent BG"
       x="2.44"
       y="2.324"
       width="79.167"
       height="79.167"
       style="fill:none;" /><g
       id="Calque-11"
       serif:id="Calque 11"><path
         d="M33.434,75.301l0,-41.321l41.684,-0"
         style="fill:none;fill-rule:nonzero;stroke:#fff;stroke-width:4.17px;"
         id="path1" /><path
         d="M35.657,36.801l-22.934,-22.935"
         style="fill:none;fill-rule:nonzero;stroke:#fff;stroke-width:4.17px;"
         id="path2" /><path
         d="M56.505,13.054l-43.783,-0l-0,44.383l17.866,18.237l44.604,0l0,-44.158l-18.687,-18.462Z"
         style="fill:none;fill-rule:nonzero;stroke:#fff;stroke-width:4.17px;"
         id="path3" /><g
         id="Mode-Isolation"
         serif:id="Mode Isolation"><path
           id="rect3"
           style="fill:#fff;fill-rule:nonzero;"
           d="M 33.433594 32.855469 L 33.433594 76.425781 L 77.216797 76.425781 L 77.216797 32.855469 L 33.433594 32.855469 z M 50.509766 35.599609 L 57.998047 35.599609 L 52.064453 46.601562 C 53.543453 47.684562 55.035188 48.928359 56.492188 50.318359 L 67.986328 35.599609 L 72.978516 35.599609 L 72.978516 43.087891 L 58.425781 52.263672 C 59.811781 53.738672 61.049047 55.243328 62.123047 56.736328 L 72.978516 50.576172 L 72.978516 58.068359 L 63.962891 59.539062 C 67.067891 64.798063 67.910547 69.545391 65.685547 71.775391 C 62.301547 75.164391 53.090281 71.436172 45.113281 63.451172 C 37.137281 55.470172 33.416781 46.250328 36.800781 42.861328 C 39.065781 40.596328 43.923297 41.506234 49.279297 44.740234 L 50.509766 35.599609 z M 45.228516 53.039062 C 44.889434 53.045568 44.611797 53.134906 44.412109 53.316406 C 43.354109 54.284406 44.913344 57.495375 47.902344 60.484375 C 50.896344 63.477375 54.178141 65.122297 55.244141 64.154297 C 56.301141 63.190297 54.739 59.973469 51.75 56.980469 C 49.321438 54.547844 46.697871 53.010873 45.228516 53.039062 z M 38.185547 60.275391 C 38.589547 62.301391 39.678906 64.704719 41.628906 66.636719 C 43.697906 68.684719 46.246313 69.821125 48.320312 70.203125 L 45.966797 72.533203 C 45.313797 73.173203 45.398344 73.10225 43.777344 72.90625 C 42.152344 72.71125 39.997203 71.846297 38.283203 70.154297 C 36.395203 68.280297 35.587641 65.819625 35.556641 64.140625 C 35.538641 62.959625 35.400766 63.033688 36.009766 62.429688 L 38.185547 60.275391 z " /></g></g></g></svg>
