<?xml version="1.0" encoding="UTF-8" standalone="no"?><!DOCTYPE svg PUBLIC "-//W3C//DTD SVG 1.1//EN" "http://www.w3.org/Graphics/SVG/1.1/DTD/svg11.dtd"><svg width="100%" height="100%" viewBox="0 0 84 84" version="1.1" xmlns="http://www.w3.org/2000/svg" xmlns:xlink="http://www.w3.org/1999/xlink" xml:space="preserve" xmlns:serif="http://www.serif.com/" style="fill-rule:evenodd;clip-rule:evenodd;stroke-linejoin:round;stroke-miterlimit:2;"><g id="_3DToolBar_VirtualVoices_Disabled" serif:id="3DToolBar_VirtualVoices_Disabled" opacity="0.3"><rect id="Transparent-BG" serif:id="Transparent BG" x="5.138" y="5.638" width="79.167" height="79.167" style="fill:none;"/><g><g id="Calque-1" serif:id="Calque 1"><path d="M79.211,53.554l-10.759,25l-4.07,0l-11.313,-25l6.925,0c0,0 5.783,14.975 6.496,15c0.608,0 6.217,-15 6.217,-15l6.504,0Z" style="fill:#fff;fill-rule:nonzero;"/><path d="M15.229,47.581l-3.15,3.117c-0.879,0.871 -0.679,0.762 -0.65,2.475c0.037,2.425 1.208,5.987 3.942,8.696c2.483,2.454 5.595,3.704 7.945,3.987c2.35,0.284 2.221,0.388 3.167,-0.546l3.404,-3.37c-2.996,-0.555 -6.683,-2.2 -9.679,-5.159c-2.821,-2.796 -4.392,-6.271 -4.979,-9.2" style="fill:#919191;fill-rule:nonzero;"/><path d="M39.902,53.191c-1.541,1.4 -6.287,-0.975 -10.616,-5.304c-4.325,-4.329 -6.58,-8.971 -5.05,-10.375c1.537,-1.396 6.287,0.975 10.612,5.304c4.325,4.329 6.588,8.979 5.054,10.375m6.05,2.079l-2.662,-5.883l10.783,0c-0.467,-0.942 -0.983,-1.896 -1.554,-2.867l13.037,-2.133l0,-10.833l-15.704,8.904c-1.554,-2.154 -3.346,-4.333 -5.35,-6.463l21.054,-13.275l0,-10.833l-7.225,0l-16.62,21.292c-2.109,-2.009 -4.263,-3.809 -6.409,-5.375l8.588,-15.917l-10.834,0l-1.783,13.225c-7.742,-4.679 -14.775,-5.996 -18.046,-2.721c-4.896,4.904 0.488,18.242 12.021,29.788c9.071,9.079 19.229,14.321 25.542,13.783l-4.838,-10.692Z" style="fill:#919191;fill-rule:nonzero;"/></g></g></g></svg>