<?xml version="1.0" encoding="UTF-8" standalone="no"?><!DOCTYPE svg PUBLIC "-//W3C//DTD SVG 1.1//EN" "http://www.w3.org/Graphics/SVG/1.1/DTD/svg11.dtd"><svg width="100%" height="100%" viewBox="0 0 84 84" version="1.1" xmlns="http://www.w3.org/2000/svg" xmlns:xlink="http://www.w3.org/1999/xlink" xml:space="preserve" xmlns:serif="http://www.serif.com/" style="fill-rule:evenodd;clip-rule:evenodd;stroke-linejoin:round;stroke-miterlimit:2;"><g id="_3DToolBar_PortalOpacity_Checked" serif:id="3DToolBar_PortalOpacity_Checked"><rect id="Transparent-BG" serif:id="Transparent BG" x="1.167" y="1.648" width="79.167" height="79.167" style="fill:none;"/><g id="Calque-3" serif:id="Calque 3"><g><path d="M2.471,10.944l0,54.092l4.172,-0l-0,-49.78l8.254,-0l0,-4.312l-12.426,0Z" style="fill:#fff;fill-rule:nonzero;"/><path d="M19.138,4.346l-0,63.283l20.668,-4.623l0,-22.908l8.483,-0l-0,-30.965l-29.151,-4.787Z" style="fill:#fff;fill-rule:nonzero;"/></g><g><g opacity="0.5"><rect x="56.149" y="44.259" width="9.524" height="9.524" style="fill:#fff;"/></g><g opacity="0.5"><rect x="68.054" y="56.164" width="9.524" height="9.524" style="fill:#fff;"/></g><rect x="44.245" y="68.067" width="9.525" height="9.525" style="fill:#fff;"/><g opacity="0.5"><rect x="56.149" y="68.069" width="9.524" height="9.524" style="fill:#fff;"/></g><rect x="68.053" y="44.259" width="9.525" height="9.525" style="fill:#fff;"/><rect x="44.245" y="44.259" width="9.525" height="9.525" style="fill:#fff;"/><rect x="56.149" y="56.163" width="9.525" height="9.525" style="fill:#fff;"/><g opacity="0.5"><rect x="44.245" y="56.164" width="9.524" height="9.524" style="fill:#fff;"/></g><rect x="68.053" y="68.067" width="9.525" height="9.525" style="fill:#fff;"/></g></g></g></svg>