<?xml version="1.0" encoding="UTF-8" standalone="no"?><!DOCTYPE svg PUBLIC "-//W3C//DTD SVG 1.1//EN" "http://www.w3.org/Graphics/SVG/1.1/DTD/svg11.dtd"><svg width="100%" height="100%" viewBox="0 0 84 84" version="1.1" xmlns="http://www.w3.org/2000/svg" xmlns:xlink="http://www.w3.org/1999/xlink" xml:space="preserve" xmlns:serif="http://www.serif.com/" style="fill-rule:evenodd;clip-rule:evenodd;stroke-linejoin:round;stroke-miterlimit:2;"><g id="_3DToolBar_PortalOpacity_CheckedDisabled" serif:id="3DToolBar_PortalOpacity_CheckedDisabled"><rect id="Transparent-BG" serif:id="Transparent BG" x="9.5" y="5.814" width="79.167" height="79.167" style="fill:none;"/><g id="Calque-3" serif:id="Calque 3"><g><path d="M10.804,15.111l0,54.091l4.172,0l0,-49.78l8.254,0l0,-4.311l-12.426,-0Z" style="fill:#fff;fill-rule:nonzero;"/><path d="M27.471,8.512l0,63.284l20.668,-4.623l0,-22.908l8.483,-0l0,-30.965l-29.151,-4.788Z" style="fill:#fff;fill-rule:nonzero;"/></g><g><g opacity="0.5"><rect x="64.483" y="48.426" width="9.524" height="9.524" style="fill:#fff;"/></g><g opacity="0.5"><rect x="76.388" y="60.331" width="9.524" height="9.524" style="fill:#fff;"/></g><rect x="52.578" y="72.234" width="9.525" height="9.525" style="fill:#fff;"/><g opacity="0.5"><rect x="64.483" y="72.235" width="9.524" height="9.524" style="fill:#fff;"/></g><rect x="76.386" y="48.426" width="9.525" height="9.525" style="fill:#fff;"/><rect x="52.578" y="48.426" width="9.525" height="9.525" style="fill:#fff;"/><rect x="64.482" y="60.33" width="9.525" height="9.525" style="fill:#fff;"/><g opacity="0.5"><rect x="52.578" y="60.331" width="9.524" height="9.524" style="fill:#fff;"/></g><rect x="76.386" y="72.234" width="9.525" height="9.525" style="fill:#fff;"/></g></g></g></svg>