<?xml version="1.0" encoding="UTF-8" standalone="no"?><!DOCTYPE svg PUBLIC "-//W3C//DTD SVG 1.1//EN" "http://www.w3.org/Graphics/SVG/1.1/DTD/svg11.dtd"><svg width="100%" height="100%" viewBox="0 0 84 84" version="1.1" xmlns="http://www.w3.org/2000/svg" xmlns:xlink="http://www.w3.org/1999/xlink" xml:space="preserve" xmlns:serif="http://www.serif.com/" style="fill-rule:evenodd;clip-rule:evenodd;stroke-linejoin:round;stroke-miterlimit:2;"><g id="_3DToolBar_VirtualVoices_CheckedDisabled" serif:id="3DToolBar_VirtualVoices_CheckedDisabled"><rect id="Transparent-BG" serif:id="Transparent BG" x="9.305" y="5.638" width="79.167" height="79.167" style="fill:none;"/><g><g id="Calque-1" serif:id="Calque 1"><path d="M83.377,53.554l-10.758,25l-4.071,0l-11.312,-25l6.925,0c-0,0 5.783,14.975 6.496,15c0.608,0 6.216,-15 6.216,-15l6.504,0Z" style="fill:#fff;fill-rule:nonzero;"/><path d="M19.396,47.581l-3.15,3.117c-0.88,0.871 -0.68,0.762 -0.65,2.475c0.037,2.425 1.208,5.987 3.941,8.696c2.484,2.454 5.596,3.704 7.946,3.987c2.35,0.284 2.221,0.388 3.167,-0.546l3.404,-3.37c-2.996,-0.555 -6.683,-2.2 -9.679,-5.159c-2.821,-2.796 -4.392,-6.271 -4.979,-9.2" style="fill:#919191;fill-rule:nonzero;"/><path d="M44.069,53.191c-1.542,1.4 -6.288,-0.975 -10.617,-5.304c-4.325,-4.329 -6.579,-8.971 -5.05,-10.375c1.538,-1.396 6.288,0.975 10.613,5.304c4.325,4.329 6.587,8.979 5.054,10.375m6.05,2.079l-2.663,-5.883l10.784,0c-0.467,-0.942 -0.984,-1.896 -1.554,-2.867l13.037,-2.133l0,-10.833l-15.704,8.904c-1.554,-2.154 -3.346,-4.333 -5.35,-6.463l21.054,-13.275l0,-10.833l-7.225,0l-16.621,21.292c-2.108,-2.009 -4.262,-3.809 -6.408,-5.375l8.587,-15.917l-10.833,0l-1.783,13.225c-7.742,-4.679 -14.775,-5.996 -18.046,-2.721c-4.896,4.904 0.487,18.242 12.021,29.788c9.071,9.079 19.229,14.321 25.541,13.783l-4.837,-10.692Z" style="fill:#919191;fill-rule:nonzero;"/></g></g></g></svg>