<?xml version="1.0" encoding="UTF-8" standalone="no"?><!DOCTYPE svg PUBLIC "-//W3C//DTD SVG 1.1//EN" "http://www.w3.org/Graphics/SVG/1.1/DTD/svg11.dtd"><svg width="100%" height="100%" viewBox="0 0 84 84" version="1.1" xmlns="http://www.w3.org/2000/svg" xmlns:xlink="http://www.w3.org/1999/xlink" xml:space="preserve" xmlns:serif="http://www.serif.com/" style="fill-rule:evenodd;clip-rule:evenodd;stroke-linejoin:round;stroke-miterlimit:2;"><g id="_3DToolBar_DiffractionEdgeReceptors_CheckedDisabled" serif:id="3DToolBar_DiffractionEdgeReceptors_CheckedDisabled"><rect id="Transparent-BG" serif:id="Transparent BG" x="8.272" y="5.638" width="79.167" height="79.167" style="fill:none;"/><g><rect x="73.356" y="48.596" width="8.306" height="4.175" style="fill:#f7f7f7;"/><rect x="56.62" y="48.596" width="8.302" height="4.175" style="fill:#f7f7f7;"/><path d="M73.354,56.789l0,9.977c0,2.332 -1.889,4.217 -4.217,4.217c-2.327,0 -4.217,-1.885 -4.217,-4.217l0,-9.977l-8.302,0l-0,9.977c-0,6.918 5.605,12.524 12.519,12.524c6.914,-0 12.52,-5.606 12.52,-12.524l-0,-9.977l-8.303,0Z" style="fill:#f7f7f7;fill-rule:nonzero;"/><rect x="40.029" y="7.352" width="4.221" height="24.327" style="fill:#f7f7f7;"/><rect x="10.733" y="36.204" width="25.058" height="3.735" style="fill:#f7f7f7;"/><path d="M52.409,44.204l8.229,0l-0.004,-8l-20.605,-0l-0,20.618l12.381,-0l-0.001,-12.618Z" style="fill:#f7f7f7;fill-rule:nonzero;"/></g></g></svg>