<?xml version="1.0" encoding="UTF-8" standalone="no"?>
<svg
   width="100%"
   height="100%"
   viewBox="0 0 84 84"
   version="1.1"
   xml:space="preserve"
   style="fill-rule:evenodd;clip-rule:evenodd;stroke-miterlimit:10;"
   id="svg3"
   sodipodi:docname="3DToolBar_PortalInfo_CheckedDisabled.svg"
   inkscape:export-filename="3DToolBar_PortalInfo_CheckedDisabled.png"
   inkscape:export-xdpi="96"
   inkscape:export-ydpi="96"
   inkscape:version="1.4.2 (f4327f4, 2025-05-13)"
   xmlns:inkscape="http://www.inkscape.org/namespaces/inkscape"
   xmlns:sodipodi="http://sodipodi.sourceforge.net/DTD/sodipodi-0.dtd"
   xmlns="http://www.w3.org/2000/svg"
   xmlns:svg="http://www.w3.org/2000/svg"
   xmlns:serif="http://www.serif.com/"><defs
     id="defs3" /><sodipodi:namedview
     id="namedview3"
     pagecolor="#505050"
     bordercolor="#ffffff"
     borderopacity="1"
     inkscape:showpageshadow="0"
     inkscape:pageopacity="0"
     inkscape:pagecheckerboard="1"
     inkscape:deskcolor="#505050"
     inkscape:zoom="10.75"
     inkscape:cx="42"
     inkscape:cy="42.093023"
     inkscape:window-width="1920"
     inkscape:window-height="1147"
     inkscape:window-x="3832"
     inkscape:window-y="-8"
     inkscape:window-maximized="1"
     inkscape:current-layer="svg3" /><g
     id="_3DToolBar_PortalInfo_CheckedDisabled"
     serif:id="3DToolBar_PortalInfo_CheckedDisabled"
     transform="translate(-6.2325581)"><rect
       id="Transparent-BG"
       serif:id="Transparent BG"
       x="8.6680002"
       y="2.497"
       width="79.167"
       height="79.167"
       style="fill:none" /><g
       id="Calque-3"
       serif:id="Calque 3"><path
         id="path1"
         style="fill:#ffffff;fill-rule:nonzero"
         d="M 40.152344,12.421875 V 76.318359 L 69.160156,71.039062 V 16.810547 Z m 16.558594,8.376953 c 2.506,0 4.509765,1.748609 4.509765,4.22461 0,2.454999 -2.003765,4.224609 -4.509765,4.224609 -2.499001,0 -4.494141,-1.769609 -4.494141,-4.224609 0,-2.476 1.995141,-4.22461 4.494141,-4.22461 z m 3.554687,15.085938 0.917969,0.568359 -0.160156,7.699219 v 7.037109 c 0,2.254043 0.02418,5.525175 0.07422,8.128906 l 2.650391,0.546875 v 2.462891 H 49.667969 V 59.865234 L 52.515625,59.25 c 0.04914,-2.592351 0.07227,-5.826311 0.07227,-8.060547 v -2.527344 c 0,-2.921 -0.05116,-4.5595 -0.160157,-6.6875 L 49.15625,41.501953 v -2.091797 z" /><path
         d="M 35.808,21.349 H 25.33 v 51.485"
         style="fill:none;fill-rule:nonzero;stroke:#ffffff;stroke-width:4.17px"
         id="path2" /></g></g></svg>
