<?xml version="1.0" encoding="UTF-8" standalone="no"?><!DOCTYPE svg PUBLIC "-//W3C//DTD SVG 1.1//EN" "http://www.w3.org/Graphics/SVG/1.1/DTD/svg11.dtd"><svg width="100%" height="100%" viewBox="0 0 84 84" version="1.1" xmlns="http://www.w3.org/2000/svg" xmlns:xlink="http://www.w3.org/1999/xlink" xml:space="preserve" xmlns:serif="http://www.serif.com/" style="fill-rule:evenodd;clip-rule:evenodd;stroke-linejoin:round;stroke-miterlimit:2;"><g id="_3DToolBar_GeometryOpacity_Normal" serif:id="3DToolBar_GeometryOpacity_Normal" opacity="0.45"><rect id="Transparent-BG" serif:id="Transparent BG" x="0.055" y="1.608" width="79.167" height="79.167" style="fill:none;"/><g id="Calque-16" serif:id="Calque 16"><g><g opacity="0.5"><rect x="68.145" y="56.393" width="9.524" height="9.524" style="fill:#fff;"/></g><rect x="44.335" y="68.297" width="9.525" height="9.525" style="fill:#fff;"/><g opacity="0.5"><rect x="56.24" y="68.298" width="9.524" height="9.524" style="fill:#fff;"/></g><rect x="68.143" y="44.488" width="9.525" height="9.525" style="fill:#fff;"/><rect x="44.335" y="44.488" width="9.525" height="9.525" style="fill:#fff;"/><rect x="56.239" y="56.393" width="9.525" height="9.525" style="fill:#fff;"/><g opacity="0.5"><rect x="44.335" y="56.393" width="9.524" height="9.524" style="fill:#fff;"/></g><rect x="68.143" y="68.297" width="9.525" height="9.525" style="fill:#fff;"/><g opacity="0.5"><rect x="56.24" y="44.488" width="9.524" height="9.524" style="fill:#fff;"/></g></g><path d="M38.181,4.358l-32.179,55.75l-0.004,0.004l-2.975,5.154l37.5,0l-0,-4.312l-27.079,-0l24.704,-13.517l2.375,1.387l-0,-4.991l-0.184,-0.109l0,-27.008l14.505,25.142l4.979,-0l-21.642,-37.5Zm-2.158,12.358l-0,26.967l-22.742,12.441l22.742,-39.408Z" style="fill:#fff;fill-rule:nonzero;"/></g></g></svg>