<?xml version="1.0" encoding="UTF-8" standalone="no"?><!DOCTYPE svg PUBLIC "-//W3C//DTD SVG 1.1//EN" "http://www.w3.org/Graphics/SVG/1.1/DTD/svg11.dtd"><svg width="100%" height="100%" viewBox="0 0 84 84" version="1.1" xmlns="http://www.w3.org/2000/svg" xmlns:xlink="http://www.w3.org/1999/xlink" xml:space="preserve" xmlns:serif="http://www.serif.com/" style="fill-rule:evenodd;clip-rule:evenodd;stroke-miterlimit:10;"><g id="_3DToolBar_GameObjectName_Normal" serif:id="3DToolBar_GameObjectName_Normal" opacity="0.45"><rect id="Transparent-BG" serif:id="Transparent BG" x="2.024" y="2.324" width="79.167" height="79.167" style="fill:none;"/><g id="Calque-11" serif:id="Calque 11"><path d="M34.579,75.053l0,-41.449l40.991,0" style="fill:none;fill-rule:nonzero;stroke:#fff;stroke-width:4.17px;"/><path d="M35.835,36.279l-22.661,-22.661" style="fill:none;fill-rule:nonzero;stroke:#fff;stroke-width:4.17px;"/><path d="M57.393,13.03l-43.83,0l-0.437,44.159l17.914,18.237l44.591,0l-0,-44.158l-18.238,-18.238Z" style="fill:none;fill-rule:nonzero;stroke:#fff;stroke-width:4.17px;"/><path d="M74.192,48.329l-4.279,0l-0,-8.425l-8.554,-0l0,29.425l4.231,-0l-0,3.847l-16.636,0l-0,-3.847l4.117,-0l-0,-29.425l-8.56,-0l-0,8.425l-4.018,0l-0,-12.268l33.699,-0l0,12.268Zm-40.439,27.097l41.817,0l-0,-43.571l-41.817,0l-0,43.571Z" style="fill:#fff;fill-rule:nonzero;"/></g></g></svg>