<?xml version="1.0" encoding="UTF-8" standalone="no"?><!DOCTYPE svg PUBLIC "-//W3C//DTD SVG 1.1//EN" "http://www.w3.org/Graphics/SVG/1.1/DTD/svg11.dtd"><svg width="100%" height="100%" viewBox="0 0 84 84" version="1.1" xmlns="http://www.w3.org/2000/svg" xmlns:xlink="http://www.w3.org/1999/xlink" xml:space="preserve" xmlns:serif="http://www.serif.com/" style="fill-rule:evenodd;clip-rule:evenodd;stroke-linejoin:round;stroke-miterlimit:2;"><g id="_3DToolBar_RoomExtentOpacity_CheckedDisabled" serif:id="3DToolBar_RoomExtentOpacity_CheckedDisabled"><rect id="Transparent-BG" serif:id="Transparent BG" x="8.382" y="3.025" width="79.167" height="79.167" style="fill:none;"/><g id="Calque-3" serif:id="Calque 3"><path d="M37.135,43.05c-2.908,-0 -5.271,-2.513 -5.271,-5.604l0,-6.875c0,-3.092 2.363,-5.605 5.271,-5.605l6.462,0c2.913,0 5.275,2.513 5.275,5.605l0,6.875c0,3.091 -2.362,5.604 -5.275,5.604l-6.462,-0Zm10.967,1.333l9.27,0l0,-10.375l8.505,0c1.875,0 3.529,-1.304 4.07,-3.212c0.542,-1.905 -0.15,-3.967 -1.712,-5.071l-25.508,-18.084c-1.43,-1.012 -3.292,-1.012 -4.721,0l-25.509,18.084c-1.562,1.104 -2.254,3.166 -1.712,5.071c0.542,1.908 2.196,3.212 4.071,3.212l8.504,0l-0,13.563c-0,2.495 1.904,4.52 4.25,4.52l20.492,0l-0,-7.708Z" style="fill:#f7f7f7;"/><g><g opacity="0.5"><rect x="64.483" y="48.426" width="9.524" height="9.524" style="fill:#fff;"/></g><g opacity="0.5"><rect x="76.388" y="60.331" width="9.524" height="9.524" style="fill:#fff;"/></g><rect x="52.578" y="72.234" width="9.525" height="9.525" style="fill:#fff;"/><g opacity="0.5"><rect x="64.483" y="72.235" width="9.524" height="9.524" style="fill:#fff;"/></g><rect x="76.386" y="48.426" width="9.525" height="9.525" style="fill:#fff;"/><rect x="52.578" y="48.426" width="9.525" height="9.525" style="fill:#fff;"/><rect x="64.482" y="60.33" width="9.525" height="9.525" style="fill:#fff;"/><g opacity="0.5"><rect x="52.578" y="60.331" width="9.524" height="9.524" style="fill:#fff;"/></g><rect x="76.386" y="72.234" width="9.525" height="9.525" style="fill:#fff;"/></g></g></g></svg>