<?xml version="1.0" encoding="UTF-8" standalone="no"?><!DOCTYPE svg PUBLIC "-//W3C//DTD SVG 1.1//EN" "http://www.w3.org/Graphics/SVG/1.1/DTD/svg11.dtd"><svg width="100%" height="100%" viewBox="0 0 84 84" version="1.1" xmlns="http://www.w3.org/2000/svg" xmlns:xlink="http://www.w3.org/1999/xlink" xml:space="preserve" xmlns:serif="http://www.serif.com/" style="fill-rule:evenodd;clip-rule:evenodd;stroke-linejoin:round;stroke-miterlimit:2;"><g id="_3DToolBar_ActiveVoicesOnly_CheckedDisabled" serif:id="3DToolBar_ActiveVoicesOnly_CheckedDisabled"><rect id="Transparent-BG" serif:id="Transparent BG" x="10.277" y="6.811" width="79.167" height="79.167" style="fill:none;"/><g><g id="Calque-6" serif:id="Calque 6"><path d="M65.394,66.425l6.4,-0l-2.688,-8.405c-0.196,-0.625 -0.337,-1.375 -0.417,-2.245l-0.141,-0c-0.059,0.729 -0.2,1.454 -0.434,2.179l-2.72,8.471m6.712,-15.117l8.892,25l-6.138,-0l-1.779,-5.558l-8.892,-0l-1.758,5.558l-6.104,-0l9.1,-25l6.679,-0Z" style="fill:#fff;fill-rule:nonzero;"/><path d="M29.405,38.395c1.538,-1.396 6.288,0.975 10.613,5.304c4.325,4.329 6.583,8.975 5.054,10.371c-1.542,1.404 -6.288,-0.971 -10.617,-5.3c-4.325,-4.33 -6.583,-8.975 -5.05,-10.375m20.55,27.625l7.392,-20.3l0.996,-2.742l12.379,-0l-0,-8.542l-15.7,8.904c-1.554,-2.158 -3.346,-4.333 -5.35,-6.466l21.05,-13.271l-0,-10.833l-7.221,-0l-16.625,21.291c-2.108,-2.008 -4.262,-3.808 -6.404,-5.379l8.583,-15.912l-10.833,-0l-1.779,13.225c-7.746,-4.68 -14.775,-5.996 -18.046,-2.725c-4.896,4.908 0.487,18.241 12.021,29.791c6.562,6.567 13.7,11.134 19.537,12.959" style="fill:#fff;fill-rule:nonzero;"/><path d="M20.396,48.462l-3.15,3.116c-0.879,0.871 -0.679,0.763 -0.65,2.475c0.038,2.425 1.209,5.988 3.942,8.696c2.483,2.454 5.596,3.704 7.946,3.988c2.346,0.283 2.221,0.387 3.167,-0.546l3.404,-3.371c-2.996,-0.554 -6.684,-2.2 -9.679,-5.158c-2.825,-2.796 -4.396,-6.271 -4.98,-9.2" style="fill:#fff;fill-rule:nonzero;"/></g></g></g></svg>