<?xml version="1.0" encoding="UTF-8" standalone="no"?><!DOCTYPE svg PUBLIC "-//W3C//DTD SVG 1.1//EN" "http://www.w3.org/Graphics/SVG/1.1/DTD/svg11.dtd"><svg width="100%" height="100%" viewBox="0 0 84 84" version="1.1" xmlns="http://www.w3.org/2000/svg" xmlns:xlink="http://www.w3.org/1999/xlink" xml:space="preserve" xmlns:serif="http://www.serif.com/" style="fill-rule:evenodd;clip-rule:evenodd;stroke-linejoin:round;stroke-miterlimit:2;"><g id="_3DToolBar_DiffractionPaths_Normal" serif:id="3DToolBar_DiffractionPaths_Normal" opacity="0.45"><rect id="Transparent-BG" serif:id="Transparent BG" x="4.069" y="2.287" width="79.167" height="79.167" style="fill:none;"/><g id="Calque-6" serif:id="Calque 6"><path d="M14.264,36.411c3.409,-4.592 5.63,-7.655 10.08,-11.155c4.212,-3.308 8.916,-5.566 14.208,-5.504c9.971,0.117 12.804,5.279 19.429,12.625l3.092,-2.796c-7.567,-8.395 -11.075,-13.866 -22.471,-14.004c-12.188,-0.141 -20.254,8.338 -27.683,18.346l3.345,2.488Z" style="fill:#fff;"/><rect x="35.998" y="27.896" width="4.167" height="41.547" style="fill:#fff;"/><path d="M67.171,32.244c3.45,-0 6.25,2.8 6.25,6.25c0,3.45 -2.8,6.25 -6.25,6.25c-3.45,-0 -6.25,-2.8 -6.25,-6.25c0,-3.45 2.8,-6.25 6.25,-6.25" style="fill:#fff;"/></g></g></svg>