<?xml version="1.0" encoding="UTF-8" standalone="no"?><!DOCTYPE svg PUBLIC "-//W3C//DTD SVG 1.1//EN" "http://www.w3.org/Graphics/SVG/1.1/DTD/svg11.dtd"><svg width="100%" height="100%" viewBox="0 0 84 84" version="1.1" xmlns="http://www.w3.org/2000/svg" xmlns:xlink="http://www.w3.org/1999/xlink" xml:space="preserve" xmlns:serif="http://www.serif.com/" style="fill-rule:evenodd;clip-rule:evenodd;stroke-linejoin:round;stroke-miterlimit:2;"><g id="_3DToolBar_GeometryOpacity_Checked" serif:id="3DToolBar_GeometryOpacity_Checked"><rect id="Transparent-BG" serif:id="Transparent BG" x="-0.068" y="1.452" width="79.167" height="79.167" style="fill:none;"/><g id="Calque-16" serif:id="Calque 16"><g><g opacity="0.5"><rect x="68.022" y="56.238" width="9.524" height="9.524" style="fill:#fff;"/></g><rect x="44.212" y="68.141" width="9.525" height="9.525" style="fill:#fff;"/><g opacity="0.5"><rect x="56.117" y="68.142" width="9.524" height="9.524" style="fill:#fff;"/></g><rect x="68.021" y="44.333" width="9.525" height="9.525" style="fill:#fff;"/><rect x="44.212" y="44.333" width="9.525" height="9.525" style="fill:#fff;"/><rect x="56.116" y="56.237" width="9.525" height="9.525" style="fill:#fff;"/><g opacity="0.5"><rect x="44.212" y="56.238" width="9.524" height="9.524" style="fill:#fff;"/></g><rect x="68.021" y="68.141" width="9.525" height="9.525" style="fill:#fff;"/><g opacity="0.5"><rect x="56.117" y="44.333" width="9.524" height="9.524" style="fill:#fff;"/></g></g><path d="M38.058,4.202l-32.179,55.75l-0.004,0.004l-2.975,5.155l37.5,-0l-0,-4.313l-27.079,0l24.704,-13.517l2.375,1.388l-0,-4.992l-0.184,-0.108l0,-27.008l14.505,25.141l4.979,0l-21.642,-37.5Zm-2.158,12.359l-0,26.966l-22.742,12.442l22.742,-39.408Z" style="fill:#fff;fill-rule:nonzero;"/></g></g></svg>