<?xml version="1.0" encoding="UTF-8" standalone="no"?><!DOCTYPE svg PUBLIC "-//W3C//DTD SVG 1.1//EN" "http://www.w3.org/Graphics/SVG/1.1/DTD/svg11.dtd"><svg width="100%" height="100%" viewBox="0 0 84 84" version="1.1" xmlns="http://www.w3.org/2000/svg" xmlns:xlink="http://www.w3.org/1999/xlink" xml:space="preserve" xmlns:serif="http://www.serif.com/" style="fill-rule:evenodd;clip-rule:evenodd;stroke-linejoin:round;stroke-miterlimit:2;"><g id="_3DToolBar_ReflectionPaths_Checked" serif:id="3DToolBar_ReflectionPaths_Checked"><rect id="Transparent-BG" serif:id="Transparent BG" x="-0.011" y="3.942" width="79.167" height="79.167" style="fill:none;"/><g id="Calque-6" serif:id="Calque 6"><rect x="60.928" y="15.328" width="3.992" height="49.54" style="fill:#fff;"/><path d="M30.719,23.821l19.08,18.004l4.912,-2.271l-20.5,-19.346l-3.492,3.613Z" style="fill:#222;"/><path d="M32.686,52.39l22.079,-12.796l-4.521,-2.196l-22.079,12.796l4.521,2.196Z" style="fill:#fff;"/><path d="M30.641,23.747l19.158,18.079l4.913,-2.271l-20.583,-19.425l-3.488,3.617Z" style="fill:#fff;"/><path d="M24.429,62.213c-3.133,1.442 -6.85,0.067 -8.291,-3.066c-1.442,-3.134 -0.067,-6.846 3.066,-8.288c3.134,-1.442 6.85,-0.071 8.292,3.063c1.442,3.133 0.067,6.85 -3.067,8.291" style="fill:#222;"/><path d="M24.429,62.213c-3.133,1.442 -6.85,0.067 -8.291,-3.066c-1.442,-3.134 -0.067,-6.846 3.066,-8.288c3.134,-1.442 6.85,-0.071 8.292,3.063c1.442,3.133 0.067,6.85 -3.067,8.291" style="fill:#fff;"/></g></g></svg>