<?xml version="1.0" encoding="UTF-8" standalone="no"?>
<svg
   width="100%"
   height="100%"
   viewBox="0 0 84 84"
   version="1.1"
   xml:space="preserve"
   style="fill-rule:evenodd;clip-rule:evenodd;stroke-miterlimit:10;"
   id="svg3"
   sodipodi:docname="3DToolBar_PortalInfo_Normal.svg"
   inkscape:export-filename="3DToolBar_PortalInfo_Normal.png"
   inkscape:export-xdpi="96"
   inkscape:export-ydpi="96"
   inkscape:version="1.4.2 (f4327f4, 2025-05-13)"
   xmlns:inkscape="http://www.inkscape.org/namespaces/inkscape"
   xmlns:sodipodi="http://sodipodi.sourceforge.net/DTD/sodipodi-0.dtd"
   xmlns="http://www.w3.org/2000/svg"
   xmlns:svg="http://www.w3.org/2000/svg"
   xmlns:serif="http://www.serif.com/"><defs
     id="defs3" /><sodipodi:namedview
     id="namedview3"
     pagecolor="#505050"
     bordercolor="#ffffff"
     borderopacity="1"
     inkscape:showpageshadow="0"
     inkscape:pageopacity="0"
     inkscape:pagecheckerboard="1"
     inkscape:deskcolor="#505050"
     inkscape:zoom="10.75"
     inkscape:cx="42"
     inkscape:cy="42.093023"
     inkscape:window-width="1920"
     inkscape:window-height="1147"
     inkscape:window-x="3832"
     inkscape:window-y="-8"
     inkscape:window-maximized="1"
     inkscape:current-layer="svg3" /><g
     id="_3DToolBar_PortalInfo_Normal"
     serif:id="3DToolBar_PortalInfo_Normal"
     opacity="0.45"
     transform="translate(-2.0465116,-0.27906977)"><rect
       id="Transparent-BG"
       serif:id="Transparent BG"
       x="4.6240001"
       y="2.652"
       width="79.167"
       height="79.167"
       style="fill:none" /><g
       id="Calque-3"
       serif:id="Calque 3"><path
         id="path1"
         style="fill:#ffffff;fill-rule:nonzero"
         d="M 36.109375,12.578125 V 76.472656 L 65.117188,71.195312 V 16.966797 Z m 16.558594,8.376953 c 2.506,0 4.509765,1.74761 4.509765,4.22461 0,2.454999 -2.003765,4.224609 -4.509765,4.224609 -2.498,0 -4.494141,-1.769609 -4.494141,-4.224609 0,-2.477001 1.996141,-4.22461 4.494141,-4.22461 z m 3.554687,15.083984 0.917969,0.56836 -0.160156,7.701172 v 7.037109 c 0,2.254116 0.02418,5.523477 0.07422,8.126953 v 0.002 l 2.648437,0.546875 v 2.460938 H 45.623047 v -2.460938 l 2.847656,-0.617187 c 0.04914,-2.592085 0.07422,-5.824307 0.07422,-8.058594 v -2.529297 c 0,-2.921 -0.05116,-4.558547 -0.160156,-6.685547 L 45.113281,41.65625 v -2.089844 z" /><path
         d="M 31.764,21.505 H 21.286 V 72.99"
         style="fill:none;fill-rule:nonzero;stroke:#ffffff;stroke-width:4.17px"
         id="path2" /></g></g></svg>
