<?xml version="1.0" encoding="UTF-8" standalone="no"?><!DOCTYPE svg PUBLIC "-//W3C//DTD SVG 1.1//EN" "http://www.w3.org/Graphics/SVG/1.1/DTD/svg11.dtd"><svg width="100%" height="100%" viewBox="0 0 84 84" version="1.1" xmlns="http://www.w3.org/2000/svg" xmlns:xlink="http://www.w3.org/1999/xlink" xml:space="preserve" xmlns:serif="http://www.serif.com/" style="fill-rule:evenodd;clip-rule:evenodd;stroke-linejoin:round;stroke-miterlimit:2;"><g id="_3DToolBar_Diffraction-_Normal" serif:id="3DToolBar_Diffraction%_Normal" opacity="0.45"><rect id="Transparent-BG" serif:id="Transparent BG" x="5.384" y="2.189" width="79.167" height="79.167" style="fill:none;"/><g id="Calque-6" serif:id="Calque 6"><rect x="31.969" y="19.525" width="4.167" height="50" style="fill:#fff;"/><path d="M12.564,29.156c3.408,-4.592 5.629,-7.654 10.079,-11.154c4.213,-3.308 8.917,-5.567 14.209,-5.504c9.97,0.116 12.804,5.279 19.429,12.625l3.091,-2.796c-7.566,-8.396 -11.075,-13.867 -22.47,-14.004c-12.188,-0.142 -20.255,8.337 -27.684,18.346l3.346,2.487Z" style="fill:#fff;"/><path d="M66.631,27.788c3.45,0 6.25,2.8 6.25,6.25c0,3.45 -2.8,6.25 -6.25,6.25c-3.45,0 -6.25,-2.8 -6.25,-6.25c0,-3.45 2.8,-6.25 6.25,-6.25" style="fill:#fff;"/><g><path d="M55.168,48.19c2.029,0 3.676,1.643 3.676,3.663c0,2.025 -1.647,3.668 -3.676,3.668c-2.029,-0 -3.676,-1.643 -3.676,-3.668c0,-2.02 1.647,-3.663 3.676,-3.663" style="fill:#fff;"/><path d="M72.45,65.396c2.042,0 3.698,1.661 3.698,3.703c-0,2.041 -1.656,3.702 -3.698,3.702c-2.042,-0 -3.698,-1.661 -3.698,-3.702c-0,-2.042 1.656,-3.703 3.698,-3.703" style="fill:#fff;"/><path d="M69.721,45.749l3.132,1.807l-15.605,27.046l-3.132,-1.807l15.605,-27.046Z" style="fill:#fff;"/></g></g></g></svg>