<?xml version="1.0" encoding="UTF-8" standalone="no"?><!DOCTYPE svg PUBLIC "-//W3C//DTD SVG 1.1//EN" "http://www.w3.org/Graphics/SVG/1.1/DTD/svg11.dtd"><svg width="100%" height="100%" viewBox="0 0 63 63" version="1.1" xmlns="http://www.w3.org/2000/svg" xmlns:xlink="http://www.w3.org/1999/xlink" xml:space="preserve" xmlns:serif="http://www.serif.com/" style="fill-rule:evenodd;clip-rule:evenodd;stroke-linejoin:round;stroke-miterlimit:2;"><g id="ObjectIcons_PropHighShelfOutputBus_nor" opacity="0.45"><g id="Icons"><g id="Base-Block" serif:id="Base Block"><rect x="-0.344" y="-0.098" width="62.5" height="62.5" style="fill-opacity:0;"/></g><path d="M28.858,62.5c-2.71,0 -4.215,-3.966 -4.167,-8.333c0.009,-0.832 0.046,-3.393 -0,-4.167c-0.227,-3.851 0.577,-8.367 4.167,-8.333c1.058,0.009 6.697,-0 8.333,-0c3.212,-0 4.144,3.798 4.167,8.333c-0,0 -0.022,3.546 -0,4.167c0.192,5.426 -2.306,8.332 -4.167,8.333c-2.502,0.001 -6.676,-0 -8.333,0Zm4.166,-16.667c-4.06,0.017 -4.166,1.82 -4.166,4.167c-0.001,1.786 -0,4.076 -0,4.167c-0,3.716 1.293,4.19 4.166,4.166c4.102,-0.033 4.167,-1.504 4.167,-4.166c-0,-0.094 0.09,-1.608 -0,-4.167c-0.08,-2.264 -0.14,-4.183 -4.167,-4.167Z" style="fill:#fff;fill-rule:nonzero;"/><g><path d="M45.489,62.5l-0,-20.833l12.5,-0c3.65,-0 4.115,2.258 4.166,6.216c0.039,2.968 -4.207,4.199 -4.207,4.199c1.184,0.184 4.207,1.304 4.207,4.2c0,3.701 0.079,6.218 -4.166,6.218l-12.5,0Zm4.166,-16.667l0,4.167c6.659,0.007 8.396,-0.109 8.354,-1.965c-0.051,-2.23 -0.636,-2.222 -8.354,-2.202Zm0,8.334l0,4.166c7.073,0.02 8.327,-0.839 8.334,-2.003c0.007,-1.212 -0.809,-2.165 -8.334,-2.163Z" style="fill:#fff;fill-rule:nonzero;"/></g><path d="M-0.304,16.598l27.984,-0.116l10.73,-13.591c1.328,-1.875 3.482,-2.989 5.779,-2.989l17.886,0l0.052,8.377l-17.886,-0c-0.461,0 -0.893,0.224 -1.159,0.6l-9.408,12.392l9.408,12.159l-8.643,0l-6.759,-8.535l-27.977,-0l-0.011,0l-0.008,-8.297l0.012,0Z" style="fill:#fff;"/></g></g></svg>