<?xml version="1.0" encoding="UTF-8" standalone="no"?><!DOCTYPE svg PUBLIC "-//W3C//DTD SVG 1.1//EN" "http://www.w3.org/Graphics/SVG/1.1/DTD/svg11.dtd"><svg width="100%" height="100%" viewBox="0 0 63 63" version="1.1" xmlns="http://www.w3.org/2000/svg" xmlns:xlink="http://www.w3.org/1999/xlink" xml:space="preserve" xmlns:serif="http://www.serif.com/" style="fill-rule:evenodd;clip-rule:evenodd;stroke-linejoin:round;stroke-miterlimit:2;"><g id="ObjectIcons_PropHighShelf_nor" opacity="0.45"><g id="Icons"><g id="Base-Block" serif:id="Base Block"><rect x="-0.344" y="-0.376" width="62.5" height="62.5" style="fill-opacity:0;"/></g><path d="M-0.304,24.821l27.984,-0.116l10.73,-13.592c1.328,-1.874 3.482,-2.988 5.779,-2.988l17.886,0l0.052,8.377l-17.886,-0c-0.461,-0 -0.893,0.223 -1.159,0.6l-9.408,12.392l9.357,11.349c0.265,0.374 0.696,0.597 1.155,0.597l17.889,-0l0,8.217l-17.889,-0c-2.295,-0 -4.447,-1.113 -5.774,-2.986l-10.732,-13.553l-27.977,-0l-0.011,-0l-0.008,-8.297l0.012,-0Z" style="fill:#fff;"/></g></g></svg>