<?xml version="1.0" encoding="UTF-8" standalone="no"?><!DOCTYPE svg PUBLIC "-//W3C//DTD SVG 1.1//EN" "http://www.w3.org/Graphics/SVG/1.1/DTD/svg11.dtd"><svg width="100%" height="100%" viewBox="0 0 63 63" version="1.1" xmlns="http://www.w3.org/2000/svg" xmlns:xlink="http://www.w3.org/1999/xlink" xml:space="preserve" xmlns:serif="http://www.serif.com/" style="fill-rule:evenodd;clip-rule:evenodd;stroke-linejoin:round;stroke-miterlimit:2;"><g id="ObjectIcons_PropHighShelfSend_nor" opacity="0.45"><g id="Icons"><g id="Base-Block" serif:id="Base Block"><rect x="-0.344" y="-0.406" width="62.5" height="62.5" style="fill-opacity:0;"/></g><g><rect x="28.822" y="41.803" width="33.333" height="4.167" style="fill:#fff;"/><path d="M45.489,45.97l0,6.105l2.232,2.228l14.435,0l-0,4.167l-16.667,-0l-4.167,-4.167l0,-8.333l4.167,-0Z" style="fill:#fff;"/></g><path d="M-0.304,16.29l27.984,-0.116l10.73,-13.591c1.328,-1.875 3.482,-2.989 5.779,-2.989l17.886,0l0.052,8.377l-17.886,-0c-0.461,-0 -0.893,0.224 -1.159,0.6l-9.408,12.392l9.408,12.159l-8.643,0l-6.759,-8.535l-27.977,-0l-0.011,-0l-0.008,-8.297l0.012,0Z" style="fill:#fff;"/></g></g></svg>