<?xml version="1.0" encoding="UTF-8" standalone="no"?><!DOCTYPE svg PUBLIC "-//W3C//DTD SVG 1.1//EN" "http://www.w3.org/Graphics/SVG/1.1/DTD/svg11.dtd"><svg width="100%" height="100%" viewBox="0 0 80 80" version="1.1" xmlns="http://www.w3.org/2000/svg" xmlns:xlink="http://www.w3.org/1999/xlink" xml:space="preserve" xmlns:serif="http://www.serif.com/" style="fill-rule:evenodd;clip-rule:evenodd;stroke-linejoin:round;stroke-miterlimit:2;"><g id="Checkbox_AutoSelectionRegions_Normal_Disabled" opacity="0.3"><rect id="Base-Block" serif:id="Base Block" x="-1.099" y="-3.675" width="79.167" height="79.167" style="fill:#fff;fill-opacity:0;"/><g opacity="0.45"><g id="Transport_AutoSelectRegions"><g id="Calque-1" serif:id="Calque 1"><g id="ObjectIcons_AudioFile_nor"><g id="Icons"><g id="Base-Block1" serif:id="Base Block"><path d="M59.86,20.834c0,-3.349 -2.718,-6.067 -6.066,-6.067l-31.198,0c-3.348,0 -6.067,2.718 -6.067,6.067l0,31.198c0,3.348 2.719,6.066 6.067,6.066l31.198,0c3.348,0 6.066,-2.718 6.066,-6.066l0,-31.198Z" style="fill-opacity:0;"/></g><rect x="25.109" y="29.052" width="4.158" height="24.949"/><rect x="33.425" y="20.735" width="4.158" height="24.949"/><rect x="41.742" y="24.894" width="4.158" height="12.475"/></g></g><g><path d="M12.634,12.419l12.475,-0l-0,4.158l-4.159,0l0,41.521l4.159,0l-0,4.22l-12.475,-0l0,-4.22l4.175,0l0,-41.521l-4.175,0l0,-4.158Z" style="fill-rule:nonzero;"/></g><path d="M50.041,41.888l0.065,-25.311l-4.332,0l0.109,-4.158l12.584,-0l-0.109,4.158l-4.158,0l-0.065,26.33l-4.094,-1.019Z" style="fill-rule:nonzero;"/><path d="M41.897,47.163l2.458,-2.458l16.794,5.876l-0.017,3.692l-5.623,1.587l6.712,6.711l-2.458,2.459l-6.712,-6.713l-1.453,5.491l-3.676,-0l-6.025,-16.645Z" style="fill-rule:nonzero;"/></g></g></g></g></svg>