<?xml version="1.0" encoding="UTF-8" standalone="no"?><!DOCTYPE svg PUBLIC "-//W3C//DTD SVG 1.1//EN" "http://www.w3.org/Graphics/SVG/1.1/DTD/svg11.dtd"><svg width="100%" height="100%" viewBox="0 0 80 80" version="1.1" xmlns="http://www.w3.org/2000/svg" xmlns:xlink="http://www.w3.org/1999/xlink" xml:space="preserve" xmlns:serif="http://www.serif.com/" style="fill-rule:evenodd;clip-rule:evenodd;stroke-linejoin:round;stroke-miterlimit:2;"><g id="Checkbox_PlayOnSelection_Checked"><rect id="Base-Block" serif:id="Base Block" x="0.924" y="-3.675" width="79.167" height="79.167" style="fill:#fff;fill-opacity:0;"/><path id="Transparent-BG" serif:id="Transparent BG" d="M75,10.542c0,-3.519 -2.857,-6.375 -6.375,-6.375l-58.083,-0c-3.519,-0 -6.375,2.856 -6.375,6.375l-0,58.083c-0,3.518 2.856,6.375 6.375,6.375l58.083,0c3.518,0 6.375,-2.857 6.375,-6.375l0,-58.083Z" style="fill:#80c6ff;"/><path d="M79.167,10.542l-0,58.083c-0,5.818 -4.724,10.542 -10.542,10.542l-58.083,-0c-5.818,-0 -10.542,-4.724 -10.542,-10.542l-0,-58.083c-0,-5.818 4.724,-10.542 10.542,-10.542l58.083,0c5.818,0 10.542,4.724 10.542,10.542Zm-4.167,-0c0,-3.519 -2.857,-6.375 -6.375,-6.375l-58.083,-0c-3.519,-0 -6.375,2.856 -6.375,6.375l-0,58.083c-0,3.518 2.856,6.375 6.375,6.375l58.083,0c3.518,0 6.375,-2.857 6.375,-6.375l0,-58.083Z" style="fill:#028eff;"/><g id="Transport_AutoSelectRegions"><g id="Calque-1" serif:id="Calque 1"><g id="ObjectIcons_AudioFile_nor"><g id="Icons"><g id="Base-Block1" serif:id="Base Block"><path d="M63.848,20.834c0,-3.349 -2.718,-6.067 -6.066,-6.067l-31.198,0c-3.348,0 -6.067,2.718 -6.067,6.067l0,31.198c0,3.348 2.719,6.066 6.067,6.066l31.198,0c3.348,0 6.066,-2.718 6.066,-6.066l0,-31.198Z" style="fill-opacity:0;"/></g><rect x="29.097" y="29.052" width="4.158" height="24.949"/><rect x="37.413" y="20.735" width="4.158" height="24.949"/><rect x="45.73" y="24.894" width="4.158" height="12.475"/></g></g><g><path d="M16.622,12.419l12.475,-0l-0,4.158l-4.159,0l0,41.521l4.159,0l-0,4.22l-12.475,-0l-0,-4.22l4.175,0l0,-41.521l-4.175,0l-0,-4.158Z" style="fill-rule:nonzero;"/></g><path d="M54.029,41.888l0.065,-25.311l-4.333,0l0.11,-4.158l12.584,-0l-0.109,4.158l-4.159,0l-0.064,26.33l-4.094,-1.019Z" style="fill-rule:nonzero;"/><path d="M45.885,47.163l2.458,-2.458l16.794,5.876l-0.017,3.692l-5.623,1.587l6.712,6.711l-2.458,2.459l-6.712,-6.713l-1.453,5.491l-3.676,-0l-6.025,-16.645Z" style="fill-rule:nonzero;"/></g></g></g></svg>