<?xml version="1.0" encoding="UTF-8" standalone="no"?><!DOCTYPE svg PUBLIC "-//W3C//DTD SVG 1.1//EN" "http://www.w3.org/Graphics/SVG/1.1/DTD/svg11.dtd"><svg width="100%" height="100%" viewBox="0 0 80 80" version="1.1" xmlns="http://www.w3.org/2000/svg" xmlns:xlink="http://www.w3.org/1999/xlink" xml:space="preserve" xmlns:serif="http://www.serif.com/" style="fill-rule:evenodd;clip-rule:evenodd;stroke-linejoin:round;stroke-miterlimit:2;"><g id="Checkbox_AutoSelectionRegions_Checked"><path id="Transparent-BG" serif:id="Transparent BG" d="M75,11.114c0,-3.518 -2.857,-6.375 -6.375,-6.375l-58.083,0c-3.519,0 -6.375,2.857 -6.375,6.375l-0,58.084c-0,3.518 2.856,6.375 6.375,6.375l58.083,-0c3.518,-0 6.375,-2.857 6.375,-6.375l0,-58.084Z" style="fill:#076ed3;"/><path d="M79.167,11.114l-0,58.084c-0,5.818 -4.724,10.541 -10.542,10.541l-58.083,0c-5.818,0 -10.542,-4.723 -10.542,-10.541l-0,-58.084c-0,-5.818 4.724,-10.541 10.542,-10.541l58.083,-0c5.818,-0 10.542,4.723 10.542,10.541Zm-4.167,0c0,-3.518 -2.857,-6.375 -6.375,-6.375l-58.083,0c-3.519,0 -6.375,2.857 -6.375,6.375l-0,58.084c-0,3.518 2.856,6.375 6.375,6.375l58.083,-0c3.518,-0 6.375,-2.857 6.375,-6.375l0,-58.084Z" style="fill:#053566;"/><rect id="Base-Block" serif:id="Base Block" x="0" y="0.573" width="79.167" height="79.167" style="fill:#fff;fill-opacity:0;"/><g id="Transport_AutoSelectRegions"><g id="Calque-1" serif:id="Calque 1"><g id="ObjectIcons_AudioFile_nor"><g id="Icons"><g id="Base-Block1" serif:id="Base Block"><path d="M62.924,25.081c-0,-3.348 -2.718,-6.066 -6.066,-6.066l-31.199,0c-3.348,0 -6.066,2.718 -6.066,6.066l-0,31.199c-0,3.348 2.718,6.066 6.066,6.066l31.199,-0c3.348,-0 6.066,-2.718 6.066,-6.066l-0,-31.199Z" style="fill:#fff;fill-opacity:0;"/></g><rect x="28.172" y="33.3" width="4.158" height="24.949" style="fill:#fff;"/><rect x="36.489" y="24.983" width="4.158" height="24.949" style="fill:#fff;"/><rect x="44.805" y="29.141" width="4.158" height="12.475" style="fill:#fff;"/></g></g><g><path d="M15.698,16.667l12.474,-0l0,4.158l-4.158,-0l0,41.521l4.158,-0l0,4.22l-12.474,-0l-0,-4.22l4.175,-0l-0,-41.521l-4.175,-0l-0,-4.158Z" style="fill:#fff;fill-rule:nonzero;"/></g><path d="M53.105,46.135l0.064,-25.31l-4.332,-0l0.11,-4.158l12.584,-0l-0.11,4.158l-4.158,-0l-0.064,26.33l-4.094,-1.02Z" style="fill:#fff;fill-rule:nonzero;"/><path d="M44.961,51.411l2.457,-2.458l16.794,5.875l-0.016,3.693l-5.624,1.586l6.713,6.712l-2.458,2.458l-6.712,-6.712l-1.454,5.491l-3.676,-0l-6.024,-16.645Z" style="fill:#fff;fill-rule:nonzero;"/></g></g></g></svg>