<?xml version="1.0" encoding="UTF-8" standalone="no"?><!DOCTYPE svg PUBLIC "-//W3C//DTD SVG 1.1//EN" "http://www.w3.org/Graphics/SVG/1.1/DTD/svg11.dtd"><svg width="100%" height="100%" viewBox="0 0 134 134" version="1.1" xmlns="http://www.w3.org/2000/svg" xmlns:xlink="http://www.w3.org/1999/xlink" xml:space="preserve" xmlns:serif="http://www.serif.com/" style="fill-rule:evenodd;clip-rule:evenodd;stroke-linejoin:round;stroke-miterlimit:2;"><g id="View_Large_Error_nor"><rect id="Transparent-BG" serif:id="Transparent BG" x="2.483" y="3.192" width="129.167" height="129.167" style="fill:none;"/><g><path d="M67.067,21.049c25.789,-0 46.727,20.937 46.727,46.726c-0,25.79 -20.938,46.727 -46.727,46.727c-25.79,0 -46.727,-20.937 -46.727,-46.727c-0,-25.789 20.937,-46.726 46.727,-46.726Zm-0,4.166c-23.49,0 -42.561,19.071 -42.561,42.56c0,23.49 19.071,42.561 42.561,42.561c23.489,-0 42.56,-19.071 42.56,-42.561c-0,-23.489 -19.071,-42.56 -42.56,-42.56Z" style="fill:#af3f2a;"/><circle cx="67.067" cy="67.775" r="42.56" style="fill:#de4a2d;"/><path d="M67.067,58.752l15.654,-15.655l9.024,9.024l-15.654,15.654l15.654,15.655l-9.024,9.024l-15.654,-15.655l-15.655,15.655l-9.024,-9.024l15.655,-15.655l-15.655,-15.654l9.024,-9.024l15.655,15.655Z" style="fill:#fff;"/></g></g></svg>