<?xml version="1.0" encoding="UTF-8" standalone="no"?><!DOCTYPE svg PUBLIC "-//W3C//DTD SVG 1.1//EN" "http://www.w3.org/Graphics/SVG/1.1/DTD/svg11.dtd"><svg width="100%" height="100%" viewBox="0 0 134 134" version="1.1" xmlns="http://www.w3.org/2000/svg" xmlns:xlink="http://www.w3.org/1999/xlink" xml:space="preserve" xmlns:serif="http://www.serif.com/" style="fill-rule:evenodd;clip-rule:evenodd;stroke-linejoin:round;stroke-miterlimit:2;"><g id="View_Large_Warning_nor"><rect id="Transparent-BG" serif:id="Transparent BG" x="1.164" y="3.192" width="129.167" height="129.167" style="fill:none;"/><g><path d="M69.406,23.652l45.909,84.26c0.703,1.291 0.674,2.857 -0.076,4.121c-0.751,1.264 -2.113,2.039 -3.583,2.039l-91.817,0c-1.47,0 -2.832,-0.775 -3.582,-2.039c-0.751,-1.264 -0.78,-2.83 -0.077,-4.121l45.909,-84.26c0.73,-1.339 2.133,-2.173 3.659,-2.173c1.525,-0 2.929,0.834 3.658,2.173Zm-3.658,1.994l-45.909,84.259l91.817,0l-45.908,-84.259Z" style="fill:#f6c645;"/><path d="M65.748,25.646l45.908,84.259l-91.817,0l45.909,-84.259Z" style="fill:#faed00;"/><path d="M72.128,51.078l0,32.816l-12.761,-0l-0,-32.816l12.761,-0Zm0,38.724l0,12.858l-12.761,0l-0,-12.858l12.761,0Z"/></g></g></svg>