<?xml version="1.0" encoding="UTF-8" standalone="no"?><!DOCTYPE svg PUBLIC "-//W3C//DTD SVG 1.1//EN" "http://www.w3.org/Graphics/SVG/1.1/DTD/svg11.dtd"><svg width="100%" height="100%" viewBox="0 0 20 20" version="1.1" xmlns="http://www.w3.org/2000/svg" xmlns:xlink="http://www.w3.org/1999/xlink" xml:space="preserve" xmlns:serif="http://www.serif.com/" style="fill-rule:evenodd;clip-rule:evenodd;stroke-linejoin:round;stroke-miterlimit:2;"><g id="General_Refresh_Pressed" opacity="0.3"><rect id="Transparent-BG" serif:id="Transparent BG" x="-0" y="-0" width="20" height="20" style="fill:#fff;fill-opacity:0;"/><path d="M5.538,5.208c-1.38,1.12 -2.687,3.312 -2.687,5.627c0,3.947 3.166,7.134 7.075,7.134c3.908,0 7.074,-3.187 7.074,-7.134c0,-2.547 -1.131,-4.72 -3.11,-5.98l-0.669,1.572c1.363,0.96 2.177,2.498 2.177,4.341c0,3.01 -2.422,5.455 -5.403,5.455c-2.98,0 -5.403,-2.445 -5.403,-5.455c0,-1.509 0.622,-2.854 1.603,-3.836c0.487,-0.449 1.065,-0.861 1.793,-0.975c0.062,-0.009 0.012,4.043 0.012,4.043l1.995,-0l0,-7l-4.316,0.005l-2.679,-0.005l0,1.997l2.749,0l-0.211,0.211Z" style="fill:#fff;fill-rule:nonzero;"/></g></svg>