<?xml version="1.0" encoding="UTF-8" standalone="no"?><!DOCTYPE svg PUBLIC "-//W3C//DTD SVG 1.1//EN" "http://www.w3.org/Graphics/SVG/1.1/DTD/svg11.dtd"><svg width="100%" height="100%" viewBox="0 0 16 16" version="1.1" xmlns="http://www.w3.org/2000/svg" xmlns:xlink="http://www.w3.org/1999/xlink" xml:space="preserve" xmlns:serif="http://www.serif.com/" style="fill-rule:evenodd;clip-rule:evenodd;stroke-linejoin:round;stroke-miterlimit:2;"><g id="ObjectIcons_AddRegion_dis" opacity="0.3"><g id="Base-Block" serif:id="Base Block"><path d="M14.992,2.571c0,-1.159 -0.941,-2.1 -2.1,-2.1l-10.8,-0c-1.159,-0 -2.1,0.941 -2.1,2.1l0,10.8c0,1.159 0.941,2.1 2.1,2.1l10.8,-0c1.159,-0 2.1,-0.941 2.1,-2.1l0,-10.8Z" style="fill-opacity:0;"/></g><g><path d="M5.992,3l1,0l0,11l-1,0l0,-11Zm-2,3l1,0l0,6l-1,0l0,-6Zm4,-5l1,0l0,8l-1,0l0,-8Zm-6,3l1,0l0,5l-1,0l0,-5Zm10,1l1,0l0,2l-1,0l0,-2Zm-2,-3l1,0l0,5l-1,0l0,-5Z"/><rect x="13.992" y="6" width="1" height="2"/><rect x="-0.008" y="6" width="1" height="1.971"/></g><path d="M9,10.977l2,0l-0,-1.977l2,0l-0,1.977l1.992,0l0,2l-1.992,0l-0,2.002l-2,0l-0,-2.002l-2,0l-0,-2Z"/></g></svg>