<?xml version="1.0" encoding="UTF-8" standalone="no"?><!DOCTYPE svg PUBLIC "-//W3C//DTD SVG 1.1//EN" "http://www.w3.org/Graphics/SVG/1.1/DTD/svg11.dtd"><svg width="100%" height="100%" viewBox="0 0 67 67" version="1.1" xmlns="http://www.w3.org/2000/svg" xmlns:xlink="http://www.w3.org/1999/xlink" xml:space="preserve" xmlns:serif="http://www.serif.com/" style="fill-rule:evenodd;clip-rule:evenodd;stroke-linejoin:round;stroke-miterlimit:2;"><g id="ObjectIcons_AddFile_dis" opacity="0.3"><g id="Base-Block" serif:id="Base Block"><path d="M62.5,14.632c-0,-4.829 -3.921,-8.75 -8.75,-8.75l-45,0c-4.829,0 -8.75,3.921 -8.75,8.75l-0,45c-0,4.829 3.921,8.75 8.75,8.75l45,0c4.829,0 8.75,-3.921 8.75,-8.75l-0,-45Z" style="fill-opacity:0;"/></g><path d="M33.365,54.159l-29.198,-0l-0,-49.992l28.881,-0l12.801,12.498l0,16.755l-4.151,0l0,8.239l-8.333,-0l-0,12.5Zm-22.153,-30.68l-2.683,3.585c2.327,1.47 3.041,2.928 0.157,4.965l2.251,3.027c2.534,-1.021 4.293,-3.255 4.293,-5.847c0,-2.497 -1.633,-4.663 -4.018,-5.73Zm11.975,-13.558l-3.445,4.753c5.708,3.173 9.456,8.483 9.456,14.485c0,6.083 -3.849,11.454 -9.686,14.611l3.421,4.764c7.341,-4.23 12.166,-11.339 12.166,-19.38c-0,-7.95 -4.715,-14.988 -11.912,-19.233Zm-5.629,6.955l-3.561,4.729c2.997,1.565 4.997,4.368 4.997,7.562c0,3.268 -2.096,6.128 -5.212,7.67l3.522,4.732c4.862,-2.606 8.097,-7.197 8.097,-12.416c0,-5.128 -3.123,-9.649 -7.843,-12.277Z"/><path d="M37.532,45.826l8.333,-0l-0,-8.239l8.333,-0l0,8.239l8.302,-0l-0,8.333l-8.302,-0l0,8.341l-8.333,0l-0,-8.341l-8.333,-0l-0,-8.333Z"/></g></svg>