<?xml version="1.0" encoding="UTF-8" standalone="no"?><!DOCTYPE svg PUBLIC "-//W3C//DTD SVG 1.1//EN" "http://www.w3.org/Graphics/SVG/1.1/DTD/svg11.dtd"><svg width="100%" height="100%" viewBox="0 0 67 67" version="1.1" xmlns="http://www.w3.org/2000/svg" xmlns:xlink="http://www.w3.org/1999/xlink" xml:space="preserve" xmlns:serif="http://www.serif.com/" style="fill-rule:evenodd;clip-rule:evenodd;stroke-linejoin:round;stroke-miterlimit:2;"><g id="ObjectIcons_DatabaseScanning_nor"><path d="M66.816,11.281c-0,-4.829 -3.921,-8.75 -8.75,-8.75l-45,0c-4.829,0 -8.75,3.921 -8.75,8.75l-0,45c-0,4.829 3.921,8.75 8.75,8.75l45,0c4.829,0 8.75,-3.921 8.75,-8.75l-0,-45Z" style="fill-opacity:0;"/><g opacity="0.45"><path d="M33.266,33.782l-8.286,7.885l-0,8.333l20.874,0l-0,-8.333l-8.354,-7.886l8.354,-9.102l-0,-8.012l-20.874,-0l-0,8.012l8.286,9.103Z" style="fill-rule:nonzero;"/><rect x="35.693" y="35.847" width="0" height="0"/><rect x="20.803" y="8.333" width="29.212" height="4.129"/><rect x="20.833" y="54.199" width="29.167" height="4.134"/></g></g></svg>