<?xml version="1.0" encoding="UTF-8" standalone="no"?><!DOCTYPE svg PUBLIC "-//W3C//DTD SVG 1.1//EN" "http://www.w3.org/Graphics/SVG/1.1/DTD/svg11.dtd"><svg width="100%" height="100%" viewBox="0 0 67 67" version="1.1" xmlns="http://www.w3.org/2000/svg" xmlns:xlink="http://www.w3.org/1999/xlink" xml:space="preserve" xmlns:serif="http://www.serif.com/" style="fill-rule:evenodd;clip-rule:evenodd;stroke-linejoin:round;stroke-miterlimit:2;"><g id="ObjectIcons_Database_dis" opacity="0.3"><g id="Base-Block" serif:id="Base Block"><path d="M66.638,11.281c0,-4.829 -3.921,-8.75 -8.75,-8.75l-45,0c-4.829,0 -8.75,3.921 -8.75,8.75l0,45c0,4.829 3.921,8.75 8.75,8.75l45,0c4.829,0 8.75,-3.921 8.75,-8.75l0,-45Z" style="fill-opacity:0;"/></g><path d="M33.306,12.5l33.332,0l0,45.833l-62.497,0l0,-54.166l29.165,-0l0,8.333Zm-8.626,17.021l-7.989,0l-0,12.356l7.989,-0l12.833,11.869l-0,-35.816l-12.833,11.591Zm16.497,-8.236c5.748,4.753 8.977,9.541 9.087,14.546c0.11,5.009 -2.916,10.065 -9.11,15.359l2.508,2.935c7.336,-6.269 10.593,-12.447 10.462,-18.379c-0.131,-5.937 -3.667,-11.797 -10.486,-17.437l-2.461,2.976Zm-2.937,8.566c2.283,1.838 3.616,3.854 3.661,6.002c0.044,2.168 -1.226,4.34 -3.709,6.475l2.518,2.927c3.575,-3.074 5.115,-6.36 5.051,-9.482c-0.065,-3.141 -1.76,-6.242 -5.099,-8.93l-2.422,3.008Z"/></g></svg>