<?xml version="1.0" encoding="UTF-8" standalone="no"?><!DOCTYPE svg PUBLIC "-//W3C//DTD SVG 1.1//EN" "http://www.w3.org/Graphics/SVG/1.1/DTD/svg11.dtd"><svg width="100%" height="100%" viewBox="0 0 63 63" version="1.1" xmlns="http://www.w3.org/2000/svg" xmlns:xlink="http://www.w3.org/1999/xlink" xml:space="preserve" xmlns:serif="http://www.serif.com/" style="fill-rule:evenodd;clip-rule:evenodd;stroke-linejoin:round;stroke-miterlimit:2;"><g id="ObjectIcons_PropHighShelfOutputBus_dis" opacity="0.3"><g id="Icons"><g id="Base-Block" serif:id="Base Block"><rect x="0.84" y="-4.168" width="62.5" height="62.5" style="fill-opacity:0;"/></g><path d="M0.059,18.345l27.984,-0.116l10.735,-15.154c1.327,-1.874 3.482,-2.988 5.778,-2.988l17.886,-0l0,5.66l-17.886,0c-0.461,0 -0.893,0.224 -1.159,0.6l-10.461,14.768l8.68,12.253l-6.853,0.119l-6.716,-9.481l-27.976,-0l-0.012,-0l-0.012,-5.661l0.012,0Z"/><path d="M41.923,47.53l-0,9.169c-0,3.224 -2.618,5.842 -5.842,5.842l-5.008,-0c-3.224,-0 -5.842,-2.618 -5.842,-5.842l-0,-9.169c-0,-3.224 2.618,-5.842 5.842,-5.842l5.008,-0c3.224,-0 5.842,2.618 5.842,5.842Zm-4.137,1.854c-0,-1.858 -1.509,-3.367 -3.367,-3.367l-1.684,0c-1.858,0 -3.367,1.509 -3.367,3.367l-0,5.46c-0,1.859 1.509,3.368 3.367,3.368l1.684,-0c1.858,-0 3.367,-1.509 3.367,-3.368l-0,-5.46Z"/><path d="M62.745,47.425c-0,1.293 -0.525,2.466 -1.373,3.316c-0.848,0.85 -2.019,1.376 -3.313,1.376c1.294,0 2.465,0.528 3.314,1.379c0.847,0.851 1.372,2.024 1.372,3.317l-0,0.008c-0,1.514 -0.601,2.965 -1.672,4.036c-1.07,1.071 -2.522,1.672 -4.036,1.672c-4.826,-0 -10.96,-0 -10.96,-0l-0,-20.829l10.943,-0c3.162,-0 5.725,2.563 5.725,5.725c-0,0 -0,0 -0,0Zm-4.233,0c0,-1.134 -0.921,-2.055 -2.055,-2.055l-6.26,-0l0,4.185l6.186,-0c1.175,-0 2.129,-0.954 2.129,-2.13Zm0,9.388c0,-1.135 -0.921,-2.056 -2.055,-2.056l-6.26,0l0,4.185l6.186,0c1.175,0 2.129,-0.954 2.129,-2.129Z"/></g></g></svg>