<?xml version="1.0" encoding="UTF-8" standalone="no"?><!DOCTYPE svg PUBLIC "-//W3C//DTD SVG 1.1//EN" "http://www.w3.org/Graphics/SVG/1.1/DTD/svg11.dtd"><svg width="100%" height="100%" viewBox="0 0 67 67" version="1.1" xmlns="http://www.w3.org/2000/svg" xmlns:xlink="http://www.w3.org/1999/xlink" xml:space="preserve" xmlns:serif="http://www.serif.com/" style="fill-rule:evenodd;clip-rule:evenodd;stroke-linejoin:round;stroke-miterlimit:2;"><g id="ObjectIcons_SideChainMix_dis" opacity="0.3"><g id="Base-Block" serif:id="Base Block"><path d="M66.564,9.711c-0,-5.139 -4.172,-9.311 -9.311,-9.311l-47.885,0c-5.139,0 -9.311,4.172 -9.311,9.311l-0,48.192c-0,5.139 4.172,9.311 9.311,9.311l47.885,0c5.139,0 9.311,-4.172 9.311,-9.311l-0,-48.192Z" style="fill-opacity:0;"/></g><g><path d="M12.472,41.772l-12.5,-0l0,4.186l12.5,-0l0,-4.186Zm0,-8.372l-12.5,-0l0,4.186l12.5,-0l0,-4.186Zm0,-8.372l-12.5,0l0,4.186l12.5,0l0,-4.186Z"/><path d="M54.101,29.255l12.5,0l-0,-4.186l-12.5,0l-0,4.186Zm-0,8.372l12.5,0l-0,-4.186l-12.5,0l-0,4.186Zm-0,8.372l12.5,-0l-0,-4.186l-12.5,-0l-0,4.186Z"/><g><rect x="16.745" y="37.469" width="4.14" height="4.186" style="fill-opacity:0.5;"/><rect x="41.643" y="37.55" width="4.16" height="4.186" style="fill-opacity:0.5;"/></g><path d="M33.31,6.599c14.948,-0 27.083,12.191 27.083,27.208c0,15.017 -12.135,27.208 -27.083,27.208c-14.948,0 -27.083,-12.191 -27.083,-27.208c-0,-15.017 12.135,-27.208 27.083,-27.208Zm-12.535,39.782l-0,-17.134c-0,-1.016 0.091,-4.257 2.115,-4.257c2.143,0 2.092,3.241 2.092,4.257l-0,12.464c-0,3.049 0.037,8.391 6.285,8.391c6.252,0 6.192,-5.342 6.192,-8.391l0,-16.721c0,-1.016 0.066,-4.185 2.185,-4.185c2.048,0 2.078,3.169 2.078,4.185l0,21.391l4.167,-0l0,-21.391c0,-3.05 -0.03,-8.312 -6.245,-8.312c-6.285,0 -6.351,5.262 -6.351,8.312l-0,16.721c-0,-0 0.059,4.18 -2.026,4.153c-2.081,-0.028 -2.119,-3.137 -2.119,-4.153l0,-12.464c0,-1.114 -0.066,-8.442 -6.258,-8.442c-6.191,0 -6.282,5.393 -6.282,8.442l0,17.134l4.167,-0Z"/></g></g></svg>