<?xml version="1.0" encoding="UTF-8" standalone="no"?><!DOCTYPE svg PUBLIC "-//W3C//DTD SVG 1.1//EN" "http://www.w3.org/Graphics/SVG/1.1/DTD/svg11.dtd"><svg width="100%" height="100%" viewBox="0 0 67 67" version="1.1" xmlns="http://www.w3.org/2000/svg" xmlns:xlink="http://www.w3.org/1999/xlink" xml:space="preserve" xmlns:serif="http://www.serif.com/" style="fill-rule:evenodd;clip-rule:evenodd;stroke-linejoin:round;stroke-miterlimit:2;"><g id="ObjectIcons_DragRegion_dis" opacity="0.3"><g id="Base-Block" serif:id="Base Block"><path d="M62.5,11.281c0,-4.829 -3.921,-8.75 -8.75,-8.75l-45,0c-4.829,0 -8.75,3.921 -8.75,8.75l0,45c0,4.829 3.921,8.75 8.75,8.75l45,0c4.829,0 8.75,-3.921 8.75,-8.75l0,-45Z" style="fill-opacity:0;"/></g><g><g id="Icons"><g id="Base-Block1" serif:id="Base Block"><path d="M62.5,9.198c0,-4.829 -3.921,-8.75 -8.75,-8.75l-45,-0c-4.829,-0 -8.75,3.921 -8.75,8.75l0,45c0,4.829 3.921,8.75 8.75,8.75l45,-0c4.829,-0 8.75,-3.921 8.75,-8.75l0,-45Z" style="fill-opacity:0;"/></g><rect x="58.333" y="25" width="4.167" height="8.333"/><rect x="0" y="25" width="4.167" height="8.333"/></g><path d="M29.166,43.779l0.001,14.554l-4.167,0l0,-45.833l4.167,0l-0.001,31.279Zm4.167,-5.905l0,-33.707l4.167,-0l0,29.524l-4.167,4.183Zm8.334,-8.366l-0,-21.175l4.166,0l0,17.207c-0.319,0.182 -0.619,0.408 -0.892,0.68l-3.274,3.288Zm8.333,-3.934l0,-4.741l4.167,0l-0,8.726l-3.333,-3.339c-0.256,-0.255 -0.536,-0.471 -0.834,-0.646Zm-33.333,-0.574l4.166,0l0,25l-4.166,0l-0,-25Zm-8.334,-8.333l4.167,-0l0,20.833l-4.167,0l0,-20.833Z"/></g><g><path d="M41.488,40.18l6.4,-6.399l6.375,6.375l-2.055,2.056l-2.176,-2.056l-0,6.031l6.069,-0l-2.055,-2.114l2.055,-2.055l6.399,6.399l-6.375,6.376l-2.056,-2.055l2.056,-2.385l-6.093,0l-0,6.219l2.176,-2.078l2.055,2.055l-6.399,6.399l-6.376,-6.376l2.055,-2.055l2.322,2.055l-0,-6.219l-6.156,0l2.079,2.385l-2.056,2.055l-6.399,-6.399l6.376,-6.376l2.054,2.055l-2.054,2.114l6.156,-0l-0,-6.031l-2.322,2.079l-2.055,-2.055Z" style="fill-rule:nonzero;"/></g></g></svg>