<?xml version="1.0" encoding="UTF-8" standalone="no"?><!DOCTYPE svg PUBLIC "-//W3C//DTD SVG 1.1//EN" "http://www.w3.org/Graphics/SVG/1.1/DTD/svg11.dtd"><svg width="100%" height="100%" viewBox="0 0 67 67" version="1.1" xmlns="http://www.w3.org/2000/svg" xmlns:xlink="http://www.w3.org/1999/xlink" xml:space="preserve" xmlns:serif="http://www.serif.com/" style="fill-rule:evenodd;clip-rule:evenodd;stroke-linejoin:round;stroke-miterlimit:2;"><g id="ObjectIcons_AddRegion_nor" opacity="0.45"><g id="Base-Block" serif:id="Base Block"><path d="M62.468,10.712c0,-4.829 -3.92,-8.75 -8.75,-8.75l-45,0c-4.829,0 -8.75,3.921 -8.75,8.75l0,45c0,4.83 3.921,8.75 8.75,8.75l45,0c4.83,0 8.75,-3.92 8.75,-8.75l0,-45Z" style="fill-opacity:0;"/></g><g><path d="M24.968,12.5l4.167,0l0,45.833l-4.167,0l0,-45.833Zm-8.333,12.5l4.167,0l-0,25l-4.167,0l0,-25Zm16.667,-20.833l4.166,-0l0,33.333l-4.166,0l-0,-33.333Zm-25,12.5l4.166,-0l0,20.833l-4.166,0l-0,-20.833Zm41.666,4.166l4.167,0l0,8.334l-4.167,-0l0,-8.334Zm-8.333,-12.5l4.167,0l-0,20.834l-4.167,-0l0,-20.834Z"/><rect x="58.302" y="25" width="4.167" height="8.333"/><rect x="-0.032" y="25" width="4.167" height="8.212"/></g><path d="M37.5,45.739l8.333,-0l0,-8.239l8.334,0l-0,8.239l8.301,-0l0,8.333l-8.301,0l-0,8.341l-8.334,0l0,-8.341l-8.333,0l-0,-8.333Z"/></g></svg>