<?xml version="1.0" encoding="UTF-8" standalone="no"?><!DOCTYPE svg PUBLIC "-//W3C//DTD SVG 1.1//EN" "http://www.w3.org/Graphics/SVG/1.1/DTD/svg11.dtd"><svg width="100%" height="100%" viewBox="0 0 67 67" version="1.1" xmlns="http://www.w3.org/2000/svg" xmlns:xlink="http://www.w3.org/1999/xlink" xml:space="preserve" xmlns:serif="http://www.serif.com/" style="fill-rule:evenodd;clip-rule:evenodd;stroke-linejoin:round;stroke-miterlimit:2;"><g id="ObjectIcons_DatabaseScanning_dis" opacity="0.3"><path d="M66.816,10.928c-0,-4.829 -3.921,-8.75 -8.75,-8.75l-45,-0c-4.829,-0 -8.75,3.921 -8.75,8.75l-0,45c-0,4.829 3.921,8.75 8.75,8.75l45,-0c4.829,-0 8.75,-3.921 8.75,-8.75l-0,-45Z" style="fill-opacity:0;"/><g><path d="M33.307,33.429l-8.327,8.656l-0,7.866l20.874,0l-0,-7.866l-8.313,-8.657l8.313,-9.203l-0,-7.523l-20.874,0l-0,7.523l8.327,9.204Z" style="fill:#fff;fill-rule:nonzero;"/><rect x="35.693" y="35.493" width="0" height="0" style="fill:#fff;"/><rect x="20.803" y="8.38" width="29.197" height="4.129" style="fill:#fff;"/><rect x="20.803" y="54.176" width="29.197" height="4.134" style="fill:#fff;"/></g></g></svg>