<?xml version="1.0" encoding="UTF-8" standalone="no"?><!DOCTYPE svg PUBLIC "-//W3C//DTD SVG 1.1//EN" "http://www.w3.org/Graphics/SVG/1.1/DTD/svg11.dtd"><svg width="100%" height="100%" viewBox="0 0 67 67" version="1.1" xmlns="http://www.w3.org/2000/svg" xmlns:xlink="http://www.w3.org/1999/xlink" xml:space="preserve" xmlns:serif="http://www.serif.com/" style="fill-rule:evenodd;clip-rule:evenodd;stroke-linejoin:round;stroke-miterlimit:2;"><g id="ObjectIcons_SideChainMix_nor" opacity="0.45"><g id="Base-Block" serif:id="Base Block"><path d="M66.622,9.164c0,-5.139 -4.172,-9.311 -9.311,-9.311l-47.885,-0c-5.139,-0 -9.311,4.172 -9.311,9.311l-0,48.192c-0,5.139 4.172,9.311 9.311,9.311l47.885,-0c5.139,-0 9.311,-4.172 9.311,-9.311l0,-48.192Z" style="fill-opacity:0;"/></g><g><path d="M12.53,41.854l-12.5,-0l0,4.185l12.5,0l0,-4.185Zm0,-8.372l-12.5,-0l0,4.186l12.5,-0l0,-4.186Zm0,-8.372l-12.5,0l0,4.186l12.5,-0l0,-4.186Z" style="fill:#fff;"/><path d="M54.159,29.15l12.5,0l0,-4.186l-12.5,0l0,4.186Zm0,8.372l12.5,0l0,-4.186l-12.5,0l0,4.186Zm0,8.372l12.5,-0l0,-4.186l-12.5,-0l0,4.186Z" style="fill:#fff;"/><g><rect x="16.652" y="37.5" width="4.14" height="4.186" style="fill:#fff;fill-opacity:0.5;"/><rect x="41.702" y="37.481" width="4.16" height="4.186" style="fill:#fff;fill-opacity:0.5;"/></g><path d="M33.369,6.051c14.947,0 27.083,12.192 27.083,27.209c-0,15.016 -12.136,27.208 -27.083,27.208c-14.948,0 -27.084,-12.192 -27.084,-27.208c0,-15.017 12.136,-27.209 27.084,-27.209Zm-12.536,39.782l0,-15.287c0,-1.017 0.091,-5.572 2.116,-5.572c2.142,0 2.091,4.555 2.091,5.572l-0,11.121c-0,3.049 0.037,8.404 6.285,8.404c6.252,0 6.193,-5.355 6.193,-8.404l-0,-15.021c-0,-1.016 0.066,-5.857 2.185,-5.857c2.048,0 2.078,4.841 2.078,5.857l-0,19.187l4.166,0l0,-19.655c0,-3.05 -0.03,-9.516 -6.244,-9.516c-6.286,0 -6.352,6.934 -6.352,9.984l0,15.021c0,-0 0.06,4.194 -2.026,4.166c-2.081,-0.027 -2.118,-3.15 -2.118,-4.166l-0,-11.121c-0,-1.115 -0.067,-9.757 -6.258,-9.757c-6.191,0 -6.282,6.707 -6.282,9.757l-0,15.287l4.166,0Z" style="fill:#fff;"/></g></g></svg>