<?xml version="1.0" encoding="UTF-8" standalone="no"?><!DOCTYPE svg PUBLIC "-//W3C//DTD SVG 1.1//EN" "http://www.w3.org/Graphics/SVG/1.1/DTD/svg11.dtd"><svg width="100%" height="100%" viewBox="0 0 63 67" version="1.1" xmlns="http://www.w3.org/2000/svg" xmlns:xlink="http://www.w3.org/1999/xlink" xml:space="preserve" xmlns:serif="http://www.serif.com/" style="fill-rule:evenodd;clip-rule:evenodd;stroke-linejoin:round;stroke-miterlimit:2;"><g id="ObjectIcons_PropHighShelfSend_dis" opacity="0.3"><g id="Icons"><g id="Base-Block" serif:id="Base Block"><rect x="-0.878" y="4.167" width="62.5" height="62.5" style="fill-opacity:0;"/></g><path d="M-0.125,21.392l27.985,-0.116l10.734,-15.154c1.328,-1.875 3.482,-2.989 5.779,-2.989l17.886,0l-0,5.661l-17.886,-0c-0.461,-0 -0.893,0.223 -1.16,0.599l-10.46,14.768l8.679,12.254l-6.852,0.118l-6.716,-9.481l-27.977,0l-0.012,0l-0.011,-5.66l0.011,-0Z" style="fill:#fff;"/><path d="M41.425,48.844l-12.5,0l0,-4.166l33.334,-0l-0,4.166l-16.667,0l0,6.105l2.232,2.229l14.435,-0l-0,4.166l-16.667,0l-4.167,-4.166l0,-8.334Z" style="fill:#fff;"/></g></g></svg>