<?xml version="1.0" encoding="UTF-8" standalone="no"?><!DOCTYPE svg PUBLIC "-//W3C//DTD SVG 1.1//EN" "http://www.w3.org/Graphics/SVG/1.1/DTD/svg11.dtd"><svg width="100%" height="100%" viewBox="0 0 67 67" version="1.1" xmlns="http://www.w3.org/2000/svg" xmlns:xlink="http://www.w3.org/1999/xlink" xml:space="preserve" xmlns:serif="http://www.serif.com/" style="fill-rule:evenodd;clip-rule:evenodd;stroke-linejoin:round;stroke-miterlimit:2;"><g id="Filter_AudioSimilarity_Disabled" opacity="0.3"><rect id="Transparent-BG" serif:id="Transparent BG" x="3.968" y="4.161" width="62.5" height="62.5" style="fill:#fff;fill-opacity:0;"/><g opacity="0.45"><path d="M33.331,33.416l4.158,0l-0,29.148l-4.158,0l-0,-29.148Zm8.324,-4.163l4.165,0l0,24.86l-4.165,0l-0,-24.86Zm16.69,8.357l4.149,-0l0,12.444l-4.149,-0l-0,-12.444Zm-8.351,-4.194l4.178,0l-0,12.405l-4.178,-0l-0,-12.405Z" style="fill:#fff;"/><path d="M20.895,25.35l-0,20.916l8.206,11.067l-0,-31.983l17.143,-17.026l-0,-4.163l-42.106,-0l0,4.163l16.757,17.026Z" style="fill:#fff;"/></g></g></svg>