<?xml version="1.0" encoding="UTF-8" standalone="no"?><!DOCTYPE svg PUBLIC "-//W3C//DTD SVG 1.1//EN" "http://www.w3.org/Graphics/SVG/1.1/DTD/svg11.dtd"><svg width="100%" height="100%" viewBox="0 0 67 67" version="1.1" xmlns="http://www.w3.org/2000/svg" xmlns:xlink="http://www.w3.org/1999/xlink" xml:space="preserve" xmlns:serif="http://www.serif.com/" style="fill-rule:evenodd;clip-rule:evenodd;stroke-linejoin:round;stroke-miterlimit:2;"><g id="ObjectIcons_Database_dis" opacity="0.3"><g id="Base-Block" serif:id="Base Block"><path d="M66.635,10.928c0,-4.829 -3.921,-8.75 -8.75,-8.75l-45,-0c-4.829,-0 -8.75,3.921 -8.75,8.75l0,45c0,4.829 3.921,8.75 8.75,8.75l45,-0c4.829,-0 8.75,-3.921 8.75,-8.75l0,-45Z" style="fill-opacity:0;"/></g><path d="M33.303,12.594l33.332,0l0,45.834l-62.497,-0l0,-54.167l29.165,0l0,8.333Zm4.934,16.904c2.283,1.837 3.616,3.854 3.66,6.002c0.045,2.168 -1.225,4.339 -3.708,6.475l2.518,2.927c3.575,-3.074 5.115,-6.36 5.051,-9.482c-0.065,-3.141 -1.76,-6.242 -5.1,-8.93l-2.421,3.008Zm2.937,-8.566c5.748,4.753 8.976,9.541 9.087,14.546c0.11,5.009 -2.916,10.065 -9.111,15.359l2.509,2.935c7.336,-6.269 10.593,-12.447 10.462,-18.379c-0.131,-5.937 -3.667,-11.798 -10.486,-17.437l-2.461,2.976Zm-16.498,8.236l-7.988,0l-0,12.356l7.988,-0l12.834,11.869l-0,-35.816l-12.834,11.591Z" style="fill:#fff;"/></g></svg>