<?xml version="1.0" encoding="UTF-8" standalone="no"?><!DOCTYPE svg PUBLIC "-//W3C//DTD SVG 1.1//EN" "http://www.w3.org/Graphics/SVG/1.1/DTD/svg11.dtd"><svg width="100%" height="100%" viewBox="0 0 67 67" version="1.1" xmlns="http://www.w3.org/2000/svg" xmlns:xlink="http://www.w3.org/1999/xlink" xml:space="preserve" xmlns:serif="http://www.serif.com/" style="fill-rule:evenodd;clip-rule:evenodd;stroke-linejoin:round;stroke-miterlimit:2;"><g id="ObjectIcons_SideChainMix_dis" opacity="0.3"><g id="Base-Block" serif:id="Base Block"><path d="M66.801,9.311c-0,-5.139 -4.172,-9.311 -9.311,-9.311l-47.885,0c-5.139,0 -9.311,4.172 -9.311,9.311l-0,48.192c-0,5.139 4.172,9.311 9.311,9.311l47.885,-0c5.139,-0 9.311,-4.172 9.311,-9.311l-0,-48.192Z" style="fill-opacity:0;"/></g><g><path d="M12.709,42.001l-12.5,-0l0,4.186l12.5,-0l0,-4.186Zm0,-8.372l-12.5,0l0,4.186l12.5,-0l0,-4.186Zm0,-8.372l-12.5,0l0,4.186l12.5,0l0,-4.186Z" style="fill:#fff;"/><path d="M54.338,29.298l12.5,-0l-0,-4.186l-12.5,-0l-0,4.186Zm-0,8.371l12.5,0l-0,-4.186l-12.5,0l-0,4.186Zm-0,8.372l12.5,0l-0,-4.186l-12.5,0l-0,4.186Z" style="fill:#fff;"/><g><rect x="16.831" y="37.647" width="4.14" height="4.186" style="fill:#fff;fill-opacity:0.5;"/><rect x="41.88" y="37.628" width="4.16" height="4.186" style="fill:#fff;fill-opacity:0.5;"/></g><path d="M33.547,6.199c14.948,-0 27.084,12.191 27.084,27.208c-0,15.017 -12.136,27.208 -27.084,27.208c-14.947,0 -27.083,-12.191 -27.083,-27.208c-0,-15.017 12.136,-27.208 27.083,-27.208Zm-12.535,39.782l0,-15.288c0,-1.017 0.091,-5.571 2.116,-5.571c2.142,-0 2.091,4.554 2.091,5.571l-0,11.121c-0,3.05 0.037,8.405 6.285,8.405c6.252,-0 6.193,-5.355 6.193,-8.405l-0,-15.021c-0,-1.016 0.066,-5.856 2.185,-5.856c2.047,-0 2.078,4.84 2.078,5.856l-0,19.188l4.166,-0l0,-19.656c0,-3.05 -0.03,-9.515 -6.244,-9.515c-6.286,-0 -6.352,6.934 -6.352,9.983l-0,15.021c-0,-0 0.059,4.194 -2.026,4.167c-2.081,-0.028 -2.119,-3.15 -2.119,-4.167l0,-11.121c0,-1.114 -0.066,-9.756 -6.257,-9.756c-6.192,-0 -6.283,6.706 -6.283,9.756l0,15.288l4.167,-0Z" style="fill:#fff;"/></g></g></svg>