<?xml version="1.0" encoding="UTF-8" standalone="no"?><!DOCTYPE svg PUBLIC "-//W3C//DTD SVG 1.1//EN" "http://www.w3.org/Graphics/SVG/1.1/DTD/svg11.dtd"><svg width="100%" height="100%" viewBox="0 0 84 84" version="1.1" xmlns="http://www.w3.org/2000/svg" xmlns:xlink="http://www.w3.org/1999/xlink" xml:space="preserve" xmlns:serif="http://www.serif.com/" style="fill-rule:evenodd;clip-rule:evenodd;stroke-linejoin:round;stroke-miterlimit:2;"><g id="_3DToolBar_TransparentTriangles_Disabled" serif:id="3DToolBar_TransparentTriangles_Disabled" opacity="0.3"><rect id="Transparent-BG" serif:id="Transparent BG" x="1.182" y="2.67" width="79.167" height="79.167" style="fill:none;"/><g id="Calque-15" serif:id="Calque 15"><path d="M76.201,70.788l-67.624,-0l34.958,-59.148l32.666,59.148Zm-32.789,-50.751c0,-0 -27.532,46.584 -27.532,46.584c0,0 53.26,0 53.26,-0l-25.728,-46.584Z" style="fill:#fff;"/><path d="M76.201,74.954l-67.624,0c-1.496,0 -2.877,-0.802 -3.619,-2.101c-0.741,-1.3 -0.729,-2.897 0.032,-4.185l34.958,-59.148c0.761,-1.287 2.153,-2.068 3.648,-2.046c1.495,0.022 2.863,0.843 3.586,2.152l32.666,59.147c0.713,1.291 0.691,2.862 -0.059,4.132c-0.749,1.27 -2.114,2.049 -3.588,2.049Zm-0,-4.166l-32.666,-59.148l-34.958,59.148l67.624,-0Zm-32.789,-50.751l25.728,46.584c-0,0 -53.26,0 -53.26,0c0,-0 27.532,-46.584 27.532,-46.584Zm-20.229,42.417l38.896,0l-18.789,-34.021l-20.107,34.021Z" style="fill:#222;"/></g></g></svg>