<?xml version="1.0" encoding="UTF-8" standalone="no"?><!DOCTYPE svg PUBLIC "-//W3C//DTD SVG 1.1//EN" "http://www.w3.org/Graphics/SVG/1.1/DTD/svg11.dtd"><svg width="100%" height="100%" viewBox="0 0 84 84" version="1.1" xmlns="http://www.w3.org/2000/svg" xmlns:xlink="http://www.w3.org/1999/xlink" xml:space="preserve" xmlns:serif="http://www.serif.com/" style="fill-rule:evenodd;clip-rule:evenodd;stroke-linejoin:round;stroke-miterlimit:2;"><g id="_3DToolBar_GameUnitsPerMeters_Checked" serif:id="3DToolBar_GameUnitsPerMeters_Checked"><rect id="Transparent-BG" serif:id="Transparent BG" x="1.59" y="2.218" width="79.167" height="79.167" style="fill:none;"/><g><path d="M17.04,59.537l6.547,7.288l-2.948,2.648l-10.972,-12.215l11.122,-11.122l2.802,2.802l-1.401,1.401l-5.236,5.236l48.313,-0l-7.113,-7.113l2.802,-2.802l11.686,11.687l-11.686,11.686l-2.802,-2.802l1.401,-1.401l5.293,-5.293l-47.808,0Z" style="fill:#f7f7f7;"/><path d="M26.947,51.408l28.261,0c-1.627,-1.627 -1.627,-4.265 -0,-5.892l2.802,-2.802c1.627,-1.627 4.265,-1.627 5.892,-0l11.687,11.686c1.627,1.628 1.627,4.266 -0,5.893l-11.687,11.686c-1.627,1.628 -4.265,1.628 -5.892,0l-2.802,-2.802c0.781,0.782 1.841,1.221 2.946,1.221l-2.73,-6.694l-29.04,-0l0.302,0.336c1.538,1.712 1.397,4.347 -0.315,5.885l-2.948,2.648c-1.712,1.537 -4.346,1.396 -5.884,-0.316l-10.972,-12.215c-1.48,-1.647 -1.412,-4.164 0.154,-5.73l11.121,-11.122c1.628,-1.627 4.266,-1.627 5.893,0l2.802,2.802c1.192,1.192 1.548,2.984 0.903,4.541c-0.13,0.315 -0.297,0.608 -0.493,0.875Zm31.611,15.227l0.583,1.381l0.004,-0.01l-0.555,-1.339l2.366,2.366l11.686,-11.686l-11.686,-11.687l-2.802,2.802l7.113,7.113l-48.313,-0l5.236,-5.236l1.401,-1.401l-2.802,-2.802l-11.122,11.122l10.972,12.215l2.948,-2.648l-6.547,-7.288l47.808,0l-5.293,5.293l-1.401,1.401l0.404,0.404Zm-1.237,-2.931l0.912,2.16l0.017,-0.018l-0.887,-2.142l-0.042,-0Z" style="fill:#222;"/><path d="M72.459,38.874l-62.537,0l0,-24.93l62.537,-0l0,24.93Zm-8.236,-4.166l4.07,-0l-0,-16.598l-54.204,0c0,0 0,16.598 0,16.598l4.136,-0l0,-8.418l4.167,-0l-0,8.418l4.199,-0l0,-8.418l4.167,-0l-0,8.418l4.2,-0l-0,-8.418l4.166,-0l0,8.418l4.2,-0l-0,-8.418l4.166,-0l0,8.418l4.2,-0l-0,-8.418l4.166,-0l0,8.418l4.2,-0l-0,-8.418l4.167,-0l-0,8.418Z" style="fill:#fff;"/><path d="M72.459,43.041l-62.537,-0c-2.301,-0 -4.166,-1.865 -4.166,-4.167l-0,-24.93c-0,-2.302 1.865,-4.167 4.166,-4.167l62.537,-0c2.302,-0 4.167,1.865 4.167,4.167l-0,24.93c-0,2.302 -1.865,4.167 -4.167,4.167Zm0,-4.167l0,-24.93l-62.537,-0l0,24.93l62.537,0Zm-8.236,-4.166l-0,-8.418l-4.167,-0l-0,8.418l-4.2,-0l0,-8.418l-4.166,-0l-0,8.418l-4.2,-0l0,-8.418l-4.166,-0l-0,8.418l-4.2,-0l0,-8.418l-4.166,-0l-0,8.418l-4.2,-0l-0,-8.418l-4.167,-0l0,8.418l-4.199,-0l-0,-8.418l-4.167,-0l0,8.418l-4.136,-0c0,-0 0,-16.598 0,-16.598l54.204,0l-0,16.598l-4.07,-0Zm-23.972,-12.431c0.344,0.096 0.671,0.236 0.973,0.413c0.302,-0.177 0.629,-0.317 0.973,-0.413l-1.946,-0Zm-8.367,-0c0.345,0.096 0.671,0.236 0.974,0.413c0.302,-0.177 0.629,-0.317 0.973,-0.413l-1.947,-0Zm-8.366,-0c0.345,0.096 0.671,0.236 0.974,0.413c0.302,-0.177 0.628,-0.317 0.973,-0.413l-1.947,-0Zm33.465,-0c0.344,0.096 0.671,0.236 0.973,0.413c0.302,-0.177 0.629,-0.317 0.974,-0.413l-1.947,-0Zm-8.366,-0c0.344,0.096 0.671,0.236 0.973,0.413c0.302,-0.177 0.629,-0.317 0.973,-0.413l-1.946,-0Z" style="fill:#222;"/></g></g></svg>