<?xml version="1.0" encoding="UTF-8" standalone="no"?><!DOCTYPE svg PUBLIC "-//W3C//DTD SVG 1.1//EN" "http://www.w3.org/Graphics/SVG/1.1/DTD/svg11.dtd"><svg width="100%" height="100%" viewBox="0 0 84 84" version="1.1" xmlns="http://www.w3.org/2000/svg" xmlns:xlink="http://www.w3.org/1999/xlink" xml:space="preserve" xmlns:serif="http://www.serif.com/" style="fill-rule:evenodd;clip-rule:evenodd;stroke-linejoin:round;stroke-miterlimit:2;"><g id="_3DToolBar_GameObjectName_Normal" serif:id="3DToolBar_GameObjectName_Normal" opacity="0.45"><rect id="Transparent-BG" serif:id="Transparent BG" x="3.585" y="3.731" width="79.167" height="79.167" style="fill:none;"/><g id="Calque-11" serif:id="Calque 11"><path d="M76.793,29.208l0,47.104l-47.548,0l-19.132,-19.477l0.466,-47.085l46.756,-0l19.458,19.458Zm-4.776,1.116l-16.408,-16.408c0,0 -30.718,0 -38.914,0l16.407,16.408l38.915,-0Zm-57.351,-12.543l-0.37,37.367c0,-0 16.696,16.997 16.696,16.998l0.583,-0l-0,-37.457l-16.909,-16.908Zm57.96,17.083l-33.054,-0l-0,12.268l4.017,0l0,-8.426l8.561,0l-0,29.426l-4.117,-0l-0,3.847l16.636,-0l-0,-3.847l-4.231,-0l0,-29.426l8.553,0l0,8.426l3.635,0l0,-12.268Z" style="fill:#fff;"/><path d="M80.96,29.208l-0,47.104c-0,2.301 -1.866,4.167 -4.167,4.167l-47.548,-0c-1.118,-0 -2.189,-0.449 -2.973,-1.247l-19.132,-19.477c-0.775,-0.79 -1.205,-1.855 -1.194,-2.961l0.466,-47.086c0.023,-2.285 1.882,-4.125 4.167,-4.125l46.756,0c1.105,0 2.165,0.439 2.946,1.22l19.458,19.458c0.782,0.782 1.221,1.841 1.221,2.947Zm-4.167,-0l-19.458,-19.458l-46.756,-0l-0.466,47.085l19.132,19.477l47.548,0l0,-47.104Zm-62.127,-11.427l16.909,16.908l-0,37.457l-0.583,-0c0,-0.001 -16.696,-16.998 -16.696,-16.998l0.37,-37.367Zm12.742,44.769l-0,-26.135l-8.674,-8.674l-0.254,25.72l8.928,9.089Zm44.609,-32.226l-38.915,-0l-16.407,-16.408l38.914,0l16.408,16.408Zm-10.059,-4.167l-8.075,-8.074l-27.129,0l8.074,8.074l27.13,0Zm10.668,8.707l0,12.268l-3.635,0l0,-8.426l-8.553,0l0,29.426l4.231,-0l-0,3.847l-16.636,-0l-0,-3.847l4.117,-0l-0,-29.426l-8.561,0l0,8.426l-4.017,0l-0,-12.268l33.054,-0Z" style="fill:#222;"/></g></g></svg>