<?xml version="1.0" encoding="UTF-8" standalone="no"?><!DOCTYPE svg PUBLIC "-//W3C//DTD SVG 1.1//EN" "http://www.w3.org/Graphics/SVG/1.1/DTD/svg11.dtd"><svg width="100%" height="100%" viewBox="0 0 84 84" version="1.1" xmlns="http://www.w3.org/2000/svg" xmlns:xlink="http://www.w3.org/1999/xlink" xml:space="preserve" xmlns:serif="http://www.serif.com/" style="fill-rule:evenodd;clip-rule:evenodd;stroke-linecap:square;stroke-miterlimit:5;"><g id="_3DToolBar_WorldAxis_Checked" serif:id="3DToolBar_WorldAxis_Checked"><rect id="Transparent-BG" serif:id="Transparent BG" x="1.813" y="1.282" width="79.167" height="79.167" style="fill:none;"/><g id="Axis"><g><circle cx="28.629" cy="28.438" r="16.886" style="fill:#222;"/><circle cx="28.629" cy="28.438" r="18.97" style="fill:#222;"/><path d="M28.629,7.385c11.619,-0 21.053,9.433 21.053,21.053c-0,11.619 -9.434,21.053 -21.053,21.053c-11.62,-0 -21.054,-9.434 -21.054,-21.053c0,-11.62 9.434,-21.053 21.054,-21.053Zm-0,4.166c-9.32,0 -16.887,7.567 -16.887,16.887c0,9.32 7.567,16.886 16.887,16.886c9.319,0 16.886,-7.566 16.886,-16.886c-0,-9.32 -7.567,-16.887 -16.886,-16.887Z" style="fill:#f7f7f7;"/><path d="M28.629,3.218c13.919,-0 25.219,11.301 25.219,25.22c0,13.919 -11.3,25.22 -25.219,25.22c-13.92,-0 -25.22,-11.301 -25.22,-25.22c-0,-13.919 11.3,-25.22 25.22,-25.22Zm-0,4.167c-11.62,-0 -21.054,9.433 -21.054,21.053c0,11.619 9.434,21.053 21.054,21.053c11.619,-0 21.053,-9.434 21.053,-21.053c-0,-11.62 -9.434,-21.053 -21.053,-21.053Zm-0,4.166c9.319,0 16.886,7.567 16.886,16.887c-0,9.32 -7.567,16.886 -16.886,16.886c-9.32,0 -16.887,-7.566 -16.887,-16.886c0,-9.32 7.567,-16.887 16.887,-16.887Zm-0,4.167c-7.021,-0 -12.72,5.7 -12.72,12.72c-0,7.02 5.699,12.72 12.72,12.72c7.02,-0 12.719,-5.7 12.719,-12.72c0,-7.02 -5.699,-12.72 -12.719,-12.72Z" style="fill:#222;"/><g><path d="M24.574,43.503l0,-30.131" style="fill:none;fill-rule:nonzero;stroke:#f7f7f7;stroke-width:3.96px;"/><path d="M32.683,43.503l0,-30.131" style="fill:none;fill-rule:nonzero;stroke:#f7f7f7;stroke-width:3.96px;"/></g><g><path d="M13.616,24.23l30.025,0.154" style="fill:none;fill-rule:nonzero;stroke:#f7f7f7;stroke-width:3.96px;"/><path d="M13.616,32.646l30.025,-0" style="fill:none;fill-rule:nonzero;stroke:#f7f7f7;stroke-width:3.96px;"/></g></g><g><path d="M53.917,56.626l-0,-23.29" style="fill:none;fill-rule:nonzero;"/><path d="M54.198,58.929l-21.295,12.297l-1.982,-3.432l21.015,-12.135l-0,-24.304l3.962,-0l0,23.972l20.868,12.622l-2.05,3.391l-20.518,-12.411Z" style="fill:#f7f7f7;"/><path d="M54.148,63.769l-19.162,11.065c-1.992,1.151 -4.541,0.468 -5.691,-1.525l-1.982,-3.431c-1.151,-1.993 -0.468,-4.541 1.525,-5.692c-0,-0 18.931,-10.932 18.931,-10.932l0,-21.899c0,-2.301 1.866,-4.167 4.167,-4.167l3.962,0c2.301,0 4.167,1.866 4.167,4.167l-0,21.622l18.858,11.407c1.969,1.191 2.6,3.753 1.409,5.722l-2.051,3.39c-1.191,1.969 -3.753,2.6 -5.722,1.409l-18.411,-11.136Zm0.05,-4.84l20.518,12.411l2.05,-3.391l-20.868,-12.622l0,-23.972l-3.962,-0l-0,24.304l-21.015,12.135l1.982,3.432l21.295,-12.297Z" style="fill:#222;"/><path d="M52.886,57.398l-19.258,11.121" style="fill:none;fill-rule:nonzero;"/><path d="M54.158,56.59l19.888,12.029" style="fill:none;fill-rule:nonzero;"/></g></g></g></svg>