<?xml version="1.0" encoding="UTF-8" standalone="no"?><!DOCTYPE svg PUBLIC "-//W3C//DTD SVG 1.1//EN" "http://www.w3.org/Graphics/SVG/1.1/DTD/svg11.dtd"><svg width="100%" height="100%" viewBox="0 0 84 84" version="1.1" xmlns="http://www.w3.org/2000/svg" xmlns:xlink="http://www.w3.org/1999/xlink" xml:space="preserve" xmlns:serif="http://www.serif.com/" style="fill-rule:evenodd;clip-rule:evenodd;stroke-linejoin:round;stroke-miterlimit:2;"><g id="_3DToolBar_RadiusOpacity_CheckedDisabled" serif:id="3DToolBar_RadiusOpacity_CheckedDisabled" opacity="0.3"><rect id="Transparent-BG" serif:id="Transparent BG" x="4.673" y="4.884" width="79.167" height="79.167" style="fill:none;"/><g id="Calque-1" serif:id="Calque 1"><g opacity="0"><path d="M70.941,17.281c0,-4.829 -3.921,-8.75 -8.75,-8.75l-45,0c-4.829,0 -8.75,3.921 -8.75,8.75l0,45c0,4.83 3.921,8.75 8.75,8.75l45,0c4.829,0 8.75,-3.92 8.75,-8.75l0,-45Z"/></g><g><path d="M45.941,52.903c-1.9,0.909 -4.004,1.463 -6.25,1.463c-8.046,-0 -14.583,-6.542 -14.583,-14.583c-0,-8.046 6.537,-14.584 14.583,-14.584c8.046,0 14.583,6.538 14.583,14.584c0,2.245 -0.55,4.345 -1.462,6.25l6.617,-0c0.629,-1.988 1.066,-4.059 1.066,-6.25c0,-11.475 -9.337,-20.805 -20.804,-20.805c-11.467,0 -20.804,9.33 -20.804,20.805c-0,11.47 9.337,20.8 20.804,20.8c2.192,-0 4.263,-0.434 6.25,-1.063l0,-6.617Z" style="fill:#fff;fill-rule:nonzero;"/><path d="M50.108,52.903l-0,6.617c-0,1.817 -1.177,3.424 -2.909,3.973c-2.387,0.755 -4.876,1.256 -7.508,1.256c-13.763,0 -24.971,-11.198 -24.971,-24.966c0,-13.774 11.208,-24.971 24.971,-24.971c13.763,-0 24.971,11.197 24.971,24.971c-0,2.631 -0.506,5.121 -1.261,7.507c-0.548,1.732 -2.156,2.909 -3.972,2.909l-6.617,0c-1.432,0 -2.763,-0.735 -3.526,-1.946c-0.763,-1.212 -0.85,-2.73 -0.232,-4.021c0.65,-1.356 1.054,-2.85 1.054,-4.449c-0,-5.747 -4.67,-10.417 -10.417,-10.417c-5.747,-0 -10.417,4.67 -10.417,10.417c0,5.744 4.67,10.416 10.417,10.416c1.601,0 3.098,-0.407 4.453,-1.055c1.291,-0.617 2.808,-0.528 4.019,0.235c1.21,0.763 1.945,2.094 1.945,3.524Zm-4.167,0c-1.9,0.909 -4.004,1.463 -6.25,1.463c-8.046,-0 -14.583,-6.542 -14.583,-14.583c-0,-8.046 6.537,-14.584 14.583,-14.584c8.046,0 14.583,6.538 14.583,14.584c0,2.245 -0.55,4.345 -1.462,6.25l6.617,-0c0.629,-1.988 1.066,-4.059 1.066,-6.25c0,-11.475 -9.337,-20.805 -20.804,-20.805c-11.467,0 -20.804,9.33 -20.804,20.805c-0,11.47 9.337,20.8 20.804,20.8c2.192,-0 4.263,-0.434 6.25,-1.063l0,-6.617Z" style="fill:#222;"/><path d="M45.941,66.108c-2.008,0.479 -4.096,0.758 -6.25,0.758c-14.933,-0 -27.083,-12.15 -27.083,-27.083c-0,-14.934 12.15,-27.084 27.083,-27.084c14.933,0 27.083,12.15 27.083,27.084c0,2.154 -0.279,4.237 -0.758,6.25l4.296,-0c0.412,-2.021 0.629,-4.113 0.629,-6.25c0,-17.234 -14.017,-31.25 -31.25,-31.25c-17.233,-0 -31.25,14.016 -31.25,31.25c0,17.233 14.017,31.25 31.25,31.25c2.142,-0 4.229,-0.221 6.25,-0.63l0,-4.295Z" style="fill:#fff;fill-rule:nonzero;"/><path d="M50.108,66.108l-0,4.295c-0,1.984 -1.398,3.692 -3.342,4.085c-2.287,0.462 -4.651,0.711 -7.075,0.711c-19.531,0 -35.417,-15.885 -35.417,-35.416c0,-19.531 15.886,-35.417 35.417,-35.417c19.531,-0 35.417,15.886 35.417,35.417c-0,2.422 -0.246,4.793 -0.714,7.083c-0.396,1.94 -2.102,3.333 -4.082,3.333l-4.296,0c-1.275,0 -2.48,-0.583 -3.27,-1.584c-0.79,-1 -1.079,-2.307 -0.783,-3.547c0.405,-1.702 0.645,-3.464 0.645,-5.285c-0,-12.636 -10.281,-22.917 -22.917,-22.917c-12.636,-0 -22.917,10.281 -22.917,22.917c0,12.636 10.281,22.916 22.917,22.916c1.821,0 3.585,-0.239 5.283,-0.644c1.24,-0.296 2.548,-0.008 3.549,0.782c1.001,0.79 1.585,1.995 1.585,3.271Zm-4.167,-0c-2.008,0.479 -4.096,0.758 -6.25,0.758c-14.933,-0 -27.083,-12.15 -27.083,-27.083c-0,-14.934 12.15,-27.084 27.083,-27.084c14.933,0 27.083,12.15 27.083,27.084c0,2.154 -0.279,4.237 -0.758,6.25l4.296,-0c0.412,-2.021 0.629,-4.113 0.629,-6.25c0,-17.234 -14.017,-31.25 -31.25,-31.25c-17.233,-0 -31.25,14.016 -31.25,31.25c0,17.233 14.017,31.25 31.25,31.25c2.142,-0 4.229,-0.221 6.25,-0.63l0,-4.295Z" style="fill:#222;"/></g><path d="M83.441,46.031l0,33.334c0,2.301 -1.865,4.166 -4.167,4.166l-33.333,0c-2.301,0 -4.167,-1.865 -4.167,-4.166l0,-33.334c0,-2.301 1.866,-4.166 4.167,-4.166l33.333,-0c2.302,-0 4.167,1.865 4.167,4.166Zm-4.167,0l-33.333,0l0,33.334l33.333,-0l0,-33.334Z" style="fill:#222;"/><rect x="45.941" y="46.031" width="33.333" height="33.333" style="fill:#222;"/><g><g opacity="0.5"><rect x="57.846" y="46.031" width="9.524" height="9.524" style="fill:#fff;"/></g><g opacity="0.5"><rect x="69.751" y="57.936" width="9.524" height="9.524" style="fill:#fff;"/></g><rect x="45.941" y="69.84" width="9.525" height="9.525" style="fill:#fff;"/><g opacity="0.5"><rect x="57.846" y="69.841" width="9.524" height="9.524" style="fill:#fff;"/></g><rect x="69.749" y="46.031" width="9.525" height="9.525" style="fill:#fff;"/><rect x="45.941" y="46.031" width="9.525" height="9.525" style="fill:#fff;"/><rect x="57.845" y="57.936" width="9.525" height="9.525" style="fill:#fff;"/><g opacity="0.5"><rect x="45.941" y="57.936" width="9.524" height="9.524" style="fill:#fff;"/></g><rect x="69.749" y="69.84" width="9.525" height="9.525" style="fill:#fff;"/></g></g></g></svg>