<?xml version="1.0" encoding="UTF-8" standalone="no"?><!DOCTYPE svg PUBLIC "-//W3C//DTD SVG 1.1//EN" "http://www.w3.org/Graphics/SVG/1.1/DTD/svg11.dtd"><svg width="100%" height="100%" viewBox="0 0 84 84" version="1.1" xmlns="http://www.w3.org/2000/svg" xmlns:xlink="http://www.w3.org/1999/xlink" xml:space="preserve" xmlns:serif="http://www.serif.com/" style="fill-rule:evenodd;clip-rule:evenodd;stroke-linejoin:round;stroke-miterlimit:2;"><g id="_3DToolBar_DiffractionPaths_Normal" serif:id="3DToolBar_DiffractionPaths_Normal" opacity="0.45"><rect id="Transparent-BG" serif:id="Transparent BG" x="1.464" y="3.694" width="79.167" height="79.167" style="fill:none;"/><g id="Calque-6" serif:id="Calque 6"><path d="M11.659,37.818c3.408,-4.592 5.629,-7.655 10.079,-11.155c4.213,-3.308 8.917,-5.566 14.209,-5.504c9.97,0.117 12.804,5.279 19.429,12.625l3.091,-2.796c-7.566,-8.395 -11.075,-13.866 -22.47,-14.004c-12.188,-0.141 -20.255,8.338 -27.684,18.346l3.346,2.488Z" style="fill:#fff;"/><path d="M9.173,41.161l-3.346,-2.487c-1.846,-1.372 -2.23,-3.981 -0.859,-5.827c8.27,-11.142 17.51,-20.187 31.078,-20.029c12.823,0.155 17.002,5.934 25.517,15.381c1.538,1.707 1.404,4.338 -0.301,5.88l-3.092,2.796c-0.82,0.742 -1.902,1.127 -3.006,1.071c-1.105,-0.057 -2.142,-0.55 -2.882,-1.371c-5.683,-6.301 -7.832,-11.149 -16.384,-11.249c-4.331,-0.052 -8.138,1.906 -11.585,4.613c-4.123,3.243 -6.15,6.108 -9.308,10.362c-0.659,0.888 -1.644,1.477 -2.738,1.639c-1.094,0.161 -2.207,-0.119 -3.094,-0.779Zm2.486,-3.343c3.408,-4.592 5.629,-7.655 10.079,-11.155c4.213,-3.308 8.917,-5.566 14.209,-5.504c9.97,0.117 12.804,5.279 19.429,12.625l3.091,-2.796c-7.566,-8.395 -11.075,-13.866 -22.47,-14.004c-12.188,-0.141 -20.255,8.338 -27.684,18.346l3.346,2.488Z" style="fill:#222;"/><rect x="33.393" y="29.303" width="4.167" height="41.547" style="fill:#e2e2e2;"/><path d="M41.726,29.303l0,41.547c0,2.301 -1.865,4.166 -4.166,4.166l-4.167,0c-2.301,0 -4.167,-1.865 -4.167,-4.166l0,-41.547c0,-2.301 1.866,-4.167 4.167,-4.167l4.167,0c2.301,0 4.166,1.866 4.166,4.167Zm-4.166,0l-4.167,0l0,41.547l4.167,-0l-0,-41.547Z" style="fill:#222;"/><path d="M64.566,33.651c3.45,-0 6.25,2.8 6.25,6.25c-0,3.45 -2.8,6.25 -6.25,6.25c-3.45,-0 -6.25,-2.8 -6.25,-6.25c-0,-3.45 2.8,-6.25 6.25,-6.25Z" style="fill:#fff;"/><path d="M64.566,29.484c5.75,0 10.416,4.667 10.416,10.417c0,5.75 -4.666,10.417 -10.416,10.417c-5.75,-0 -10.417,-4.667 -10.417,-10.417c0,-5.75 4.667,-10.417 10.417,-10.417Zm-0,4.167c-3.45,-0 -6.25,2.8 -6.25,6.25c-0,3.45 2.8,6.25 6.25,6.25c3.45,-0 6.25,-2.8 6.25,-6.25c-0,-3.45 -2.8,-6.25 -6.25,-6.25Z" style="fill:#222;"/></g></g></svg>