<?xml version="1.0" encoding="UTF-8" standalone="no"?><!DOCTYPE svg PUBLIC "-//W3C//DTD SVG 1.1//EN" "http://www.w3.org/Graphics/SVG/1.1/DTD/svg11.dtd"><svg width="100%" height="100%" viewBox="0 0 84 84" version="1.1" xmlns="http://www.w3.org/2000/svg" xmlns:xlink="http://www.w3.org/1999/xlink" xml:space="preserve" xmlns:serif="http://www.serif.com/" style="fill-rule:evenodd;clip-rule:evenodd;stroke-linejoin:round;stroke-miterlimit:2;"><g id="_3DToolBar_InaudiblePaths_CheckedDisabled" serif:id="3DToolBar_InaudiblePaths_CheckedDisabled" opacity="0.3"><rect id="Transparent-BG" serif:id="Transparent BG" x="3.088" y="4.643" width="79.167" height="79.167" style="fill:none;"/><g id="Calque-6" serif:id="Calque 6"><g><rect x="33.419" y="25.077" width="4.167" height="41.667" style="fill:#fff;"/><path d="M41.752,25.077l-0,41.667c-0,2.301 -1.866,4.167 -4.167,4.167l-4.166,-0c-2.302,-0 -4.167,-1.866 -4.167,-4.167l-0,-41.667c-0,-2.301 1.865,-4.166 4.167,-4.166l4.166,-0c2.301,-0 4.167,1.865 4.167,4.166Zm-4.167,0l-4.166,0l-0,41.667l4.166,-0l0,-41.667Z" style="fill:#222;"/><path d="M11.763,33.411c3.408,-4.592 5.629,-7.655 10.079,-11.155c4.212,-3.308 8.917,-5.566 14.208,-5.504c9.971,0.117 12.804,5.279 19.429,12.625l3.092,-2.791c-7.567,-8.4 -11.075,-13.871 -22.471,-14.009c-12.187,-0.141 -20.254,8.338 -27.683,18.346l3.346,2.488Z" style="fill:#fff;"/><path d="M9.277,36.754l-3.346,-2.487c-1.846,-1.372 -2.231,-3.981 -0.86,-5.827c8.271,-11.142 17.511,-20.187 31.079,-20.029c12.823,0.155 17.002,5.934 25.517,15.386c1.539,1.708 1.403,4.34 -0.304,5.881l-3.091,2.792c-0.821,0.741 -1.902,1.125 -3.006,1.068c-1.104,-0.056 -2.14,-0.549 -2.881,-1.37c-5.682,-6.301 -7.832,-11.149 -16.384,-11.249c-4.33,-0.052 -8.137,1.906 -11.584,4.613c-4.123,3.243 -6.151,6.108 -9.309,10.362c-0.659,0.888 -1.643,1.477 -2.737,1.639c-1.094,0.161 -2.207,-0.119 -3.094,-0.779Zm2.486,-3.343c3.408,-4.592 5.629,-7.655 10.079,-11.155c4.212,-3.308 8.917,-5.566 14.208,-5.504c9.971,0.117 12.804,5.279 19.429,12.625l3.092,-2.791c-7.567,-8.4 -11.075,-13.871 -22.471,-14.009c-12.187,-0.141 -20.254,8.338 -27.683,18.346l3.346,2.488Z" style="fill:#222;"/><path d="M64.669,29.244c3.45,-0 6.25,2.8 6.25,6.25c0,3.45 -2.8,6.25 -6.25,6.25c-3.45,-0 -6.25,-2.8 -6.25,-6.25c0,-3.45 2.8,-6.25 6.25,-6.25Z" style="fill:#fff;"/><path d="M64.669,25.077c5.75,0 10.417,4.667 10.417,10.417c0,5.75 -4.667,10.417 -10.417,10.417c-5.75,-0 -10.416,-4.667 -10.416,-10.417c-0,-5.75 4.666,-10.417 10.416,-10.417Zm0,4.167c-3.45,-0 -6.25,2.8 -6.25,6.25c0,3.45 2.8,6.25 6.25,6.25c3.45,-0 6.25,-2.8 6.25,-6.25c0,-3.45 -2.8,-6.25 -6.25,-6.25Z" style="fill:#222;"/></g><path d="M57.378,75.077c-3.271,0 -6.259,-1.121 -8.692,-2.946l20.329,-20.329c1.825,2.434 2.946,5.421 2.946,8.692c0,8.042 -6.542,14.583 -14.583,14.583Zm-0,-29.166c3.271,-0 6.258,1.12 8.691,2.945l-20.329,20.33c-1.825,-2.434 -2.946,-5.421 -2.946,-8.692c0,-8.042 6.542,-14.583 14.584,-14.583Zm-0,-4.167c-10.338,-0 -18.75,8.412 -18.75,18.75c-0,10.337 8.412,18.75 18.75,18.75c10.337,-0 18.75,-8.413 18.75,-18.75c-0,-10.338 -8.413,-18.75 -18.75,-18.75Z" style="fill:#fff;fill-rule:nonzero;"/><path d="M57.378,37.577c12.634,0 22.916,10.282 22.916,22.917c0,12.635 -10.282,22.917 -22.916,22.917c-12.635,-0 -22.917,-10.282 -22.917,-22.917c0,-12.635 10.282,-22.917 22.917,-22.917Zm-0,4.167c-10.338,-0 -18.75,8.412 -18.75,18.75c-0,10.337 8.412,18.75 18.75,18.75c10.337,-0 18.75,-8.413 18.75,-18.75c-0,-10.338 -8.413,-18.75 -18.75,-18.75Zm4.122,4.78c1.665,0.507 3.205,1.309 4.569,2.332l-20.329,20.33c-1.825,-2.434 -2.946,-5.421 -2.946,-8.692c0,-8.042 6.542,-14.583 14.584,-14.583l-0,4.166c-5.744,0 -10.417,4.673 -10.417,10.417c0,0.501 0.038,0.992 0.109,1.469c-0,0 11.777,-11.777 11.779,-11.777c-0.48,-0.071 -0.971,-0.109 -1.471,-0.109c2.093,0 3.825,-1.543 4.122,-3.553Zm-4.122,28.553c-3.271,0 -6.259,-1.121 -8.692,-2.946l20.329,-20.329c1.825,2.434 2.946,5.421 2.946,8.692c0,8.042 -6.542,14.583 -14.583,14.583Zm-0,-4.166c5.744,-0 10.416,-4.673 10.416,-10.417c0,-0.501 -0.037,-0.993 -0.108,-1.469c-0,-0 -11.778,11.777 -11.78,11.777c0.48,0.071 0.971,0.109 1.472,0.109Z" style="fill:#222;"/></g></g></svg>