<?xml version="1.0" encoding="UTF-8" standalone="no"?><!DOCTYPE svg PUBLIC "-//W3C//DTD SVG 1.1//EN" "http://www.w3.org/Graphics/SVG/1.1/DTD/svg11.dtd"><svg width="100%" height="100%" viewBox="0 0 84 84" version="1.1" xmlns="http://www.w3.org/2000/svg" xmlns:xlink="http://www.w3.org/1999/xlink" xml:space="preserve" xmlns:serif="http://www.serif.com/" style="fill-rule:evenodd;clip-rule:evenodd;stroke-linejoin:round;stroke-miterlimit:2;"><g id="_3DToolBar_PortalOpacity_Normal" serif:id="3DToolBar_PortalOpacity_Normal" opacity="0.45"><rect id="Transparent-BG" serif:id="Transparent BG" x="-1.316" y="-0.956" width="79.167" height="79.167" style="fill:none;"/><g id="Calque-3" serif:id="Calque 3"><g><path d="M8.322,12.507l0,54.091l4.172,0l-0,-49.78l8.254,0l-0,-4.311l-12.426,-0Z" style="fill:#fff;fill-rule:nonzero;"/><path d="M8.322,8.34l12.426,-0c2.301,-0 4.167,1.865 4.167,4.167l-0,4.311c-0,2.301 -1.866,4.167 -4.167,4.167l-4.088,-0l0,45.613c0,2.301 -1.865,4.167 -4.166,4.167l-4.172,-0c-2.301,-0 -4.167,-1.866 -4.167,-4.167l0,-54.091c0,-2.302 1.866,-4.167 4.167,-4.167Zm0,4.167l0,54.091l4.172,0l-0,-49.78l8.254,0l-0,-4.311l-12.426,-0Z" style="fill:#222;"/><path d="M24.989,5.908l-0,63.283l20.668,-4.623l0,-22.908l8.483,0l-0,-30.964l-29.151,-4.788Z" style="fill:#fff;fill-rule:nonzero;"/><path d="M25.664,1.796l29.151,4.788c2.013,0.331 3.491,2.071 3.491,4.112l0,30.964c0,2.302 -1.865,4.167 -4.166,4.167l-4.316,0l-0,18.741c-0,1.951 -1.354,3.641 -3.257,4.067l-20.669,4.623c-1.234,0.276 -2.527,-0.024 -3.514,-0.815c-0.987,-0.79 -1.562,-1.987 -1.562,-3.252l0,-63.283c0,-1.223 0.537,-2.384 1.47,-3.176c0.932,-0.792 2.165,-1.134 3.372,-0.936Zm-0.675,4.112l-0,63.283l20.668,-4.623l0,-22.908l8.483,0l-0,-30.964l-29.151,-4.788Z" style="fill:#222;"/></g><path d="M79.262,41.729l0,33.333c0,2.301 -1.865,4.167 -4.166,4.167l-33.334,-0c-2.301,-0 -4.166,-1.866 -4.166,-4.167l-0,-33.333c-0,-2.301 1.865,-4.167 4.166,-4.167l33.334,0c2.301,0 4.166,1.866 4.166,4.167Zm-4.166,-0l-33.334,-0l0,33.333l33.334,0l-0,-33.333Z" style="fill:#222;"/><rect x="41.762" y="41.729" width="33.333" height="33.333" style="fill:#222;"/><g><g opacity="0.5"><rect x="53.667" y="41.655" width="9.524" height="9.524" style="fill:#fff;"/></g><g opacity="0.5"><rect x="65.572" y="53.56" width="9.524" height="9.524" style="fill:#fff;"/></g><rect x="41.762" y="65.463" width="9.525" height="9.525" style="fill:#fff;"/><g opacity="0.5"><rect x="53.667" y="65.464" width="9.524" height="9.524" style="fill:#fff;"/></g><rect x="65.571" y="41.655" width="9.525" height="9.525" style="fill:#fff;"/><rect x="41.762" y="41.655" width="9.525" height="9.525" style="fill:#fff;"/><rect x="53.667" y="53.559" width="9.525" height="9.525" style="fill:#fff;"/><g opacity="0.5"><rect x="41.762" y="53.56" width="9.524" height="9.524" style="fill:#fff;"/></g><rect x="65.571" y="65.463" width="9.525" height="9.525" style="fill:#fff;"/></g></g></g></svg>