<?xml version="1.0" encoding="UTF-8" standalone="no"?><!DOCTYPE svg PUBLIC "-//W3C//DTD SVG 1.1//EN" "http://www.w3.org/Graphics/SVG/1.1/DTD/svg11.dtd"><svg width="100%" height="100%" viewBox="0 0 84 84" version="1.1" xmlns="http://www.w3.org/2000/svg" xmlns:xlink="http://www.w3.org/1999/xlink" xml:space="preserve" xmlns:serif="http://www.serif.com/" style="fill-rule:evenodd;clip-rule:evenodd;stroke-linejoin:round;stroke-miterlimit:2;"><g id="_3DToolBar_AttenuationSpread_Normal" serif:id="3DToolBar_AttenuationSpread_Normal" opacity="0.45"><rect id="Transparent-BG" serif:id="Transparent BG" x="-0.141" y="2.85" width="79.167" height="79.167" style="fill:none;"/><g id="Calque-6" serif:id="Calque 6"><path d="M39.441,73.973c-17.233,-0 -31.249,-14.307 -31.249,-31.54c0,-17.233 14.017,-27.083 31.25,-27.083c17.234,-0 31.25,9.85 31.25,27.083c0,17.233 -14.016,31.54 -31.25,31.54l-0.001,-0Zm0.001,-54.457c-14.933,0 -27.083,7.984 -27.083,22.917c-0,14.933 12.15,27.083 27.083,27.083c14.934,0 27.084,-12.15 27.084,-27.083c-0,-14.933 -12.15,-22.917 -27.084,-22.917Z" style="fill:#e2e2e2;fill-rule:nonzero;"/><path d="M39.442,78.139c-19.521,0 -35.416,-16.186 -35.416,-35.706c-0,-19.684 15.733,-31.25 35.416,-31.25c19.684,-0 35.417,11.566 35.417,31.25c-0,19.52 -15.897,35.706 -35.417,35.706Zm-0,-4.166c17.233,-0 31.25,-14.307 31.25,-31.54c0,-17.233 -14.016,-27.083 -31.25,-27.083c-17.233,-0 -31.25,9.85 -31.25,27.083c0,17.233 14.016,31.54 31.25,31.54Zm0,-54.457c14.934,0 27.084,7.984 27.084,22.917c-0,14.933 -12.15,27.083 -27.084,27.083c-14.933,0 -27.083,-12.15 -27.083,-27.083c-0,-14.933 12.15,-22.917 27.083,-22.917Zm0,4.167c-12.463,-0 -22.916,6.287 -22.916,18.75c-0,12.636 10.28,22.917 22.916,22.917c12.636,-0 22.917,-10.281 22.917,-22.917c-0,-12.463 -10.453,-18.75 -22.917,-18.75Z" style="fill:#222;"/><path d="M39.442,63.235c-11.466,0 -20.804,-9.329 -20.804,-20.804c0,-11.471 9.338,-20.8 20.804,-20.8c11.467,0 20.804,9.329 20.804,20.8c0,11.475 -9.338,20.804 -20.805,20.804l0.001,0Zm0,-35.387c-8.046,-0 -14.583,6.542 -14.583,14.583c-0,8.046 6.537,14.584 14.583,14.584c1.099,-0 2.17,-0.122 3.2,-0.353c6.51,-1.461 11.384,-7.284 11.384,-14.231c-0,-8.041 -6.538,-14.583 -14.584,-14.583Z" style="fill:#fff;fill-rule:nonzero;"/><path d="M39.442,67.402c-13.763,0 -24.971,-11.198 -24.971,-24.971c0,-13.768 11.208,-24.966 24.971,-24.966c13.764,-0 24.971,11.198 24.971,24.966c0,13.773 -11.208,24.971 -24.971,24.971Zm-0,-4.167c11.466,0 20.804,-9.329 20.804,-20.804c0,-11.471 -9.337,-20.8 -20.804,-20.8c-11.466,0 -20.804,9.329 -20.804,20.8c0,11.475 9.337,20.804 20.804,20.804Zm0,-35.387c8.046,-0 14.584,6.542 14.584,14.583c-0,6.947 -4.874,12.77 -11.384,14.231c-1.03,0.231 -2.101,0.353 -3.2,0.353c-8.046,-0 -14.583,-6.538 -14.583,-14.584c-0,-8.041 6.537,-14.583 14.583,-14.583Zm0,4.167c-5.747,-0 -10.416,4.672 -10.416,10.416c-0,5.747 4.669,10.417 10.416,10.417c0.786,-0 1.551,-0.087 2.287,-0.252c4.65,-1.043 8.13,-5.203 8.13,-10.165c-0,-5.744 -4.67,-10.416 -10.417,-10.416Z" style="fill:#222;"/><path d="M47.936,42.433c-0,4.692 -3.805,8.492 -8.492,8.492c-4.692,-0 -8.496,-3.8 -8.496,-8.492c0,-4.692 3.804,-8.492 8.496,-8.492c4.687,0 8.492,3.8 8.492,8.492Z" style="fill:#e2e2e2;fill-rule:nonzero;"/><path d="M52.102,42.433c0,6.994 -5.671,12.658 -12.658,12.658c-6.993,0 -12.663,-5.665 -12.663,-12.658c0,-6.993 5.67,-12.658 12.663,-12.658c6.987,-0 12.658,5.664 12.658,12.658Zm-4.166,-0c-0,-4.692 -3.805,-8.492 -8.492,-8.492c-4.692,0 -8.496,3.8 -8.496,8.492c0,4.692 3.804,8.492 8.496,8.492c4.687,-0 8.492,-3.8 8.492,-8.492Z" style="fill:#222;"/><path d="M38.359,42.858l-16.271,30.467c-0.4,0.645 -1.27,0.85 -1.895,0.425c-10.617,-7.2 -17.013,-20.171 -14.638,-34.375c2.479,-14.842 14.954,-26.567 29.904,-28.255c20.734,-2.341 38.363,13.884 38.363,34.155c-0,11.354 -5.529,21.437 -14.038,27.7c-0.608,0.45 -1.483,0.279 -1.908,-0.346l-17.283,-29.813c-0.542,-0.804 -1.725,-0.821 -2.234,0l0,0.042Z" style="fill:#fff;fill-rule:nonzero;stroke:#222;stroke-width:4.17px;"/></g></g></svg>