<?xml version="1.0" encoding="UTF-8" standalone="no"?><!DOCTYPE svg PUBLIC "-//W3C//DTD SVG 1.1//EN" "http://www.w3.org/Graphics/SVG/1.1/DTD/svg11.dtd"><svg width="100%" height="100%" viewBox="0 0 84 84" version="1.1" xmlns="http://www.w3.org/2000/svg" xmlns:xlink="http://www.w3.org/1999/xlink" xml:space="preserve" xmlns:serif="http://www.serif.com/" style="fill-rule:evenodd;clip-rule:evenodd;stroke-linejoin:round;stroke-miterlimit:2;"><g id="_3DToolBar_GeometryOpacity_CheckedDisabled" serif:id="3DToolBar_GeometryOpacity_CheckedDisabled" opacity="0.3"><rect id="Transparent-BG" serif:id="Transparent BG" x="4.099" y="5.619" width="79.167" height="79.167" style="fill:none;"/><g id="Calque-16" serif:id="Calque 16"><path d="M34.882,10.033l-24.079,40.001l-0.003,0.003l-2.226,3.698l28.06,-0l0,-3.095l-20.263,0l18.486,-9.698l1.777,0.996l0,-3.582l-0.137,-0.078l0,-19.378l10.854,18.039l3.725,0l-16.194,-26.906Zm-1.615,8.867l0,19.349l-17.017,8.927l17.017,-28.276Z" style="fill:#e2e2e2;fill-rule:nonzero;"/><path d="M7.355,47.682l23.957,-39.798c0.754,-1.252 2.109,-2.018 3.57,-2.018c1.462,-0 2.816,0.766 3.57,2.018l16.194,26.906c0.775,1.287 0.797,2.892 0.058,4.199c-0.74,1.308 -2.125,2.117 -3.628,2.117l-3.725,-0c-1.462,-0 -2.817,-0.766 -3.571,-2.019c0,0 -3.116,-5.18 -3.116,-5.179l-0,4.37l-0.92,0.921c0.031,0.041 0.061,0.082 0.09,0.124l0.967,-0.967l0,3.582c0,2.301 -1.865,4.166 -4.167,4.166c0,0 -0.66,0.095 -1.633,-0.332c-0.067,-0.029 -0.135,-0.06 -0.202,-0.094l-1.517,0.796l3.352,-0c2.302,-0 4.167,1.865 4.167,4.166l0,3.095c0,2.301 -1.865,4.166 -4.167,4.166l-28.06,0c-1.503,0 -2.889,-0.808 -3.628,-2.116c-0.739,-1.308 -0.717,-2.912 0.058,-4.199l2.14,-3.554c-0.019,0.036 -0.036,0.072 -0.053,0.108c-0.862,1.84 0.624,3.641 1.964,4.796l-0.481,0.799l1.51,-0c0.425,0.298 0.717,0.467 0.717,0.467c0,-0 -0.042,-0.174 -0.116,-0.467l25.949,-0l0,-3.095l-20.263,0l18.486,-9.698l1.777,0.996l0,-3.582l-0.137,-0.078l0,-19.378l10.854,18.039l3.725,0l-16.194,-26.906l-24.081,40.002l-1.013,1.682l-1.214,-2.149l0.902,0c-0.549,-1.611 -1.151,-2.932 -1.557,-2.542c-0.227,0.218 -0.414,0.437 -0.564,0.656Zm-0.211,0.35c0.06,-0.117 0.13,-0.234 0.211,-0.35l-0.211,0.35Zm26.123,-29.132l0,19.349l-17.017,8.927l17.017,-28.276Zm-4.167,15.003c0,0 -1.605,2.668 -1.605,2.668l1.605,-0.842l0,-1.826Zm3.771,10.702l0.725,0.184c-0.406,-0.433 -0.721,-0.953 -0.914,-1.528l-0.913,0.479c0.316,0.348 0.689,0.641 1.102,0.865Z" style="fill:#222;"/><path d="M79.053,41.83l-0,33.333c-0,2.301 -1.866,4.167 -4.167,4.167l-33.333,-0c-2.302,-0 -4.167,-1.866 -4.167,-4.167l-0,-33.333c-0,-2.301 1.865,-4.167 4.167,-4.167l33.333,0c2.301,0 4.167,1.866 4.167,4.167Zm-4.167,-0l-33.333,-0l-0,33.333l33.333,0l-0,-33.333Z" style="fill:#222;"/><rect x="41.553" y="41.83" width="33.333" height="33.333" style="fill:#222;"/><g><g opacity="0.5"><rect x="65.362" y="53.735" width="9.524" height="9.524" style="fill:#fff;"/></g><rect x="41.553" y="65.638" width="9.525" height="9.525" style="fill:#fff;"/><g opacity="0.5"><rect x="53.457" y="65.639" width="9.524" height="9.524" style="fill:#fff;"/></g><rect x="65.361" y="41.83" width="9.525" height="9.525" style="fill:#fff;"/><rect x="41.553" y="41.83" width="9.525" height="9.525" style="fill:#fff;"/><rect x="53.457" y="53.734" width="9.525" height="9.525" style="fill:#fff;"/><g opacity="0.5"><rect x="41.553" y="53.735" width="9.524" height="9.524" style="fill:#fff;"/></g><rect x="65.361" y="65.638" width="9.525" height="9.525" style="fill:#fff;"/><g opacity="0.5"><rect x="53.457" y="41.83" width="9.524" height="9.524" style="fill:#fff;"/></g></g></g></g></svg>