<?xml version="1.0" encoding="UTF-8" standalone="no"?><!DOCTYPE svg PUBLIC "-//W3C//DTD SVG 1.1//EN" "http://www.w3.org/Graphics/SVG/1.1/DTD/svg11.dtd"><svg width="100%" height="100%" viewBox="0 0 84 84" version="1.1" xmlns="http://www.w3.org/2000/svg" xmlns:xlink="http://www.w3.org/1999/xlink" xml:space="preserve" xmlns:serif="http://www.serif.com/" style="fill-rule:evenodd;clip-rule:evenodd;stroke-linejoin:round;stroke-miterlimit:2;"><g id="_3DToolBar_ImageSources_CheckedDisabled" serif:id="3DToolBar_ImageSources_CheckedDisabled" opacity="0.3"><rect id="Transparent-BG" serif:id="Transparent BG" x="1.342" y="2.67" width="79.167" height="79.167" style="fill:none;"/><g id="Calque-6" serif:id="Calque 6"><path d="M54.22,62.527l-0,-41.387l-4.167,0l-10.304,8.334l-14.683,-0l-0,24.72l14.583,-0l10.404,8.333l4.167,0Z" style="fill:#e2e2e2;"/><path d="M54.22,66.694l-4.167,-0c-0.947,-0 -1.865,-0.323 -2.605,-0.915l-9.262,-7.418l-13.12,-0c-2.301,-0 -4.167,-1.866 -4.167,-4.167l0,-24.72c0,-2.302 1.866,-4.167 4.167,-4.167l13.209,-0l9.158,-7.407c0.742,-0.599 1.666,-0.926 2.62,-0.926l4.167,-0c2.301,-0 4.167,1.865 4.167,4.166l-0,41.387c-0,2.301 -1.866,4.167 -4.167,4.167Zm-0,-4.167l-0,-41.387l-4.167,0l-10.304,8.334l-14.683,-0l-0,24.72l14.583,-0l10.404,8.333l4.167,0Z" style="fill:#222;"/></g></g></svg>