<?xml version="1.0" encoding="UTF-8" standalone="no"?><!DOCTYPE svg PUBLIC "-//W3C//DTD SVG 1.1//EN" "http://www.w3.org/Graphics/SVG/1.1/DTD/svg11.dtd"><svg width="100%" height="100%" viewBox="0 0 84 84" version="1.1" xmlns="http://www.w3.org/2000/svg" xmlns:xlink="http://www.w3.org/1999/xlink" xml:space="preserve" xmlns:serif="http://www.serif.com/" style="fill-rule:evenodd;clip-rule:evenodd;stroke-linejoin:round;stroke-miterlimit:2;"><g id="_3DToolBar_Grid_Checked" serif:id="3DToolBar_Grid_Checked"><rect id="Transparent-BG" serif:id="Transparent BG" x="1.525" y="1.282" width="79.167" height="79.167" style="fill:none;"/><g><path d="M67.767,13.657l0,54.222l-54.135,0l0,-54.222l54.135,-0Zm-50.171,20.644l0,12.924l12.768,-0l0,-12.924l-12.768,-0Zm12.768,-16.68l-12.768,-0l0,12.716l12.768,-0l0,-12.716Zm16.62,-0l-12.656,-0l0,12.716l12.656,-0l0,-12.716Zm16.819,12.716l0,-12.716l-12.855,-0l0,12.716l12.855,-0Zm0,16.888l0,-12.924l-12.855,-0l0,12.924l12.855,-0Zm-12.855,16.69l12.855,0l0,-12.726l-12.855,-0l0,12.726Zm-16.62,0l12.656,0l0,-12.726l-12.656,-0l0,12.726Zm-16.732,-12.726l0,12.726l12.768,0l0,-12.726l-12.768,-0Zm16.732,-16.888l0,12.924l12.656,-0l0,-12.924l-12.656,-0Z" style="fill:#f7f7f7;"/><path d="M71.934,13.657l-0,54.222c-0,2.301 -1.866,4.167 -4.167,4.167l-54.135,-0c-2.301,-0 -4.166,-1.866 -4.166,-4.167l-0,-54.222c-0,-2.301 1.865,-4.167 4.166,-4.167l54.135,0c2.301,0 4.167,1.866 4.167,4.167Zm-4.167,-0l-54.135,-0l0,54.222l54.135,0l0,-54.222Zm-3.964,16.68l-12.855,-0l0,-12.716l12.855,-0l0,12.716Zm-4.166,-4.167l-0,-4.383l-4.522,0l0,4.383l4.522,0Zm-29.273,-8.549l0,12.716l-12.768,-0l0,-12.716l12.768,-0Zm-4.166,4.166l-4.435,0l0,4.383l4.435,0l-0,-4.383Zm-8.602,12.514l12.768,-0l0,12.924l-12.768,-0l0,-12.924Zm4.167,4.167l0,4.59c0,-0 4.435,-0 4.435,-0l-0,-4.59l-4.435,-0Zm29.185,25.447l0,-12.726l12.855,-0l0,12.726l-12.855,0Zm4.167,-4.167l4.522,0l-0,-4.393l-4.522,0l0,4.393Zm-20.787,4.167l0,-12.726l12.656,-0l0,12.726l-12.656,0Zm4.167,-4.167l4.323,0l-0,-4.393l-4.323,0l0,4.393Zm8.489,-42.127l0,12.716l-12.656,-0l0,-12.716l12.656,-0Zm-4.166,4.166l-4.323,0l0,4.383l4.323,0l-0,-4.383Zm20.985,25.438l-12.855,-0l0,-12.924l12.855,-0l0,12.924Zm-4.166,-4.167l-0,-4.59c-0,-0 -4.522,-0 -4.522,-0l0,4.59l4.522,-0Zm-42.041,8.131l12.768,-0l0,12.726l-12.768,0l0,-12.726Zm4.167,4.166l0,4.393l4.435,0l-0,-4.393l-4.435,0Zm12.565,-21.054l12.656,-0l0,12.924l-12.656,-0l0,-12.924Zm4.167,4.167l0,4.59c0,-0 4.323,-0 4.323,-0l-0,-4.59l-4.323,-0Z" style="fill:#222;"/></g></g></svg>