<?xml version="1.0" encoding="UTF-8" standalone="no"?><!DOCTYPE svg PUBLIC "-//W3C//DTD SVG 1.1//EN" "http://www.w3.org/Graphics/SVG/1.1/DTD/svg11.dtd"><svg width="100%" height="100%" viewBox="0 0 84 84" version="1.1" xmlns="http://www.w3.org/2000/svg" xmlns:xlink="http://www.w3.org/1999/xlink" xml:space="preserve" xmlns:serif="http://www.serif.com/" style="fill-rule:evenodd;clip-rule:evenodd;stroke-linejoin:round;stroke-miterlimit:2;"><g id="_3DToolBar_GeometryOpacity_Checked" serif:id="3DToolBar_GeometryOpacity_Checked"><rect id="Transparent-BG" serif:id="Transparent BG" x="4.099" y="5.619" width="79.167" height="79.167" style="fill:none;"/><g id="Calque-16" serif:id="Calque 16"><path d="M35.059,9.931l-24.079,40.001l-0.003,0.003l-2.226,3.699l28.061,-0l-0,-3.095l-20.263,0l18.485,-9.698l1.778,0.996l-0,-3.582l-0.138,-0.078l0,-19.378l10.854,18.039l3.726,-0l-16.195,-26.907Zm-1.615,8.868l0,19.348l-17.017,8.927l17.017,-28.275Z" style="fill:#e2e2e2;fill-rule:nonzero;"/><path d="M7.532,47.58l23.958,-39.798c0.753,-1.252 2.108,-2.017 3.569,-2.017c1.462,-0 2.817,0.766 3.57,2.018l16.194,26.906c0.775,1.287 0.797,2.892 0.058,4.199c-0.739,1.308 -2.125,2.117 -3.627,2.117l-3.726,-0c-1.462,-0 -2.817,-0.766 -3.571,-2.019c0,-0 -3.116,-5.18 -3.116,-5.18l0,4.371l-0.92,0.92c0.032,0.042 0.062,0.083 0.09,0.125l0.967,-0.967l0,3.582c0,2.301 -1.865,4.166 -4.166,4.166c-0,0 -0.661,0.095 -1.634,-0.332c-0.067,-0.029 -0.135,-0.061 -0.202,-0.094l-1.517,0.796l3.353,-0c2.301,-0 4.166,1.865 4.166,4.166l0,3.095c0,2.301 -1.865,4.166 -4.166,4.166l-28.061,0c-1.503,0 -2.888,-0.808 -3.628,-2.116c-0.739,-1.308 -0.717,-2.912 0.058,-4.199l2.14,-3.555c-0.019,0.036 -0.036,0.072 -0.053,0.108c-0.862,1.841 0.624,3.642 1.964,4.796l-0.481,0.8l1.51,-0c0.425,0.298 0.717,0.467 0.717,0.467c0,-0 -0.042,-0.174 -0.116,-0.467l25.95,-0l-0,-3.095l-20.263,0l18.485,-9.698l1.778,0.996l-0,-3.582l-0.138,-0.078l0,-19.378l10.854,18.039l3.726,-0l-16.195,-26.907l-24.081,40.003l-1.012,1.682l-1.215,-2.149l0.902,-0c-0.549,-1.611 -1.15,-2.932 -1.557,-2.542c-0.227,0.218 -0.414,0.436 -0.564,0.655Zm-0.211,0.35c0.06,-0.116 0.131,-0.233 0.211,-0.35l-0.211,0.35Zm26.123,-29.131l0,19.348l-17.017,8.927l17.017,-28.275Zm-4.166,15.003c-0,0 -1.606,2.668 -1.606,2.668l1.606,-0.842l-0,-1.826Zm3.77,10.702l0.726,0.184c-0.407,-0.433 -0.722,-0.953 -0.915,-1.529l-0.913,0.479c0.316,0.349 0.689,0.642 1.102,0.866Z" style="fill:#222;"/><path d="M79.23,41.729l-0,33.333c-0,2.301 -1.866,4.167 -4.167,4.167l-33.333,-0c-2.301,-0 -4.167,-1.866 -4.167,-4.167l0,-33.333c0,-2.301 1.866,-4.167 4.167,-4.167l33.333,0c2.301,0 4.167,1.866 4.167,4.167Zm-4.167,-0l-33.333,-0l-0,33.333l33.333,0l0,-33.333Z" style="fill:#222;"/><rect x="41.73" y="41.729" width="33.333" height="33.333" style="fill:#222;"/><g><g opacity="0.5"><rect x="65.539" y="53.634" width="9.524" height="9.524" style="fill:#fff;"/></g><rect x="41.73" y="65.537" width="9.525" height="9.525" style="fill:#fff;"/><g opacity="0.5"><rect x="53.634" y="65.538" width="9.524" height="9.524" style="fill:#fff;"/></g><rect x="65.538" y="41.729" width="9.525" height="9.525" style="fill:#fff;"/><rect x="41.73" y="41.729" width="9.525" height="9.525" style="fill:#fff;"/><rect x="53.634" y="53.633" width="9.525" height="9.525" style="fill:#fff;"/><g opacity="0.5"><rect x="41.73" y="53.634" width="9.524" height="9.524" style="fill:#fff;"/></g><rect x="65.538" y="65.537" width="9.525" height="9.525" style="fill:#fff;"/><g opacity="0.5"><rect x="53.634" y="41.729" width="9.524" height="9.524" style="fill:#fff;"/></g></g></g></g></svg>