<?xml version="1.0" encoding="UTF-8" standalone="no"?><!DOCTYPE svg PUBLIC "-//W3C//DTD SVG 1.1//EN" "http://www.w3.org/Graphics/SVG/1.1/DTD/svg11.dtd"><svg width="100%" height="100%" viewBox="0 0 84 84" version="1.1" xmlns="http://www.w3.org/2000/svg" xmlns:xlink="http://www.w3.org/1999/xlink" xml:space="preserve" xmlns:serif="http://www.serif.com/" style="fill-rule:evenodd;clip-rule:evenodd;stroke-linejoin:round;stroke-miterlimit:2;"><g id="_3DToolBar_Transmission-_CheckedDisabled" serif:id="3DToolBar_Transmission%_CheckedDisabled" opacity="0.3"><rect id="Transparent-BG" serif:id="Transparent BG" x="1.094" y="2.034" width="79.167" height="79.167" style="fill:none;"/><g id="Calque-6" serif:id="Calque 6"><g><path d="M52.17,49.597c2.029,0 3.677,1.643 3.677,3.663c-0,2.025 -1.648,3.668 -3.677,3.668c-2.029,-0 -3.676,-1.643 -3.676,-3.668c0,-2.02 1.647,-3.663 3.676,-3.663Z" style="fill:#fff;"/><path d="M52.17,45.431c4.333,-0 7.843,3.515 7.843,7.829c0,4.322 -3.512,7.835 -7.843,7.835c-4.331,-0 -7.843,-3.513 -7.843,-7.835c0,-4.314 3.511,-7.829 7.843,-7.829Zm0,4.166c-2.029,0 -3.676,1.643 -3.676,3.663c0,2.025 1.647,3.668 3.676,3.668c2.029,-0 3.677,-1.643 3.677,-3.668c-0,-2.02 -1.648,-3.663 -3.677,-3.663Z" style="fill:#222;"/><path d="M69.452,66.803c2.042,0 3.698,1.661 3.698,3.703c-0,2.041 -1.656,3.702 -3.698,3.702c-2.042,-0 -3.698,-1.661 -3.698,-3.702c0,-2.042 1.656,-3.703 3.698,-3.703Z" style="fill:#fff;"/><path d="M69.452,62.637c4.341,-0 7.865,3.527 7.865,7.869c-0,4.341 -3.524,7.869 -7.865,7.869c-4.341,-0 -7.865,-3.528 -7.865,-7.869c0,-4.342 3.524,-7.869 7.865,-7.869Zm-0,4.166c-2.042,0 -3.698,1.661 -3.698,3.703c0,2.041 1.656,3.702 3.698,3.702c2.042,-0 3.698,-1.661 3.698,-3.702c-0,-2.042 -1.656,-3.703 -3.698,-3.703Z" style="fill:#222;"/><path d="M66.723,47.156l3.132,1.807l-15.605,27.046l-3.132,-1.807l15.605,-27.046Z" style="fill:#fff;"/><path d="M68.805,43.547l3.132,1.807c1.993,1.15 2.677,3.698 1.527,5.691l-15.605,27.046c-1.15,1.994 -3.698,2.677 -5.692,1.527l-3.131,-1.807c-1.993,-1.15 -2.677,-3.698 -1.527,-5.691l15.605,-27.046c1.15,-1.993 3.698,-2.677 5.691,-1.527Zm-2.082,3.609l-15.605,27.046l3.132,1.807l15.605,-27.046l-3.132,-1.807Z" style="fill:#222;"/></g><g id="Calque-11" serif:id="Calque 11"><rect x="8.206" y="29.29" width="16.775" height="4.167" style="fill:#fff;"/><path d="M29.147,29.29l-0,4.167c-0,2.301 -1.865,4.166 -4.167,4.166l-16.774,0c-2.302,0 -4.167,-1.865 -4.167,-4.166l-0,-4.167c-0,-2.301 1.865,-4.167 4.167,-4.167l16.774,0c2.302,0 4.167,1.866 4.167,4.167Zm-4.167,-0l-16.774,-0l-0,4.167l16.774,-0l0,-4.167Z" style="fill:#222;"/><rect x="37.135" y="29.29" width="17.044" height="4.167" style="fill:#919191;"/><path d="M58.345,29.29l0,4.167c0,2.301 -1.865,4.166 -4.166,4.166l-17.044,0c-2.301,0 -4.167,-1.865 -4.167,-4.166l0,-4.167c0,-2.301 1.866,-4.167 4.167,-4.167l17.044,0c2.301,0 4.166,1.866 4.166,4.167Zm-4.166,-0l-17.044,-0l-0,4.167l17.044,-0l-0,-4.167Z" style="fill:#222;"/><rect x="29.062" y="8.544" width="3.926" height="62.389" style="fill:#fff;"/><path d="M37.154,8.544l0,62.388c0,2.302 -1.865,4.167 -4.166,4.167l-3.926,0c-2.301,0 -4.167,-1.865 -4.167,-4.167l0,-62.388c0,-2.301 1.866,-4.167 4.167,-4.167l3.926,0c2.301,0 4.166,1.866 4.166,4.167Zm-4.166,-0l-3.926,-0l-0,62.388l3.926,0l-0,-62.388Z" style="fill:#222;"/><path d="M63.127,27.444c3.45,0 6.25,2.8 6.25,6.25c0,3.45 -2.8,6.25 -6.25,6.25c-3.45,0 -6.25,-2.8 -6.25,-6.25c0,-3.45 2.8,-6.25 6.25,-6.25Z" style="fill:#fff;"/><path d="M63.127,23.278c5.75,-0 10.417,4.666 10.417,10.416c0,5.75 -4.667,10.417 -10.417,10.417c-5.75,-0 -10.416,-4.667 -10.416,-10.417c-0,-5.75 4.666,-10.416 10.416,-10.416Zm0,4.166c-3.45,0 -6.25,2.8 -6.25,6.25c0,3.45 2.8,6.25 6.25,6.25c3.45,0 6.25,-2.8 6.25,-6.25c0,-3.45 -2.8,-6.25 -6.25,-6.25Z" style="fill:#222;"/></g></g></g></svg>