<?xml version="1.0" encoding="UTF-8" standalone="no"?><!DOCTYPE svg PUBLIC "-//W3C//DTD SVG 1.1//EN" "http://www.w3.org/Graphics/SVG/1.1/DTD/svg11.dtd"><svg width="100%" height="100%" viewBox="0 0 84 84" version="1.1" xmlns="http://www.w3.org/2000/svg" xmlns:xlink="http://www.w3.org/1999/xlink" xml:space="preserve" xmlns:serif="http://www.serif.com/" style="fill-rule:evenodd;clip-rule:evenodd;stroke-linejoin:round;stroke-miterlimit:2;"><g id="_3DToolBar_GameObjectName_Checked" serif:id="3DToolBar_GameObjectName_Checked"><rect id="Transparent-BG" serif:id="Transparent BG" x="1.901" y="2.169" width="79.167" height="79.167" style="fill:none;"/><g id="Calque-11" serif:id="Calque 11"><path d="M76.508,29.491l0,47.105l-47.548,-0l-19.132,-19.478l0.466,-47.085l46.756,0l19.458,19.458Zm-4.776,1.116l-16.408,-16.407c0,-0 -30.717,-0 -38.914,-0l16.407,16.407l38.915,0Zm-57.351,-12.543l-0.369,37.367c-0,0 16.696,16.998 16.696,16.998l0.582,0l-0,-37.457l-16.909,-16.908Zm57.961,17.083l-33.055,0l0,12.269l4.018,-0l-0,-8.426l8.56,-0l-0,29.425l-4.117,0l-0,3.847l16.636,0l-0,-3.847l-4.231,0l0,-29.425l8.554,-0l-0,8.426l3.635,-0l-0,-12.269Z" style="fill:#fff;"/><path d="M80.675,29.491l-0,47.105c-0,2.301 -1.866,4.166 -4.167,4.166l-47.548,0c-1.118,0 -2.189,-0.449 -2.973,-1.247l-19.131,-19.477c-0.776,-0.789 -1.205,-1.855 -1.194,-2.961l0.465,-47.085c0.023,-2.285 1.882,-4.125 4.167,-4.125l46.756,-0c1.105,-0 2.165,0.439 2.947,1.22l19.458,19.458c0.781,0.781 1.22,1.841 1.22,2.946Zm-4.167,0l-19.458,-19.458l-46.756,0l-0.466,47.085l19.132,19.478l47.548,-0l0,-47.105Zm-4.776,1.116l-38.915,0l-16.407,-16.407l38.914,-0l16.408,16.407Zm-10.059,-4.166l-8.074,-8.074l-27.13,-0l8.074,8.074l27.13,-0Zm-47.292,-8.377l16.909,16.908l-0,37.457l-0.582,0c-0,-0 -16.696,-16.998 -16.696,-16.998l0.369,-37.367Zm12.742,44.77l0,-26.136l-8.673,-8.673l-0.255,25.72l8.928,9.089Zm45.219,-27.687l-0,12.269l-3.635,-0l-0,-8.426l-8.554,-0l0,29.425l4.231,0l-0,3.847l-16.636,0l-0,-3.847l4.117,0l-0,-29.425l-8.56,-0l-0,8.426l-4.018,-0l0,-12.269l33.055,0Z" style="fill:#222;"/></g></g></svg>