<?xml version="1.0" encoding="UTF-8" standalone="no"?><!DOCTYPE svg PUBLIC "-//W3C//DTD SVG 1.1//EN" "http://www.w3.org/Graphics/SVG/1.1/DTD/svg11.dtd"><svg width="100%" height="100%" viewBox="0 0 84 84" version="1.1" xmlns="http://www.w3.org/2000/svg" xmlns:xlink="http://www.w3.org/1999/xlink" xml:space="preserve" xmlns:serif="http://www.serif.com/" style="fill-rule:evenodd;clip-rule:evenodd;stroke-linejoin:round;stroke-miterlimit:2;"><g id="_3DToolBar_AttenuationCone_Disabled" serif:id="3DToolBar_AttenuationCone_Disabled" opacity="0.3"><rect id="Transparent-BG" serif:id="Transparent BG" x="5.594" y="4.48" width="79.167" height="79.167" style="fill:none;"/><g id="Calque-6" serif:id="Calque 6"><path d="M63.09,29.278c3.78,4.554 6.05,10.379 6.05,16.712c0,14.563 -11.987,26.404 -26.729,26.404c-14.737,0 -26.729,-11.841 -26.729,-26.404c0,-6.171 2.154,-11.85 5.758,-16.35l2.15,2.771c-2.754,3.725 -4.379,8.308 -4.379,13.258c0,12.438 10.263,22.559 22.879,22.559c12.617,-0 22.884,-10.121 22.884,-22.559c-0,-4.933 -1.613,-9.5 -4.346,-13.212l2.462,-3.179Zm-5.337,6.887c1.933,2.838 3.054,6.229 3.054,9.867c0,9.937 -8.379,18.029 -18.679,18.029c-10.304,-0 -18.683,-8.092 -18.683,-18.029c-0,-3.638 1.125,-7.029 3.054,-9.867l2.616,3.375c-1.05,1.921 -1.641,4.104 -1.641,6.417c-0,7.687 6.537,13.937 14.583,13.937c8.046,0 14.583,-6.25 14.583,-13.937c0,-2.271 -0.57,-4.417 -1.583,-6.313l2.696,-3.479Zm-5.483,7.079c0.133,0.667 0.204,1.359 0.204,2.067c-0,5.742 -4.671,10.417 -10.417,10.417c-5.742,-0 -10.417,-4.675 -10.417,-10.417c0,-0.758 0.084,-1.496 0.238,-2.204l6.833,8.821c2.046,1.77 4.3,1.929 6.825,0.004l6.734,-8.688Z" style="fill:#e2e2e2;"/><path d="M27.751,32.191c0.799,0.252 1.514,0.742 2.041,1.421l2.616,3.375c0.502,0.647 0.79,1.409 0.858,2.191c0.74,0.262 1.406,0.732 1.906,1.377c-0,-0 6.582,8.497 6.59,8.503c0.079,0.054 0.162,0.09 0.257,0.092c0.192,0.003 0.371,-0.082 0.568,-0.215l6.389,-8.243c0.505,-0.652 1.18,-1.125 1.928,-1.384c0.064,-0.791 0.353,-1.563 0.859,-2.216l2.696,-3.479c0.52,-0.671 1.224,-1.157 2.01,-1.412c0.05,-0.814 0.339,-1.617 0.865,-2.296l2.462,-3.179c0.774,-0.999 1.96,-1.593 3.224,-1.615c1.264,-0.021 2.47,0.533 3.277,1.506c4.38,5.279 7.01,12.032 7.01,19.373c0,16.846 -13.842,30.571 -30.896,30.571c-17.049,-0 -30.896,-13.725 -30.896,-30.571c0,-7.154 2.495,-13.738 6.673,-18.955c0.798,-0.996 2.008,-1.571 3.284,-1.562c1.277,0.01 2.478,0.604 3.26,1.613l2.15,2.771c0.535,0.689 0.826,1.506 0.869,2.334Zm30.002,3.974l-2.696,3.479c1.013,1.896 1.583,4.042 1.583,6.313c0,7.687 -6.537,13.937 -14.583,13.937c-8.046,0 -14.583,-6.25 -14.583,-13.937c-0,-2.313 0.591,-4.496 1.641,-6.417l-2.616,-3.375c-1.929,2.838 -3.054,6.229 -3.054,9.867c-0,9.937 8.379,18.029 18.683,18.029c10.3,-0 18.679,-8.092 18.679,-18.029c0,-3.638 -1.121,-7.029 -3.054,-9.867Zm-5.483,7.079l-6.734,8.688c-2.525,1.925 -4.779,1.766 -6.825,-0.004l-6.833,-8.821c-0.154,0.708 -0.238,1.446 -0.238,2.204c0,5.742 4.675,10.417 10.417,10.417c5.746,-0 10.417,-4.675 10.417,-10.417c-0,-0.708 -0.071,-1.4 -0.204,-2.067Zm10.82,-13.966l-2.462,3.179c2.733,3.712 4.346,8.279 4.346,13.212c-0,12.438 -10.267,22.559 -22.884,22.559c-12.616,-0 -22.879,-10.121 -22.879,-22.559c0,-4.95 1.625,-9.533 4.379,-13.258l-2.15,-2.771c-3.604,4.5 -5.758,10.179 -5.758,16.35c0,14.563 11.992,26.404 26.729,26.404c14.742,0 26.729,-11.841 26.729,-26.404c0,-6.333 -2.27,-12.158 -6.05,-16.712Z" style="fill:#222;"/><path d="M20.492,19.554l21.633,28.846l21.637,-28.846c-11.637,-13.571 -30.954,-12.167 -43.27,-0Z" style="fill:#fff;"/><path d="M20.492,23.72l-2.929,-7.13c14.051,-13.88 36.087,-15.23 49.362,0.251c1.272,1.483 1.343,3.65 0.171,5.213l-21.638,28.846c-0.787,1.049 -2.022,1.666 -3.333,1.666c-1.312,0 -2.547,-0.617 -3.333,-1.666l-21.634,-28.846l3.334,1.666Zm-0,-4.166l21.633,28.846l21.637,-28.846c-11.637,-13.571 -30.954,-12.167 -43.27,-0Z" style="fill:#222;"/></g></g></svg>