<?xml version="1.0" encoding="UTF-8" standalone="no"?><!DOCTYPE svg PUBLIC "-//W3C//DTD SVG 1.1//EN" "http://www.w3.org/Graphics/SVG/1.1/DTD/svg11.dtd"><svg width="100%" height="100%" viewBox="0 0 84 84" version="1.1" xmlns="http://www.w3.org/2000/svg" xmlns:xlink="http://www.w3.org/1999/xlink" xml:space="preserve" xmlns:serif="http://www.serif.com/" style="fill-rule:evenodd;clip-rule:evenodd;stroke-linejoin:round;stroke-miterlimit:2;"><g id="_3DToolBar_Axis_CheckedDisabled" serif:id="3DToolBar_Axis_CheckedDisabled" opacity="0.3"><rect id="Transparent-BG" serif:id="Transparent BG" x="0.184" y="3.168" width="79.167" height="79.167" style="fill:none;"/><g id="Axis"><path d="M41.206,50.315l-29.224,16.353l-1.935,-3.458l29.105,-16.287l0.179,-32.731l3.963,0.022l-0.179,32.628l28.921,16.53l-1.967,3.441l-28.863,-16.498Z" style="fill:#f7f7f7;"/><path d="M41.184,55.101l-27.167,15.203c-2.009,1.124 -4.547,0.407 -5.671,-1.601l-1.935,-3.458c-1.124,-2.008 -0.407,-4.547 1.601,-5.671l26.986,-15.101l0.167,-30.304c0.012,-2.301 1.888,-4.156 4.189,-4.143l3.963,0.021c2.301,0.013 4.156,1.889 4.143,4.19l-0.165,30.195l26.808,15.323c1.998,1.142 2.692,3.687 1.55,5.685l-1.966,3.44c-1.142,1.998 -3.687,2.692 -5.685,1.55l-26.818,-15.329Zm0.022,-4.786l28.863,16.498l1.967,-3.441l-28.921,-16.53l0.179,-32.628l-3.963,-0.022l-0.179,32.731l-29.105,16.287l1.935,3.458l29.224,-16.353Z" style="fill:#222;"/></g></g></svg>