<?xml version="1.0" encoding="UTF-8" standalone="no"?><!DOCTYPE svg PUBLIC "-//W3C//DTD SVG 1.1//EN" "http://www.w3.org/Graphics/SVG/1.1/DTD/svg11.dtd"><svg width="100%" height="100%" viewBox="0 0 84 84" version="1.1" xmlns="http://www.w3.org/2000/svg" xmlns:xlink="http://www.w3.org/1999/xlink" xml:space="preserve" xmlns:serif="http://www.serif.com/" style="fill-rule:evenodd;clip-rule:evenodd;stroke-linejoin:round;stroke-miterlimit:2;"><g id="_3DToolBar_ReflectionPaths_CheckedDisabled" serif:id="3DToolBar_ReflectionPaths_CheckedDisabled" opacity="0.3"><rect id="Transparent-BG" serif:id="Transparent BG" x="4.156" y="-0.225" width="79.167" height="79.167" style="fill:none;"/><g id="Calque-6" serif:id="Calque 6"><rect x="60.13" y="14.287" width="3.992" height="49.54" style="fill:#fff;"/><path d="M68.288,14.287l0,49.539c0,2.302 -1.865,4.167 -4.166,4.167l-3.992,0c-2.301,0 -4.167,-1.865 -4.167,-4.167l0,-49.539c0,-2.301 1.866,-4.167 4.167,-4.167l3.992,0c2.301,0 4.166,1.866 4.166,4.167Zm-4.166,-0l-3.992,-0l-0,49.539l3.992,0l-0,-49.539Z" style="fill:#222;"/><path d="M29.921,22.779l19.079,18.004l4.913,-2.271l-20.5,-19.345l-3.492,3.612Z" style="fill:#222;"/><path d="M46.264,38.201l-16.421,-15.496l3.487,-3.616l20.584,19.425l-0.014,0.006l0.067,0.032l-22.079,12.796l-4.521,-2.196l18.897,-10.951Z" style="fill:#fff;"/><path d="M55.811,42.223l0.245,-0.066l-22.079,12.796c-1.198,0.695 -2.664,0.748 -3.91,0.143l-4.52,-2.196c-1.386,-0.673 -2.288,-2.056 -2.344,-3.595c-0.056,-1.54 0.742,-2.985 2.075,-3.758l14.063,-8.15l-12.358,-11.661c-0.809,-0.764 -1.279,-1.82 -1.306,-2.932c-0.026,-1.113 0.394,-2.19 1.167,-2.991l3.487,-3.617c1.585,-1.644 4.198,-1.705 5.859,-0.138l20.584,19.425c1.241,1.172 1.642,2.983 1.012,4.569c-0.381,0.96 -1.094,1.72 -1.975,2.171Zm-2.813,-3.109l0.474,1.764c-0.114,-0.558 -0.229,-1.2 -0.313,-1.858l0.808,-0.468l-0.067,-0.032l0.014,-0.006l-0.873,-0.824c-0.023,-0.52 -0.012,-1.021 0.048,-1.467c-0.246,-1.004 -0.551,-1.664 -0.924,-1.491c-0.379,0.175 -0.686,0.373 -0.931,0.589l0.644,-0.374l0.592,2.204l-19.14,-18.062l-3.487,3.616l16.421,15.496l-18.897,10.951l4.521,2.196l21.11,-12.234Zm1.127,3.562c-0.047,0.003 -0.095,0.004 -0.143,0.005l-0.015,0.038l0.158,-0.043Z" style="fill:#222;"/><path d="M23.631,61.172c-3.133,1.441 -6.85,0.066 -8.291,-3.067c-1.442,-3.133 -0.067,-6.846 3.066,-8.288c3.134,-1.441 6.85,-0.07 8.292,3.063c1.442,3.133 0.067,6.85 -3.067,8.292" style="fill:#222;"/><path d="M23.631,61.172c-3.133,1.441 -6.85,0.066 -8.291,-3.067c-1.442,-3.133 -0.067,-6.846 3.066,-8.288c3.134,-1.441 6.85,-0.07 8.292,3.063c1.442,3.133 0.067,6.85 -3.067,8.292Z" style="fill:#fff;"/><path d="M25.373,64.957c-5.222,2.402 -11.416,0.111 -13.819,-5.111c-2.403,-5.222 -0.112,-11.411 5.111,-13.814c5.222,-2.403 11.415,-0.116 13.818,5.106c2.403,5.222 0.112,11.416 -5.11,13.819Zm-1.742,-3.785c3.134,-1.442 4.509,-5.159 3.067,-8.292c-1.442,-3.133 -5.158,-4.504 -8.292,-3.063c-3.133,1.442 -4.508,5.155 -3.066,8.288c1.441,3.133 5.158,4.508 8.291,3.067Z" style="fill:#222;"/></g></g></svg>