<?xml version="1.0" encoding="UTF-8" standalone="no"?><!DOCTYPE svg PUBLIC "-//W3C//DTD SVG 1.1//EN" "http://www.w3.org/Graphics/SVG/1.1/DTD/svg11.dtd"><svg width="100%" height="100%" viewBox="0 0 84 84" version="1.1" xmlns="http://www.w3.org/2000/svg" xmlns:xlink="http://www.w3.org/1999/xlink" xml:space="preserve" xmlns:serif="http://www.serif.com/" style="fill-rule:evenodd;clip-rule:evenodd;stroke-linejoin:round;stroke-miterlimit:2;"><g id="_3DToolBar_AttenuationRadius_Checked" serif:id="3DToolBar_AttenuationRadius_Checked"><rect id="Transparent-BG" serif:id="Transparent BG" x="1.981" y="-1.453" width="79.167" height="79.167" style="fill:none;"/><g id="Calque-6" serif:id="Calque 6"><g opacity="0"><path d="M74.498,17.083c0,-4.829 -3.92,-8.75 -8.75,-8.75l-45,0c-4.829,0 -8.75,3.921 -8.75,8.75l0,45c0,4.829 3.921,8.75 8.75,8.75l45,0c4.83,0 8.75,-3.921 8.75,-8.75l0,-45Z"/></g><path d="M43.248,70.833c-17.233,0 -31.25,-14.017 -31.25,-31.25c0,-17.233 14.017,-31.25 31.25,-31.25c17.234,0 31.25,14.017 31.25,31.25c0,17.233 -14.017,31.25 -31.25,31.25l0,0Zm0,-58.333c-14.933,-0 -27.083,12.15 -27.083,27.083c0,14.933 12.15,27.083 27.083,27.083c14.934,0 27.084,-12.15 27.084,-27.083c-0,-14.933 -12.15,-27.083 -27.084,-27.083Z" style="fill:#c8c8c8;fill-rule:nonzero;"/><path d="M43.248,75c-19.531,-0 -35.416,-15.886 -35.416,-35.417c-0,-19.531 15.885,-35.417 35.416,-35.417c19.532,0 35.417,15.886 35.417,35.417c0,19.531 -15.886,35.417 -35.417,35.417Zm0,-4.167c17.234,0 31.25,-14.017 31.25,-31.25c0,-17.233 -14.016,-31.25 -31.25,-31.25c-17.233,0 -31.25,14.017 -31.25,31.25c0,17.233 14.017,31.25 31.25,31.25Zm0,-58.333c14.934,-0 27.084,12.15 27.084,27.083c-0,14.933 -12.15,27.083 -27.084,27.083c-14.933,0 -27.083,-12.15 -27.083,-27.083c0,-14.933 12.15,-27.083 27.083,-27.083Zm0,4.166c-12.635,0 -22.916,10.281 -22.916,22.917c-0,12.636 10.281,22.917 22.916,22.917c12.636,-0 22.917,-10.281 22.917,-22.917c0,-12.636 -10.281,-22.917 -22.917,-22.917Z" style="fill:#222;"/><path d="M43.248,60.386c-11.466,-0 -20.804,-9.33 -20.804,-20.805c0,-11.47 9.338,-20.8 20.804,-20.8c11.467,0 20.805,9.33 20.805,20.8c-0,11.475 -9.338,20.805 -20.805,20.805Zm0,-35.388c-8.045,0 -14.583,6.542 -14.583,14.583c0,8.046 6.538,14.584 14.583,14.584c8.046,-0 14.584,-6.538 14.584,-14.584c-0,-8.041 -6.538,-14.583 -14.584,-14.583Z" style="fill:#c8c8c8;fill-rule:nonzero;"/><path d="M43.248,64.552c-13.763,0 -24.97,-11.197 -24.97,-24.971c-0,-13.768 11.207,-24.966 24.97,-24.966c13.764,-0 24.971,11.198 24.971,24.966c0,13.774 -11.207,24.971 -24.971,24.971Zm0,-4.166c11.467,-0 20.805,-9.33 20.805,-20.805c-0,-11.47 -9.338,-20.8 -20.805,-20.8c-11.466,0 -20.804,9.33 -20.804,20.8c0,11.475 9.338,20.805 20.804,20.805Zm0,-35.388c8.046,0 14.584,6.542 14.584,14.583c-0,8.046 -6.538,14.584 -14.584,14.584c-8.045,-0 -14.583,-6.538 -14.583,-14.584c0,-8.041 6.538,-14.583 14.583,-14.583Zm0,4.167c-5.747,-0 -10.416,4.672 -10.416,10.416c-0,5.748 4.669,10.417 10.416,10.417c5.747,0 10.417,-4.669 10.417,-10.417c0,-5.744 -4.67,-10.416 -10.417,-10.416Z" style="fill:#222;"/><path d="M51.742,39.583c-0,4.692 -3.804,8.492 -8.492,8.492c-4.692,-0 -8.496,-3.8 -8.496,-8.492c0,-4.692 3.804,-8.492 8.496,-8.492c4.688,0 8.492,3.801 8.492,8.493l-0,-0.001Z" style="fill:#e2e2e2;fill-rule:nonzero;"/><path d="M55.908,39.583c0,6.994 -5.67,12.658 -12.658,12.658c-6.993,0 -12.662,-5.665 -12.662,-12.658c-0,-6.993 5.669,-12.658 12.662,-12.658c6.988,-0 12.658,5.665 12.658,12.658Zm-5.187,4.041c0.326,0.082 0.668,0.126 1.021,0.126c-0,0 -0.413,-0.037 -0.978,-0.207c0.089,-0.17 0.174,-0.343 0.252,-0.519l0.726,0.726c-0,0 -0.275,-0.339 -0.682,-0.826c0.439,-1.025 0.682,-2.155 0.682,-3.341c-0,-4.691 -3.804,-8.492 -8.492,-8.492c-4.692,0 -8.496,3.8 -8.496,8.492c0,4.692 3.804,8.492 8.496,8.492c3.226,-0 6.033,-1.8 7.471,-4.451Z" style="fill:#222;"/></g></g></svg>