<?xml version="1.0" encoding="UTF-8" standalone="no"?><!DOCTYPE svg PUBLIC "-//W3C//DTD SVG 1.1//EN" "http://www.w3.org/Graphics/SVG/1.1/DTD/svg11.dtd"><svg width="100%" height="100%" viewBox="0 0 84 84" version="1.1" xmlns="http://www.w3.org/2000/svg" xmlns:xlink="http://www.w3.org/1999/xlink" xml:space="preserve" xmlns:serif="http://www.serif.com/" style="fill-rule:evenodd;clip-rule:evenodd;stroke-linejoin:round;stroke-miterlimit:2;"><g id="_3DToolBar_Grid_CheckedDisabled" serif:id="3DToolBar_Grid_CheckedDisabled" opacity="0.3"><rect id="Transparent-BG" serif:id="Transparent BG" x="0.25" y="-0.182" width="79.167" height="79.167" style="fill:none;"/><g><path d="M68.176,13.755l-0,54.222l-54.135,-0l0,-54.222l54.135,-0Zm-50.171,20.644l0,12.923l12.768,0l0,-12.923l-12.768,-0Zm12.768,-16.681l-12.768,0.001l0,12.716l12.768,-0l0,-12.717Zm16.62,0l-12.656,0l0,12.717l12.656,-0l0,-12.717Zm16.819,12.717l-0,-12.717l-12.855,0l0,12.717l12.855,-0Zm-0,16.887l-0,-12.923l-12.855,-0l0,12.923l12.855,0Zm-12.855,16.691l12.855,-0l-0,-12.727l-12.855,0l0,12.727Zm-16.62,-0l12.656,-0l0,-12.727l-12.656,0l0,12.727Zm-16.732,-12.727l0,12.727l12.768,-0l0,-12.727l-12.768,0Zm16.732,-16.887l0,12.923l12.656,0l0,-12.923l-12.656,-0Z" style="fill:#f7f7f7;"/><path d="M72.343,13.755l-0,54.222c-0,2.301 -1.866,4.166 -4.167,4.166l-54.135,0c-2.301,0 -4.167,-1.865 -4.167,-4.166l0,-54.222c0,-2.302 1.866,-4.167 4.167,-4.167l54.135,-0c2.301,-0 4.167,1.865 4.167,4.167Zm-4.167,-0l-54.135,-0l0,54.222l54.135,-0l-0,-54.222Zm-16.819,50.258l0,-12.727l12.855,0l-0,12.727l-12.855,-0Zm4.167,-4.167l4.521,0l0,-4.393l-4.521,-0l-0,4.393Zm-37.519,-8.56l12.768,0l0,12.727l-12.768,-0l0,-12.727Zm4.167,4.167l-0,4.393l4.434,0l0,-4.393l-4.434,0Zm-4.167,-21.054l12.768,-0l0,12.923l-12.768,0l0,-12.923Zm4.167,4.166l-0,4.591c-0,-0 4.434,-0 4.434,-0l0,-4.591l-4.434,0Zm8.601,-20.847l0,12.717l-12.768,-0l0,-12.716l12.768,-0.001Zm-4.167,4.167l-4.434,0l-0,4.383l4.434,0l0,-4.383Zm8.131,42.128l0,-12.727l12.656,0l0,12.727l-12.656,-0Zm4.167,-4.167l4.323,0l-0.001,-4.393l-4.322,-0l-0,4.393Zm8.489,-42.128l0,12.717l-12.656,-0l0,-12.717l12.656,0Zm-4.166,4.167l-4.323,0l-0,4.383l4.323,0l-0,-4.383Zm20.985,8.55l-12.855,-0l0,-12.717l12.855,0l-0,12.717Zm-4.167,-4.167l0,-4.383l-4.521,0l-0,4.383l4.521,0Zm4.167,21.054l-12.855,0l0,-12.923l12.855,-0l-0,12.923Zm-4.167,-4.166l0,-4.591c0,0 -4.521,0 -4.521,0l-0,4.591l4.521,-0Zm-25.308,-8.757l12.656,-0l0,12.923l-12.656,0l0,-12.923Zm4.167,4.166l-0,4.591c-0,-0 4.323,-0 4.323,-0l-0.001,-4.591l-4.322,0Z" style="fill:#222;"/></g></g></svg>