<?xml version="1.0" encoding="UTF-8" standalone="no"?><!DOCTYPE svg PUBLIC "-//W3C//DTD SVG 1.1//EN" "http://www.w3.org/Graphics/SVG/1.1/DTD/svg11.dtd"><svg width="100%" height="100%" viewBox="0 0 84 84" version="1.1" xmlns="http://www.w3.org/2000/svg" xmlns:xlink="http://www.w3.org/1999/xlink" xml:space="preserve" xmlns:serif="http://www.serif.com/" style="fill-rule:evenodd;clip-rule:evenodd;stroke-linejoin:round;stroke-miterlimit:2;"><g id="_3DToolBar_GameObjectVoices_Checked" serif:id="3DToolBar_GameObjectVoices_Checked"><rect id="Transparent-BG" serif:id="Transparent BG" x="2.317" y="2.169" width="79.167" height="79.167" style="fill:none;"/><g id="Calque-11" serif:id="Calque 11"><path d="M77.009,29.52l-0,47.112l-47.563,-0l-19.075,-19.47l0,-47.317l46.722,-0l19.916,19.675Zm-4.663,1.251l-16.964,-16.76c0,0 -30.311,0 -38.71,0l16.759,16.76l38.915,-0Zm-57.808,-13.002c-0,10.209 -0,37.692 -0,37.692l16.546,16.889l-0,-38.035l-16.546,-16.546Z" style="fill:#fff;"/><path d="M81.175,29.52l0,47.112c0,2.301 -1.865,4.167 -4.166,4.167l-47.563,-0c-1.12,-0 -2.193,-0.451 -2.977,-1.251l-19.074,-19.471c-0.763,-0.778 -1.191,-1.825 -1.191,-2.915l0,-47.317c0,-2.302 1.866,-4.167 4.167,-4.167l46.722,-0c1.097,-0 2.149,0.432 2.929,1.202l19.915,19.676c0.792,0.783 1.238,1.85 1.238,2.964Zm-4.166,-0l-19.916,-19.675l-46.722,-0l0,47.317l19.075,19.47l47.563,-0l-0,-47.112Zm-4.663,1.251l-38.915,-0l-16.759,-16.76l38.71,0l16.964,16.76Zm-10.146,-4.167l-8.529,-8.426l-26.94,-0l8.426,8.426l27.043,-0Zm-47.662,-8.835l16.546,16.546l-0,38.035l-16.546,-16.889l-0,-37.692Zm4.166,35.991l8.213,8.383l0,-26.102l-8.213,-8.212l0,25.931Z" style="fill:#222;"/><path d="M56.226,49.193c-1.457,-1.39 -2.949,-2.634 -4.428,-3.717l5.933,-11.001l-7.488,-0l-1.23,9.14c-5.356,-3.233 -10.215,-4.144 -12.48,-1.879c-3.384,3.389 0.337,12.609 8.314,20.59c7.977,7.986 17.188,11.712 20.572,8.323c2.225,-2.229 1.381,-6.977 -1.723,-12.236l9.016,-1.47l-0,-7.492l-10.855,6.16c-1.075,-1.492 -2.314,-2.998 -3.699,-4.473l14.554,-9.175l-0,-7.488l-4.992,-0l-11.494,14.718Zm-4.744,6.662c2.989,2.994 4.553,6.209 3.496,7.173c-1.066,0.968 -4.348,-0.675 -7.342,-3.669c-2.989,-2.989 -4.548,-6.2 -3.491,-7.168c1.066,-0.968 4.348,0.671 7.337,3.664Zm-13.563,3.296l-2.177,2.154c-0.608,0.604 -0.47,0.528 -0.453,1.709c0.031,1.679 0.84,4.14 2.727,6.014c1.715,1.692 3.869,2.558 5.494,2.754c1.621,0.195 1.537,0.266 2.19,-0.373l2.354,-2.332c-2.074,-0.382 -4.624,-1.519 -6.693,-3.567c-1.95,-1.931 -3.038,-4.334 -3.442,-6.359Z" style="fill:#222;fill-rule:nonzero;"/></g></g></svg>