<?xml version="1.0" encoding="UTF-8" standalone="no"?><!DOCTYPE svg PUBLIC "-//W3C//DTD SVG 1.1//EN" "http://www.w3.org/Graphics/SVG/1.1/DTD/svg11.dtd"><svg width="100%" height="100%" viewBox="0 0 84 84" version="1.1" xmlns="http://www.w3.org/2000/svg" xmlns:xlink="http://www.w3.org/1999/xlink" xml:space="preserve" xmlns:serif="http://www.serif.com/" style="fill-rule:evenodd;clip-rule:evenodd;stroke-linejoin:round;stroke-miterlimit:2;"><g id="_3DToolBar_WorldOrientationX_CheckedDisabled" serif:id="3DToolBar_WorldOrientationX_CheckedDisabled" opacity="0.3"><rect id="Transparent-BG" serif:id="Transparent BG" x="2.581" y="5.358" width="79.167" height="79.167" style="fill:none;"/><g><g id="AxisX"><path d="M49.427,59.116l-21.157,10.677l-1.785,-3.537l21.249,-10.724l0,-24.079l3.963,-0l-0,24.371l20.531,10.44l-1.796,3.532l-21.005,-10.68Z" style="fill:#f7f7f7;"/><path d="M49.42,63.787l-19.272,9.726c-2.055,1.037 -4.561,0.212 -5.598,-1.842l-1.785,-3.538c-1.037,-2.054 -0.212,-4.56 1.843,-5.597l18.959,-9.569l0,-21.514c0,-2.302 1.866,-4.167 4.167,-4.167l3.963,-0c2.301,-0 4.166,1.865 4.166,4.167l0,21.815l18.254,9.282c2.051,1.043 2.868,3.551 1.825,5.602l-1.796,3.533c-1.043,2.051 -3.551,2.868 -5.602,1.825l-19.124,-9.723Zm0.007,-4.671l21.005,10.68l1.796,-3.532l-20.531,-10.44l-0,-24.371l-3.963,-0l0,24.079l-21.249,10.724l1.785,3.537l21.157,-10.677Z" style="fill:#222;"/><path d="M24.131,24.074l9.653,12.38l-4.59,0l-7.557,-9.792l-6.967,9.792l-4.503,0l9.374,-12.38l-9.416,-12.626l4.545,0l7.37,10.039l7.246,-10.039l4.539,0l-9.694,12.626Z" style="fill:#fff;fill-rule:nonzero;"/><path d="M29.399,24.055l7.671,9.837c0.979,1.256 1.157,2.96 0.458,4.391c-0.698,1.431 -2.151,2.338 -3.744,2.338l-4.59,0c-1.291,0 -2.509,-0.599 -3.298,-1.621c-0,0 -4.123,-5.342 -4.123,-5.342l-3.708,5.212c-0.782,1.099 -2.047,1.751 -3.395,1.751l-4.503,0c-1.582,0 -3.027,-0.895 -3.732,-2.312c-0.704,-1.416 -0.545,-3.109 0.41,-4.37l7.484,-9.884l-7.544,-10.116c-0.942,-1.263 -1.091,-2.95 -0.384,-4.359c0.707,-1.409 2.148,-2.298 3.724,-2.298l4.545,-0c1.326,-0 2.573,0.631 3.358,1.701l3.983,5.424l3.896,-5.397c0.784,-1.085 2.041,-1.728 3.379,-1.728l4.539,-0c1.587,-0 3.036,0.901 3.738,2.324c0.701,1.423 0.534,3.122 -0.433,4.38l-7.731,10.069Zm-5.268,0.019l9.694,-12.626l-4.539,0l-7.246,10.039l-7.37,-10.039l-4.545,0l9.416,12.626l-9.374,12.38l4.503,0l6.967,-9.792l7.557,9.792l4.59,0l-9.653,-12.38Z" style="fill:#222;"/></g></g></g></svg>