<?xml version="1.0" encoding="UTF-8" standalone="no"?><!DOCTYPE svg PUBLIC "-//W3C//DTD SVG 1.1//EN" "http://www.w3.org/Graphics/SVG/1.1/DTD/svg11.dtd"><svg width="100%" height="100%" viewBox="0 0 84 84" version="1.1" xmlns="http://www.w3.org/2000/svg" xmlns:xlink="http://www.w3.org/1999/xlink" xml:space="preserve" xmlns:serif="http://www.serif.com/" style="fill-rule:evenodd;clip-rule:evenodd;stroke-linejoin:round;stroke-miterlimit:2;"><g id="_3DToolBar_ActiveVoicesOnly_Normal" serif:id="3DToolBar_ActiveVoicesOnly_Normal" opacity="0.45"><rect id="Transparent-BG" serif:id="Transparent BG" x="3.628" y="4.207" width="79.167" height="79.167" style="fill:none;"/><g><g id="Calque-6" serif:id="Calque 6"><path d="M54.578,59.654l6.4,-0l-2.688,-8.404c-0.196,-0.625 -0.416,-2.246 -0.416,-2.246l-0.142,-0c-0,-0 -0.2,1.454 -0.433,2.179l-2.721,8.471Zm6.712,-15.117l8.892,25l-6.138,0l-1.779,-5.558l-8.891,-0l-1.759,5.558l-6.104,0l9.1,-25l6.679,0Z" style="fill:#fff;fill-rule:nonzero;"/><path d="M65.216,43.141l8.892,25c0.453,1.275 0.259,2.692 -0.522,3.798c-0.78,1.107 -2.05,1.765 -3.404,1.765l-6.138,-0c-1.811,-0 -3.416,-1.171 -3.968,-2.897c0,0 -0.852,-2.662 -0.852,-2.662l-2.798,0l-0.838,2.649c-0.548,1.732 -2.156,2.91 -3.973,2.91l-6.104,-0c-1.359,-0 -2.633,-0.664 -3.413,-1.777c-0.78,-1.114 -0.967,-2.538 -0.502,-3.815l9.1,-25c0.599,-1.646 2.163,-2.742 3.915,-2.742l6.679,0c1.763,0 3.335,1.11 3.926,2.771Zm-3.926,1.396l-6.679,0l-9.1,25l6.104,0l1.759,-5.558l8.891,-0l1.779,5.558l6.138,0l-8.892,-25Zm-4.342,7.738l0.35,0.401l0.288,0.247c-0.124,-0.214 -0.315,-0.554 -0.533,-0.976l0.246,-0.764c0.233,-0.725 0.433,-2.179 0.433,-2.179l0.142,-0c-0,-0 0.22,1.621 0.416,2.246l0.019,0.058c-0.165,0.794 -0.322,1.425 -0.394,1.705l0.038,-0.032c0.098,-0.232 0.28,-0.657 0.516,-1.172l2.509,7.845l-6.4,-0l2.37,-7.379Z" style="fill:#222;"/><path d="M22.756,35.79c1.538,-1.395 6.288,0.975 10.613,5.305c4.325,4.329 6.583,8.975 5.054,10.37c-1.542,1.405 -6.288,-0.97 -10.617,-5.3c-4.325,-4.329 -6.583,-8.975 -5.05,-10.375Zm20.55,27.625l7.392,-20.3l0.996,-2.741l12.379,-0l-0,-8.542l-15.7,8.904c-1.554,-2.158 -3.346,-4.333 -5.35,-6.466l21.05,-13.271l-0,-10.834l-7.221,0l-16.625,21.292c-2.108,-2.008 -4.263,-3.808 -6.404,-5.379l8.583,-15.913l-10.833,0l-1.779,13.225c-7.746,-4.679 -14.775,-5.995 -18.046,-2.725c-4.896,4.909 0.487,18.242 12.021,29.792c6.562,6.567 13.7,11.133 19.537,12.958Z" style="fill:#fff;fill-rule:nonzero;"/><path d="M54.614,44.54l-7.393,20.301l-3.915,2.741c-0.422,0 -0.841,-0.064 -1.243,-0.19c-6.333,-1.98 -14.123,-6.866 -21.242,-13.99c-8.904,-8.917 -14.267,-18.925 -14.962,-25.907c-0.414,-4.165 0.687,-7.514 2.941,-9.774c2.054,-2.055 4.991,-3.149 8.628,-3.021c2.619,0.092 5.704,0.859 9.024,2.281l0.991,-7.371c0.278,-2.068 2.043,-3.611 4.13,-3.611l10.833,-0c1.467,-0 2.826,0.771 3.578,2.031c0.752,1.26 0.786,2.822 0.089,4.113c0,0 -6.91,12.81 -6.91,12.81c0.173,0.142 0.346,0.286 0.52,0.431l13.885,-17.783c0.789,-1.011 2.001,-1.602 3.284,-1.602l7.221,-0c2.301,-0 4.166,1.865 4.166,4.166l0,10.834c0,1.431 -0.734,2.761 -1.944,3.524c-0,0 -16.926,10.671 -16.926,10.671c0.035,0.043 0.07,0.085 0.104,0.128l12.544,-7.114c1.29,-0.732 2.872,-0.723 4.153,0.024c1.281,0.746 2.069,2.117 2.069,3.6l0,8.542c0,2.301 -1.865,4.166 -4.166,4.166l-2.784,0l-6.675,-0Zm-11.308,18.875l7.392,-20.3l0.996,-2.741l12.379,-0l-0,-8.542l-15.7,8.904c-1.554,-2.158 -3.346,-4.333 -5.35,-6.466l21.05,-13.271l-0,-10.834l-7.221,0l-16.625,21.292c-2.108,-2.008 -4.263,-3.808 -6.404,-5.379l8.583,-15.913l-10.833,0l-1.779,13.225c-7.746,-4.679 -14.775,-5.995 -18.046,-2.725c-4.896,4.909 0.487,18.242 12.021,29.792c6.562,6.567 13.7,11.133 19.537,12.958Zm-20.55,-27.625c1.538,-1.395 6.288,0.975 10.613,5.305c4.325,4.329 6.583,8.975 5.054,10.37c-1.542,1.405 -6.288,-0.97 -10.617,-5.3c-4.325,-4.329 -6.583,-8.975 -5.05,-10.375Z" style="fill:#222;"/><path d="M13.747,45.857l-3.15,3.117c-0.879,0.871 -0.679,0.763 -0.65,2.475c0.038,2.425 1.209,5.988 3.942,8.696c2.483,2.454 5.596,3.704 7.946,3.987c2.346,0.284 2.221,0.388 3.167,-0.545l3.404,-3.371c-2.996,-0.554 -6.684,-2.2 -9.679,-5.159c-2.825,-2.795 -4.396,-6.27 -4.98,-9.2Z" style="fill:#fff;fill-rule:nonzero;"/><path d="M14.663,48.908l3.171,-3.864c0.447,2.245 1.656,4.907 3.822,7.05c2.327,2.297 5.181,3.594 7.508,4.025c1.525,0.282 2.767,1.388 3.224,2.87c0.456,1.483 0.052,3.096 -1.051,4.187l-3.409,3.376c-0.993,0.98 -1.65,1.371 -2.339,1.623c-0.721,0.265 -1.675,0.405 -4.253,0.094c-3.063,-0.369 -7.141,-1.963 -10.378,-5.162c-3.633,-3.601 -5.127,-8.368 -5.177,-11.592c-0.034,-2.006 0.082,-2.717 0.335,-3.344c0.235,-0.584 0.592,-1.209 1.55,-2.158l3.151,-3.117c-1.007,0.996 -1.426,2.42 -1.156,3.775c0.052,0.264 0.13,0.522 0.232,0.771c0.21,0.511 0.516,0.966 0.892,1.346l-0.188,0.186c-0.879,0.871 -0.679,0.763 -0.65,2.475c0.038,2.425 1.209,5.988 3.942,8.696c2.483,2.454 5.596,3.704 7.946,3.987c2.346,0.284 2.221,0.388 3.167,-0.545l3.404,-3.371c-2.996,-0.554 -6.684,-2.2 -9.679,-5.159c-1.888,-1.868 -3.216,-4.04 -4.064,-6.149Z" style="fill:#222;"/></g></g></g></svg>