<?xml version="1.0" encoding="UTF-8" standalone="no"?><!DOCTYPE svg PUBLIC "-//W3C//DTD SVG 1.1//EN" "http://www.w3.org/Graphics/SVG/1.1/DTD/svg11.dtd"><svg width="100%" height="100%" viewBox="0 0 84 84" version="1.1" xmlns="http://www.w3.org/2000/svg" xmlns:xlink="http://www.w3.org/1999/xlink" xml:space="preserve" xmlns:serif="http://www.serif.com/" style="fill-rule:evenodd;clip-rule:evenodd;stroke-linejoin:round;stroke-miterlimit:2;"><g id="_3DToolBar_GameObjectVoices_CheckedDisabled" serif:id="3DToolBar_GameObjectVoices_CheckedDisabled" opacity="0.3"><rect id="Transparent-BG" serif:id="Transparent BG" x="2.317" y="2.169" width="79.167" height="79.167" style="fill:none;"/><g id="Calque-11" serif:id="Calque 11"><path d="M77.119,29.596l0,47.112l-47.563,0l-19.074,-19.47l-0,-47.317l46.722,-0l19.915,19.675Zm-4.663,1.251l-16.963,-16.76c0,0 -30.312,0 -38.71,0l16.759,16.76l38.914,-0Zm-57.808,-13.001c0,10.208 0,37.691 0,37.691l16.546,16.889l0,-38.034l-16.546,-16.546Z" style="fill:#fff;"/><path d="M81.286,29.596l-0,47.112c-0,2.301 -1.866,4.167 -4.167,4.167l-47.563,-0c-1.119,-0 -2.192,-0.451 -2.976,-1.251l-19.075,-19.47c-0.763,-0.779 -1.19,-1.826 -1.19,-2.916l0,-47.317c0,-2.301 1.866,-4.167 4.167,-4.167l46.722,0c1.096,0 2.149,0.432 2.929,1.203l19.915,19.675c0.792,0.783 1.238,1.85 1.238,2.964Zm-4.167,0l-19.915,-19.675l-46.722,-0l-0,47.317l19.074,19.47l47.563,0l0,-47.112Zm-4.663,1.251l-38.914,-0l-16.759,-16.76l38.71,0l16.963,16.76Zm-10.145,-4.167l-8.529,-8.426l-26.94,0l8.426,8.426l27.043,0Zm-47.663,-8.834l16.546,16.546l0,38.034l-16.546,-16.889l0,-37.691Zm4.167,35.99l8.213,8.383l-0,-26.102l-8.213,-8.212l0,25.931Z" style="fill:#222;"/><path d="M56.336,49.269c-1.456,-1.39 -2.949,-2.633 -4.428,-3.717l5.934,-11.001l-7.488,-0l-1.23,9.14c-5.357,-3.233 -10.215,-4.144 -12.48,-1.879c-3.385,3.389 0.337,12.609 8.314,20.59c7.976,7.986 17.188,11.712 20.572,8.323c2.225,-2.229 1.381,-6.977 -1.723,-12.236l9.015,-1.47l0,-7.492l-10.854,6.16c-1.075,-1.492 -2.314,-2.998 -3.7,-4.472l14.554,-9.176l0,-7.488l-4.992,-0l-11.494,14.718Zm-4.743,6.662c2.989,2.994 4.552,6.209 3.495,7.173c-1.066,0.968 -4.348,-0.675 -7.341,-3.669c-2.989,-2.989 -4.548,-6.2 -3.491,-7.168c1.066,-0.968 4.348,0.671 7.337,3.664Zm-13.564,3.296l-2.176,2.154c-0.608,0.604 -0.471,0.528 -0.453,1.71c0.031,1.678 0.839,4.139 2.727,6.013c1.714,1.692 3.868,2.558 5.494,2.754c1.621,0.195 1.537,0.266 2.189,-0.373l2.354,-2.332c-2.074,-0.382 -4.623,-1.519 -6.693,-3.566c-1.949,-1.932 -3.038,-4.335 -3.442,-6.36Z" style="fill:#222;fill-rule:nonzero;"/></g></g></svg>