<?xml version="1.0" encoding="UTF-8" standalone="no"?><!DOCTYPE svg PUBLIC "-//W3C//DTD SVG 1.1//EN" "http://www.w3.org/Graphics/SVG/1.1/DTD/svg11.dtd"><svg width="100%" height="100%" viewBox="0 0 84 84" version="1.1" xmlns="http://www.w3.org/2000/svg" xmlns:xlink="http://www.w3.org/1999/xlink" xml:space="preserve" xmlns:serif="http://www.serif.com/" style="fill-rule:evenodd;clip-rule:evenodd;stroke-linejoin:round;stroke-miterlimit:2;"><g id="_3DToolBar_IconSize_Checked" serif:id="3DToolBar_IconSize_Checked"><rect id="Transparent-BG" serif:id="Transparent BG" x="2.316" y="1.669" width="79.167" height="79.167" style="fill:none;"/><g id="Calque-6" serif:id="Calque 6"><path d="M9.999,76.459l0,-66.667l66.667,0l0,66.667l-66.667,-0Zm59.114,-62.5l-54.947,-0l0,33.379l24.828,0l-0,24.954l33.505,0l0,-56.114l-31.358,31.485l-2.813,-2.796l30.785,-30.908Z" style="fill:#f7f7f7;"/><path d="M5.833,76.459l-0,-66.667c-0,-2.301 1.865,-4.167 4.166,-4.167l66.667,0c2.301,0 4.167,1.866 4.167,4.167l-0,66.667c-0,2.301 -1.866,4.166 -4.167,4.166l-66.667,0c-2.301,0 -4.166,-1.865 -4.166,-4.166Zm4.166,-0l66.667,-0l0,-66.667l-66.667,0l0,66.667Zm59.114,-62.5l-30.785,30.908l2.813,2.796l31.358,-31.485l0,56.114l-33.505,0l-0,-24.954l-24.828,0l0,-33.379l54.947,-0Zm-25.953,37.349c0,6.034 0,16.817 0,16.817c0,0 25.173,0 25.173,0c-0,0 -0,-41.859 -0,-41.859l-24.24,24.337c-0.284,0.285 -0.598,0.52 -0.933,0.705Zm-8.638,-8.136c0.205,-0.46 0.492,-0.882 0.854,-1.246l23.706,-23.801l-40.749,0l-0,25.047l16.189,-0Z" style="fill:#222;"/></g></g></svg>