<?xml version="1.0" encoding="UTF-8" standalone="no"?><!DOCTYPE svg PUBLIC "-//W3C//DTD SVG 1.1//EN" "http://www.w3.org/Graphics/SVG/1.1/DTD/svg11.dtd"><svg width="100%" height="100%" viewBox="0 0 84 84" version="1.1" xmlns="http://www.w3.org/2000/svg" xmlns:xlink="http://www.w3.org/1999/xlink" xml:space="preserve" xmlns:serif="http://www.serif.com/" style="fill-rule:evenodd;clip-rule:evenodd;stroke-linejoin:round;stroke-miterlimit:2;"><g id="_3DToolBar_DiffractionEdgeReceptors_Normal" serif:id="3DToolBar_DiffractionEdgeReceptors_Normal" opacity="0.45"><rect id="Transparent-BG" serif:id="Transparent BG" x="1.623" y="3.034" width="79.167" height="79.167" style="fill:none;"/><g><rect x="66.707" y="45.992" width="8.306" height="4.175" style="fill:#f7f7f7;"/><path d="M79.18,45.992l-0,4.174c-0,2.302 -1.866,4.167 -4.167,4.167l-8.306,0c-2.301,0 -4.167,-1.865 -4.167,-4.167l0,-4.174c0,-2.301 1.866,-4.167 4.167,-4.167l8.306,0c2.301,0 4.167,1.866 4.167,4.167Zm-4.167,-0l-8.306,-0l0,4.174l8.306,0l0,-4.174Z" style="fill:#222;"/><rect x="49.971" y="45.992" width="8.302" height="4.175" style="fill:#f7f7f7;"/><path d="M49.971,41.825l8.302,0c2.301,0 4.167,1.866 4.167,4.167l-0,4.174c-0,2.302 -1.866,4.167 -4.167,4.167l-8.302,0c-2.302,0 -4.167,-1.865 -4.167,-4.167l-0,-4.174c-0,-2.301 1.865,-4.167 4.167,-4.167Zm-0,4.167l-0,4.174l8.302,0l0,-4.174l-8.302,-0Z" style="fill:#222;"/><path d="M66.705,54.185l0,9.977c0,2.332 -1.889,4.217 -4.217,4.217c-2.327,0 -4.217,-1.885 -4.217,-4.217l0,-9.977l-8.302,0l-0,9.977c-0,6.918 5.605,12.523 12.519,12.523c6.914,0 12.52,-5.605 12.52,-12.523l-0,-9.977l-8.303,0Z" style="fill:#f7f7f7;fill-rule:nonzero;"/><path d="M66.705,50.018l8.303,0c2.301,0 4.166,1.866 4.166,4.167l0,9.977c0,9.22 -7.471,16.69 -16.686,16.69c-9.214,0 -16.686,-7.47 -16.686,-16.69l0,-9.977c0,-2.301 1.866,-4.167 4.167,-4.167l8.302,0c2.301,0 4.167,1.866 4.167,4.167l-0,9.977c-0,0.028 0.022,0.051 0.05,0.051c0.028,-0 0.051,-0.023 0.051,-0.051l-0,-9.977c-0,-2.301 1.865,-4.167 4.166,-4.167Zm0,4.167l0,9.977c0,2.332 -1.889,4.217 -4.217,4.217c-2.327,0 -4.217,-1.885 -4.217,-4.217l0,-9.977l-8.302,0l-0,9.977c-0,6.918 5.605,12.523 12.519,12.523c6.914,0 12.52,-5.605 12.52,-12.523l-0,-9.977l-8.303,0Z" style="fill:#222;"/><rect x="33.38" y="4.748" width="4.221" height="24.327" style="fill:#f7f7f7;"/><path d="M41.767,4.748l0,24.327c0,2.301 -1.865,4.167 -4.167,4.167l-4.22,-0c-2.301,-0 -4.167,-1.866 -4.167,-4.167l0,-24.327c0,-2.301 1.866,-4.167 4.167,-4.167l4.22,0c2.302,0 4.167,1.866 4.167,4.167Zm-4.167,0l-4.22,0l-0,24.327l4.22,0l0,-24.327Z" style="fill:#222;"/><rect x="4.084" y="33.6" width="25.058" height="3.735" style="fill:#f7f7f7;"/><path d="M33.309,33.6l0,3.735c0,2.301 -1.865,4.167 -4.167,4.167l-25.058,-0c-2.301,-0 -4.166,-1.866 -4.166,-4.167l-0,-3.735c-0,-2.302 1.865,-4.167 4.166,-4.167l25.058,-0c2.302,-0 4.167,1.865 4.167,4.167Zm-4.167,-0l-25.058,-0l0,3.735l25.058,0l0,-3.735Z" style="fill:#222;"/><path d="M45.76,41.6l8.229,0l-0.004,-8l-20.605,-0l-0,20.618l12.381,-0l-0.001,-12.618Z" style="fill:#f7f7f7;fill-rule:nonzero;"/><path d="M49.927,45.767l0.001,8.45c-0,1.105 -0.439,2.165 -1.221,2.947c-0.781,0.781 -1.841,1.22 -2.946,1.22l-12.381,0c-2.301,0 -4.167,-1.865 -4.167,-4.166l0,-20.618c0,-2.302 1.866,-4.167 4.167,-4.167l20.605,-0c2.301,-0 4.166,1.864 4.167,4.165l0.004,8c0,1.106 -0.439,2.166 -1.22,2.948c-0.782,0.781 -1.842,1.221 -2.947,1.221l-4.062,-0Zm-4.167,-4.167l8.229,0l-0.004,-8l-20.605,-0l-0,20.618l12.381,-0l-0.001,-12.618Z" style="fill:#222;"/></g></g></svg>