<?xml version="1.0" encoding="UTF-8" standalone="no"?><!DOCTYPE svg PUBLIC "-//W3C//DTD SVG 1.1//EN" "http://www.w3.org/Graphics/SVG/1.1/DTD/svg11.dtd"><svg width="100%" height="100%" viewBox="0 0 84 84" version="1.1" xmlns="http://www.w3.org/2000/svg" xmlns:xlink="http://www.w3.org/1999/xlink" xml:space="preserve" xmlns:serif="http://www.serif.com/" style="fill-rule:evenodd;clip-rule:evenodd;stroke-linejoin:round;stroke-miterlimit:2;"><g id="_3DToolBar_CameraSpeed_CheckedDisabled" serif:id="3DToolBar_CameraSpeed_CheckedDisabled" opacity="0.3"><rect id="Transparent-BG" serif:id="Transparent BG" x="0.658" y="3.921" width="79.167" height="79.167" style="fill:none;"/><g><g id="CamSpeed"><path d="M55.655,44.485l0,11.323l-20.407,0l-0,-3.962l16.445,-0c-0,-0 -0,-29.507 -0,-29.507c-0,-0 -33.576,-0 -33.576,-0l-0,16.172l-3.963,-0l0,-20.135l41.501,0l0,11.052l16.698,-8.119l-0,31.29l-16.698,-8.114Zm0,-10.651l0,6.245l1.624,0.789l11.111,5.4c0,0 0,-18.626 0,-18.626l-12.735,6.192Z" style="fill:#f7f7f7;"/><path d="M47.526,26.505l-25.243,0l0,12.006c0,2.301 -1.865,4.166 -4.166,4.166l-3.963,0c-2.301,0 -4.166,-1.865 -4.166,-4.166l-0,-20.135c-0,-2.301 1.865,-4.166 4.166,-4.166l41.501,-0c2.302,-0 4.167,1.865 4.167,4.166l-0,4.393l10.709,-5.207c1.291,-0.628 2.815,-0.547 4.032,0.215c1.217,0.761 1.956,2.096 1.956,3.532l0,31.29c0,1.436 -0.739,2.771 -1.956,3.532c-1.217,0.762 -2.74,0.843 -4.032,0.216l-10.709,-5.205l-0,4.666c-0,2.302 -1.865,4.167 -4.167,4.167l-20.407,0c-2.302,0 -4.167,-1.865 -4.167,-4.167l-0,-3.962c-0,-2.301 1.865,-4.167 4.167,-4.167l12.278,0l0,-21.174Zm8.129,17.98l16.698,8.114l-0,-31.29l-16.698,8.119l0,-11.052l-41.501,0l0,20.135l3.963,-0l-0,-16.172c-0,-0 33.576,-0 33.576,-0c-0,-0 -0,29.507 -0,29.507l-16.445,-0l-0,3.962l20.407,0l0,-11.323Zm0,-10.651l12.735,-6.192c0,-0 0,18.626 0,18.626l-11.111,-5.4l-1.624,-0.789l0,-6.245Zm4.167,3.638l4.402,2.139l-0,-5.31l-4.402,2.14l0,1.031Zm5.914,-8.313c0.923,0.922 2.007,2.004 2.45,2.446l0,-3.637l-2.45,1.191Zm-5.914,8.41c1.482,1.174 1.024,2.88 0.116,4.365l1.174,0.57c0.095,-0.224 0.172,-0.458 0.228,-0.701c0.37,-1.611 -0.248,-3.258 -1.518,-4.234Z" style="fill:#222;"/><path d="M8.776,45.521l2.802,-2.802l16.196,16.196l-16.243,15.716l-2.755,-2.848l13.347,-12.915l-13.347,-13.347Z" style="fill:#f7f7f7;"/><path d="M5.829,42.575l2.802,-2.802c1.628,-1.628 4.266,-1.628 5.893,-0l16.196,16.196c0.79,0.789 1.229,1.863 1.22,2.98c-0.009,1.117 -0.466,2.184 -1.269,2.96l-16.242,15.716c-1.654,1.6 -4.292,1.557 -5.892,-0.097l-2.755,-2.848c-1.6,-1.653 -1.557,-4.291 0.097,-5.891l10.303,-9.97l-10.353,-10.352c-1.627,-1.627 -1.627,-4.265 0,-5.892Zm2.947,2.946l13.347,13.347l-13.347,12.915l2.755,2.848l16.243,-15.716l-16.196,-16.196l-2.802,2.802Z" style="fill:#222;"/></g></g></g></svg>