<?xml version="1.0" encoding="UTF-8" standalone="no"?><!DOCTYPE svg PUBLIC "-//W3C//DTD SVG 1.1//EN" "http://www.w3.org/Graphics/SVG/1.1/DTD/svg11.dtd"><svg width="100%" height="100%" viewBox="0 0 84 84" version="1.1" xmlns="http://www.w3.org/2000/svg" xmlns:xlink="http://www.w3.org/1999/xlink" xml:space="preserve" xmlns:serif="http://www.serif.com/" style="fill-rule:evenodd;clip-rule:evenodd;stroke-linejoin:round;stroke-miterlimit:2;"><g id="_3DToolBar_ReverbZoneTransitionRegions_Checked" serif:id="3DToolBar_ReverbZoneTransitionRegions_Checked"><rect id="Transparent-BG" serif:id="Transparent BG" x="3.424" y="2.67" width="79.167" height="79.167" style="fill:none;"/><g id="Calque-15" serif:id="Calque 15"><g id="Calque-3" serif:id="Calque 3"><path d="M45.73,42.913l3.412,-2.31l-5.65,-9.269l6.508,-12.264c0.725,-1.197 2.08,-1.94 3.534,-1.94l21.548,0l0,-3.975l-21.548,0c-2.938,0 -5.671,1.503 -7.138,3.919l-5.312,10.305l-5.317,-10.308c-1.475,-2.417 -4.208,-3.916 -7.137,-3.916l-20.169,0l-0,3.975l20.169,0c1.454,0 2.808,0.743 3.537,1.94l6.504,12.264l-6.5,13.207c-0.733,1.196 -2.091,1.943 -3.541,1.943l-20.169,0l-0,3.975l20.169,0c2.929,0 5.662,-1.502 7.141,-3.919l5.313,-11.251l4.646,7.624Z" style="fill:#fff;fill-rule:nonzero;"/><path d="M53.535,21.297l-5.25,9.894l4.415,7.244c1.158,1.899 0.619,4.373 -1.223,5.619l-3.412,2.31c-0.944,0.638 -2.108,0.863 -3.221,0.62c-1.114,-0.242 -2.079,-0.93 -2.672,-1.903c-0,0 -0.622,-1.02 -0.622,-1.02l-2.011,4.258c-0.064,0.136 -0.135,0.268 -0.214,0.396c-2.219,3.625 -6.301,5.911 -10.695,5.911l-20.169,0c-2.301,0 -4.167,-1.865 -4.167,-4.167l0,-3.975c0,-2.301 1.866,-4.166 4.167,-4.166l20.16,-0l5.371,-10.913c0,-0 -5.377,-10.141 -5.362,-10.108l-20.169,-0c-2.301,-0 -4.167,-1.866 -4.167,-4.167l0,-3.975c0,-2.301 1.866,-4.167 4.167,-4.167l20.169,0c4.396,0 8.48,2.284 10.694,5.912c0.052,0.085 0.101,0.172 0.146,0.261l1.613,3.126l1.61,-3.122c0.044,-0.086 0.091,-0.17 0.141,-0.252c2.203,-3.63 6.288,-5.925 10.7,-5.925l21.548,0c2.301,0 4.167,1.866 4.167,4.167l-0,3.975c-0,2.301 -1.866,4.167 -4.167,4.167l-21.547,0Zm-7.805,21.616l3.412,-2.31l-5.65,-9.269l6.508,-12.264c0.725,-1.197 2.08,-1.94 3.534,-1.94l21.548,0l0,-3.975l-21.548,0c-2.938,0 -5.671,1.503 -7.138,3.919l-5.312,10.305l-5.317,-10.308c-1.475,-2.417 -4.208,-3.916 -7.137,-3.916l-20.169,0l-0,3.975l20.169,0c1.454,0 2.808,0.743 3.537,1.94l6.504,12.264l-6.5,13.207c-0.733,1.196 -2.091,1.943 -3.541,1.943l-20.169,0l-0,3.975l20.169,0c2.929,0 5.662,-1.502 7.141,-3.919l5.313,-11.251l4.646,7.624Z" style="fill:#222;"/><path d="M50.296,64.191l5.123,-0c2.305,-0 4.176,-1.992 4.176,-4.443l-0,-5.443c-0,-2.451 -1.871,-4.443 -4.176,-4.443l-5.123,0c-2.306,0 -4.176,1.992 -4.176,4.443l-0,5.443c-0,2.451 1.87,4.443 4.176,4.443Zm2.561,-28.657c0.651,-0 1.301,0.203 1.871,0.604l20.212,14.328c1.237,0.871 1.783,2.504 1.353,4.019c-0.43,1.511 -1.737,2.544 -3.224,2.544l-6.737,0l0,10.745c0,1.975 -1.51,3.578 -3.369,3.578l-20.212,0c-1.864,0 -3.368,-1.603 -3.368,-3.578l-0,-10.745l-6.738,0c-1.487,0 -2.794,-1.033 -3.229,-2.544c-0.43,-1.515 0.122,-3.148 1.359,-4.019l20.212,-14.328c0.563,-0.401 1.22,-0.604 1.87,-0.604Z" style="fill:#fff;fill-rule:nonzero;"/><path d="M52.857,31.367c1.484,-0 2.971,0.45 4.269,1.364l0.011,0.008l20.202,14.321c2.643,1.861 3.88,5.325 2.962,8.564c-0.955,3.357 -3.927,5.572 -7.232,5.572l-2.57,0l-0,6.578c-0,4.343 -3.449,7.745 -7.536,7.745l-20.212,-0c-4.099,-0 -7.535,-3.402 -7.535,-7.745l-0,-6.578l-2.571,0c-3.298,0 -6.266,-2.206 -7.233,-5.556l-0.005,-0.018c-0.918,-3.238 0.326,-6.702 2.958,-8.555l20.207,-14.325c1.29,-0.917 2.796,-1.375 4.285,-1.375Zm0,4.167c-0.65,-0 -1.307,0.203 -1.87,0.604l-20.212,14.328c-1.237,0.871 -1.789,2.504 -1.359,4.019c0.435,1.511 1.742,2.544 3.229,2.544l6.738,0l-0,10.745c-0,1.975 1.504,3.578 3.368,3.578l20.212,0c1.859,0 3.369,-1.603 3.369,-3.578l0,-10.745l6.737,0c1.487,0 2.794,-1.033 3.224,-2.544c0.43,-1.515 -0.116,-3.148 -1.353,-4.019l-20.212,-14.328c-0.57,-0.401 -1.22,-0.604 -1.871,-0.604Zm-2.561,28.657c-2.306,-0 -4.176,-1.992 -4.176,-4.443l-0,-5.443c-0,-2.451 1.87,-4.443 4.176,-4.443l5.123,0c2.305,0 4.176,1.992 4.176,4.443l-0,5.443c-0,2.451 -1.871,4.443 -4.176,4.443l-5.123,-0Zm-0,-4.167l5.123,0c0.104,0 0.009,-0.165 0.009,-0.276l0,-5.443c0,-0.111 0.095,-0.276 -0.009,-0.276l-5.123,-0c-0.105,-0 -0.009,0.165 -0.009,0.276l-0,5.443c-0,0.111 -0.096,0.276 0.009,0.276Z" style="fill:#222;"/></g></g></g></svg>