<?xml version="1.0" encoding="UTF-8" standalone="no"?><!DOCTYPE svg PUBLIC "-//W3C//DTD SVG 1.1//EN" "http://www.w3.org/Graphics/SVG/1.1/DTD/svg11.dtd"><svg width="100%" height="100%" viewBox="0 0 84 84" version="1.1" xmlns="http://www.w3.org/2000/svg" xmlns:xlink="http://www.w3.org/1999/xlink" xml:space="preserve" xmlns:serif="http://www.serif.com/" style="fill-rule:evenodd;clip-rule:evenodd;stroke-linejoin:round;stroke-miterlimit:2;"><g id="_3DToolBar_PortalOpacity_CheckedDisabled" serif:id="3DToolBar_PortalOpacity_CheckedDisabled" opacity="0.3"><rect id="Transparent-BG" serif:id="Transparent BG" x="1.167" y="1.648" width="79.167" height="79.167" style="fill:none;"/><g id="Calque-3" serif:id="Calque 3"><g><path d="M8.719,12.217l0,54.092l4.172,-0l0,-49.78l8.254,-0l0,-4.312l-12.426,0Z" style="fill:#fff;fill-rule:nonzero;"/><path d="M8.719,8.051l12.426,-0c2.301,-0 4.167,1.865 4.167,4.166l-0,4.312c-0,2.301 -1.866,4.167 -4.167,4.167l-4.087,-0.001l-0,45.614c-0,2.301 -1.866,4.167 -4.167,4.167l-4.172,-0c-2.301,-0 -4.166,-1.866 -4.166,-4.167l-0,-54.092c-0,-2.301 1.865,-4.166 4.166,-4.166Zm0,4.166l0,54.092l4.172,-0l0,-49.78l8.254,-0l0,-4.312l-12.426,0Z" style="fill:#222;"/><path d="M25.386,5.619l-0,63.283l20.668,-4.623l0,-22.908l8.483,0l-0,-30.965l-29.151,-4.787Z" style="fill:#fff;fill-rule:nonzero;"/><path d="M26.061,1.507l29.151,4.788c2.014,0.33 3.491,2.071 3.491,4.111l0,30.965c0,2.301 -1.865,4.167 -4.166,4.167l-4.316,-0l-0,18.741c-0,1.951 -1.354,3.641 -3.257,4.066l-20.669,4.623c-1.234,0.276 -2.527,-0.023 -3.514,-0.814c-0.987,-0.791 -1.562,-1.987 -1.562,-3.252l0,-63.283c0,-1.223 0.538,-2.385 1.47,-3.176c0.932,-0.792 2.165,-1.134 3.372,-0.936Zm-0.675,4.112l-0,63.283l20.668,-4.623l0,-22.908l8.483,0l-0,-30.965l-29.151,-4.787Z" style="fill:#222;"/></g><path d="M79.66,41.439l-0,33.334c-0,2.301 -1.866,4.166 -4.167,4.166l-33.333,0c-2.302,0 -4.167,-1.865 -4.167,-4.166l-0,-33.334c-0,-2.301 1.865,-4.166 4.167,-4.166l33.333,-0c2.301,-0 4.167,1.865 4.167,4.166Zm-4.167,0l-33.333,0l-0,33.334l33.333,-0l-0,-33.334Z" style="fill:#222;"/><rect x="42.16" y="41.439" width="33.333" height="33.333" style="fill:#222;"/><g><g opacity="0.5"><rect x="54.064" y="41.366" width="9.524" height="9.524" style="fill:#fff;"/></g><g opacity="0.5"><rect x="65.969" y="53.27" width="9.524" height="9.524" style="fill:#fff;"/></g><rect x="42.16" y="65.174" width="9.525" height="9.525" style="fill:#fff;"/><g opacity="0.5"><rect x="54.064" y="65.175" width="9.524" height="9.524" style="fill:#fff;"/></g><rect x="65.968" y="41.366" width="9.525" height="9.525" style="fill:#fff;"/><rect x="42.16" y="41.366" width="9.525" height="9.525" style="fill:#fff;"/><rect x="54.064" y="53.27" width="9.525" height="9.525" style="fill:#fff;"/><g opacity="0.5"><rect x="42.16" y="53.27" width="9.524" height="9.524" style="fill:#fff;"/></g><rect x="65.968" y="65.174" width="9.525" height="9.525" style="fill:#fff;"/></g></g></g></svg>