<?xml version="1.0" encoding="UTF-8" standalone="no"?><!DOCTYPE svg PUBLIC "-//W3C//DTD SVG 1.1//EN" "http://www.w3.org/Graphics/SVG/1.1/DTD/svg11.dtd"><svg width="100%" height="100%" viewBox="0 0 84 84" version="1.1" xmlns="http://www.w3.org/2000/svg" xmlns:xlink="http://www.w3.org/1999/xlink" xml:space="preserve" xmlns:serif="http://www.serif.com/" style="fill-rule:evenodd;clip-rule:evenodd;stroke-linejoin:round;stroke-miterlimit:2;"><g id="_3DToolBar_RoomExtentOpacity_CheckedDisabled" serif:id="3DToolBar_RoomExtentOpacity_CheckedDisabled" opacity="0.3"><rect id="Transparent-BG" serif:id="Transparent BG" x="4.216" y="3.025" width="79.167" height="79.167" style="fill:none;"/><g id="Calque-3" serif:id="Calque 3"><path d="M34.652,44.612c-2.908,0 -5.27,-2.512 -5.27,-5.604l-0,-6.875c-0,-3.092 2.362,-5.604 5.27,-5.604l6.463,-0c2.912,-0 5.275,2.512 5.275,5.604l-0,6.875c-0,3.092 -2.363,5.604 -5.275,5.604l-6.463,0Zm10.967,1.334l9.271,-0l-0,-10.375l8.504,-0c1.875,-0 3.529,-1.305 4.071,-3.213c0.542,-1.904 -0.15,-3.967 -1.713,-5.071l-25.508,-18.083c-1.429,-1.013 -3.292,-1.013 -4.721,-0l-25.508,18.083c-1.563,1.104 -2.254,3.167 -1.713,5.071c0.542,1.908 2.196,3.213 4.071,3.213l8.504,-0l0,13.562c0,2.496 1.905,4.521 4.25,4.521l20.492,-0l0,-7.708Z" style="fill:#f7f7f7;"/><path d="M49.786,50.112l-0,3.542c-0,2.301 -1.866,4.167 -4.167,4.167l-20.492,-0c-4.573,-0 -8.416,-3.822 -8.416,-8.688l-0,-9.396l-4.338,0c-3.691,0 -7.012,-2.484 -8.079,-6.24c-1.028,-3.618 0.348,-7.515 3.311,-9.609l25.509,-18.084c2.888,-2.045 6.652,-2.045 9.539,0l25.504,18.081c2.969,2.097 4.345,5.994 3.316,9.612c-1.067,3.756 -4.388,6.24 -8.079,6.24l-4.337,0l-0,6.209c-0,2.301 -1.866,4.166 -4.167,4.166l-5.104,0Zm-4.167,-4.166l9.271,-0l-0,-10.375l8.504,-0c1.875,-0 3.529,-1.305 4.071,-3.213c0.542,-1.904 -0.15,-3.967 -1.713,-5.071l-25.508,-18.083c-1.429,-1.013 -3.292,-1.013 -4.721,-0l-25.508,18.083c-1.563,1.104 -2.254,3.167 -1.713,5.071c0.542,1.908 2.196,3.213 4.071,3.213l8.504,-0l0,13.562c0,2.496 1.905,4.521 4.25,4.521l20.492,-0l0,-7.708Zm-10.967,-1.334c-2.908,0 -5.27,-2.512 -5.27,-5.604l-0,-6.875c-0,-3.092 2.362,-5.604 5.27,-5.604l6.463,-0c2.912,-0 5.275,2.512 5.275,5.604l-0,6.875c-0,3.092 -2.363,5.604 -5.275,5.604l-6.463,0Zm0,-4.166l6.463,-0c0.687,-0 1.108,-0.709 1.108,-1.438l0,-6.875c0,-0.729 -0.421,-1.437 -1.108,-1.437l-6.463,-0c-0.685,-0 -1.104,0.709 -1.104,1.437l0,6.875c0,0.729 0.419,1.438 1.104,1.438Z" style="fill:#222;"/><path d="M79.262,41.729l0,33.333c0,2.301 -1.865,4.167 -4.166,4.167l-33.334,-0c-2.301,-0 -4.166,-1.866 -4.166,-4.167l-0,-33.333c-0,-2.301 1.865,-4.167 4.166,-4.167l33.334,0c2.301,0 4.166,1.866 4.166,4.167Zm-4.166,-0l-33.334,-0l0,33.333l33.334,0l-0,-33.333Z" style="fill:#222;"/><rect x="41.762" y="41.729" width="33.333" height="33.333" style="fill:#222;"/><g><rect x="41.762" y="65.463" width="9.525" height="9.525" style="fill:#fff;"/><rect x="65.571" y="41.655" width="9.525" height="9.525" style="fill:#fff;"/><rect x="41.762" y="41.655" width="9.525" height="9.525" style="fill:#fff;"/><rect x="53.667" y="53.559" width="9.525" height="9.525" style="fill:#fff;"/><rect x="65.571" y="65.463" width="9.525" height="9.525" style="fill:#fff;"/><g opacity="0.5"><rect x="53.667" y="41.655" width="9.524" height="9.524" style="fill:#fff;"/></g><g opacity="0.5"><rect x="65.572" y="53.56" width="9.524" height="9.524" style="fill:#fff;"/></g><g opacity="0.5"><rect x="53.667" y="65.464" width="9.524" height="9.524" style="fill:#fff;"/></g><g opacity="0.5"><rect x="41.762" y="53.56" width="9.524" height="9.524" style="fill:#fff;"/></g></g></g></g></svg>