<?xml version="1.0" encoding="UTF-8" standalone="no"?><!DOCTYPE svg PUBLIC "-//W3C//DTD SVG 1.1//EN" "http://www.w3.org/Graphics/SVG/1.1/DTD/svg11.dtd"><svg width="100%" height="100%" viewBox="0 0 84 84" version="1.1" xmlns="http://www.w3.org/2000/svg" xmlns:xlink="http://www.w3.org/1999/xlink" xml:space="preserve" xmlns:serif="http://www.serif.com/" style="fill-rule:evenodd;clip-rule:evenodd;stroke-linejoin:round;stroke-miterlimit:2;"><g id="_3DToolBar_AttenuationRadius_CheckedDisabled" serif:id="3DToolBar_AttenuationRadius_CheckedDisabled" opacity="0.3"><rect id="Transparent-BG" serif:id="Transparent BG" x="1.981" y="-1.453" width="79.167" height="79.167" style="fill:none;"/><g id="Calque-6" serif:id="Calque 6"><g opacity="0"><path d="M74.499,17.193c-0,-4.829 -3.921,-8.75 -8.75,-8.75l-45,-0c-4.829,-0 -8.75,3.921 -8.75,8.75l-0,45c-0,4.829 3.921,8.75 8.75,8.75l45,-0c4.829,-0 8.75,-3.921 8.75,-8.75l-0,-45Z"/></g><path d="M43.249,70.943c-17.234,-0 -31.25,-14.017 -31.25,-31.25c-0,-17.234 14.016,-31.25 31.25,-31.25c17.233,-0 31.25,14.016 31.25,31.25c-0,17.233 -14.017,31.25 -31.251,31.25l0.001,-0Zm-0,-58.334c-14.934,0 -27.084,12.15 -27.084,27.084c0,14.933 12.15,27.083 27.084,27.083c14.933,0 27.083,-12.15 27.083,-27.083c0,-14.934 -12.15,-27.084 -27.083,-27.084Z" style="fill:#c8c8c8;fill-rule:nonzero;"/><path d="M43.249,75.109c-19.531,0 -35.417,-15.885 -35.417,-35.416c0,-19.531 15.886,-35.417 35.417,-35.417c19.531,0 35.416,15.886 35.416,35.417c0,19.531 -15.885,35.416 -35.416,35.416Zm-0,-4.166c17.233,-0 31.25,-14.017 31.25,-31.25c-0,-17.234 -14.017,-31.25 -31.25,-31.25c-17.234,-0 -31.25,14.016 -31.25,31.25c-0,17.233 14.016,31.25 31.25,31.25Zm-0,-58.334c14.933,0 27.083,12.15 27.083,27.084c0,14.933 -12.15,27.083 -27.083,27.083c-14.934,0 -27.084,-12.15 -27.084,-27.083c0,-14.934 12.15,-27.084 27.084,-27.084Zm-0,4.167c-12.636,0 -22.917,10.281 -22.917,22.917c0,12.636 10.281,22.916 22.917,22.916c12.636,0 22.916,-10.28 22.916,-22.916c0,-12.636 -10.28,-22.917 -22.916,-22.917Z" style="fill:#222;"/><path d="M43.249,60.495c-11.467,0 -20.804,-9.329 -20.804,-20.804c-0,-11.471 9.337,-20.8 20.804,-20.8c11.466,0 20.804,9.329 20.804,20.8c-0,11.475 -9.338,20.804 -20.804,20.804Zm-0,-35.387c-8.046,-0 -14.584,6.541 -14.584,14.583c0,8.046 6.538,14.583 14.584,14.583c8.046,0 14.583,-6.537 14.583,-14.583c0,-8.042 -6.537,-14.583 -14.583,-14.583Z" style="fill:#c8c8c8;fill-rule:nonzero;"/><path d="M43.249,64.662c-13.763,-0 -24.971,-11.198 -24.971,-24.971c-0,-13.768 11.207,-24.967 24.971,-24.967c13.763,0 24.971,11.199 24.971,24.967c-0,13.773 -11.208,24.971 -24.971,24.971Zm-0,-4.167c11.466,0 20.804,-9.329 20.804,-20.804c-0,-11.471 -9.338,-20.8 -20.804,-20.8c-11.467,0 -20.804,9.329 -20.804,20.8c-0,11.475 9.337,20.804 20.804,20.804Zm-0,-35.387c8.046,-0 14.583,6.541 14.583,14.583c0,8.046 -6.537,14.583 -14.583,14.583c-8.046,0 -14.584,-6.537 -14.584,-14.583c0,-8.042 6.538,-14.583 14.584,-14.583Zm-0,4.166c-5.747,0 -10.417,4.673 -10.417,10.417c0,5.747 4.67,10.417 10.417,10.417c5.747,-0 10.416,-4.67 10.416,-10.417c0,-5.744 -4.669,-10.417 -10.416,-10.417Z" style="fill:#222;"/><path d="M51.742,39.693c0,4.691 -3.804,8.491 -8.492,8.491c-4.691,0 -8.495,-3.8 -8.495,-8.491c-0,-4.692 3.804,-8.492 8.495,-8.492c4.688,0 8.492,3.8 8.492,8.492l0,-0Z" style="fill:#e2e2e2;fill-rule:nonzero;"/><path d="M55.909,39.693c-0,6.994 -5.671,12.658 -12.659,12.658c-6.993,0 -12.662,-5.665 -12.662,-12.658c-0,-6.993 5.669,-12.659 12.662,-12.659c6.988,0 12.659,5.665 12.659,12.659Zm-5.145,3.96c0.566,0.169 0.978,0.207 0.978,0.207c0,-0 -0.274,-0.339 -0.682,-0.827c0.439,-1.025 0.682,-2.154 0.682,-3.34c0,-4.692 -3.804,-8.492 -8.492,-8.492c-4.691,0 -8.495,3.8 -8.495,8.492c-0,4.691 3.804,8.491 8.495,8.491c3.259,0 6.091,-1.836 7.514,-4.531Z" style="fill:#222;"/></g></g></svg>