<?xml version="1.0" encoding="UTF-8" standalone="no"?><!DOCTYPE svg PUBLIC "-//W3C//DTD SVG 1.1//EN" "http://www.w3.org/Graphics/SVG/1.1/DTD/svg11.dtd"><svg width="100%" height="100%" viewBox="0 0 84 84" version="1.1" xmlns="http://www.w3.org/2000/svg" xmlns:xlink="http://www.w3.org/1999/xlink" xml:space="preserve" xmlns:serif="http://www.serif.com/" style="fill-rule:evenodd;clip-rule:evenodd;stroke-linejoin:round;stroke-miterlimit:2;"><g id="_3DToolBar_WireFrame_Disabled" serif:id="3DToolBar_WireFrame_Disabled" opacity="0.3"><rect id="Transparent-BG" serif:id="Transparent BG" x="2.147" y="2.173" width="79.167" height="79.167" style="fill:none;"/><g id="Calque-6" serif:id="Calque 6"><path d="M76.643,29.848l-0,46.821l-46.821,0l-19.342,-19.341l0,-46.821l46.822,-0l19.341,19.341Zm-61.996,-12.015l0,32.277c5.125,-6.976 13.67,-18.607 13.67,-18.607l-13.67,-13.67Zm35.453,-3.16l-32.72,0l13.881,13.882l18.839,-13.882Zm21.207,15.732l-15.075,-15.075l-20.577,15.163l35.564,-0l0.088,-0.088Zm-36.205,42.098l37.374,-0l0,-37.375l-37.374,37.375Zm-19.8,-16.246l15.076,15.076l0.302,-0.301l0,-35.708l-15.378,20.933Zm51.75,-21.597c-11.675,-0 -32.205,-0 -32.205,-0l-0,32.205l32.205,-32.205Z" style="fill:#fff;"/><path d="M80.81,29.848l-0,46.821c-0,2.301 -1.866,4.167 -4.167,4.167l-46.821,-0c-1.105,-0 -2.165,-0.439 -2.947,-1.221l-19.341,-19.341c-0.781,-0.781 -1.22,-1.841 -1.22,-2.946l-0,-46.821c-0,-2.301 1.865,-4.167 4.166,-4.167l46.822,0c1.105,0 2.165,0.439 2.946,1.22l19.341,19.342c0.782,0.781 1.221,1.841 1.221,2.946Zm-4.167,-0l-19.341,-19.341l-46.822,-0l0,46.821l19.342,19.341l46.821,0l-0,-46.821Zm-5.336,0.557l-0.088,0.088l-35.564,-0l20.577,-15.163l15.075,15.075Zm-9.971,-4.079l-5.516,-5.516l-7.487,5.516l13.003,0Zm5.716,8.334l-32.205,32.205l-0,-32.205c-0,-0 20.53,-0 32.205,-0Zm-28.039,4.166l0,17.98l17.98,-17.98l-17.98,0Zm-23.711,17.431l15.378,-20.933l0,35.708l-0.302,0.301l-15.076,-15.076Zm11.211,5.319l0,-13.543l-5.735,7.807l5.735,5.736Zm-11.866,-43.743l13.67,13.67l-13.67,18.607l0,-32.277Zm8.194,14.086l-4.027,-4.027l-0,9.509l4.027,-5.482Zm27.259,-17.246l-18.839,13.882l-13.881,-13.882l32.72,0Zm-12.679,4.167l-9.982,0l4.235,4.235l5.747,-4.235Zm-2.319,53.663l37.374,-37.375l0,37.375l-37.374,-0Zm10.059,-4.167l23.149,-0l-0,-23.149l-23.149,23.149Z" style="fill:#222;"/></g></g></svg>