<?xml version="1.0" encoding="UTF-8" standalone="no"?><!DOCTYPE svg PUBLIC "-//W3C//DTD SVG 1.1//EN" "http://www.w3.org/Graphics/SVG/1.1/DTD/svg11.dtd"><svg width="100%" height="100%" viewBox="0 0 84 84" version="1.1" xmlns="http://www.w3.org/2000/svg" xmlns:xlink="http://www.w3.org/1999/xlink" xml:space="preserve" xmlns:serif="http://www.serif.com/" style="fill-rule:evenodd;clip-rule:evenodd;stroke-linejoin:round;stroke-miterlimit:2;"><g id="_3DToolBar_CameraAcceleration_CheckedDisabled" serif:id="3DToolBar_CameraAcceleration_CheckedDisabled" opacity="0.3"><rect id="Transparent-BG" serif:id="Transparent BG" x="0.658" y="3.921" width="79.167" height="79.167" style="fill:none;"/><g><path d="M55.791,40.855l0,11.323l-3.962,0l-0,-1.981c-0,-0 -0,-31.488 -0,-31.488c-0,-0 -33.576,-0 -33.577,-0l0,16.171l-3.962,0l-0,-20.134l41.501,0l0,11.052l16.697,-8.119l0,31.29l-16.697,-8.114Zm0,-10.651l0,6.245l1.624,0.789l11.111,5.4c-0,-0 -0,-18.626 -0,-18.626l-12.735,6.192Z" style="fill:#f7f7f7;"/><path d="M51.829,56.345c-0,-0 -4.167,-0.388 -4.167,-4.212l0,-1.881c-0,-0.018 -0,-0.037 -0,-0.055l-0,-27.322l-25.243,0l0,12.005c0,2.301 -1.865,4.167 -4.167,4.167l-3.962,-0c-2.301,-0 -4.167,-1.866 -4.167,-4.167l0,-20.134c0,-2.301 1.866,-4.167 4.167,-4.167l41.501,0c2.301,0 4.167,1.866 4.167,4.167l-0,4.393l10.708,-5.207c1.292,-0.628 2.815,-0.547 4.032,0.214c1.218,0.762 1.957,2.097 1.957,3.533l0,31.29c0,1.436 -0.739,2.77 -1.956,3.532c-1.217,0.762 -2.741,0.843 -4.032,0.216l-10.709,-5.205l-0,4.666c-0,2.301 -1.866,4.167 -4.167,4.167l-3.962,-0Zm3.962,-15.49l16.697,8.114l0,-31.29l-16.697,8.119l0,-11.052l-41.501,0l-0,20.134l3.962,0l0,-16.171c0.001,-0 33.577,-0 33.577,-0c-0,-0 -0,31.488 -0,31.488l-0,1.981l3.962,0l0,-11.323Zm0,-10.651l12.735,-6.192c-0,-0 -0,18.626 -0,18.626l-11.111,-5.4l-1.624,-0.789l0,-6.245Zm4.167,3.735c1.481,1.174 1.024,2.879 0.116,4.364l1.173,0.571c0.096,-0.224 0.172,-0.458 0.228,-0.701c0.371,-1.611 -0.247,-3.258 -1.517,-4.234Zm5.914,-8.41c0.923,0.921 2.007,2.004 2.45,2.446l-0,-3.637l-2.45,1.191Zm-5.914,8.312l4.401,2.139l0,-5.309l-4.401,2.14l-0,1.03Z" style="fill:#222;"/><path d="M8.911,41.891l2.802,-2.802l16.196,16.196l-16.242,15.715l-2.755,-2.847l13.347,-12.915l-13.348,-13.347Z" style="fill:#f7f7f7;"/><path d="M5.965,38.944l2.802,-2.802c1.627,-1.627 4.265,-1.627 5.893,0l16.196,16.196c0.789,0.79 1.229,1.864 1.22,2.981c-0.009,1.117 -0.467,2.183 -1.269,2.96l-16.242,15.716c-1.654,1.6 -4.292,1.557 -5.892,-0.097l-2.756,-2.848c-1.6,-1.654 -1.556,-4.292 0.097,-5.892l10.304,-9.969l-10.353,-10.352c-1.627,-1.627 -1.627,-4.266 0,-5.893Zm2.946,2.947l13.348,13.347l-13.347,12.915l2.755,2.847l16.242,-15.715l-16.196,-16.196l-2.802,2.802Z" style="fill:#222;"/><path d="M21.145,41.891l2.802,-2.802l16.196,16.196l-16.242,15.715l-2.756,-2.847l13.347,-12.915l-13.347,-13.347Z" style="fill:#f7f7f7;"/><path d="M18.199,38.944l2.801,-2.802c1.628,-1.627 4.266,-1.627 5.893,0l16.196,16.196c0.79,0.79 1.229,1.864 1.22,2.981c-0.009,1.117 -0.466,2.183 -1.269,2.96l-16.242,15.716c-1.654,1.6 -4.292,1.557 -5.892,-0.097l-2.755,-2.848c-1.6,-1.654 -1.557,-4.292 0.097,-5.892l10.303,-9.969l-10.352,-10.352c-1.628,-1.627 -1.628,-4.266 -0,-5.893Zm2.946,2.947l13.347,13.347l-13.347,12.915l2.756,2.847l16.242,-15.715l-16.196,-16.196l-2.802,2.802Z" style="fill:#222;"/><path d="M33.269,41.891l2.802,-2.802l16.196,16.196l-16.242,15.715l-2.756,-2.847l13.348,-12.915l-13.348,-13.347Z" style="fill:#f7f7f7;"/><path d="M30.323,38.944l2.802,-2.802c1.627,-1.627 4.265,-1.627 5.892,0l16.196,16.196c0.79,0.79 1.23,1.864 1.22,2.981c-0.009,1.117 -0.466,2.183 -1.269,2.96l-16.242,15.716c-1.654,1.6 -4.292,1.557 -5.892,-0.097l-2.755,-2.848c-1.6,-1.654 -1.557,-4.292 0.097,-5.892l10.303,-9.969l-10.352,-10.352c-1.628,-1.627 -1.628,-4.266 -0,-5.893Zm2.946,2.947l13.348,13.347l-13.348,12.915l2.756,2.847l16.242,-15.715l-16.196,-16.196l-2.802,2.802Z" style="fill:#222;"/></g></g></svg>