<?xml version="1.0" encoding="UTF-8" standalone="no"?><!DOCTYPE svg PUBLIC "-//W3C//DTD SVG 1.1//EN" "http://www.w3.org/Graphics/SVG/1.1/DTD/svg11.dtd"><svg width="100%" height="100%" viewBox="0 0 84 84" version="1.1" xmlns="http://www.w3.org/2000/svg" xmlns:xlink="http://www.w3.org/1999/xlink" xml:space="preserve" xmlns:serif="http://www.serif.com/" style="fill-rule:evenodd;clip-rule:evenodd;stroke-linejoin:round;stroke-miterlimit:2;"><g id="_3DToolBar_ReflectionPaths_Checked" serif:id="3DToolBar_ReflectionPaths_Checked"><rect id="Transparent-BG" serif:id="Transparent BG" x="-0.011" y="-0.225" width="79.167" height="79.167" style="fill:none;"/><g id="Calque-6" serif:id="Calque 6"><rect x="60.159" y="14.338" width="3.992" height="49.54" style="fill:#fff;"/><path d="M68.317,14.338l0,49.539c0,2.301 -1.865,4.167 -4.167,4.167l-3.991,-0c-2.302,-0 -4.167,-1.866 -4.167,-4.167l-0,-49.539c-0,-2.302 1.865,-4.167 4.167,-4.167l3.991,-0c2.302,-0 4.167,1.865 4.167,4.167Zm-4.167,-0l-3.991,-0l-0,49.539l3.991,0l0,-49.539Z" style="fill:#222;"/><path d="M29.95,22.83l19.079,18.004l4.913,-2.271l-20.5,-19.346l-3.492,3.613Z" style="fill:#222;"/><path d="M46.292,38.252l-16.42,-15.496l3.487,-3.617l20.583,19.425l-0.013,0.007l0.067,0.032l-22.079,12.796l-4.521,-2.196l18.896,-10.951Z" style="fill:#fff;"/><path d="M55.84,42.274l0.245,-0.066l-22.079,12.796c-1.199,0.694 -2.664,0.748 -3.91,0.143l-4.521,-2.196c-1.385,-0.673 -2.287,-2.056 -2.343,-3.596c-0.056,-1.539 0.742,-2.984 2.075,-3.757l14.063,-8.15l-12.358,-11.662c-0.809,-0.763 -1.28,-1.819 -1.306,-2.932c-0.026,-1.112 0.394,-2.189 1.166,-2.99l3.488,-3.617c1.585,-1.644 4.198,-1.705 5.859,-0.138l20.583,19.425c1.242,1.172 1.643,2.982 1.013,4.569c-0.382,0.96 -1.094,1.72 -1.975,2.171Zm-2.813,-3.109l0.474,1.763c-0.114,-0.558 -0.229,-1.199 -0.313,-1.857l0.808,-0.468l-0.067,-0.032l0.013,-0.007l-0.872,-0.823c-0.023,-0.52 -0.012,-1.021 0.048,-1.467c-0.246,-1.004 -0.552,-1.664 -0.924,-1.492c-0.379,0.176 -0.687,0.373 -0.931,0.589l0.644,-0.373l0.592,2.204l-19.14,-18.063l-3.487,3.617l16.42,15.496l-18.896,10.951l4.521,2.196l21.11,-12.234Zm1.127,3.562c-0.047,0.003 -0.095,0.004 -0.143,0.005l-0.015,0.038l0.158,-0.043Z" style="fill:#222;"/><path d="M23.66,61.222c-3.133,1.442 -6.85,0.067 -8.292,-3.066c-1.441,-3.134 -0.066,-6.846 3.067,-8.288c3.133,-1.442 6.85,-0.071 8.292,3.063c1.441,3.133 0.066,6.85 -3.067,8.291" style="fill:#222;"/><path d="M23.66,61.222c-3.133,1.442 -6.85,0.067 -8.292,-3.066c-1.441,-3.134 -0.066,-6.846 3.067,-8.288c3.133,-1.442 6.85,-0.071 8.292,3.063c1.441,3.133 0.066,6.85 -3.067,8.291Z" style="fill:#fff;"/><path d="M25.402,65.007c-5.222,2.403 -11.416,0.112 -13.819,-5.11c-2.403,-5.223 -0.112,-11.411 5.11,-13.814c5.223,-2.403 11.416,-0.116 13.819,5.106c2.402,5.222 0.111,11.416 -5.11,13.818Zm-1.742,-3.785c3.133,-1.441 4.508,-5.158 3.067,-8.291c-1.442,-3.134 -5.159,-4.505 -8.292,-3.063c-3.133,1.442 -4.508,5.154 -3.067,8.288c1.442,3.133 5.159,4.508 8.292,3.066Z" style="fill:#222;"/></g></g></svg>