<?xml version="1.0" encoding="UTF-8" standalone="no"?><!DOCTYPE svg PUBLIC "-//W3C//DTD SVG 1.1//EN" "http://www.w3.org/Graphics/SVG/1.1/DTD/svg11.dtd"><svg width="100%" height="100%" viewBox="0 0 84 84" version="1.1" xmlns="http://www.w3.org/2000/svg" xmlns:xlink="http://www.w3.org/1999/xlink" xml:space="preserve" xmlns:serif="http://www.serif.com/" style="fill-rule:evenodd;clip-rule:evenodd;stroke-linejoin:round;stroke-miterlimit:2;"><g id="_3DToolBar_DiffractionRays_CheckedDisabled" serif:id="3DToolBar_DiffractionRays_CheckedDisabled" opacity="0.3"><rect id="Transparent-BG" serif:id="Transparent BG" x="0.852" y="3.924" width="79.167" height="79.167" style="fill:none;"/><g id="Calque-1" serif:id="Calque 1"><path d="M28.354,18.182l-22.036,0l0,-4.166l23.79,-0l-0,0.147l37.084,20.12l-1.409,-4.096l3.941,-1.355l3.796,11.039l-11.02,3.793l-1.356,-3.94l4.491,-1.546l-29.036,-15.753l9.169,12.589l11.2,15.1l0.352,-4.024l4.151,0.363l-1.017,11.632l-11.613,-1.019l0.364,-4.15l4.978,0.436l-11.772,-15.871l-14.057,-19.299Z" style="fill:#fff;"/><path d="M48.892,56.486c-0.584,-1.159 -1.778,-3.763 -1.748,-5.629l-8.08,-10.893c-0.007,-0.01 -0.014,-0.02 -0.021,-0.029l-12.809,-17.586l-19.916,-0c-2.301,-0 -4.166,-1.866 -4.166,-4.167l-0,-4.166c-0,-2.302 1.865,-4.167 4.166,-4.167l23.79,-0c-2.302,-0 -4.167,1.866 -4.167,4.168l-19.623,-0.001l0,4.166l22.036,0l14.057,19.299l11.772,15.871l-4.978,-0.436l-0.313,3.57Zm-16.178,-40.909l1.559,-1.557l-1.524,1.576l-0.035,-0.019Zm1.559,-1.557c-0.05,-1.448 -0.856,-2.802 -2.178,-3.519l30.781,16.7c0.427,-0.417 0.951,-0.748 1.553,-0.955l3.94,-1.355c2.176,-0.748 4.547,0.41 5.295,2.586l3.796,11.039c0.748,2.176 -0.409,4.547 -2.584,5.295l-9.27,3.191l-1.001,11.446c-0.097,1.101 -0.627,2.119 -1.473,2.829c-0.847,0.71 -1.941,1.055 -3.042,0.959l-11.613,-1.019c-2.292,-0.201 -3.988,-2.222 -3.787,-4.515l0.364,-4.15c-0.102,1.164 0.29,2.317 1.079,3.178c0.707,0.772 1.674,1.246 2.708,1.336c0.019,0.002 0.039,0.004 0.058,0.005l11.555,1.014l1.017,-11.632l-4.151,-0.363l-0.352,4.024l-11.2,-15.1l-9.169,-12.589l29.036,15.753l-4.491,1.546l1.356,3.94l11.02,-3.793l-3.796,-11.039l-3.941,1.355l1.409,4.096l-33.422,-18.133c0.162,-0.298 0.29,-0.621 0.376,-0.962c0.099,-0.389 0.141,-0.782 0.127,-1.168Zm21.922,28.057c0.413,-0.116 0.851,-0.17 1.301,-0.151l-0.292,-0.846c-0.317,-0.922 -0.292,-1.878 0.007,-2.732l-6.328,-3.433l5.312,7.162Z" style="fill:#222;"/><rect x="22.515" y="26.741" width="4.167" height="41.756" style="fill:#fff;"/><path d="M30.849,26.741l-0,41.756c-0,2.301 -1.866,4.167 -4.167,4.167l-4.167,-0c-2.301,-0 -4.166,-1.866 -4.166,-4.167l-0,-41.756c-0,-2.301 1.865,-4.167 4.166,-4.167l4.167,0c2.301,0 4.167,1.866 4.167,4.167Zm-4.167,-0l-4.167,-0l0,41.756l4.167,-0l0,-41.756Z" style="fill:#222;"/></g></g></svg>