<?xml version="1.0" encoding="UTF-8" standalone="no"?><!DOCTYPE svg PUBLIC "-//W3C//DTD SVG 1.1//EN" "http://www.w3.org/Graphics/SVG/1.1/DTD/svg11.dtd"><svg width="100%" height="100%" viewBox="0 0 84 84" version="1.1" xmlns="http://www.w3.org/2000/svg" xmlns:xlink="http://www.w3.org/1999/xlink" xml:space="preserve" xmlns:serif="http://www.serif.com/" style="fill-rule:evenodd;clip-rule:evenodd;stroke-linejoin:round;stroke-miterlimit:2;"><g id="_3DToolBar_VirtualEmitters_CheckedDisabled" serif:id="3DToolBar_VirtualEmitters_CheckedDisabled" opacity="0.3"><rect id="Transparent-BG" serif:id="Transparent BG" x="-0.061" y="5.638" width="79.167" height="79.167" style="fill:none;"/><g id="View3D_SpatialVirtualPosition"><g><path d="M31.326,35.041l0,-20.888l16.353,0l-0,20.888l21.001,-0l0,16.353l-21.001,-0l-0,21.001l-16.353,-0l0,-21.001l-20.961,-0l-0,-16.353l20.961,-0Z" style="fill:#fff;"/><path d="M27.159,30.874l0,-20.887l24.687,-0l-0,20.887l21.001,0l-0,24.686l-21.001,0l-0,21.001l-24.687,0c0,0 0,-21.001 0,-21.001l-20.961,0l0,-24.686l20.961,0Zm4.167,4.167l-20.961,-0l-0,16.353l20.961,-0l0,21.001l16.353,-0l-0,-21.001l21.001,-0l0,-16.353l-21.001,-0l-0,-20.888l-16.353,0l0,20.888Z" style="fill:#222;"/></g></g></g></svg>