<?xml version="1.0" encoding="UTF-8" standalone="no"?><!DOCTYPE svg PUBLIC "-//W3C//DTD SVG 1.1//EN" "http://www.w3.org/Graphics/SVG/1.1/DTD/svg11.dtd"><svg width="100%" height="100%" viewBox="0 0 84 84" version="1.1" xmlns="http://www.w3.org/2000/svg" xmlns:xlink="http://www.w3.org/1999/xlink" xml:space="preserve" xmlns:serif="http://www.serif.com/" style="fill-rule:evenodd;clip-rule:evenodd;stroke-linejoin:round;stroke-miterlimit:2;"><g id="_3DToolBar_WorldOrientationZ_Disabled" serif:id="3DToolBar_WorldOrientationZ_Disabled" opacity="0.3"><rect id="Transparent-BG" serif:id="Transparent BG" x="3.969" y="1.191" width="79.167" height="79.167" style="fill:none;"/><g><g id="AxisX"><g><path d="M49.376,59.115l-20.848,12.039l-1.981,-3.432l21.123,-12.198l0,-24.416l3.963,-0l-0,24.735l20.745,11.979l-1.982,3.432l-21.02,-12.139Z" style="fill:#f7f7f7;"/><path d="M49.375,63.927l-18.763,10.835c-1.993,1.151 -4.541,0.468 -5.692,-1.525l-1.982,-3.431c-1.15,-1.993 -0.468,-4.541 1.525,-5.692l19.041,-10.995l-0,-22.011c-0,-2.301 1.865,-4.167 4.166,-4.167l3.963,0c2.301,0 4.166,1.866 4.166,4.167c0,-0 0,22.33 0,22.33l18.662,10.776c1.993,1.151 2.676,3.699 1.525,5.692l-1.982,3.431c-1.15,1.993 -3.699,2.676 -5.692,1.525l-18.937,-10.935Zm0.001,-4.812l21.02,12.139l1.982,-3.432l-20.745,-11.979l-0,-24.735l-3.963,-0l0,24.416l-21.123,12.198l1.981,3.432l20.848,-12.039Z" style="fill:#222;"/></g><path d="M14.195,9.877l0,4.229l16.63,0l-16.63,16.951l0,3.922l21.009,-0l0,-4.156l-16.63,0l16.63,-16.954l0,-3.992l-21.009,-0Z" style="fill:#fff;fill-rule:nonzero;"/><path d="M14.195,5.71l21.009,-0c2.302,-0 4.167,1.865 4.167,4.167l-0,3.992c-0,1.091 -0.428,2.138 -1.192,2.917l-9.681,9.871l6.706,-0c2.302,-0 4.167,1.865 4.167,4.166l-0,4.156c-0,2.301 -1.865,4.167 -4.167,4.167l-21.009,-0c-2.301,-0 -4.166,-1.866 -4.166,-4.167l-0,-3.922c-0,-1.092 0.428,-2.139 1.192,-2.918l9.679,-9.866l-6.705,-0c-2.301,-0 -4.166,-1.866 -4.166,-4.167l-0,-4.229c-0,-2.302 1.865,-4.167 4.166,-4.167Zm0,4.167l0,4.229l16.63,0l-16.63,16.951l0,3.922l21.009,-0l0,-4.156l-16.63,0l16.63,-16.954l0,-3.992l-21.009,-0Z" style="fill:#222;"/></g></g></g></svg>