<?xml version="1.0" encoding="UTF-8" standalone="no"?><!DOCTYPE svg PUBLIC "-//W3C//DTD SVG 1.1//EN" "http://www.w3.org/Graphics/SVG/1.1/DTD/svg11.dtd"><svg width="100%" height="100%" viewBox="0 0 84 84" version="1.1" xmlns="http://www.w3.org/2000/svg" xmlns:xlink="http://www.w3.org/1999/xlink" xml:space="preserve" xmlns:serif="http://www.serif.com/" style="fill-rule:evenodd;clip-rule:evenodd;stroke-linejoin:round;stroke-miterlimit:2;"><g id="_3DToolBar_GeometryOpacity_Disabled" serif:id="3DToolBar_GeometryOpacity_Disabled" opacity="0.3"><rect id="Transparent-BG" serif:id="Transparent BG" x="4.099" y="5.619" width="79.167" height="79.167" style="fill:none;"/><g id="Calque-16" serif:id="Calque 16"><path d="M35.155,9.688l-24.08,40.001l-0.003,0.003l-2.226,3.698l28.061,0l0,-3.094l-20.263,0l18.486,-9.698l1.777,0.995l0,-3.581l-0.137,-0.078l-0,-19.379l10.853,18.04l3.726,-0l-16.194,-26.907Zm-1.615,8.867l-0,19.349l-17.018,8.927l17.018,-28.276Z" style="fill:#e2e2e2;fill-rule:nonzero;"/><path d="M7.627,47.337l23.958,-39.798c0.754,-1.252 2.108,-2.017 3.57,-2.017c1.461,-0 2.816,0.765 3.57,2.018l16.194,26.906c0.775,1.287 0.796,2.891 0.057,4.199c-0.739,1.308 -2.125,2.116 -3.627,2.116l-3.726,0c-1.462,0 -2.817,-0.766 -3.57,-2.018c-0,-0 -3.116,-5.18 -3.116,-5.18l-0,4.371l-0.921,0.92c0.032,0.042 0.062,0.083 0.09,0.125l0.968,-0.967l-0,3.581c-0,2.302 -1.866,4.167 -4.167,4.167c0,0 -0.66,0.095 -1.633,-0.332c-0.068,-0.03 -0.135,-0.061 -0.203,-0.094l-1.516,0.795l3.352,0c2.301,0 4.167,1.866 4.167,4.167l-0,3.094c-0,2.302 -1.866,4.167 -4.167,4.167l-28.061,0c-1.502,0 -2.888,-0.809 -3.627,-2.116c-0.739,-1.308 -0.717,-2.912 0.057,-4.2l2.141,-3.554c-0.019,0.036 -0.037,0.072 -0.054,0.108c-0.861,1.841 0.625,3.642 1.964,4.796l-0.481,0.799l1.51,0c0.426,0.299 0.718,0.467 0.718,0.467c-0,0 -0.042,-0.173 -0.117,-0.467l25.95,0l0,-3.094l-20.263,0l18.486,-9.698l1.777,0.995l0,-3.581l-0.137,-0.078l-0,-19.379l10.853,18.04l3.726,-0l-16.194,-26.907l-24.081,40.003l-1.013,1.682l-1.215,-2.149l0.902,-0c-0.548,-1.611 -1.15,-2.932 -1.556,-2.542c-0.227,0.217 -0.414,0.436 -0.565,0.655Zm-0.21,0.35c0.06,-0.116 0.13,-0.233 0.21,-0.35l-0.21,0.35Zm25.726,-3.426l0.726,0.184c-0.406,-0.433 -0.722,-0.953 -0.914,-1.529l-0.913,0.479c0.315,0.349 0.688,0.641 1.101,0.866Zm0.397,-25.706l-0,19.349l-17.018,8.927l17.018,-28.276Zm-4.167,15.004c0,0 -1.606,2.668 -1.606,2.668l1.606,-0.842l0,-1.826Z" style="fill:#222;"/><path d="M79.325,41.486l0,33.333c0,2.301 -1.865,4.167 -4.166,4.167l-33.334,-0c-2.301,-0 -4.166,-1.866 -4.166,-4.167l-0,-33.333c-0,-2.302 1.865,-4.167 4.166,-4.167l33.334,-0c2.301,-0 4.166,1.865 4.166,4.167Zm-4.166,-0l-33.334,-0l0,33.333l33.334,-0l-0,-33.333Z" style="fill:#222;"/><rect x="41.825" y="41.486" width="33.333" height="33.333" style="fill:#222;"/><g><g opacity="0.5"><rect x="65.635" y="53.39" width="9.524" height="9.524" style="fill:#fff;"/></g><rect x="41.825" y="65.294" width="9.525" height="9.525" style="fill:#fff;"/><g opacity="0.5"><rect x="53.73" y="65.295" width="9.524" height="9.524" style="fill:#fff;"/></g><rect x="65.634" y="41.486" width="9.525" height="9.525" style="fill:#fff;"/><rect x="41.825" y="41.486" width="9.525" height="9.525" style="fill:#fff;"/><rect x="53.729" y="53.39" width="9.525" height="9.525" style="fill:#fff;"/><g opacity="0.5"><rect x="41.825" y="53.39" width="9.524" height="9.524" style="fill:#fff;"/></g><rect x="65.634" y="65.294" width="9.525" height="9.525" style="fill:#fff;"/><g opacity="0.5"><rect x="53.73" y="41.486" width="9.524" height="9.524" style="fill:#fff;"/></g></g></g></g></svg>