<?xml version="1.0" encoding="UTF-8" standalone="no"?><!DOCTYPE svg PUBLIC "-//W3C//DTD SVG 1.1//EN" "http://www.w3.org/Graphics/SVG/1.1/DTD/svg11.dtd"><svg width="100%" height="100%" viewBox="0 0 84 84" version="1.1" xmlns="http://www.w3.org/2000/svg" xmlns:xlink="http://www.w3.org/1999/xlink" xml:space="preserve" xmlns:serif="http://www.serif.com/" style="fill-rule:evenodd;clip-rule:evenodd;stroke-linejoin:round;stroke-miterlimit:2;"><g id="_3DToolBar_AttenuationCone_CheckedDisabled" serif:id="3DToolBar_AttenuationCone_CheckedDisabled" opacity="0.3"><rect id="Transparent-BG" serif:id="Transparent BG" x="1.428" y="4.48" width="79.167" height="79.167" style="fill:none;"/><g id="Calque-6" serif:id="Calque 6"><path d="M63.375,29.592c3.779,4.554 6.05,10.379 6.05,16.713c-0,14.562 -11.988,26.404 -26.73,26.404c-14.737,-0 -26.729,-11.842 -26.729,-26.404c0,-6.171 2.154,-11.85 5.759,-16.35l2.15,2.771c-2.755,3.725 -4.38,8.308 -4.38,13.258c0,12.437 10.263,22.558 22.88,22.558c12.616,0 22.883,-10.121 22.883,-22.558c-0,-4.933 -1.613,-9.5 -4.346,-13.213l2.463,-3.179Zm-5.338,6.888c1.933,2.837 3.054,6.229 3.054,9.866c0,9.938 -8.379,18.03 -18.679,18.03c-10.304,-0 -18.683,-8.092 -18.683,-18.03c-0,-3.637 1.125,-7.029 3.054,-9.866l2.617,3.375c-1.05,1.921 -1.642,4.104 -1.642,6.416c-0,7.688 6.537,13.938 14.583,13.938c8.046,-0 14.584,-6.25 14.584,-13.938c-0,-2.27 -0.571,-4.416 -1.584,-6.312l2.696,-3.479Zm-5.483,7.079c0.133,0.667 0.204,1.358 0.204,2.067c-0,5.741 -4.671,10.416 -10.417,10.416c-5.741,0 -10.416,-4.675 -10.416,-10.416c-0,-0.759 0.083,-1.496 0.237,-2.205l6.833,8.821c2.046,1.771 4.3,1.929 6.825,0.004l6.734,-8.687Z" style="fill:#e2e2e2;"/><path d="M28.035,32.506c0.799,0.252 1.514,0.742 2.041,1.421l2.616,3.375c0.502,0.646 0.79,1.409 0.858,2.191c0.74,0.261 1.406,0.731 1.906,1.377c-0,-0 6.582,8.497 6.59,8.502c0.08,0.055 0.162,0.091 0.257,0.092c0.192,0.004 0.371,-0.081 0.568,-0.214l6.389,-8.244c0.506,-0.651 1.18,-1.124 1.928,-1.384c0.064,-0.79 0.353,-1.562 0.86,-2.215l2.695,-3.479c0.52,-0.671 1.224,-1.157 2.01,-1.412c0.05,-0.815 0.339,-1.617 0.865,-2.296l2.462,-3.179c0.775,-1 1.961,-1.594 3.224,-1.615c1.264,-0.021 2.47,0.533 3.277,1.505c4.381,5.279 7.01,12.032 7.01,19.374c0,16.846 -13.842,30.571 -30.896,30.571c-17.048,-0 -30.895,-13.725 -30.895,-30.571c-0,-7.154 2.494,-13.738 6.672,-18.955c0.798,-0.996 2.008,-1.572 3.285,-1.562c1.276,0.01 2.477,0.604 3.259,1.612l2.15,2.771c0.536,0.69 0.826,1.507 0.869,2.335Zm35.34,-2.914l-2.463,3.179c2.733,3.713 4.346,8.28 4.346,13.213c-0,12.437 -10.267,22.558 -22.883,22.558c-12.617,0 -22.88,-10.121 -22.88,-22.558c0,-4.95 1.625,-9.533 4.38,-13.258l-2.15,-2.771c-3.605,4.5 -5.759,10.179 -5.759,16.35c0,14.562 11.992,26.404 26.729,26.404c14.742,-0 26.73,-11.842 26.73,-26.404c-0,-6.334 -2.271,-12.159 -6.05,-16.713Zm-5.338,6.888l-2.696,3.479c1.013,1.896 1.584,4.042 1.584,6.312c-0,7.688 -6.538,13.938 -14.584,13.938c-8.046,-0 -14.583,-6.25 -14.583,-13.938c-0,-2.312 0.592,-4.495 1.642,-6.416l-2.617,-3.375c-1.929,2.837 -3.054,6.229 -3.054,9.866c-0,9.938 8.379,18.03 18.683,18.03c10.3,-0 18.679,-8.092 18.679,-18.03c0,-3.637 -1.121,-7.029 -3.054,-9.866Zm-5.483,7.079l-6.734,8.687c-2.525,1.925 -4.779,1.767 -6.825,-0.004l-6.833,-8.821c-0.154,0.709 -0.237,1.446 -0.237,2.205c-0,5.741 4.675,10.416 10.416,10.416c5.746,0 10.417,-4.675 10.417,-10.416c-0,-0.709 -0.071,-1.4 -0.204,-2.067Z" style="fill:#222;"/><path d="M20.776,19.869l21.633,28.845l21.638,-28.845c-11.638,-13.571 -30.955,-12.167 -43.271,-0Z" style="fill:#fff;"/><path d="M20.776,24.035l-2.928,-7.131c14.05,-13.879 36.086,-15.229 49.362,0.252c1.271,1.483 1.342,3.65 0.17,5.213l-21.638,28.846c-0.787,1.049 -2.022,1.666 -3.333,1.666c-1.312,-0 -2.546,-0.618 -3.333,-1.667l-21.634,-28.846l3.334,1.667Zm-0,-4.166l21.633,28.845l21.638,-28.845c-11.638,-13.571 -30.955,-12.167 -43.271,-0Z" style="fill:#222;"/></g></g></svg>