<?xml version="1.0" encoding="UTF-8" standalone="no"?><!DOCTYPE svg PUBLIC "-//W3C//DTD SVG 1.1//EN" "http://www.w3.org/Graphics/SVG/1.1/DTD/svg11.dtd"><svg width="100%" height="100%" viewBox="0 0 84 84" version="1.1" xmlns="http://www.w3.org/2000/svg" xmlns:xlink="http://www.w3.org/1999/xlink" xml:space="preserve" xmlns:serif="http://www.serif.com/" style="fill-rule:evenodd;clip-rule:evenodd;stroke-linejoin:round;stroke-miterlimit:2;"><g id="_3DToolBar_PortalInfo_CheckedDisabled" serif:id="3DToolBar_PortalInfo_CheckedDisabled" opacity="0.3"><rect id="Transparent-BG" serif:id="Transparent BG" x="0.335" y="2.497" width="79.167" height="79.167" style="fill:none;"/><g id="Calque-3" serif:id="Calque 3"><path d="M62.676,68.291l-29.008,5.278l-0,-63.896l29.008,4.388l-0,54.23Z" style="fill:#fff;fill-rule:nonzero;"/><path d="M63.422,72.39l-29.008,5.278c-1.216,0.221 -2.467,-0.108 -3.416,-0.9c-0.949,-0.792 -1.497,-1.964 -1.497,-3.199l0,-63.896c0,-1.214 0.529,-2.367 1.45,-3.159c0.92,-0.792 2.14,-1.142 3.34,-0.961l29.008,4.389c2.037,0.308 3.544,2.059 3.544,4.119l-0,54.23c-0,2.013 -1.44,3.739 -3.421,4.099Zm-0.746,-4.099l-0,-54.23l-29.008,-4.388l-0,63.896l29.008,-5.278Z" style="fill:#222;"/><path d="M29.323,16.517l-0,4.166c-0,0 -8.395,0 -8.395,0l-0,49.402l-4.167,0l0,-53.568l12.562,-0Z" style="fill:#fff;"/><path d="M25.095,24.85l-0,45.235c-0,2.301 -1.866,4.167 -4.167,4.167l-4.167,-0c-2.301,-0 -4.166,-1.866 -4.166,-4.167l-0,-53.568c-0,-2.302 1.865,-4.167 4.166,-4.167l12.562,-0c2.301,-0 4.166,1.865 4.166,4.167l0,4.166c0,2.301 -1.865,4.167 -4.166,4.167l-4.228,-0Zm4.228,-8.333l-12.562,-0l0,53.568l4.167,0l-0,-49.402c0,0 8.395,0 8.395,0l-0,-4.166Z" style="fill:#222;"/><path d="M45.731,22.275c0,-2.477 1.996,-4.225 4.495,-4.225c2.506,0 4.509,1.748 4.509,4.225c-0,2.455 -2.003,4.225 -4.509,4.225c-2.499,0 -4.495,-1.77 -4.495,-4.225m11.532,34.841l-0,2.462l-14.081,0l-0,-2.462l4.917,-1.063l4.013,-0l5.151,1.063Zm-11.321,2.462c0.11,-2.382 0.161,-7.845 0.161,-11.138l-0,-2.527c-0,-2.922 -0.051,-4.561 -0.161,-6.688l-3.27,-0.473l-0,-2.091l11.109,-3.526l0.917,0.569l-0.16,7.699l0,7.037c0,3.293 0.051,8.756 0.16,11.138l-8.756,0Z" style="fill:#242424;fill-rule:nonzero;"/></g></g></svg>