<?xml version="1.0" encoding="UTF-8" standalone="no"?><!DOCTYPE svg PUBLIC "-//W3C//DTD SVG 1.1//EN" "http://www.w3.org/Graphics/SVG/1.1/DTD/svg11.dtd"><svg width="100%" height="100%" viewBox="0 0 84 84" version="1.1" xmlns="http://www.w3.org/2000/svg" xmlns:xlink="http://www.w3.org/1999/xlink" xml:space="preserve" xmlns:serif="http://www.serif.com/" style="fill-rule:evenodd;clip-rule:evenodd;stroke-linejoin:round;stroke-miterlimit:2;"><g id="_3DToolBar_ReflectionRays_Disabled" serif:id="3DToolBar_ReflectionRays_Disabled" opacity="0.3"><rect id="Transparent-BG" serif:id="Transparent BG" x="3.02" y="-0.534" width="79.167" height="79.167" style="fill:none;"/><g id="Calque-6" serif:id="Calque 6"><path d="M22.407,48.734l2.969,1.32l-1.611,3.621l-9.475,-4.215l4.212,-9.458l3.62,1.612l-1.593,3.575l30.415,-10.434l-12.532,-17.701l3.234,-2.29l15.408,21.763l-3.032,2.146l-22.09,22.299l3.613,-0l0,3.962l-10.348,0l-0.007,-10.365l3.963,-0.003c-0,0 0.001,2.712 0.002,3.579l17.596,-17.762l-24.344,8.351Z" style="fill:#f7f7f7;"/><path d="M25.444,39.098l18.883,-6.478l-9.316,-13.158c-1.329,-1.879 -0.885,-4.479 0.993,-5.809l3.234,-2.289c1.879,-1.33 4.479,-0.885 5.809,0.993l15.407,21.762c1.33,1.878 0.885,4.479 -0.993,5.808l-2.734,1.936l-17.337,17.5c0.208,0.495 0.322,1.039 0.322,1.609l0,3.962c0,2.302 -1.865,4.167 -4.167,4.167l-10.348,0c-2.3,0 -4.165,-1.864 -4.167,-4.164l-0.005,-7.921l-8.429,-3.749c-1.01,-0.449 -1.8,-1.282 -2.196,-2.314c-0.396,-1.032 -0.366,-2.179 0.083,-3.188l4.213,-9.458c0.936,-2.103 3.399,-3.048 5.501,-2.111l3.62,1.612c0.666,0.297 1.216,0.747 1.627,1.29Zm3.376,13.464l2.436,-2.458l-1.764,0.605c-0.056,0.35 -0.158,0.699 -0.309,1.039l-0.363,0.814Zm0.538,3.951l0.001,1.136l0.799,-0.807l-0.8,-0.329Zm-6.951,-7.779l24.344,-8.351l-17.596,17.762l-0.002,-3.579l-3.963,0.003l0.007,10.365l10.348,0l0,-3.962l-3.613,-0l22.09,-22.299l3.032,-2.146l-15.408,-21.763l-3.234,2.29l12.532,17.701l-30.415,10.434l1.593,-3.575l-3.62,-1.612l-4.212,9.458l9.475,4.215l1.611,-3.621l-2.969,-1.32Z" style="fill:#222;"/><rect x="58.295" y="12.604" width="4.167" height="53.957" style="fill:#fff;"/><path d="M66.629,12.604l-0,53.957c-0,2.301 -1.866,4.167 -4.167,4.167l-4.167,-0c-2.301,-0 -4.166,-1.866 -4.166,-4.167l-0,-53.957c-0,-2.301 1.865,-4.167 4.166,-4.167l4.167,0c2.301,0 4.167,1.866 4.167,4.167Zm-4.167,0l-4.167,0l0,53.957l4.167,-0l0,-53.957Z" style="fill:#222;"/></g></g></svg>