<?xml version="1.0" encoding="UTF-8" standalone="no"?><!DOCTYPE svg PUBLIC "-//W3C//DTD SVG 1.1//EN" "http://www.w3.org/Graphics/SVG/1.1/DTD/svg11.dtd"><svg width="100%" height="100%" viewBox="0 0 84 84" version="1.1" xmlns="http://www.w3.org/2000/svg" xmlns:xlink="http://www.w3.org/1999/xlink" xml:space="preserve" xmlns:serif="http://www.serif.com/" style="fill-rule:evenodd;clip-rule:evenodd;stroke-linejoin:round;stroke-miterlimit:2;"><g id="_3DToolBar_GameObjectInputChannels_CheckedDisabled" serif:id="3DToolBar_GameObjectInputChannels_CheckedDisabled" opacity="0.3"><rect id="Transparent-BG" serif:id="Transparent BG" x="1.901" y="2.169" width="79.167" height="79.167" style="fill:none;"/><g id="Calque-11" serif:id="Calque 11"><path d="M76.481,29.596l-0,47.112l-47.563,0l-19.075,-19.47l0,-47.317l46.722,-0l19.916,19.675Zm-4.663,1.251l-16.964,-16.76c0,0 -30.311,0 -38.71,0l16.759,16.76l38.915,-0Zm-57.808,-13.001c-0,10.208 -0,37.691 -0,37.691l16.546,16.889l-0,-38.034l-16.546,-16.546Zm58.303,54.695l0,-37.256l-33.103,-0l0,12.534l4.167,-0l-0,-8.367l24.769,-0l0,29.099l-24.769,0l-0,-8.588l-4.167,0l0,12.578l33.103,0Zm-37.228,-20.548l0,4.167l22.555,-0l-6.134,5.172l2.945,2.941l10.101,-10.188l-10.101,-10.758l-2.95,2.942l6.139,5.724l-22.555,-0Z" style="fill:#fff;"/><path d="M80.647,29.596l0,47.112c0,2.301 -1.865,4.167 -4.166,4.167l-47.563,-0c-1.12,-0 -2.193,-0.451 -2.977,-1.251l-19.074,-19.47c-0.763,-0.779 -1.191,-1.826 -1.191,-2.916l0,-47.317c0,-2.301 1.866,-4.167 4.167,-4.167l46.722,0c1.097,0 2.149,0.432 2.929,1.203l19.915,19.675c0.792,0.783 1.238,1.85 1.238,2.964Zm-4.166,0l-19.916,-19.675l-46.722,-0l0,47.317l19.075,19.47l47.563,0l-0,-47.112Zm-4.168,42.945l-33.103,0l0,-12.578l4.167,0l-0,8.588l24.769,0l0,-29.099l-24.769,-0l-0,8.367l-4.167,-0l0,-12.534l33.103,-0l0,37.256Zm-0.495,-41.694l-38.915,-0l-16.759,-16.76l38.71,0l16.964,16.76Zm-10.146,-4.167l-8.529,-8.426l-26.94,0l8.426,8.426l27.043,0Zm-47.662,-8.834l16.546,16.546l-0,38.034l-16.546,-16.889l-0,-37.691Zm4.166,35.99l8.213,8.383l0,-26.102l-8.213,-8.212l0,25.931Zm16.909,-1.843l22.555,-0l-6.139,-5.724l2.95,-2.942l10.101,10.758l-10.101,10.188l-2.945,-2.941l6.134,-5.172l-22.555,-0l0,-4.167Z" style="fill:#222;"/></g></g></svg>