<?xml version="1.0" encoding="UTF-8" standalone="no"?><!DOCTYPE svg PUBLIC "-//W3C//DTD SVG 1.1//EN" "http://www.w3.org/Graphics/SVG/1.1/DTD/svg11.dtd"><svg width="100%" height="100%" viewBox="0 0 84 84" version="1.1" xmlns="http://www.w3.org/2000/svg" xmlns:xlink="http://www.w3.org/1999/xlink" xml:space="preserve" xmlns:serif="http://www.serif.com/" style="fill-rule:evenodd;clip-rule:evenodd;stroke-linejoin:round;stroke-miterlimit:2;"><g id="_3DToolBar_GameUnitsPerMeters_Disabled" serif:id="3DToolBar_GameUnitsPerMeters_Disabled" opacity="0.3"><rect id="Transparent-BG" serif:id="Transparent BG" x="1.573" y="2.193" width="79.167" height="79.167" style="fill:none;"/><g><path d="M17.278,59.606l6.547,7.287l-2.948,2.648l-10.972,-12.214l11.122,-11.122l2.802,2.802l-1.401,1.401l-5.236,5.235l48.312,0l-7.112,-7.112l2.802,-2.802l11.686,11.686l-11.686,11.687l-2.802,-2.802l1.401,-1.401l5.293,-5.293l-47.808,-0Z" style="fill:#f7f7f7;"/><path d="M27.185,51.477l28.261,-0c-1.627,-1.627 -1.627,-4.265 -0,-5.893l2.802,-2.801c1.627,-1.628 4.265,-1.628 5.892,-0l11.687,11.686c1.627,1.627 1.627,4.265 -0,5.892l-11.687,11.687c-1.627,1.627 -4.265,1.627 -5.892,-0l-2.802,-2.802c0.781,0.781 1.841,1.22 2.946,1.22l-2.73,-6.694l-29.04,0l0.302,0.337c1.538,1.712 1.397,4.346 -0.315,5.884l-2.948,2.648c-1.712,1.538 -4.346,1.397 -5.884,-0.315l-10.972,-12.215c-1.48,-1.647 -1.412,-4.165 0.154,-5.731l11.121,-11.121c1.628,-1.628 4.266,-1.628 5.893,-0l2.802,2.802c1.192,1.191 1.548,2.983 0.903,4.54c-0.131,0.316 -0.297,0.609 -0.493,0.876Zm30.374,12.295l0.912,2.16l0.017,-0.017l-0.888,-2.143l-0.041,0Zm1.237,2.932l0.583,1.38l0.004,-0.009l-0.555,-1.339l2.366,2.366l11.686,-11.687l-11.686,-11.686l-2.802,2.802l7.112,7.112l-48.312,0l5.236,-5.235l1.401,-1.401l-2.802,-2.802l-11.122,11.122l10.972,12.214l2.948,-2.648l-6.547,-7.287l47.808,-0l-5.293,5.293l-1.401,1.401l0.404,0.404Z" style="fill:#222;"/><path d="M72.697,38.943l-62.537,-0l0,-24.931l62.537,0l0,24.931Zm-8.237,-4.167l4.071,0l-0,-16.597l-54.204,-0c-0,-0 -0,16.597 -0,16.597l4.136,0l-0,-8.418l4.167,0l-0,8.418l4.199,0l0,-8.418l4.167,0l-0,8.418l4.199,0l0,-8.418l4.167,0l0,8.418l4.2,0l-0,-8.418l4.166,0l0,8.418l4.2,0l-0,-8.418l4.166,0l0,8.418l4.2,0l-0,-8.418l4.166,0l0,8.418Z" style="fill:#fff;"/><path d="M72.697,43.11l-62.537,-0c-2.301,-0 -4.166,-1.866 -4.166,-4.167l-0,-24.931c-0,-2.301 1.865,-4.167 4.166,-4.167l62.537,0c2.301,0 4.167,1.866 4.167,4.167l-0,24.931c-0,2.301 -1.866,4.167 -4.167,4.167Zm0,-4.167l0,-24.931l-62.537,0l0,24.931l62.537,-0Zm-8.237,-4.167l0,-8.418l-4.166,0l-0,8.418l-4.2,0l0,-8.418l-4.166,0l-0,8.418l-4.2,0l0,-8.418l-4.166,0l-0,8.418l-4.2,0l0,-8.418l-4.167,0l0,8.418l-4.199,0l-0,-8.418l-4.167,0l0,8.418l-4.199,0l-0,-8.418l-4.167,0l-0,8.418l-4.136,0c-0,0 -0,-16.597 -0,-16.597l54.204,-0l-0,16.597l-4.071,0Zm-32.338,-12.431c0.345,0.097 0.671,0.237 0.974,0.413c0.302,-0.176 0.629,-0.316 0.973,-0.413l-1.947,0Zm-8.366,0c0.345,0.097 0.671,0.237 0.973,0.413c0.303,-0.176 0.629,-0.316 0.974,-0.413l-1.947,0Zm16.732,0c0.345,0.097 0.672,0.237 0.974,0.413c0.302,-0.176 0.629,-0.316 0.973,-0.413l-1.947,0Zm8.367,0c0.344,0.097 0.671,0.237 0.973,0.413c0.302,-0.176 0.629,-0.316 0.973,-0.413l-1.946,0Zm8.366,0c0.344,0.097 0.671,0.237 0.973,0.413c0.302,-0.176 0.629,-0.316 0.973,-0.413l-1.946,0Z" style="fill:#222;"/></g></g></svg>