<?xml version="1.0" encoding="UTF-8" standalone="no"?><!DOCTYPE svg PUBLIC "-//W3C//DTD SVG 1.1//EN" "http://www.w3.org/Graphics/SVG/1.1/DTD/svg11.dtd"><svg width="100%" height="100%" viewBox="0 0 84 84" version="1.1" xmlns="http://www.w3.org/2000/svg" xmlns:xlink="http://www.w3.org/1999/xlink" xml:space="preserve" xmlns:serif="http://www.serif.com/" style="fill-rule:evenodd;clip-rule:evenodd;stroke-linejoin:round;stroke-miterlimit:2;"><g id="_3DToolBar_CameraSpeed_Disabled" serif:id="3DToolBar_CameraSpeed_Disabled" opacity="0.3"><rect id="Transparent-BG" serif:id="Transparent BG" x="0.658" y="3.921" width="79.167" height="79.167" style="fill:none;"/><g><g id="CamSpeed"><path d="M55.655,43.976l0,11.324l-20.407,-0l-0,-3.963l16.445,0c-0,0 -0,-29.507 -0,-29.507c-0,-0 -33.576,-0 -33.576,-0l-0,16.172l-3.963,-0l0,-20.135l41.501,0l0,11.052l16.698,-8.119l-0,31.29l-16.698,-8.114Zm0,-10.65l0,6.244l1.624,0.79l11.111,5.399c0,0 0,-18.626 0,-18.626l-12.735,6.193Z" style="fill:#f7f7f7;"/><path d="M47.526,25.997l-25.243,-0l0,12.005c0,2.301 -1.865,4.166 -4.166,4.166l-3.963,0c-2.301,0 -4.166,-1.865 -4.166,-4.166l-0,-20.135c-0,-2.301 1.865,-4.166 4.166,-4.166l41.501,-0c2.302,-0 4.167,1.865 4.167,4.166l-0,4.393l10.709,-5.207c1.291,-0.628 2.815,-0.547 4.032,0.215c1.217,0.761 1.956,2.096 1.956,3.532l0,31.29c0,1.436 -0.739,2.771 -1.956,3.532c-1.217,0.762 -2.74,0.844 -4.032,0.216l-10.709,-5.204l-0,4.666c-0,2.301 -1.865,4.166 -4.167,4.166l-20.407,0c-2.302,0 -4.167,-1.865 -4.167,-4.166l-0,-3.963c-0,-2.301 1.865,-4.167 4.167,-4.167l12.278,0l0,-21.173Zm0.015,-3.808c0.004,-0.052 0.008,-0.104 0.012,-0.155l-0.022,0c0.003,0.052 0.006,0.103 0.01,0.155Zm8.114,21.787l16.698,8.114l-0,-31.29l-16.698,8.119l0,-11.052l-41.501,0l0,20.135l3.963,-0l-0,-16.172c-0,-0 33.576,-0 33.576,-0c-0,-0 -0,29.507 -0,29.507l-16.445,0l-0,3.963l20.407,-0l0,-11.324Zm0,-10.65l12.735,-6.193c0,0 0,18.626 0,18.626l-11.111,-5.399l-1.624,-0.79l0,-6.244Zm10.081,-4.676c0.923,0.922 2.007,2.004 2.45,2.446l0,-3.637l-2.45,1.191Zm-5.914,8.41c1.482,1.174 1.024,2.88 0.116,4.365l1.174,0.57c0.095,-0.223 0.172,-0.458 0.228,-0.701c0.37,-1.611 -0.248,-3.258 -1.518,-4.234Zm0,-0.097l4.402,2.139l-0,-5.31l-4.402,2.141l0,1.03Zm-9.357,-14.929l1.024,3.304l-0,-3.304l-1.024,0Z" style="fill:#222;"/><path d="M8.776,45.012l2.802,-2.802l16.196,16.196l-16.243,15.716l-2.755,-2.848l13.347,-12.914l-13.347,-13.348Z" style="fill:#f7f7f7;"/><path d="M5.829,42.066l2.802,-2.802c1.628,-1.627 4.266,-1.627 5.893,-0l16.196,16.196c0.79,0.79 1.229,1.863 1.22,2.98c-0.009,1.117 -0.466,2.184 -1.269,2.96l-16.242,15.716c-1.654,1.6 -4.292,1.557 -5.892,-0.097l-2.755,-2.848c-1.6,-1.653 -1.557,-4.291 0.097,-5.891l10.303,-9.969l-10.353,-10.353c-1.627,-1.627 -1.627,-4.265 0,-5.892Zm2.947,2.946l13.347,13.348l-13.347,12.914l2.755,2.848l16.243,-15.716l-16.196,-16.196l-2.802,2.802Z" style="fill:#222;"/></g></g></g></svg>