<?xml version="1.0" encoding="UTF-8" standalone="no"?><!DOCTYPE svg PUBLIC "-//W3C//DTD SVG 1.1//EN" "http://www.w3.org/Graphics/SVG/1.1/DTD/svg11.dtd"><svg width="100%" height="100%" viewBox="0 0 84 84" version="1.1" xmlns="http://www.w3.org/2000/svg" xmlns:xlink="http://www.w3.org/1999/xlink" xml:space="preserve" xmlns:serif="http://www.serif.com/" style="fill-rule:evenodd;clip-rule:evenodd;stroke-linejoin:round;stroke-miterlimit:2;"><g id="_3DToolBar_RoomExtentOpacity_Checked" serif:id="3DToolBar_RoomExtentOpacity_Checked"><rect id="Transparent-BG" serif:id="Transparent BG" x="0.049" y="3.025" width="79.167" height="79.167" style="fill:none;"/><g id="Calque-3" serif:id="Calque 3"><path d="M34.807,44.514c-2.908,-0 -5.271,-2.513 -5.271,-5.604l0,-6.875c0,-3.092 2.363,-5.604 5.271,-5.604l6.462,-0c2.913,-0 5.275,2.512 5.275,5.604l0,6.875c0,3.091 -2.362,5.604 -5.275,5.604l-6.462,-0Zm10.967,1.333l9.27,0l0,-10.375l8.505,0c1.875,0 3.529,-1.304 4.07,-3.212c0.542,-1.904 -0.15,-3.967 -1.712,-5.071l-25.508,-18.083c-1.43,-1.013 -3.292,-1.013 -4.721,-0l-25.509,18.083c-1.562,1.104 -2.254,3.167 -1.712,5.071c0.542,1.908 2.196,3.212 4.071,3.212l8.504,0l-0,13.563c-0,2.496 1.904,4.521 4.25,4.521l20.492,-0l-0,-7.709Z" style="fill:#f7f7f7;"/><path d="M49.94,50.014l0,3.542c0,2.301 -1.865,4.166 -4.166,4.166l-20.492,0c-4.573,0 -8.417,-3.822 -8.417,-8.687l0,-9.396l-4.337,-0c-3.691,-0 -7.012,-2.484 -8.079,-6.24c-1.029,-3.618 0.347,-7.515 3.311,-9.609l25.509,-18.084c2.887,-2.046 6.651,-2.046 9.539,0l25.504,18.08c2.968,2.098 4.344,5.995 3.315,9.613c-1.066,3.756 -4.387,6.24 -8.078,6.24l-4.338,-0l0,6.208c0,2.301 -1.865,4.167 -4.167,4.167l-5.104,-0Zm-4.166,-4.167l9.27,0l0,-10.375l8.505,0c1.875,0 3.529,-1.304 4.07,-3.212c0.542,-1.904 -0.15,-3.967 -1.712,-5.071l-25.508,-18.083c-1.43,-1.013 -3.292,-1.013 -4.721,-0l-25.509,18.083c-1.562,1.104 -2.254,3.167 -1.712,5.071c0.542,1.908 2.196,3.212 4.071,3.212l8.504,0l-0,13.563c-0,2.496 1.904,4.521 4.25,4.521l20.492,-0l-0,-7.709Zm-10.967,-1.333c-2.908,-0 -5.271,-2.513 -5.271,-5.604l0,-6.875c0,-3.092 2.363,-5.604 5.271,-5.604l6.462,-0c2.913,-0 5.275,2.512 5.275,5.604l0,6.875c0,3.091 -2.362,5.604 -5.275,5.604l-6.462,-0Zm-0,-4.167l6.462,0c0.687,0 1.109,-0.708 1.109,-1.437l-0,-6.875c-0,-0.729 -0.422,-1.438 -1.109,-1.438l-6.462,0c-0.685,0 -1.104,0.709 -1.104,1.438l-0,6.875c-0,0.728 0.419,1.437 1.104,1.437Z" style="fill:#222;"/><path d="M79.417,41.63l-0,33.334c-0,2.301 -1.866,4.166 -4.167,4.166l-33.333,0c-2.301,0 -4.167,-1.865 -4.167,-4.166l0,-33.334c0,-2.301 1.866,-4.166 4.167,-4.166l33.333,-0c2.301,-0 4.167,1.865 4.167,4.166Zm-4.167,0l-33.333,0l-0,33.334l33.333,-0l0,-33.334Z" style="fill:#222;"/><rect x="41.917" y="41.63" width="33.333" height="33.333" style="fill:#222;"/><g><rect x="41.917" y="65.365" width="9.525" height="9.525" style="fill:#fff;"/><rect x="65.725" y="41.557" width="9.525" height="9.525" style="fill:#fff;"/><rect x="41.917" y="41.557" width="9.525" height="9.525" style="fill:#fff;"/><rect x="53.821" y="53.461" width="9.525" height="9.525" style="fill:#fff;"/><rect x="65.725" y="65.365" width="9.525" height="9.525" style="fill:#fff;"/><g opacity="0.5"><rect x="53.822" y="41.557" width="9.524" height="9.524" style="fill:#fff;"/></g><g opacity="0.5"><rect x="65.727" y="53.461" width="9.524" height="9.524" style="fill:#fff;"/></g><g opacity="0.5"><rect x="53.822" y="65.366" width="9.524" height="9.524" style="fill:#fff;"/></g><g opacity="0.5"><rect x="41.917" y="53.461" width="9.524" height="9.524" style="fill:#fff;"/></g></g></g></g></svg>