<?xml version="1.0" encoding="UTF-8" standalone="no"?><!DOCTYPE svg PUBLIC "-//W3C//DTD SVG 1.1//EN" "http://www.w3.org/Graphics/SVG/1.1/DTD/svg11.dtd"><svg width="100%" height="100%" viewBox="0 0 84 84" version="1.1" xmlns="http://www.w3.org/2000/svg" xmlns:xlink="http://www.w3.org/1999/xlink" xml:space="preserve" xmlns:serif="http://www.serif.com/" style="fill-rule:evenodd;clip-rule:evenodd;stroke-linejoin:round;stroke-miterlimit:2;"><g id="_3DToolBar_RadiusOpacity_Normal" serif:id="3DToolBar_RadiusOpacity_Normal" opacity="0.45"><rect id="Transparent-BG" serif:id="Transparent BG" x="2.191" y="2.28" width="79.167" height="79.167" style="fill:none;"/><g id="Calque-1" serif:id="Calque 1"><g opacity="0"><path d="M70.941,17.28c0,-4.829 -3.921,-8.75 -8.75,-8.75l-45,0c-4.829,0 -8.75,3.921 -8.75,8.75l0,45c0,4.829 3.921,8.75 8.75,8.75l45,0c4.829,0 8.75,-3.921 8.75,-8.75l0,-45Z"/></g><g><path d="M45.941,52.902c-1.9,0.909 -4.004,1.463 -6.25,1.463c-8.046,-0 -14.583,-6.542 -14.583,-14.584c-0,-8.045 6.537,-14.583 14.583,-14.583c8.046,0 14.583,6.538 14.583,14.583c0,2.246 -0.55,4.346 -1.462,6.25l6.617,0c0.629,-1.987 1.066,-4.058 1.066,-6.25c0,-11.475 -9.337,-20.804 -20.804,-20.804c-11.467,0 -20.804,9.329 -20.804,20.804c-0,11.471 9.337,20.8 20.804,20.8c2.192,0 4.263,-0.433 6.25,-1.062l0,-6.617Z" style="fill:#fff;fill-rule:nonzero;"/><path d="M50.108,52.902l-0,6.617c-0,1.817 -1.177,3.424 -2.909,3.972c-2.387,0.756 -4.876,1.257 -7.508,1.257c-13.763,0 -24.971,-11.198 -24.971,-24.967c0,-13.773 11.208,-24.97 24.971,-24.97c13.763,-0 24.971,11.197 24.971,24.97c-0,2.632 -0.506,5.122 -1.261,7.508c-0.548,1.732 -2.156,2.909 -3.972,2.909l-6.617,0c-1.432,0 -2.763,-0.735 -3.526,-1.946c-0.763,-1.212 -0.85,-2.73 -0.232,-4.021c0.65,-1.357 1.054,-2.85 1.054,-4.45c-0,-5.747 -4.67,-10.416 -10.417,-10.416c-5.747,-0 -10.417,4.669 -10.417,10.416c0,5.744 4.67,10.417 10.417,10.417c1.601,0 3.098,-0.407 4.453,-1.055c1.291,-0.617 2.808,-0.529 4.019,0.234c1.21,0.763 1.945,2.094 1.945,3.525Zm-4.167,0c-1.9,0.909 -4.004,1.463 -6.25,1.463c-8.046,-0 -14.583,-6.542 -14.583,-14.584c-0,-8.045 6.537,-14.583 14.583,-14.583c8.046,0 14.583,6.538 14.583,14.583c0,2.246 -0.55,4.346 -1.462,6.25l6.617,0c0.629,-1.987 1.066,-4.058 1.066,-6.25c0,-11.475 -9.337,-20.804 -20.804,-20.804c-11.467,0 -20.804,9.329 -20.804,20.804c-0,11.471 9.337,20.8 20.804,20.8c2.192,0 4.263,-0.433 6.25,-1.062l0,-6.617Z" style="fill:#222;"/><path d="M45.941,66.106c-2.008,0.48 -4.096,0.759 -6.25,0.759c-14.933,-0 -27.083,-12.15 -27.083,-27.084c-0,-14.933 12.15,-27.083 27.083,-27.083c14.933,0 27.083,12.15 27.083,27.083c0,2.155 -0.279,4.238 -0.758,6.25l4.296,0c0.412,-2.02 0.629,-4.112 0.629,-6.25c0,-17.233 -14.017,-31.25 -31.25,-31.25c-17.233,0 -31.25,14.017 -31.25,31.25c0,17.234 14.017,31.25 31.25,31.25c2.142,0 4.229,-0.22 6.25,-0.629l0,-4.296Z" style="fill:#fff;fill-rule:nonzero;"/><path d="M50.108,66.106l-0,4.296c-0,1.983 -1.398,3.692 -3.342,4.084c-2.287,0.463 -4.651,0.712 -7.075,0.712c-19.531,0 -35.417,-15.886 -35.417,-35.417c0,-19.531 15.886,-35.416 35.417,-35.416c19.531,-0 35.417,15.885 35.417,35.416c-0,2.423 -0.246,4.793 -0.714,7.084c-0.396,1.94 -2.102,3.333 -4.082,3.333l-4.296,0c-1.275,0 -2.48,-0.584 -3.27,-1.584c-0.79,-1 -1.079,-2.308 -0.783,-3.548c0.405,-1.702 0.645,-3.463 0.645,-5.285c-0,-12.636 -10.281,-22.916 -22.917,-22.916c-12.636,-0 -22.917,10.28 -22.917,22.916c0,12.636 10.281,22.917 22.917,22.917c1.821,0 3.585,-0.239 5.283,-0.645c1.24,-0.295 2.548,-0.007 3.549,0.783c1.001,0.79 1.585,1.995 1.585,3.27Zm-4.167,0c-2.008,0.48 -4.096,0.759 -6.25,0.759c-14.933,-0 -27.083,-12.15 -27.083,-27.084c-0,-14.933 12.15,-27.083 27.083,-27.083c14.933,0 27.083,12.15 27.083,27.083c0,2.155 -0.279,4.238 -0.758,6.25l4.296,0c0.412,-2.02 0.629,-4.112 0.629,-6.25c0,-17.233 -14.017,-31.25 -31.25,-31.25c-17.233,0 -31.25,14.017 -31.25,31.25c0,17.234 14.017,31.25 31.25,31.25c2.142,0 4.229,-0.22 6.25,-0.629l0,-4.296Z" style="fill:#222;"/></g><path d="M83.441,46.03l0,33.333c0,2.302 -1.865,4.167 -4.167,4.167l-33.333,0c-2.301,0 -4.167,-1.865 -4.167,-4.167l0,-33.333c0,-2.301 1.866,-4.167 4.167,-4.167l33.333,0c2.302,0 4.167,1.866 4.167,4.167Zm-4.167,0l-33.333,0l0,33.333l33.333,0l0,-33.333Z" style="fill:#222;"/><rect x="45.941" y="46.03" width="33.333" height="33.333" style="fill:#222;"/><g><g opacity="0.5"><rect x="57.846" y="46.03" width="9.524" height="9.524" style="fill:#fff;"/></g><g opacity="0.5"><rect x="69.751" y="57.935" width="9.524" height="9.524" style="fill:#fff;"/></g><rect x="45.941" y="69.838" width="9.525" height="9.525" style="fill:#fff;"/><g opacity="0.5"><rect x="57.846" y="69.84" width="9.524" height="9.524" style="fill:#fff;"/></g><rect x="69.749" y="46.03" width="9.525" height="9.525" style="fill:#fff;"/><rect x="45.941" y="46.03" width="9.525" height="9.525" style="fill:#fff;"/><rect x="57.845" y="57.934" width="9.525" height="9.525" style="fill:#fff;"/><g opacity="0.5"><rect x="45.941" y="57.935" width="9.524" height="9.524" style="fill:#fff;"/></g><rect x="69.749" y="69.838" width="9.525" height="9.525" style="fill:#fff;"/></g></g></g></svg>