<?xml version="1.0" encoding="UTF-8" standalone="no"?><!DOCTYPE svg PUBLIC "-//W3C//DTD SVG 1.1//EN" "http://www.w3.org/Graphics/SVG/1.1/DTD/svg11.dtd"><svg width="100%" height="100%" viewBox="0 0 84 84" version="1.1" xmlns="http://www.w3.org/2000/svg" xmlns:xlink="http://www.w3.org/1999/xlink" xml:space="preserve" xmlns:serif="http://www.serif.com/" style="fill-rule:evenodd;clip-rule:evenodd;stroke-linejoin:round;stroke-miterlimit:2;"><g id="_3DToolBar_GameObjectPosition_Normal" serif:id="3DToolBar_GameObjectPosition_Normal" opacity="0.45"><rect id="Transparent-BG" serif:id="Transparent BG" x="-0.582" y="-0.436" width="79.167" height="79.167" style="fill:none;"/><g id="Calque-11" serif:id="Calque 11"><path d="M74.254,27.538l-0,47.112l-47.563,-0l-19.075,-19.471l0,-47.317l46.723,0l19.915,19.676Zm-4.663,1.25l-16.963,-16.759c-0,0 -30.312,0 -38.711,0l16.76,16.759l38.914,0Zm-57.808,-13.001c-0,10.209 -0,37.691 -0,37.691l16.546,16.89l-0,-38.035l-16.546,-16.546Z" style="fill:#fff;"/><path d="M78.42,27.538l0,47.112c0,2.301 -1.865,4.166 -4.166,4.166l-47.563,0c-1.12,0 -2.193,-0.45 -2.976,-1.25l-19.075,-19.471c-0.763,-0.778 -1.19,-1.825 -1.19,-2.916l-0,-47.317c-0,-2.301 1.865,-4.166 4.166,-4.166l46.723,-0c1.096,-0 2.148,0.432 2.928,1.202l19.915,19.676c0.792,0.783 1.238,1.85 1.238,2.964Zm-4.166,-0l-19.915,-19.676l-46.723,0l0,47.317l19.075,19.471l47.563,-0l-0,-47.112Zm-4.663,1.25l-38.914,0l-16.76,-16.759l38.711,0l16.963,16.759Zm-10.146,-4.166l-8.529,-8.426l-26.939,-0l8.426,8.426l27.042,-0Zm-47.662,-8.835l16.546,16.546l-0,38.035l-16.546,-16.89l-0,-37.691Zm4.167,35.991l8.212,8.383l0,-26.102l-8.212,-8.213l-0,25.932Z" style="fill:#222;"/><path d="M61.416,53.043c0.966,-2.254 1.288,-4.856 0.732,-7.564c-0.97,-4.737 -4.794,-8.575 -9.531,-9.563c-8.072,-1.684 -15.177,4.433 -15.177,12.209c-0,2.038 0.485,3.961 1.349,5.659l11.243,16.103l10.599,-15.468c0.3,-0.436 0.578,-0.891 0.785,-1.376Z" style="fill:#222;"/><path d="M49.954,44.465c-2.081,0 -3.765,1.686 -3.765,3.765c0,2.081 1.684,3.768 3.765,3.768c2.079,-0 3.765,-1.687 3.765,-3.768c0,-2.079 -1.686,-3.765 -3.765,-3.765" style="fill:#fff;fill-rule:nonzero;"/></g></g></svg>