<?xml version="1.0" encoding="UTF-8" standalone="no"?><!DOCTYPE svg PUBLIC "-//W3C//DTD SVG 1.1//EN" "http://www.w3.org/Graphics/SVG/1.1/DTD/svg11.dtd"><svg width="100%" height="100%" viewBox="0 0 84 84" version="1.1" xmlns="http://www.w3.org/2000/svg" xmlns:xlink="http://www.w3.org/1999/xlink" xml:space="preserve" xmlns:serif="http://www.serif.com/" style="fill-rule:evenodd;clip-rule:evenodd;stroke-linejoin:round;stroke-miterlimit:2;"><g id="_3DToolBar_WorldOrientationY_Normal" serif:id="3DToolBar_WorldOrientationY_Normal" opacity="0.45"><rect id="Transparent-BG" serif:id="Transparent BG" x="1.487" y="2.753" width="79.167" height="79.167" style="fill:none;"/><g><g id="AxisX"><g><path d="M49.288,59.115l-20.847,12.039l-1.982,-3.432l21.124,-12.198l-0,-24.416l3.962,-0l0,24.735l20.745,11.979l-1.981,3.432l-21.021,-12.139Z" style="fill:#f7f7f7;"/><path d="M49.288,63.927l-18.764,10.835c-1.992,1.151 -4.541,0.468 -5.691,-1.525l-1.982,-3.431c-1.151,-1.993 -0.468,-4.541 1.525,-5.692l19.04,-10.995l0,-22.011c0,-2.301 1.866,-4.167 4.167,-4.167l3.962,0c2.302,0 4.167,1.866 4.167,4.167c0,-0 0,22.33 -0,22.33l18.662,10.776c1.993,1.151 2.675,3.699 1.524,5.692l-1.981,3.431c-1.151,1.993 -3.699,2.676 -5.692,1.525l-18.937,-10.935Zm0,-4.812l21.021,12.139l1.981,-3.432l-20.745,-11.979l0,-24.735l-3.962,-0l-0,24.416l-21.124,12.198l1.982,3.432l20.847,-12.039Z" style="fill:#222;"/></g><g id="AxisY"><path d="M13.219,11.583l7.42,12.02l7.246,-12.02l3.911,-0l-9.42,14.783l-0,10.042l-3.518,-0l0,-10.042l-9.55,-14.783l3.911,-0Z" style="fill:#fff;fill-rule:nonzero;"/><path d="M16.765,9.394l3.832,6.209l3.72,-6.172c0.754,-1.25 2.108,-2.015 3.568,-2.015l3.911,-0c1.521,-0 2.921,0.829 3.653,2.163c0.732,1.333 0.678,2.96 -0.139,4.243l-8.768,13.759l0,8.827c0,2.301 -1.865,4.166 -4.166,4.166l-3.518,0c-2.301,0 -4.166,-1.865 -4.166,-4.166l-0,-8.813l-8.884,-13.751c-0.828,-1.282 -0.889,-2.914 -0.159,-4.254c0.73,-1.34 2.133,-2.174 3.659,-2.174l3.911,-0c1.445,-0 2.787,0.749 3.546,1.978Zm-3.546,2.189l-3.911,-0l9.55,14.783l0,10.042l3.518,-0l-0,-10.042l9.42,-14.783l-3.911,-0l-7.246,12.02l-7.42,-12.02Z" style="fill:#222;"/></g></g></g></g></svg>