<?xml version="1.0" encoding="UTF-8" standalone="no"?><!DOCTYPE svg PUBLIC "-//W3C//DTD SVG 1.1//EN" "http://www.w3.org/Graphics/SVG/1.1/DTD/svg11.dtd"><svg width="100%" height="100%" viewBox="0 0 84 84" version="1.1" xmlns="http://www.w3.org/2000/svg" xmlns:xlink="http://www.w3.org/1999/xlink" xml:space="preserve" xmlns:serif="http://www.serif.com/" style="fill-rule:evenodd;clip-rule:evenodd;stroke-linejoin:round;stroke-miterlimit:2;"><g id="_3DToolBar_Diffraction-_CheckedDisabled" serif:id="3DToolBar_Diffraction%_CheckedDisabled" opacity="0.3"><rect id="Transparent-BG" serif:id="Transparent BG" x="1.094" y="2.034" width="79.167" height="79.167" style="fill:none;"/><g id="Calque-6" serif:id="Calque 6"><rect x="29.363" y="20.932" width="4.167" height="50" style="fill:#fff;"/><path d="M37.697,20.932l-0,50c-0,2.302 -1.866,4.167 -4.167,4.167l-4.167,0c-2.301,0 -4.166,-1.865 -4.166,-4.167l-0,-50c-0,-2.301 1.865,-4.166 4.166,-4.166l4.167,-0c2.301,-0 4.167,1.865 4.167,4.166Zm-4.167,0l-4.167,0l0,50l4.167,0l0,-50Z" style="fill:#222;"/><path d="M9.959,30.563c3.408,-4.592 5.629,-7.654 10.079,-11.154c4.212,-3.309 8.917,-5.567 14.208,-5.504c9.971,0.116 12.804,5.279 19.429,12.625l3.092,-2.796c-7.567,-8.396 -11.075,-13.867 -22.471,-14.004c-12.187,-0.142 -20.254,8.337 -27.683,18.345l3.346,2.488Z" style="fill:#fff;"/><path d="M7.473,33.907l-3.346,-2.488c-1.846,-1.372 -2.231,-3.98 -0.86,-5.827c8.271,-11.142 17.511,-20.186 31.079,-20.029c12.822,0.155 17.002,5.934 25.516,15.381c1.539,1.708 1.404,4.339 -0.3,5.88l-3.092,2.796c-0.82,0.742 -1.902,1.127 -3.007,1.071c-1.104,-0.056 -2.141,-0.549 -2.882,-1.371c-5.682,-6.3 -7.832,-11.149 -16.384,-11.249c-4.33,-0.051 -8.137,1.907 -11.584,4.614c-4.123,3.243 -6.151,6.107 -9.309,10.361c-0.659,0.888 -1.643,1.478 -2.737,1.639c-1.094,0.161 -2.207,-0.119 -3.094,-0.778Zm2.486,-3.344c3.408,-4.592 5.629,-7.654 10.079,-11.154c4.212,-3.309 8.917,-5.567 14.208,-5.504c9.971,0.116 12.804,5.279 19.429,12.625l3.092,-2.796c-7.567,-8.396 -11.075,-13.867 -22.471,-14.004c-12.187,-0.142 -20.254,8.337 -27.683,18.345l3.346,2.488Z" style="fill:#222;"/><path d="M64.026,29.195c3.45,0 6.25,2.8 6.25,6.25c-0,3.45 -2.8,6.25 -6.25,6.25c-3.45,0 -6.25,-2.8 -6.25,-6.25c-0,-3.45 2.8,-6.25 6.25,-6.25Z" style="fill:#fff;"/><path d="M64.026,25.029c5.75,-0 10.417,4.666 10.417,10.416c-0,5.75 -4.667,10.417 -10.417,10.417c-5.75,-0 -10.417,-4.667 -10.417,-10.417c0,-5.75 4.667,-10.416 10.417,-10.416Zm-0,4.166c-3.45,0 -6.25,2.8 -6.25,6.25c-0,3.45 2.8,6.25 6.25,6.25c3.45,0 6.25,-2.8 6.25,-6.25c-0,-3.45 -2.8,-6.25 -6.25,-6.25Z" style="fill:#222;"/><g><path d="M52.563,45.431c4.332,-0 7.843,3.515 7.843,7.829c-0,4.322 -3.512,7.835 -7.843,7.835c-4.331,-0 -7.843,-3.513 -7.843,-7.835c-0,-4.314 3.51,-7.829 7.843,-7.829Zm-0,4.166c-2.029,0 -3.676,1.643 -3.676,3.663c-0,2.025 1.647,3.668 3.676,3.668c2.029,-0 3.676,-1.643 3.676,-3.668c0,-2.02 -1.647,-3.663 -3.676,-3.663Z" style="fill:#222;"/><path d="M52.563,49.597c2.029,0 3.676,1.643 3.676,3.663c0,2.025 -1.647,3.668 -3.676,3.668c-2.029,-0 -3.676,-1.643 -3.676,-3.668c-0,-2.02 1.647,-3.663 3.676,-3.663Z" style="fill:#fff;"/><path d="M69.844,62.637c4.342,-0 7.865,3.527 7.865,7.869c0,4.341 -3.523,7.869 -7.865,7.869c-4.341,-0 -7.864,-3.528 -7.864,-7.869c-0,-4.342 3.523,-7.869 7.864,-7.869Zm0,4.166c-2.041,0 -3.697,1.661 -3.697,3.703c-0,2.041 1.656,3.702 3.697,3.702c2.042,-0 3.698,-1.661 3.698,-3.702c0,-2.042 -1.656,-3.703 -3.698,-3.703Z" style="fill:#222;"/><path d="M69.844,66.803c2.042,0 3.698,1.661 3.698,3.703c0,2.041 -1.656,3.702 -3.698,3.702c-2.041,-0 -3.697,-1.661 -3.697,-3.702c-0,-2.042 1.656,-3.703 3.697,-3.703Z" style="fill:#fff;"/><path d="M67.116,47.156l3.131,1.807l-15.605,27.046l-3.131,-1.807l15.605,-27.046Z" style="fill:#fff;"/><path d="M69.198,43.547l3.132,1.807c1.993,1.15 2.676,3.698 1.526,5.691l-15.605,27.046c-1.15,1.994 -3.698,2.677 -5.691,1.527l-3.132,-1.807c-1.993,-1.15 -2.676,-3.698 -1.526,-5.691l15.605,-27.046c1.15,-1.993 3.698,-2.677 5.691,-1.527Zm-2.082,3.609l-15.605,27.046l3.131,1.807l15.605,-27.046l-3.131,-1.807Z" style="fill:#222;"/></g></g></g></svg>