<?xml version="1.0" encoding="UTF-8" standalone="no"?><!DOCTYPE svg PUBLIC "-//W3C//DTD SVG 1.1//EN" "http://www.w3.org/Graphics/SVG/1.1/DTD/svg11.dtd"><svg width="100%" height="100%" viewBox="0 0 84 84" version="1.1" xmlns="http://www.w3.org/2000/svg" xmlns:xlink="http://www.w3.org/1999/xlink" xml:space="preserve" xmlns:serif="http://www.serif.com/" style="fill-rule:evenodd;clip-rule:evenodd;stroke-linecap:square;stroke-miterlimit:5;"><g id="_3DToolBar_WorldAxis_CheckedDisabled" serif:id="3DToolBar_WorldAxis_CheckedDisabled" opacity="0.3"><rect id="Transparent-BG" serif:id="Transparent BG" x="4.25" y="3.984" width="79.167" height="79.167" style="fill:none;"/><g id="Axis"><g><circle cx="28.583" cy="28.476" r="16.886" style="fill:#222;"/><circle cx="28.583" cy="28.476" r="18.97" style="fill:#222;"/><path d="M28.583,7.423c11.62,0 21.053,9.434 21.053,21.053c0,11.62 -9.433,21.053 -21.053,21.053c-11.619,0 -21.053,-9.433 -21.053,-21.053c0,-11.619 9.434,-21.053 21.053,-21.053Zm0,4.167c-9.32,-0 -16.886,7.566 -16.886,16.886c-0,9.32 7.566,16.887 16.886,16.887c9.32,-0 16.887,-7.567 16.887,-16.887c-0,-9.32 -7.567,-16.886 -16.887,-16.886Z" style="fill:#f7f7f7;"/><path d="M28.583,3.257c13.919,-0 25.22,11.3 25.22,25.219c0,13.92 -11.301,25.22 -25.22,25.22c-13.919,0 -25.22,-11.3 -25.22,-25.22c0,-13.919 11.301,-25.219 25.22,-25.219Zm0,4.166c-11.619,0 -21.053,9.434 -21.053,21.053c0,11.62 9.434,21.053 21.053,21.053c11.62,0 21.053,-9.433 21.053,-21.053c0,-11.619 -9.433,-21.053 -21.053,-21.053Zm0,4.167c9.32,-0 16.887,7.566 16.887,16.886c-0,9.32 -7.567,16.887 -16.887,16.887c-9.32,-0 -16.886,-7.567 -16.886,-16.887c-0,-9.32 7.566,-16.886 16.886,-16.886Zm0,4.167c-7.02,-0 -12.72,5.699 -12.72,12.719c0,7.021 5.7,12.72 12.72,12.72c7.02,0 12.72,-5.699 12.72,-12.72c0,-7.02 -5.7,-12.719 -12.72,-12.719Z" style="fill:#222;"/><g><path d="M24.529,43.542l-0,-30.131" style="fill:none;fill-rule:nonzero;stroke:#f7f7f7;stroke-width:3.96px;"/><path d="M32.638,43.542l-0,-30.131" style="fill:none;fill-rule:nonzero;stroke:#f7f7f7;stroke-width:3.96px;"/></g><g><path d="M13.571,24.268l30.025,0.154" style="fill:none;fill-rule:nonzero;stroke:#f7f7f7;stroke-width:3.96px;"/><path d="M13.571,32.685l30.025,-0" style="fill:none;fill-rule:nonzero;stroke:#f7f7f7;stroke-width:3.96px;"/></g></g><g><path d="M53.872,56.665l-0,-23.29" style="fill:none;fill-rule:nonzero;"/><path d="M54.152,58.968l-21.294,12.296l-1.982,-3.431l21.014,-12.135l0,-24.305l3.963,0l-0,23.972l20.868,12.623l-2.051,3.391l-20.518,-12.411Z" style="fill:#f7f7f7;"/><path d="M54.103,63.807l-19.162,11.066c-1.993,1.15 -4.541,0.468 -5.692,-1.525l-1.981,-3.432c-1.151,-1.992 -0.468,-4.541 1.524,-5.691c0,-0 18.932,-10.932 18.932,-10.932l-0,-21.9c-0,-2.301 1.865,-4.166 4.166,-4.166l3.963,-0c2.301,-0 4.167,1.865 4.167,4.166l-0,21.623l18.858,11.407c1.969,1.191 2.599,3.753 1.408,5.722l-2.051,3.39c-1.191,1.969 -3.752,2.6 -5.721,1.409l-18.411,-11.137Zm0.049,-4.839l20.518,12.411l2.051,-3.391l-20.868,-12.623l-0,-23.972l-3.963,0l0,24.305l-21.014,12.135l1.982,3.431l21.294,-12.296Z" style="fill:#222;"/><path d="M52.841,57.437l-19.258,11.121" style="fill:none;fill-rule:nonzero;"/><path d="M54.113,56.628l19.887,12.03" style="fill:none;fill-rule:nonzero;"/></g></g></g></svg>