<?xml version="1.0" encoding="UTF-8" standalone="no"?><!DOCTYPE svg PUBLIC "-//W3C//DTD SVG 1.1//EN" "http://www.w3.org/Graphics/SVG/1.1/DTD/svg11.dtd"><svg width="100%" height="100%" viewBox="0 0 84 84" version="1.1" xmlns="http://www.w3.org/2000/svg" xmlns:xlink="http://www.w3.org/1999/xlink" xml:space="preserve" xmlns:serif="http://www.serif.com/" style="fill-rule:evenodd;clip-rule:evenodd;stroke-linejoin:round;stroke-miterlimit:2;"><g id="_3DToolBar_DiffractionEdge_Normal" serif:id="3DToolBar_DiffractionEdge_Normal" opacity="0.45"><rect id="Transparent-BG" serif:id="Transparent BG" x="0.267" y="0.581" width="79.167" height="79.167" style="fill:none;"/><g id="Calque-6" serif:id="Calque 6"><rect x="50.091" y="8.459" width="4.064" height="37.476" style="fill:#f7f7f7;"/><path d="M58.321,8.459l0,37.476c0,2.301 -1.865,4.167 -4.166,4.167l-4.064,-0c-2.302,-0 -4.167,-1.866 -4.167,-4.167l-0,-37.476c-0,-2.301 1.865,-4.166 4.167,-4.166l4.064,-0c2.301,-0 4.166,1.865 4.166,4.166Zm-4.166,0l-4.064,0l-0,37.476l4.064,-0l-0,-37.476Z" style="fill:#222;"/><rect x="8.421" y="50.084" width="37.59" height="4.039" style="fill:#f7f7f7;"/><path d="M50.178,50.084l0,4.039c0,2.301 -1.865,4.167 -4.166,4.167l-37.591,-0c-2.301,-0 -4.166,-1.866 -4.166,-4.167l-0,-4.039c-0,-2.301 1.865,-4.167 4.166,-4.167l37.591,0c2.301,0 4.166,1.866 4.166,4.167Zm-4.166,-0l-37.591,-0l0,4.039l37.591,-0l-0,-4.039Z" style="fill:#222;"/><path d="M70.725,50.084l0,20.733l-20.634,-0l-0,-20.733l20.634,-0Z" style="fill:#f7f7f7;"/><path d="M74.892,50.084l0,20.733c0,2.301 -1.865,4.167 -4.167,4.167l-20.634,-0c-2.302,-0 -4.167,-1.866 -4.167,-4.167l-0,-20.733c-0,-2.301 1.865,-4.167 4.167,-4.167l20.634,0c2.302,0 4.167,1.866 4.167,4.167Zm-4.167,-0l-20.634,-0l-0,20.733l20.634,-0l0,-20.733Z" style="fill:#222;"/></g></g></svg>