<?xml version="1.0" encoding="UTF-8" standalone="no"?><!DOCTYPE svg PUBLIC "-//W3C//DTD SVG 1.1//EN" "http://www.w3.org/Graphics/SVG/1.1/DTD/svg11.dtd"><svg width="100%" height="100%" viewBox="0 0 84 84" version="1.1" xmlns="http://www.w3.org/2000/svg" xmlns:xlink="http://www.w3.org/1999/xlink" xml:space="preserve" xmlns:serif="http://www.serif.com/" style="fill-rule:evenodd;clip-rule:evenodd;stroke-linejoin:round;stroke-miterlimit:2;"><g id="_3DToolBar_VirtualVoices_Normal" serif:id="3DToolBar_VirtualVoices_Normal" opacity="0.45"><rect id="Transparent-BG" serif:id="Transparent BG" x="2.656" y="3.033" width="79.167" height="79.167" style="fill:none;"/><g><g id="Calque-1" serif:id="Calque 1"><path d="M12.746,44.977l-3.15,3.117c-0.879,0.871 -0.679,0.762 -0.65,2.475c0.038,2.425 1.209,5.987 3.942,8.696c2.483,2.454 5.596,3.704 7.946,3.987c2.35,0.283 2.221,0.388 3.167,-0.546l3.404,-3.371c-2.996,-0.554 -6.684,-2.2 -9.679,-5.158c-2.821,-2.796 -4.392,-6.271 -4.98,-9.2Z" style="fill:#919191;fill-rule:nonzero;"/><path d="M13.932,48.656l1.745,-0.717c0.102,-0.101 0.2,-0.208 0.292,-0.321c0.792,-0.966 1.108,-2.236 0.863,-3.46c0.451,2.247 1.66,4.911 3.824,7.057c2.327,2.297 5.18,3.593 7.507,4.023c1.525,0.282 2.767,1.389 3.224,2.871c0.456,1.482 0.052,3.096 -1.05,4.187l-3.41,3.376c-0.992,0.979 -1.648,1.369 -2.335,1.622c-0.719,0.264 -1.673,0.406 -4.257,0.095c-3.063,-0.37 -7.141,-1.964 -10.378,-5.163c-3.633,-3.6 -5.127,-8.367 -5.177,-11.592c-0.034,-2.005 0.082,-2.716 0.335,-3.344c0.235,-0.583 0.592,-1.208 1.55,-2.157l3.151,-3.118l1.713,4.167l-1.933,1.912c-0.879,0.871 -0.679,0.762 -0.65,2.475c0.038,2.425 1.209,5.987 3.942,8.696c2.483,2.454 5.596,3.704 7.946,3.987c2.35,0.283 2.221,0.388 3.167,-0.546l3.404,-3.371c-2.996,-0.554 -6.684,-2.2 -9.679,-5.158c-1.699,-1.683 -2.944,-3.612 -3.794,-5.521Z" style="fill:#222;"/><path d="M37.42,50.587c-1.542,1.4 -6.288,-0.975 -10.617,-5.304c-4.325,-4.329 -6.579,-8.971 -5.05,-10.375c1.538,-1.396 6.288,0.975 10.613,5.304c4.325,4.329 6.587,8.979 5.054,10.375Zm6.05,2.079l-2.663,-5.883l10.784,-0c-0.467,-0.942 -0.984,-1.896 -1.555,-2.867l13.038,-2.133l-0,-10.833l-15.704,8.904c-1.554,-2.154 -3.346,-4.334 -5.35,-6.463l21.054,-13.275l-0,-10.833l-7.225,-0l-16.621,21.292c-2.108,-2.009 -4.262,-3.809 -6.408,-5.375l8.587,-15.917l-10.833,-0l-1.783,13.225c-7.742,-4.679 -14.775,-5.996 -18.046,-2.721c-4.896,4.904 0.487,18.242 12.021,29.788c9.07,9.079 19.229,14.32 25.541,13.783l-4.837,-10.692Z" style="fill:#919191;fill-rule:nonzero;"/><path d="M55.736,47.206c-0.063,0.62 -0.266,1.227 -0.605,1.774c-0.76,1.225 -2.099,1.97 -3.54,1.97l-4.325,-0.001l4.837,10.691c0.558,1.233 0.483,2.659 -0.202,3.826c-0.684,1.167 -1.892,1.929 -3.24,2.044c-7.07,0.602 -18.684,-4.822 -28.843,-14.991c-8.904,-8.913 -14.267,-18.922 -14.962,-25.905c-0.414,-4.164 0.686,-7.513 2.94,-9.771c2.055,-2.057 4.991,-3.151 8.629,-3.025c2.62,0.092 5.706,0.859 9.025,2.281l0.995,-7.373c0.278,-2.067 2.043,-3.61 4.129,-3.61l10.833,0c1.467,0 2.826,0.772 3.578,2.032c0.752,1.26 0.786,2.822 0.089,4.113c0,0 -6.911,12.81 -6.911,12.81c0.173,0.142 0.347,0.286 0.52,0.431l13.882,-17.783c0.789,-1.011 2.001,-1.603 3.284,-1.603l7.225,0c2.301,0 4.167,1.866 4.167,4.167l-0,10.833c-0,1.431 -0.734,2.762 -1.945,3.525l-16.929,10.674c0.035,0.042 0.069,0.084 0.103,0.125l12.549,-7.115c1.29,-0.731 2.871,-0.722 4.152,0.024c1.282,0.747 2.07,2.118 2.07,3.601l-0,10.833c-0,2.041 -1.48,3.782 -3.494,4.112l-8.011,1.311Zm-12.266,5.46l-2.663,-5.883l10.784,-0c-0.467,-0.942 -0.984,-1.896 -1.555,-2.867l13.038,-2.133l-0,-10.833l-15.704,8.904c-1.554,-2.154 -3.346,-4.334 -5.35,-6.463l21.054,-13.275l-0,-10.833l-7.225,-0l-16.621,21.292c-2.108,-2.009 -4.262,-3.809 -6.408,-5.375l8.587,-15.917l-10.833,-0l-1.783,13.225c-7.742,-4.679 -14.775,-5.996 -18.046,-2.721c-4.896,4.904 0.487,18.242 12.021,29.788c9.07,9.079 19.229,14.32 25.541,13.783l-4.837,-10.692Zm-6.05,-2.079c-1.542,1.4 -6.288,-0.975 -10.617,-5.304c-4.325,-4.329 -6.579,-8.971 -5.05,-10.375c1.538,-1.396 6.288,0.975 10.613,5.304c4.325,4.329 6.587,8.979 5.054,10.375Z" style="fill:#222;"/><path d="M72.562,50.95l-10.759,25l-4.071,0l-11.312,-25l6.925,0c-0,0 5.783,14.975 6.496,15c0.608,0 6.216,-15 6.216,-15l6.505,0Z" style="fill:#fff;fill-rule:nonzero;"/><path d="M59.751,55.47l2.404,-5.979c0.608,-1.628 2.164,-2.708 3.902,-2.708l6.505,0c1.401,0 2.709,0.705 3.48,1.876c0.771,1.171 0.901,2.651 0.347,3.938l-10.758,25c-0.658,1.529 -2.163,2.52 -3.828,2.52l-4.071,-0c-1.636,-0 -3.121,-0.958 -3.796,-2.449l-11.312,-25c-0.584,-1.29 -0.473,-2.787 0.295,-3.977c0.767,-1.189 2.086,-1.908 3.501,-1.908l6.925,0c1.722,0 3.266,1.06 3.887,2.666l2.519,6.021Zm12.811,-4.52l-6.505,0c0,0 -5.608,15 -6.216,15c-0.713,-0.025 -6.496,-15 -6.496,-15l-6.925,0l11.312,25l4.071,0l10.759,-25Z" style="fill:#222;"/></g></g></g></svg>