<?xml version="1.0" encoding="UTF-8" standalone="no"?><!DOCTYPE svg PUBLIC "-//W3C//DTD SVG 1.1//EN" "http://www.w3.org/Graphics/SVG/1.1/DTD/svg11.dtd"><svg width="100%" height="100%" viewBox="0 0 84 84" version="1.1" xmlns="http://www.w3.org/2000/svg" xmlns:xlink="http://www.w3.org/1999/xlink" xml:space="preserve" xmlns:serif="http://www.serif.com/" style="fill-rule:evenodd;clip-rule:evenodd;stroke-linejoin:round;stroke-miterlimit:2;"><g id="_3DToolBar_InaudibleRadius_CheckedDisabled" serif:id="3DToolBar_InaudibleRadius_CheckedDisabled" opacity="0.3"><rect id="Transparent-BG" serif:id="Transparent BG" x="0.321" y="4.166" width="79.167" height="79.167" style="fill:none;"/><g id="Calque-6" serif:id="Calque 6"><g><path d="M26.074,19.356c4.578,-3.086 10.08,-4.892 15.994,-4.892c15.885,-0 28.81,12.996 28.81,28.968c0,5.947 -1.799,11.475 -4.869,16.082l3.172,3.185c3.843,-5.453 6.126,-12.091 6.126,-19.267c0,-18.434 -14.91,-33.425 -33.239,-33.425c-7.14,-0 -13.743,2.295 -19.166,6.16l3.172,3.189Z" style="fill:#fff;fill-rule:nonzero;"/><path d="M23.119,22.294l-3.171,-3.189c-0.863,-0.867 -1.301,-2.07 -1.198,-3.29c0.104,-1.219 0.738,-2.331 1.734,-3.041c6.107,-4.352 13.543,-6.934 21.584,-6.934c20.621,0 37.406,16.854 37.406,37.592c0,8.07 -2.565,15.536 -6.888,21.668c-0.709,1.006 -1.826,1.647 -3.053,1.751c-1.226,0.104 -2.436,-0.339 -3.305,-1.212l-3.171,-3.185c-1.399,-1.404 -1.614,-3.6 -0.515,-5.25c2.628,-3.945 4.17,-8.679 4.17,-13.772c-0,-13.668 -11.05,-24.801 -24.644,-24.801c-5.053,-0 -9.754,1.543 -13.666,4.18c-1.657,1.117 -3.874,0.9 -5.283,-0.517Zm2.955,-2.938c4.578,-3.086 10.08,-4.892 15.994,-4.892c15.885,-0 28.81,12.996 28.81,28.968c0,5.947 -1.799,11.475 -4.869,16.082l3.172,3.185c3.843,-5.453 6.126,-12.091 6.126,-19.267c0,-18.434 -14.91,-33.425 -33.239,-33.425c-7.14,-0 -13.743,2.295 -19.166,6.16l3.172,3.189Z" style="fill:#222;"/></g><g><path d="M58.063,67.504c-4.578,3.086 -10.08,4.892 -15.995,4.892c-15.884,0 -28.81,-12.996 -28.81,-28.964c0,-5.951 1.8,-11.479 4.869,-16.086l-3.171,-3.185c-3.844,5.453 -6.127,12.091 -6.127,19.271c0,18.43 14.91,33.421 33.239,33.421c7.141,0 13.743,-2.295 19.166,-6.16l-3.171,-3.189Z" style="fill:#fff;fill-rule:nonzero;"/><path d="M61.017,64.566l3.172,3.189c0.863,0.867 1.301,2.07 1.197,3.29c-0.103,1.219 -0.737,2.331 -1.734,3.041c-6.107,4.352 -13.543,6.934 -21.584,6.934c-20.62,-0 -37.406,-16.855 -37.406,-37.588c0,-8.074 2.566,-15.54 6.888,-21.672c0.709,-1.006 1.827,-1.647 3.053,-1.751c1.227,-0.104 2.437,0.339 3.305,1.212l3.172,3.185c1.399,1.404 1.614,3.6 0.515,5.25c-2.629,3.945 -4.17,8.68 -4.17,13.776c-0,13.665 11.05,24.797 24.643,24.797c5.054,0 9.754,-1.543 13.666,-4.18c1.657,-1.117 3.874,-0.9 5.283,0.517Zm-2.954,2.938c-4.578,3.086 -10.08,4.892 -15.995,4.892c-15.884,0 -28.81,-12.996 -28.81,-28.964c0,-5.951 1.8,-11.479 4.869,-16.086l-3.171,-3.185c-3.844,5.453 -6.127,12.091 -6.127,19.271c0,18.43 14.91,33.421 33.239,33.421c7.141,0 13.743,-2.295 19.166,-6.16l-3.171,-3.189Z" style="fill:#222;"/></g><g><path d="M35.833,29.169c1.91,-0.849 4.013,-1.335 6.233,-1.335c8.56,-0 15.516,6.994 15.516,15.596c-0,2.233 -0.488,4.347 -1.333,6.267l4.905,4.931c1.922,-3.291 3.042,-7.112 3.042,-11.198c-0,-12.269 -9.931,-22.251 -22.13,-22.251c-4.059,0 -7.86,1.127 -11.137,3.059l4.904,4.931Z" style="fill:#fff;fill-rule:nonzero;"/><path d="M32.879,32.107l-4.904,-4.931c-0.908,-0.912 -1.343,-2.193 -1.179,-3.469c0.164,-1.276 0.908,-2.405 2.017,-3.059c3.9,-2.299 8.423,-3.635 13.253,-3.635c14.489,-0 26.296,11.844 26.296,26.417c0,4.852 -1.328,9.39 -3.61,13.299c-0.652,1.118 -1.787,1.868 -3.07,2.032c-1.283,0.164 -2.57,-0.277 -3.482,-1.194l-4.905,-4.932c-1.209,-1.215 -1.55,-3.047 -0.859,-4.616c0.618,-1.406 0.979,-2.954 0.979,-4.589c-0,-6.298 -5.082,-11.43 -11.349,-11.43c-1.617,0 -3.148,0.357 -4.539,0.976c-1.58,0.703 -3.429,0.357 -4.648,-0.869Zm2.954,-2.938c1.91,-0.849 4.013,-1.335 6.233,-1.335c8.56,-0 15.516,6.994 15.516,15.596c-0,2.233 -0.488,4.347 -1.333,6.267l4.905,4.931c1.922,-3.291 3.042,-7.112 3.042,-11.198c-0,-12.269 -9.931,-22.251 -22.13,-22.251c-4.059,0 -7.86,1.127 -11.137,3.059l4.904,4.931Z" style="fill:#222;"/></g><g><path d="M48.303,57.69c-1.91,0.85 -4.012,1.336 -6.233,1.336c-8.559,-0 -15.515,-6.994 -15.515,-15.596c-0,-2.233 0.487,-4.347 1.332,-6.267l-4.904,-4.932c-1.922,3.292 -3.042,7.113 -3.042,11.199c-0,12.269 9.931,22.25 22.129,22.25c4.06,0 7.86,-1.126 11.138,-3.058l-4.905,-4.932Z" style="fill:#fff;fill-rule:nonzero;"/><path d="M51.257,54.752l4.905,4.932c0.907,0.912 1.342,2.192 1.178,3.468c-0.164,1.277 -0.908,2.406 -2.016,3.059c-3.9,2.299 -8.423,3.636 -13.254,3.636c-14.489,-0 -26.296,-11.844 -26.296,-26.417c0,-4.852 1.328,-9.391 3.61,-13.3c0.653,-1.117 1.787,-1.868 3.07,-2.032c1.284,-0.164 2.571,0.278 3.483,1.195l4.905,4.931c1.208,1.216 1.549,3.048 0.859,4.617c-0.619,1.406 -0.979,2.954 -0.979,4.589c-0,6.298 5.082,11.429 11.348,11.429c1.618,0 3.148,-0.357 4.54,-0.976c1.579,-0.702 3.428,-0.357 4.647,0.869Zm-2.954,2.938c-1.91,0.85 -4.012,1.336 -6.233,1.336c-8.559,-0 -15.515,-6.994 -15.515,-15.596c-0,-2.233 0.487,-4.347 1.332,-6.267l-4.904,-4.932c-1.922,3.292 -3.042,7.113 -3.042,11.199c-0,12.269 9.931,22.25 22.129,22.25c4.06,0 7.86,-1.126 11.138,-3.058l-4.905,-4.932Z" style="fill:#222;"/></g><g><path d="M49.928,43.341l0,-7.816l-7.773,0l7.773,7.816Z" style="fill:#fff;fill-rule:nonzero;"/><path d="M46.974,46.279l-7.774,-7.816c-1.187,-1.193 -1.539,-2.983 -0.893,-4.538c0.647,-1.554 2.165,-2.567 3.848,-2.567l7.773,0c2.301,0 4.167,1.866 4.167,4.167l-0,7.816c-0,1.687 -1.018,3.208 -2.578,3.852c-1.559,0.643 -3.353,0.283 -4.543,-0.914Zm2.954,-2.938l0,-7.816l-7.773,0l7.773,7.816Z" style="fill:#222;"/><path d="M34.208,43.519l0,7.815l7.774,0l-7.774,-7.815Z" style="fill:#fff;fill-rule:nonzero;"/><path d="M37.163,40.58l7.773,7.816c1.187,1.194 1.539,2.984 0.893,4.538c-0.646,1.554 -2.164,2.567 -3.847,2.567l-7.774,0c-2.301,0 -4.166,-1.865 -4.166,-4.167l-0,-7.815c-0,-1.688 1.017,-3.209 2.577,-3.852c1.56,-0.644 3.354,-0.283 4.544,0.913Zm-2.955,2.939l0,7.815l7.774,0l-7.774,-7.815Z" style="fill:#222;"/></g><path d="M66.926,66.022l-2.389,2.402l-47.328,-47.587l2.389,-2.402l47.328,47.587Z" style="fill:#fff;"/><path d="M69.88,68.96l-2.389,2.403c-0.782,0.786 -1.845,1.228 -2.954,1.228c-1.109,0 -2.173,-0.442 -2.955,-1.228l-47.327,-47.588c-1.617,-1.625 -1.617,-4.251 -0,-5.876l2.389,-2.402c0.782,-0.787 1.845,-1.229 2.954,-1.229c1.109,0 2.172,0.442 2.955,1.229l47.327,47.587c1.617,1.625 1.617,4.251 0,5.876Zm-2.954,-2.938l-47.328,-47.587l-2.389,2.402l47.328,47.587l2.389,-2.402Z" style="fill:#222;"/></g></g></svg>