<?xml version="1.0" encoding="UTF-8" standalone="no"?><!DOCTYPE svg PUBLIC "-//W3C//DTD SVG 1.1//EN" "http://www.w3.org/Graphics/SVG/1.1/DTD/svg11.dtd"><svg width="100%" height="100%" viewBox="0 0 84 84" version="1.1" xmlns="http://www.w3.org/2000/svg" xmlns:xlink="http://www.w3.org/1999/xlink" xml:space="preserve" xmlns:serif="http://www.serif.com/" style="fill-rule:evenodd;clip-rule:evenodd;stroke-linejoin:round;stroke-miterlimit:2;"><g id="_3DToolBar_ActiveVoicesOnly_Checked" serif:id="3DToolBar_ActiveVoicesOnly_Checked"><rect id="Transparent-BG" serif:id="Transparent BG" x="1.944" y="2.644" width="79.167" height="79.167" style="fill:none;"/><g><g id="Calque-6" serif:id="Calque 6"><path d="M54.609,59.654l6.4,-0l-2.688,-8.404c-0.195,-0.625 -0.416,-2.246 -0.416,-2.246l-0.142,-0c0,-0 -0.2,1.454 -0.433,2.179l-2.721,8.471Zm6.712,-15.117l8.892,25l-6.137,0l-1.78,-5.558l-8.891,-0l-1.759,5.558l-6.104,0l9.1,-25l6.679,0Z" style="fill:#fff;fill-rule:nonzero;"/><path d="M65.247,43.141l8.892,25c0.454,1.275 0.259,2.692 -0.522,3.798c-0.78,1.107 -2.05,1.765 -3.404,1.765l-6.137,-0c-1.812,-0 -3.416,-1.171 -3.969,-2.897c0,0 -0.852,-2.662 -0.852,-2.662l-2.798,0l-0.838,2.649c-0.548,1.732 -2.155,2.91 -3.973,2.91l-6.104,-0c-1.359,-0 -2.633,-0.664 -3.413,-1.777c-0.78,-1.114 -0.967,-2.538 -0.502,-3.815l9.1,-25c0.599,-1.646 2.164,-2.742 3.915,-2.742l6.679,0c1.763,0 3.335,1.11 3.926,2.771Zm-3.926,1.396l-6.679,0l-9.1,25l6.104,0l1.759,-5.558l8.891,-0l1.78,5.558l6.137,0l-8.892,-25Zm-4.342,7.738l0.351,0.401l0.372,0.32c-0.091,-0.265 -0.274,-0.813 -0.471,-1.505l0.099,-0.308c0.233,-0.725 0.433,-2.179 0.433,-2.179l0.142,-0c-0,-0 0.221,1.621 0.416,2.246l2.688,8.404l-6.4,-0l2.37,-7.379Z" style="fill:#222;"/><path d="M22.787,35.79c1.538,-1.395 6.288,0.975 10.613,5.305c4.325,4.329 6.583,8.975 5.054,10.37c-1.542,1.405 -6.288,-0.97 -10.617,-5.3c-4.325,-4.329 -6.583,-8.975 -5.05,-10.375Zm20.55,27.625l7.392,-20.3l0.996,-2.741l12.379,-0l-0,-8.542l-15.7,8.904c-1.554,-2.158 -3.346,-4.333 -5.35,-6.466l21.05,-13.271l-0,-10.834l-7.221,0l-16.625,21.292c-2.108,-2.008 -4.262,-3.808 -6.404,-5.379l8.583,-15.913l-10.833,0l-1.779,13.225c-7.746,-4.679 -14.775,-5.995 -18.046,-2.725c-4.896,4.909 0.487,18.242 12.021,29.792c6.562,6.567 13.7,11.133 19.537,12.958Z" style="fill:#fff;fill-rule:nonzero;"/><path d="M54.645,44.54l-7.392,20.301c-0.594,1.632 -2.151,2.741 -3.916,2.741c-0.421,0 -0.841,-0.064 -1.243,-0.19c-6.333,-1.98 -14.122,-6.866 -21.242,-13.99c-8.904,-8.917 -14.267,-18.925 -14.962,-25.907c-0.414,-4.165 0.687,-7.514 2.941,-9.774c2.054,-2.055 4.991,-3.149 8.628,-3.021c2.619,0.092 5.704,0.859 9.024,2.281l0.992,-7.371c0.278,-2.068 2.043,-3.611 4.129,-3.611l10.833,-0c1.467,-0 2.826,0.771 3.578,2.031c0.752,1.26 0.786,2.822 0.089,4.113c0,0 -6.909,12.81 -6.91,12.81c0.174,0.142 0.347,0.286 0.52,0.431l13.885,-17.783c0.79,-1.011 2.001,-1.602 3.284,-1.602l7.221,-0c2.301,-0 4.167,1.865 4.167,4.166l-0,10.834c-0,1.431 -0.735,2.761 -1.945,3.524c0,0 -16.925,10.671 -16.925,10.671c0.034,0.043 0.069,0.085 0.104,0.128l12.543,-7.114c1.29,-0.732 2.872,-0.723 4.153,0.024c1.282,0.746 2.07,2.117 2.07,3.6l-0,8.542c-0,2.301 -1.866,4.166 -4.167,4.166l-2.783,0l-6.676,-0Zm-11.308,18.875l7.392,-20.3l0.996,-2.741l12.379,-0l-0,-8.542l-15.7,8.904c-1.554,-2.158 -3.346,-4.333 -5.35,-6.466l21.05,-13.271l-0,-10.834l-7.221,0l-16.625,21.292c-2.108,-2.008 -4.262,-3.808 -6.404,-5.379l8.583,-15.913l-10.833,0l-1.779,13.225c-7.746,-4.679 -14.775,-5.995 -18.046,-2.725c-4.896,4.909 0.487,18.242 12.021,29.792c6.562,6.567 13.7,11.133 19.537,12.958Zm-20.55,-27.625c1.538,-1.395 6.288,0.975 10.613,5.305c4.325,4.329 6.583,8.975 5.054,10.37c-1.542,1.405 -6.288,-0.97 -10.617,-5.3c-4.325,-4.329 -6.583,-8.975 -5.05,-10.375Z" style="fill:#222;"/><path d="M13.779,45.857l-3.15,3.117c-0.88,0.871 -0.68,0.763 -0.65,2.475c0.037,2.425 1.208,5.988 3.941,8.696c2.484,2.454 5.596,3.704 7.946,3.987c2.346,0.284 2.221,0.388 3.167,-0.545l3.404,-3.371c-2.996,-0.554 -6.683,-2.2 -9.679,-5.159c-2.825,-2.795 -4.396,-6.27 -4.979,-9.2Z" style="fill:#fff;fill-rule:nonzero;"/><path d="M14.695,48.908l3.17,-3.864c0.447,2.245 1.657,4.907 3.822,7.05c2.327,2.297 5.181,3.594 7.508,4.025c1.525,0.282 2.767,1.388 3.224,2.87c0.457,1.483 0.052,3.096 -1.05,4.187l-3.41,3.376c-0.992,0.98 -1.65,1.371 -2.339,1.623c-0.72,0.265 -1.675,0.405 -4.253,0.094c-3.063,-0.369 -7.141,-1.963 -10.378,-5.162c-3.633,-3.601 -5.126,-8.368 -5.177,-11.592c-0.034,-2.006 0.082,-2.717 0.335,-3.344c0.235,-0.584 0.592,-1.209 1.55,-2.158l3.151,-3.117l1.713,4.166l-1.932,1.912c-0.88,0.871 -0.68,0.763 -0.65,2.475c0.037,2.425 1.208,5.988 3.941,8.696c2.484,2.454 5.596,3.704 7.946,3.987c2.346,0.284 2.221,0.388 3.167,-0.545l3.404,-3.371c-2.996,-0.554 -6.683,-2.2 -9.679,-5.159c-1.888,-1.868 -3.216,-4.04 -4.063,-6.149Z" style="fill:#222;"/></g></g></g></svg>