<?xml version="1.0" encoding="UTF-8" standalone="no"?><!DOCTYPE svg PUBLIC "-//W3C//DTD SVG 1.1//EN" "http://www.w3.org/Graphics/SVG/1.1/DTD/svg11.dtd"><svg width="100%" height="100%" viewBox="0 0 134 134" version="1.1" xmlns="http://www.w3.org/2000/svg" xmlns:xlink="http://www.w3.org/1999/xlink" xml:space="preserve" xmlns:serif="http://www.serif.com/" style="fill-rule:evenodd;clip-rule:evenodd;stroke-linejoin:round;stroke-miterlimit:2;"><g id="View_Large_Infomation_nor"><rect id="Transparent-BG" serif:id="Transparent BG" x="0.286" y="3.192" width="129.167" height="129.167" style="fill:none;"/><g><path d="M64.87,21.049c25.789,-0 46.726,20.937 46.726,46.726c0,25.79 -20.937,46.727 -46.726,46.727c-25.79,0 -46.727,-20.937 -46.727,-46.727c-0,-25.789 20.937,-46.726 46.727,-46.726Zm-0,4.166c-23.49,0 -42.561,19.071 -42.561,42.56c0,23.49 19.071,42.561 42.561,42.561c23.489,-0 42.56,-19.071 42.56,-42.561c-0,-23.489 -19.071,-42.56 -42.56,-42.56Z" style="fill:#22599a;"/><circle cx="64.87" cy="67.775" r="42.56" style="fill:#3079d0;"/><path d="M71.25,41.984l0,32.816l-12.761,0l-0,-32.816l12.761,0Zm0,38.725l0,12.858l-12.761,-0l-0,-12.858l12.761,-0Z" style="fill:#fff;"/></g></g></svg>