<?xml version="1.0" encoding="UTF-8" standalone="no"?><!DOCTYPE svg PUBLIC "-//W3C//DTD SVG 1.1//EN" "http://www.w3.org/Graphics/SVG/1.1/DTD/svg11.dtd"><svg width="100%" height="100%" viewBox="0 0 84 84" version="1.1" xmlns="http://www.w3.org/2000/svg" xmlns:xlink="http://www.w3.org/1999/xlink" xml:space="preserve" xmlns:serif="http://www.serif.com/" style="fill-rule:evenodd;clip-rule:evenodd;stroke-linejoin:round;stroke-miterlimit:2;"><g id="_3DToolBar_AttenuationRadius_Normal" serif:id="3DToolBar_AttenuationRadius_Normal" opacity="0.45"><rect id="Transparent-BG" serif:id="Transparent BG" x="1.934" y="2.645" width="79.167" height="79.167" style="fill:none;"/><g id="Calque-6" serif:id="Calque 6"><g opacity="0"><path d="M72.768,19.728c-0,-4.829 -3.921,-8.75 -8.75,-8.75l-45,0c-4.83,0 -8.75,3.921 -8.75,8.75l-0,45c-0,4.829 3.92,8.75 8.75,8.75l45,0c4.829,0 8.75,-3.921 8.75,-8.75l-0,-45Z"/></g><path d="M41.518,73.478c-17.234,0 -31.25,-14.016 -31.25,-31.25c-0,-17.233 14.016,-31.25 31.25,-31.25c17.233,0 31.25,14.017 31.25,31.25c-0,17.234 -14.017,31.25 -31.25,31.25m-0,-58.333c-14.934,-0 -27.084,12.15 -27.084,27.083c0,14.934 12.15,27.084 27.084,27.084c14.933,-0 27.083,-12.15 27.083,-27.084c-0,-14.933 -12.15,-27.083 -27.083,-27.083" style="fill-opacity:0.5;fill-rule:nonzero;"/><path d="M41.518,63.031c-11.467,-0 -20.805,-9.329 -20.805,-20.804c0,-11.471 9.338,-20.8 20.805,-20.8c11.466,-0 20.804,9.329 20.804,20.8c-0,11.475 -9.338,20.804 -20.804,20.804m-0,-35.388c-8.046,0 -14.584,6.542 -14.584,14.584c0,8.045 6.538,14.583 14.584,14.583c8.045,-0 14.583,-6.538 14.583,-14.583c-0,-8.042 -6.538,-14.584 -14.583,-14.584" style="fill-opacity:0.5;fill-rule:nonzero;"/><path d="M50.011,42.228c-0,4.692 -3.804,8.492 -8.492,8.492c-4.691,-0 -8.496,-3.8 -8.496,-8.492c0,-4.691 3.805,-8.491 8.496,-8.491c4.688,-0 8.492,3.8 8.492,8.491" style="fill-rule:nonzero;"/></g></g></svg>