<?xml version="1.0" encoding="UTF-8" standalone="no"?><!DOCTYPE svg PUBLIC "-//W3C//DTD SVG 1.1//EN" "http://www.w3.org/Graphics/SVG/1.1/DTD/svg11.dtd"><svg width="100%" height="100%" viewBox="0 0 84 84" version="1.1" xmlns="http://www.w3.org/2000/svg" xmlns:xlink="http://www.w3.org/1999/xlink" xml:space="preserve" xmlns:serif="http://www.serif.com/" style="fill-rule:evenodd;clip-rule:evenodd;stroke-linejoin:round;stroke-miterlimit:2;"><g id="_3DToolBar_RadiusOpacity_Normal" serif:id="3DToolBar_RadiusOpacity_Normal" opacity="0.45"><rect id="Transparent-BG" serif:id="Transparent BG" x="0.46" y="0.649" width="79.167" height="79.167" style="fill:none;"/><g id="Calque-1" serif:id="Calque 1"><g opacity="0"><path d="M65.043,11.482c0,-4.829 -3.921,-8.75 -8.75,-8.75l-45,0c-4.829,0 -8.75,3.921 -8.75,8.75l0,45c0,4.83 3.921,8.75 8.75,8.75l45,0c4.829,0 8.75,-3.92 8.75,-8.75l0,-45Z"/></g><g><g opacity="0.5"><path d="M40.043,47.104c-1.9,0.909 -4.004,1.463 -6.25,1.463c-8.046,-0 -14.583,-6.542 -14.583,-14.583c-0,-8.046 6.537,-14.584 14.583,-14.584c8.046,0 14.584,6.538 14.584,14.584c-0,2.245 -0.55,4.345 -1.463,6.25l6.617,-0c0.629,-1.988 1.066,-4.059 1.066,-6.25c0,-11.475 -9.337,-20.805 -20.804,-20.805c-11.466,0 -20.804,9.33 -20.804,20.805c0,11.47 9.338,20.8 20.804,20.8c2.192,-0 4.263,-0.434 6.25,-1.063l0,-6.617Z" style="fill-rule:nonzero;"/></g><g opacity="0.5"><path d="M40.043,60.309c-2.008,0.479 -4.096,0.758 -6.25,0.758c-14.933,-0 -27.083,-12.15 -27.083,-27.083c-0,-14.934 12.15,-27.084 27.083,-27.084c14.934,0 27.084,12.15 27.084,27.084c-0,2.154 -0.28,4.237 -0.759,6.25l4.296,-0c0.413,-2.021 0.629,-4.113 0.629,-6.25c0,-17.234 -14.016,-31.25 -31.25,-31.25c-17.233,-0 -31.25,14.016 -31.25,31.25c0,17.233 14.017,31.25 31.25,31.25c2.142,-0 4.229,-0.221 6.25,-0.63l0,-4.295Z" style="fill-rule:nonzero;"/></g></g><g><g opacity="0.5"><rect x="56.114" y="44.399" width="9.524" height="9.524"/></g><g opacity="0.5"><rect x="68.019" y="56.304" width="9.524" height="9.524"/></g><rect x="44.21" y="68.207" width="9.525" height="9.525"/><g opacity="0.5"><rect x="56.114" y="68.209" width="9.524" height="9.524"/></g><rect x="68.018" y="44.399" width="9.525" height="9.525"/><rect x="44.21" y="44.399" width="9.525" height="9.525"/><rect x="56.114" y="56.303" width="9.525" height="9.525"/><g opacity="0.5"><rect x="44.21" y="56.304" width="9.524" height="9.524"/></g><rect x="68.018" y="68.207" width="9.525" height="9.525"/></g></g></g></svg>