<?xml version="1.0" encoding="UTF-8" standalone="no"?><!DOCTYPE svg PUBLIC "-//W3C//DTD SVG 1.1//EN" "http://www.w3.org/Graphics/SVG/1.1/DTD/svg11.dtd"><svg width="100%" height="100%" viewBox="0 0 84 84" version="1.1" xmlns="http://www.w3.org/2000/svg" xmlns:xlink="http://www.w3.org/1999/xlink" xml:space="preserve" xmlns:serif="http://www.serif.com/" style="fill-rule:evenodd;clip-rule:evenodd;stroke-miterlimit:10;"><g id="_3DToolBar_GameObjectVoices_Checked" serif:id="3DToolBar_GameObjectVoices_Checked"><rect id="Transparent-BG" serif:id="Transparent BG" x="2.317" y="2.169" width="79.167" height="79.167" style="fill:none;"/><g id="Calque-11" serif:id="Calque 11"><path d="M33.311,75.146l0,-41.322l41.684,0" style="fill:none;fill-rule:nonzero;stroke:#000;stroke-width:4.17px;"/><path d="M35.534,36.645l-22.934,-22.934" style="fill:none;fill-rule:nonzero;stroke:#000;stroke-width:4.17px;"/><path d="M56.382,12.898l-43.783,0l-0,44.383l17.866,18.238l44.604,-0l0,-44.158l-18.687,-18.463Z" style="fill:none;fill-rule:nonzero;stroke:#000;stroke-width:4.17px;"/><g id="Mode-Isolation" serif:id="Mode Isolation"><path d="M33.311,76.27l0,-43.571l43.784,0l-0,43.571l-43.784,0Zm23.059,-26.107c-1.457,-1.39 -2.949,-2.633 -4.428,-3.717l5.933,-11.001l-7.488,-0l-1.23,9.14c-5.356,-3.233 -10.215,-4.144 -12.48,-1.879c-3.384,3.389 0.338,12.609 8.314,20.59c7.977,7.986 17.188,11.712 20.572,8.323c2.225,-2.229 1.382,-6.977 -1.723,-12.235l9.016,-1.471l-0,-7.492l-10.855,6.16c-1.074,-1.492 -2.313,-2.998 -3.699,-4.472l14.554,-9.176l-0,-7.488l-4.992,-0l-11.494,14.718Zm-4.743,6.662c2.989,2.994 4.552,6.209 3.495,7.173c-1.066,0.968 -4.348,-0.675 -7.342,-3.668c-2.989,-2.989 -4.548,-6.201 -3.49,-7.169c1.065,-0.968 4.348,0.671 7.337,3.664Zm-13.564,3.296l-2.176,2.154c-0.609,0.604 -0.471,0.528 -0.453,1.71c0.031,1.679 0.839,4.139 2.727,6.013c1.714,1.692 3.868,2.558 5.493,2.754c1.621,0.195 1.537,0.266 2.19,-0.373l2.354,-2.332c-2.074,-0.382 -4.624,-1.519 -6.693,-3.566c-1.95,-1.932 -3.038,-4.335 -3.442,-6.36Z" style="fill-rule:nonzero;"/></g></g></g></svg>