<?xml version="1.0" encoding="UTF-8" standalone="no"?><!DOCTYPE svg PUBLIC "-//W3C//DTD SVG 1.1//EN" "http://www.w3.org/Graphics/SVG/1.1/DTD/svg11.dtd"><svg width="100%" height="100%" viewBox="0 0 84 84" version="1.1" xmlns="http://www.w3.org/2000/svg" xmlns:xlink="http://www.w3.org/1999/xlink" xml:space="preserve" xmlns:serif="http://www.serif.com/" style="fill-rule:evenodd;clip-rule:evenodd;stroke-linejoin:round;stroke-miterlimit:2;"><g id="_3DToolBar_VirtualVoices_Normal" serif:id="3DToolBar_VirtualVoices_Normal" opacity="0.45"><rect id="Transparent-BG" serif:id="Transparent BG" x="0.925" y="1.402" width="79.167" height="79.167" style="fill:none;"/><g><g id="Calque-1" serif:id="Calque 1"><path d="M74.997,49.319l-10.758,25l-4.071,-0l-11.313,-25l6.925,-0c0,-0 5.784,14.975 6.496,15c0.609,-0 6.217,-15 6.217,-15l6.504,-0Z" style="fill-rule:nonzero;"/><path d="M11.015,43.346l-3.15,3.117c-0.879,0.87 -0.679,0.762 -0.65,2.475c0.038,2.425 1.209,5.987 3.942,8.695c2.483,2.455 5.596,3.705 7.946,3.988c2.35,0.283 2.221,0.387 3.166,-0.546l3.405,-3.371c-2.996,-0.554 -6.684,-2.2 -9.68,-5.158c-2.82,-2.796 -4.391,-6.271 -4.979,-9.2" style="fill-opacity:0.5;fill-rule:nonzero;"/><path d="M35.689,48.956c-1.542,1.4 -6.288,-0.975 -10.617,-5.304c-4.325,-4.329 -6.579,-8.971 -5.05,-10.375c1.537,-1.396 6.287,0.975 10.612,5.304c4.325,4.329 6.588,8.979 5.055,10.375m6.05,2.079l-2.663,-5.883l10.783,-0c-0.466,-0.942 -0.983,-1.896 -1.554,-2.867l13.038,-2.133l-0,-10.834l-15.704,8.905c-1.555,-2.155 -3.346,-4.334 -5.35,-6.463l21.054,-13.275l-0,-10.833l-7.225,-0l-16.621,21.291c-2.108,-2.008 -4.263,-3.808 -6.408,-5.375l8.587,-15.916l-10.833,-0l-1.784,13.225c-7.741,-4.679 -14.775,-5.996 -18.045,-2.721c-4.896,4.904 0.487,18.242 12.02,29.787c9.071,9.08 19.23,14.321 25.542,13.784l-4.837,-10.692Z" style="fill-opacity:0.5;fill-rule:nonzero;"/></g></g></g></svg>