<?xml version="1.0" encoding="UTF-8" standalone="no"?><!DOCTYPE svg PUBLIC "-//W3C//DTD SVG 1.1//EN" "http://www.w3.org/Graphics/SVG/1.1/DTD/svg11.dtd"><svg width="100%" height="100%" viewBox="0 0 84 84" version="1.1" xmlns="http://www.w3.org/2000/svg" xmlns:xlink="http://www.w3.org/1999/xlink" xml:space="preserve" xmlns:serif="http://www.serif.com/" style="fill-rule:evenodd;clip-rule:evenodd;stroke-linejoin:round;stroke-miterlimit:2;"><g id="_3DToolBar_DiffractionPaths_Normal" serif:id="3DToolBar_DiffractionPaths_Normal" opacity="0.45"><rect id="Transparent-BG" serif:id="Transparent BG" x="3.9" y="2.063" width="79.167" height="79.167" style="fill:none;"/><g id="Calque-6" serif:id="Calque 6"><path d="M14.095,36.186c3.408,-4.591 5.629,-7.654 10.079,-11.154c4.212,-3.308 8.916,-5.566 14.208,-5.504c9.971,0.117 12.804,5.279 19.429,12.625l3.092,-2.796c-7.567,-8.396 -11.075,-13.866 -22.471,-14.004c-12.187,-0.142 -20.254,8.338 -27.683,18.346l3.346,2.487Z"/><rect x="35.829" y="27.672" width="4.167" height="41.547"/><path d="M67.001,32.02c3.45,-0 6.25,2.8 6.25,6.25c0,3.45 -2.8,6.25 -6.25,6.25c-3.45,-0 -6.25,-2.8 -6.25,-6.25c0,-3.45 2.8,-6.25 6.25,-6.25"/></g></g></svg>