<?xml version="1.0" encoding="UTF-8" standalone="no"?><!DOCTYPE svg PUBLIC "-//W3C//DTD SVG 1.1//EN" "http://www.w3.org/Graphics/SVG/1.1/DTD/svg11.dtd"><svg width="100%" height="100%" viewBox="0 0 84 84" version="1.1" xmlns="http://www.w3.org/2000/svg" xmlns:xlink="http://www.w3.org/1999/xlink" xml:space="preserve" xmlns:serif="http://www.serif.com/" style="fill-rule:evenodd;clip-rule:evenodd;stroke-linejoin:round;stroke-miterlimit:2;"><g id="_3DToolBar_GeometryOpacity_Normal" serif:id="3DToolBar_GeometryOpacity_Normal" opacity="0.45"><rect id="Transparent-BG" serif:id="Transparent BG" x="4.052" y="5.55" width="79.167" height="79.167" style="fill:none;"/><g id="Calque-16" serif:id="Calque 16"><g><g opacity="0.5"><rect x="72.142" y="60.336" width="9.524" height="9.524"/></g><rect x="48.332" y="72.239" width="9.525" height="9.525"/><g opacity="0.5"><rect x="60.237" y="72.24" width="9.524" height="9.524"/></g><rect x="72.14" y="48.431" width="9.525" height="9.525"/><rect x="48.332" y="48.431" width="9.525" height="9.525"/><rect x="60.236" y="60.335" width="9.525" height="9.525"/><g opacity="0.5"><rect x="48.332" y="60.336" width="9.524" height="9.524"/></g><rect x="72.14" y="72.239" width="9.525" height="9.525"/><g opacity="0.5"><rect x="60.237" y="48.431" width="9.524" height="9.524"/></g></g><path d="M42.178,8.3l-32.179,55.75l-0.004,0.004l-2.975,5.155l37.5,-0l-0,-4.313l-27.08,0l24.705,-13.517l2.375,1.388l-0,-4.992l-0.184,-0.108l0,-27.008l14.504,25.141l4.98,0l-21.642,-37.5Zm-2.158,12.359l-0,26.966l-22.742,12.442l22.742,-39.408Z" style="fill-rule:nonzero;"/></g></g></svg>