<?xml version="1.0" encoding="UTF-8" standalone="no"?><!DOCTYPE svg PUBLIC "-//W3C//DTD SVG 1.1//EN" "http://www.w3.org/Graphics/SVG/1.1/DTD/svg11.dtd"><svg width="100%" height="100%" viewBox="0 0 84 84" version="1.1" xmlns="http://www.w3.org/2000/svg" xmlns:xlink="http://www.w3.org/1999/xlink" xml:space="preserve" xmlns:serif="http://www.serif.com/" style="fill-rule:evenodd;clip-rule:evenodd;stroke-linejoin:round;stroke-miterlimit:2;"><g id="_3DToolBar_InaudibleRadius_Checked" serif:id="3DToolBar_InaudibleRadius_Checked"><rect id="Transparent-BG" serif:id="Transparent BG" x="1.536" y="4.166" width="79.167" height="79.167" style="fill:none;"/><g id="Calque-6" serif:id="Calque 6"><path d="M67.475,67.572l-2.534,2.534l-50.179,-50.18l2.534,-2.533l50.179,50.179Z"/><path d="M64.942,70.105l-50.179,-50.179l2.533,-2.534l50.18,50.179l-2.534,2.534Z"/><g opacity="0.5"><path d="M24.161,18.364c4.854,-3.254 10.687,-5.158 16.958,-5.158c16.842,0 30.546,13.704 30.546,30.546c0,6.271 -1.908,12.1 -5.162,16.958l3.362,3.359c4.075,-5.75 6.496,-12.75 6.496,-20.317c-0,-19.438 -15.808,-35.246 -35.242,-35.246c-7.571,0 -14.571,2.421 -20.321,6.496l3.363,3.362Z" style="fill-rule:nonzero;"/></g><g opacity="0.5"><path d="M58.078,69.135c-4.855,3.254 -10.688,5.159 -16.959,5.159c-16.841,-0 -30.546,-13.705 -30.546,-30.542c0,-6.275 1.909,-12.104 5.163,-16.963l-3.363,-3.358c-4.075,5.75 -6.495,12.75 -6.495,20.321c-0,19.433 15.808,35.242 35.241,35.242c7.571,-0 14.571,-2.421 20.321,-6.496l-3.362,-3.363Z" style="fill-rule:nonzero;"/></g><g opacity="0.5"><path d="M34.509,28.712c2.025,-0.896 4.254,-1.408 6.608,-1.408c9.075,-0 16.45,7.375 16.45,16.446c0,2.354 -0.516,4.583 -1.412,6.608l5.2,5.2c2.037,-3.471 3.225,-7.5 3.225,-11.808c-0,-12.938 -10.529,-23.463 -23.463,-23.463c-4.304,0 -8.333,1.188 -11.808,3.225l5.2,5.2Z" style="fill-rule:nonzero;"/></g><g opacity="0.5"><path d="M47.73,58.787c-2.025,0.896 -4.254,1.408 -6.609,1.408c-9.075,0 -16.45,-7.375 -16.45,-16.446c0,-2.354 0.517,-4.583 1.413,-6.608l-5.2,-5.2c-2.038,3.471 -3.225,7.5 -3.225,11.808c-0,12.938 10.529,23.463 23.462,23.463c4.305,-0 8.334,-1.188 11.809,-3.225l-5.2,-5.2Z" style="fill-rule:nonzero;"/></g><g opacity="0.5"><path d="M49.453,43.656l-0,-8.242l-8.242,0l8.242,8.242Z" style="fill-rule:nonzero;"/><path d="M32.786,43.843l-0,8.242l8.242,-0l-8.242,-8.242Z" style="fill-rule:nonzero;"/></g></g></g></svg>