<?xml version="1.0" encoding="UTF-8" standalone="no"?><!DOCTYPE svg PUBLIC "-//W3C//DTD SVG 1.1//EN" "http://www.w3.org/Graphics/SVG/1.1/DTD/svg11.dtd"><svg width="100%" height="100%" viewBox="0 0 84 84" version="1.1" xmlns="http://www.w3.org/2000/svg" xmlns:xlink="http://www.w3.org/1999/xlink" xml:space="preserve" xmlns:serif="http://www.serif.com/" style="fill-rule:evenodd;clip-rule:evenodd;stroke-miterlimit:10;"><g id="_3DToolBar_PortalInfo_Disabled" serif:id="3DToolBar_PortalInfo_Disabled" opacity="0.3"><rect id="Transparent-BG" serif:id="Transparent BG" x="4.501" y="2.497" width="79.167" height="79.167" style="fill:none;"/><g id="Calque-3" serif:id="Calque 3"><path d="M64.995,71.04l-29.009,5.278l0,-63.896l29.009,4.389l-0,54.229Zm-16.646,-11.791l-2.849,0.616l0,2.463l14.081,-0l0,-2.463l-2.65,-0.547c-0.05,-2.604 -0.074,-5.875 -0.074,-8.129l-0,-7.036l0.16,-7.7l-0.918,-0.568l-11.109,3.525l0,2.091l3.271,0.473c0.109,2.128 0.16,3.767 0.16,6.688l0,2.527c0,2.235 -0.023,5.468 -0.072,8.06Zm-0.299,-34.225c-0,2.455 1.996,4.225 4.494,4.225c2.506,0 4.51,-1.77 4.51,-4.225c-0,-2.476 -2.004,-4.225 -4.51,-4.225c-2.498,0 -4.494,1.749 -4.494,4.225Z" style="fill-rule:nonzero;"/><path d="M31.641,21.349l-10.478,0l0,51.485" style="fill:none;fill-rule:nonzero;stroke:#000;stroke-width:4.17px;"/></g></g></svg>