<?xml version="1.0" encoding="UTF-8" standalone="no"?><!DOCTYPE svg PUBLIC "-//W3C//DTD SVG 1.1//EN" "http://www.w3.org/Graphics/SVG/1.1/DTD/svg11.dtd"><svg width="100%" height="100%" viewBox="0 0 84 84" version="1.1" xmlns="http://www.w3.org/2000/svg" xmlns:xlink="http://www.w3.org/1999/xlink" xml:space="preserve" xmlns:serif="http://www.serif.com/" style="fill-rule:evenodd;clip-rule:evenodd;stroke-miterlimit:10;"><g id="_3DToolBar_GameObjectPosition_Normal" serif:id="3DToolBar_GameObjectPosition_Normal" opacity="0.45"><rect id="Transparent-BG" serif:id="Transparent BG" x="1.854" y="2.1" width="79.167" height="79.167" style="fill:none;"/><g id="Calque-11" serif:id="Calque 11"><path d="M32.848,74.729l-0,-41.322l41.684,0" style="fill:none;fill-rule:nonzero;stroke:#000;stroke-width:4.17px;"/><path d="M35.07,36.228l-22.934,-22.934" style="fill:none;fill-rule:nonzero;stroke:#000;stroke-width:4.17px;"/><path d="M55.919,12.481l-43.784,0l0,44.384l17.867,18.237l44.604,0l-0,-44.158l-18.687,-18.463Z" style="fill:none;fill-rule:nonzero;stroke:#000;stroke-width:4.17px;"/><g id="Mode-Isolation" serif:id="Mode Isolation"><path d="M52.39,47.001c-2.082,-0 -3.765,1.686 -3.765,3.764c-0,2.082 1.683,3.768 3.765,3.768c2.078,0 3.765,-1.686 3.765,-3.768c-0,-2.078 -1.687,-3.764 -3.765,-3.764" style="fill-rule:nonzero;"/><path d="M63.852,55.579c-0.208,0.485 -0.486,0.939 -0.785,1.376l-10.599,15.468l-11.243,-16.103c-0.865,-1.698 -1.35,-3.621 -1.35,-5.659c0,-7.776 7.106,-13.894 15.177,-12.209c4.737,0.988 8.561,4.825 9.532,9.562c0.556,2.709 0.234,5.311 -0.732,7.565m-32.948,17.663l44.213,0l0,-39.872l-44.213,-0l-0,39.872Z" style="fill-rule:nonzero;"/></g></g></g></svg>