<?xml version="1.0" encoding="UTF-8" standalone="no"?><!DOCTYPE svg PUBLIC "-//W3C//DTD SVG 1.1//EN" "http://www.w3.org/Graphics/SVG/1.1/DTD/svg11.dtd"><svg width="100%" height="100%" viewBox="0 0 84 84" version="1.1" xmlns="http://www.w3.org/2000/svg" xmlns:xlink="http://www.w3.org/1999/xlink" xml:space="preserve" xmlns:serif="http://www.serif.com/" style="fill-rule:evenodd;clip-rule:evenodd;stroke-linejoin:round;stroke-miterlimit:2;"><g id="_3DToolBar_DiffractionPaths_Checked" serif:id="3DToolBar_DiffractionPaths_Checked"><rect id="Transparent-BG" serif:id="Transparent BG" x="3.946" y="2.131" width="79.167" height="79.167" style="fill:none;"/><g id="Calque-6" serif:id="Calque 6"><path d="M14.141,36.255c3.409,-4.592 5.63,-7.654 10.08,-11.154c4.212,-3.308 8.916,-5.567 14.208,-5.504c9.971,0.116 12.804,5.279 19.429,12.625l3.092,-2.796c-7.567,-8.396 -11.075,-13.867 -22.471,-14.004c-12.188,-0.142 -20.254,8.337 -27.683,18.346l3.345,2.487Z"/><rect x="35.875" y="27.741" width="4.167" height="41.547"/><path d="M67.048,32.088c3.45,0 6.25,2.8 6.25,6.25c0,3.45 -2.8,6.25 -6.25,6.25c-3.45,0 -6.25,-2.8 -6.25,-6.25c0,-3.45 2.8,-6.25 6.25,-6.25"/></g></g></svg>