<?xml version="1.0" encoding="UTF-8" standalone="no"?><!DOCTYPE svg PUBLIC "-//W3C//DTD SVG 1.1//EN" "http://www.w3.org/Graphics/SVG/1.1/DTD/svg11.dtd"><svg width="100%" height="100%" viewBox="0 0 84 84" version="1.1" xmlns="http://www.w3.org/2000/svg" xmlns:xlink="http://www.w3.org/1999/xlink" xml:space="preserve" xmlns:serif="http://www.serif.com/" style="fill-rule:evenodd;clip-rule:evenodd;stroke-linejoin:round;stroke-miterlimit:2;"><g id="_3DToolBar_Diffraction-_Disabled" serif:id="3DToolBar_Diffraction%_Disabled" opacity="0.3"><rect id="Transparent-BG" serif:id="Transparent BG" x="5.261" y="6.201" width="79.167" height="79.167" style="fill:none;"/><g id="Calque-6" serif:id="Calque 6"><rect x="31.846" y="23.537" width="4.167" height="50"/><path d="M12.441,33.167c3.408,-4.592 5.629,-7.654 10.079,-11.154c4.213,-3.308 8.917,-5.567 14.209,-5.504c9.97,0.116 12.804,5.279 19.429,12.625l3.091,-2.796c-7.566,-8.396 -11.075,-13.867 -22.47,-14.004c-12.188,-0.142 -20.255,8.337 -27.684,18.346l3.346,2.487Z"/><path d="M66.508,31.799c3.45,0 6.25,2.8 6.25,6.25c0,3.45 -2.8,6.25 -6.25,6.25c-3.45,0 -6.25,-2.8 -6.25,-6.25c0,-3.45 2.8,-6.25 6.25,-6.25"/><g><path d="M55.045,52.201c2.029,0 3.676,1.643 3.676,3.664c0,2.024 -1.647,3.667 -3.676,3.667c-2.029,0 -3.676,-1.643 -3.676,-3.667c0,-2.021 1.647,-3.664 3.676,-3.664"/><path d="M72.327,69.408c2.042,-0 3.698,1.66 3.698,3.702c-0,2.042 -1.656,3.702 -3.698,3.702c-2.042,0 -3.698,-1.66 -3.698,-3.702c-0,-2.042 1.656,-3.702 3.698,-3.702"/><path d="M69.598,49.76l3.132,1.807l-15.605,27.046l-3.132,-1.807l15.605,-27.046Z"/></g></g></g></svg>