<?xml version="1.0" encoding="UTF-8" standalone="no"?><!DOCTYPE svg PUBLIC "-//W3C//DTD SVG 1.1//EN" "http://www.w3.org/Graphics/SVG/1.1/DTD/svg11.dtd"><svg width="100%" height="100%" viewBox="0 0 84 84" version="1.1" xmlns="http://www.w3.org/2000/svg" xmlns:xlink="http://www.w3.org/1999/xlink" xml:space="preserve" xmlns:serif="http://www.serif.com/" style="fill-rule:evenodd;clip-rule:evenodd;stroke-linejoin:round;stroke-miterlimit:2;"><g id="_3DToolBar_AttenuationCone_Normal" serif:id="3DToolBar_AttenuationCone_Normal" opacity="0.45"><rect id="Transparent-BG" serif:id="Transparent BG" x="1.381" y="0.245" width="79.167" height="79.167" style="fill:none;"/><g id="Calque-6" serif:id="Calque 6"><path d="M61.643,27.961c3.779,4.554 6.05,10.379 6.05,16.713c0,14.562 -11.987,26.404 -26.729,26.404c-14.737,-0 -26.729,-11.842 -26.729,-26.404c-0,-6.171 2.154,-11.85 5.758,-16.35l2.15,2.771c-2.754,3.725 -4.379,8.308 -4.379,13.258c0,12.437 10.263,22.558 22.879,22.558c12.617,0 22.884,-10.121 22.884,-22.558c-0,-4.933 -1.613,-9.5 -4.346,-13.213l2.462,-3.179Zm-5.337,6.888c1.933,2.837 3.054,6.229 3.054,9.866c-0,9.938 -8.379,18.03 -18.679,18.03c-10.304,-0 -18.684,-8.092 -18.684,-18.03c0,-3.637 1.125,-7.029 3.055,-9.866l2.616,3.375c-1.05,1.921 -1.641,4.104 -1.641,6.416c-0,7.688 6.537,13.938 14.583,13.938c8.046,-0 14.583,-6.25 14.583,-13.938c0,-2.27 -0.571,-4.416 -1.583,-6.312l2.696,-3.479Zm-5.484,7.079c0.134,0.667 0.205,1.358 0.205,2.067c-0,5.741 -4.671,10.416 -10.417,10.416c-5.742,0 -10.417,-4.675 -10.417,-10.416c0,-0.759 0.084,-1.496 0.238,-2.205l6.833,8.821c2.046,1.771 4.3,1.929 6.825,0.004l6.733,-8.687Z" style="fill-opacity:0.5;"/><path d="M19.045,18.237l21.633,28.846l21.637,-28.846c-11.637,-13.57 -30.954,-12.166 -43.27,0"/></g></g></svg>