<?xml version="1.0" encoding="UTF-8" standalone="no"?><!DOCTYPE svg PUBLIC "-//W3C//DTD SVG 1.1//EN" "http://www.w3.org/Graphics/SVG/1.1/DTD/svg11.dtd"><svg width="100%" height="100%" viewBox="0 0 84 84" version="1.1" xmlns="http://www.w3.org/2000/svg" xmlns:xlink="http://www.w3.org/1999/xlink" xml:space="preserve" xmlns:serif="http://www.serif.com/" style="fill-rule:evenodd;clip-rule:evenodd;stroke-linejoin:round;stroke-miterlimit:2;"><g id="_3DToolBar_PortalOpacity_Normal" serif:id="3DToolBar_PortalOpacity_Normal" opacity="0.45"><rect id="Transparent-BG" serif:id="Transparent BG" x="5.286" y="5.746" width="79.167" height="79.167" style="fill:none;"/><g id="Calque-3" serif:id="Calque 3"><g><path d="M6.591,15.042l-0,54.092l4.172,-0l-0,-49.78l8.254,-0l-0,-4.312l-12.426,0Z" style="fill-rule:nonzero;"/><path d="M23.257,8.444l0,63.283l20.669,-4.623l-0,-22.908l8.482,-0l0,-30.965l-29.151,-4.787Z" style="fill-rule:nonzero;"/></g><g><g opacity="0.5"><rect x="60.269" y="48.357" width="9.524" height="9.524"/></g><g opacity="0.5"><rect x="72.174" y="60.262" width="9.524" height="9.524"/></g><rect x="48.365" y="72.165" width="9.525" height="9.525"/><g opacity="0.5"><rect x="60.269" y="72.167" width="9.524" height="9.524"/></g><rect x="72.173" y="48.357" width="9.525" height="9.525"/><rect x="48.365" y="48.357" width="9.525" height="9.525"/><rect x="60.269" y="60.261" width="9.525" height="9.525"/><g opacity="0.5"><rect x="48.365" y="60.262" width="9.524" height="9.524"/></g><rect x="72.173" y="72.165" width="9.525" height="9.525"/></g></g></g></svg>