<?xml version="1.0" encoding="UTF-8" standalone="no"?><!DOCTYPE svg PUBLIC "-//W3C//DTD SVG 1.1//EN" "http://www.w3.org/Graphics/SVG/1.1/DTD/svg11.dtd"><svg width="100%" height="100%" viewBox="0 0 84 84" version="1.1" xmlns="http://www.w3.org/2000/svg" xmlns:xlink="http://www.w3.org/1999/xlink" xml:space="preserve" xmlns:serif="http://www.serif.com/" style="fill-rule:evenodd;clip-rule:evenodd;stroke-linejoin:round;stroke-miterlimit:2;"><g id="_3DToolBar_InaudiblePaths_Normal" serif:id="3DToolBar_InaudiblePaths_Normal" opacity="0.45"><rect id="Transparent-BG" serif:id="Transparent BG" x="3.041" y="0.408" width="79.167" height="79.167" style="fill:none;"/><g id="Calque-6" serif:id="Calque 6"><rect x="31.687" y="14.992" width="4.167" height="41.667"/><path d="M10.032,23.326c3.408,-4.592 5.629,-7.655 10.079,-11.155c4.212,-3.308 8.916,-5.566 14.208,-5.504c9.971,0.117 12.804,5.279 19.429,12.625l3.092,-2.791c-7.567,-8.4 -11.075,-13.871 -22.471,-14.009c-12.187,-0.141 -20.254,8.338 -27.683,18.346l3.346,2.488Z"/><path d="M62.938,19.159c3.45,-0 6.25,2.8 6.25,6.25c0,3.45 -2.8,6.25 -6.25,6.25c-3.45,-0 -6.25,-2.8 -6.25,-6.25c0,-3.45 2.8,-6.25 6.25,-6.25"/><path d="M59.813,73.326c-3.271,-0 -6.258,-1.121 -8.691,-2.946l20.329,-20.329c1.825,2.433 2.946,5.42 2.946,8.691c-0,8.042 -6.542,14.584 -14.584,14.584m0,-29.167c3.271,-0 6.259,1.121 8.692,2.946l-20.329,20.329c-1.825,-2.433 -2.946,-5.421 -2.946,-8.692c-0,-8.041 6.542,-14.583 14.583,-14.583m0,-4.167c-10.337,0 -18.75,8.413 -18.75,18.75c0,10.338 8.413,18.75 18.75,18.75c10.338,0 18.75,-8.412 18.75,-18.75c0,-10.337 -8.412,-18.75 -18.75,-18.75" style="fill-rule:nonzero;"/></g></g></svg>