<?xml version="1.0" encoding="UTF-8" standalone="no"?><!DOCTYPE svg PUBLIC "-//W3C//DTD SVG 1.1//EN" "http://www.w3.org/Graphics/SVG/1.1/DTD/svg11.dtd"><svg width="100%" height="100%" viewBox="0 0 84 84" version="1.1" xmlns="http://www.w3.org/2000/svg" xmlns:xlink="http://www.w3.org/1999/xlink" xml:space="preserve" xmlns:serif="http://www.serif.com/" style="fill-rule:evenodd;clip-rule:evenodd;stroke-linejoin:round;stroke-miterlimit:2;"><g id="_3DToolBar_ReverbZoneTransitionRegions_Checked" serif:id="3DToolBar_ReverbZoneTransitionRegions_Checked"><rect id="Transparent-BG" serif:id="Transparent BG" x="3.424" y="6.837" width="79.167" height="79.167" style="fill:none;"/><g id="Calque-15" serif:id="Calque 15"><g id="Calque-3" serif:id="Calque 3"><path d="M56.945,66.294l5.123,-0c2.306,-0 4.176,-1.993 4.176,-4.444l-0,-5.442c-0,-2.451 -1.87,-4.443 -4.176,-4.443l-5.123,0c-2.306,0 -4.176,1.992 -4.176,4.443l0,5.442c0,2.451 1.87,4.444 4.176,4.444m2.561,-28.657c0.651,-0 1.301,0.203 1.871,0.604l20.212,14.328c1.237,0.871 1.783,2.503 1.353,4.019c-0.43,1.51 -1.737,2.544 -3.223,2.544l-6.738,0l0,10.745c0,1.975 -1.51,3.578 -3.369,3.578l-20.212,-0c-1.864,-0 -3.368,-1.603 -3.368,-3.578l-0,-10.745l-6.738,0c-1.487,0 -2.793,-1.034 -3.229,-2.544c-0.43,-1.516 0.122,-3.148 1.359,-4.019l20.212,-14.328c0.564,-0.401 1.22,-0.604 1.87,-0.604" style="fill-rule:nonzero;"/><path d="M39.879,45.016l3.412,-2.31l-5.65,-9.269l6.509,-12.264c0.725,-1.197 2.079,-1.94 3.533,-1.94l21.548,-0l0,-3.975l-21.548,-0c-2.938,-0 -5.671,1.503 -7.138,3.919l-5.312,10.304l-5.317,-10.308c-1.475,-2.416 -4.208,-3.915 -7.137,-3.915l-20.169,-0l-0,3.975l20.169,-0c1.454,-0 2.808,0.743 3.537,1.94l6.504,12.264l-6.5,13.206c-0.733,1.197 -2.091,1.944 -3.541,1.944l-20.169,0l-0,3.975l20.169,0c2.929,0 5.662,-1.502 7.141,-3.919l5.313,-11.251l4.646,7.624Z" style="fill-rule:nonzero;"/></g></g></g></svg>