<?xml version="1.0" encoding="UTF-8" standalone="no"?><!DOCTYPE svg PUBLIC "-//W3C//DTD SVG 1.1//EN" "http://www.w3.org/Graphics/SVG/1.1/DTD/svg11.dtd"><svg width="100%" height="100%" viewBox="0 0 84 84" version="1.1" xmlns="http://www.w3.org/2000/svg" xmlns:xlink="http://www.w3.org/1999/xlink" xml:space="preserve" xmlns:serif="http://www.serif.com/" style="fill-rule:evenodd;clip-rule:evenodd;stroke-miterlimit:10;"><g id="_3DToolBar_GameObjectPosition_CheckedDisabled" serif:id="3DToolBar_GameObjectPosition_CheckedDisabled" opacity="0.3"><rect id="Transparent-BG" serif:id="Transparent BG" x="1.901" y="2.169" width="79.167" height="79.167" style="fill:none;"/><g id="Calque-11" serif:id="Calque 11"><path d="M32.895,74.797l-0,-41.321l41.684,-0" style="fill:none;fill-rule:nonzero;stroke:#000;stroke-width:4.17px;"/><path d="M35.117,36.297l-22.934,-22.934" style="fill:none;fill-rule:nonzero;stroke:#000;stroke-width:4.17px;"/><path d="M55.965,12.55l-43.783,-0l0,44.383l17.867,18.238l44.604,-0l-0,-44.159l-18.688,-18.462Z" style="fill:none;fill-rule:nonzero;stroke:#000;stroke-width:4.17px;"/><g id="Mode-Isolation" serif:id="Mode Isolation"><path d="M52.437,47.069c-2.082,0 -3.765,1.687 -3.765,3.765c-0,2.081 1.683,3.768 3.765,3.768c2.078,-0 3.764,-1.687 3.764,-3.768c0,-2.078 -1.686,-3.765 -3.764,-3.765" style="fill-rule:nonzero;"/><path d="M63.899,55.647c-0.208,0.485 -0.486,0.94 -0.786,1.376l-10.598,15.469l-11.243,-16.104c-0.865,-1.698 -1.35,-3.621 -1.35,-5.659c0,-7.776 7.106,-13.893 15.177,-12.208c4.737,0.988 8.561,4.825 9.532,9.562c0.555,2.708 0.233,5.31 -0.732,7.564m-32.948,17.664l44.213,-0l-0,-39.873l-44.213,0l-0,39.873Z" style="fill-rule:nonzero;"/></g></g></g></svg>