<?xml version="1.0" encoding="UTF-8" standalone="no"?><!DOCTYPE svg PUBLIC "-//W3C//DTD SVG 1.1//EN" "http://www.w3.org/Graphics/SVG/1.1/DTD/svg11.dtd"><svg width="100%" height="100%" viewBox="0 0 84 84" version="1.1" xmlns="http://www.w3.org/2000/svg" xmlns:xlink="http://www.w3.org/1999/xlink" xml:space="preserve" xmlns:serif="http://www.serif.com/" style="fill-rule:evenodd;clip-rule:evenodd;stroke-linejoin:round;stroke-miterlimit:2;"><g id="_3DToolBar_VirtualVoices_Checked" serif:id="3DToolBar_VirtualVoices_Checked"><rect id="Transparent-BG" serif:id="Transparent BG" x="0.972" y="1.471" width="79.167" height="79.167" style="fill:none;"/><g><g id="Calque-1" serif:id="Calque 1"><path d="M75.044,49.388l-10.758,25l-4.071,-0l-11.313,-25l6.925,-0c0,-0 5.784,14.975 6.496,15c0.609,-0 6.217,-15 6.217,-15l6.504,-0Z" style="fill-rule:nonzero;"/><path d="M11.062,43.415l-3.15,3.116c-0.879,0.871 -0.679,0.763 -0.65,2.475c0.038,2.425 1.209,5.988 3.942,8.696c2.483,2.454 5.596,3.704 7.946,3.988c2.35,0.283 2.221,0.387 3.166,-0.546l3.405,-3.371c-2.996,-0.554 -6.684,-2.2 -9.68,-5.158c-2.82,-2.796 -4.391,-6.271 -4.979,-9.2" style="fill-opacity:0.5;fill-rule:nonzero;"/><path d="M35.736,49.025c-1.542,1.4 -6.288,-0.975 -10.617,-5.305c-4.325,-4.329 -6.579,-8.97 -5.05,-10.375c1.537,-1.395 6.287,0.975 10.612,5.305c4.325,4.329 6.588,8.979 5.055,10.375m6.05,2.079l-2.663,-5.884l10.783,0c-0.466,-0.941 -0.983,-1.895 -1.554,-2.866l13.038,-2.134l-0,-10.833l-15.704,8.904c-1.555,-2.154 -3.346,-4.333 -5.35,-6.462l21.054,-13.275l-0,-10.834l-7.225,0l-16.621,21.292c-2.108,-2.008 -4.263,-3.808 -6.408,-5.375l8.587,-15.917l-10.833,0l-1.784,13.225c-7.741,-4.679 -14.775,-5.995 -18.045,-2.72c-4.896,4.904 0.487,18.241 12.02,29.787c9.071,9.079 19.23,14.321 25.542,13.783l-4.837,-10.691Z" style="fill-opacity:0.5;fill-rule:nonzero;"/></g></g></g></svg>