<?xml version="1.0" encoding="UTF-8" standalone="no"?><!DOCTYPE svg PUBLIC "-//W3C//DTD SVG 1.1//EN" "http://www.w3.org/Graphics/SVG/1.1/DTD/svg11.dtd"><svg width="100%" height="100%" viewBox="0 0 84 84" version="1.1" xmlns="http://www.w3.org/2000/svg" xmlns:xlink="http://www.w3.org/1999/xlink" xml:space="preserve" xmlns:serif="http://www.serif.com/" style="fill-rule:evenodd;clip-rule:evenodd;stroke-miterlimit:10;"><g id="_3DToolBar_GameObjectInputChannels_Normal" serif:id="3DToolBar_GameObjectInputChannels_Normal" opacity="0.45"><rect id="Transparent-BG" serif:id="Transparent BG" x="6.02" y="2.1" width="79.167" height="79.167" style="fill:none;"/><g id="Calque-11" serif:id="Calque 11"><path d="M33.39,75.102l0,-41.321l41.684,-0" style="fill:none;fill-rule:nonzero;stroke:#000;stroke-width:4.17px;"/><path d="M35.558,36.547l-22.879,-22.88" style="fill:none;fill-rule:nonzero;stroke:#000;stroke-width:4.17px;"/><path d="M56.461,12.855l-43.783,-0l-0,44.383l17.866,18.237l44.604,0l0,-44.158l-18.687,-18.462Z" style="fill:none;fill-rule:nonzero;stroke:#000;stroke-width:4.17px;"/><path d="M33.764,76.077l41.384,-0l0,-42.296l-41.384,-0l0,42.296Zm6.197,-39.942l33.103,0l0,37.437l-33.103,0l0,-12.758l4.167,-0l0,8.588l24.769,-0l0,-29.1l-24.769,0l0,8.367l-4.167,0l0,-12.534Zm-4.125,16.709l22.555,-0l-6.138,-5.724l2.95,-2.942l10.1,10.757l-10.1,10.189l-2.946,-2.942l6.134,-5.172l-22.555,0l0,-4.166Z" style="fill-rule:nonzero;"/></g></g></svg>