<?xml version="1.0" encoding="UTF-8" standalone="no"?><!DOCTYPE svg PUBLIC "-//W3C//DTD SVG 1.1//EN" "http://www.w3.org/Graphics/SVG/1.1/DTD/svg11.dtd"><svg width="100%" height="100%" viewBox="0 0 84 84" version="1.1" xmlns="http://www.w3.org/2000/svg" xmlns:xlink="http://www.w3.org/1999/xlink" xml:space="preserve" xmlns:serif="http://www.serif.com/" style="fill-rule:evenodd;clip-rule:evenodd;stroke-linejoin:round;stroke-miterlimit:2;"><g id="_3DToolBar_Transmission-_Normal" serif:id="3DToolBar_Transmission%_Normal" opacity="0.45"><rect id="Transparent-BG" serif:id="Transparent BG" x="5.214" y="6.132" width="79.167" height="79.167" style="fill:none;"/><g id="Calque-6" serif:id="Calque 6"><g><path d="M54.998,52.133c2.029,-0 3.677,1.643 3.677,3.663c-0,2.024 -1.648,3.667 -3.677,3.667c-2.029,0 -3.676,-1.643 -3.676,-3.667c0,-2.02 1.647,-3.663 3.676,-3.663"/><path d="M72.28,69.339c2.042,-0 3.698,1.66 3.698,3.702c-0,2.042 -1.656,3.702 -3.698,3.702c-2.042,0 -3.698,-1.66 -3.698,-3.702c0,-2.042 1.656,-3.702 3.698,-3.702"/><path d="M69.551,49.692l3.132,1.807l-15.605,27.046l-3.132,-1.807l15.605,-27.046Z"/></g><g id="Calque-11" serif:id="Calque 11"><rect x="6.867" y="31.825" width="16.775" height="4.167"/><rect x="35.796" y="31.825" width="17.044" height="4.167" style="fill-opacity:0.5;"/><rect x="27.723" y="11.079" width="3.926" height="62.389"/><path d="M61.789,29.98c3.45,-0 6.25,2.8 6.25,6.25c-0,3.45 -2.8,6.25 -6.25,6.25c-3.45,-0 -6.25,-2.8 -6.25,-6.25c-0,-3.45 2.8,-6.25 6.25,-6.25"/></g></g></g></svg>