<?xml version="1.0" encoding="UTF-8" standalone="no"?><!DOCTYPE svg PUBLIC "-//W3C//DTD SVG 1.1//EN" "http://www.w3.org/Graphics/SVG/1.1/DTD/svg11.dtd"><svg width="100%" height="100%" viewBox="0 0 84 84" version="1.1" xmlns="http://www.w3.org/2000/svg" xmlns:xlink="http://www.w3.org/1999/xlink" xml:space="preserve" xmlns:serif="http://www.serif.com/" style="fill-rule:evenodd;clip-rule:evenodd;stroke-miterlimit:10;"><g id="_3DToolBar_GameObjectInputChannels_CheckedDisabled" serif:id="3DToolBar_GameObjectInputChannels_CheckedDisabled" opacity="0.3"><rect id="Transparent-BG" serif:id="Transparent BG" x="6.067" y="2.169" width="79.167" height="79.167" style="fill:none;"/><g id="Calque-11" serif:id="Calque 11"><path d="M33.437,75.171l0,-41.322l41.684,0" style="fill:none;fill-rule:nonzero;stroke:#000;stroke-width:4.17px;"/><path d="M35.605,36.616l-22.88,-22.88" style="fill:none;fill-rule:nonzero;stroke:#000;stroke-width:4.17px;"/><path d="M56.508,12.923l-43.783,0l-0,44.383l17.866,18.238l44.604,-0l0,-44.158l-18.687,-18.463Z" style="fill:none;fill-rule:nonzero;stroke:#000;stroke-width:4.17px;"/><path d="M33.811,76.145l41.384,0l0,-42.296l-41.384,0l0,42.296Zm6.197,-39.941l33.103,0l0,37.437l-33.103,0l0,-12.759l4.167,0l0,8.588l24.769,0l0,-29.099l-24.769,-0l0,8.367l-4.167,-0l0,-12.534Zm-4.125,16.708l22.555,0l-6.138,-5.724l2.95,-2.941l10.1,10.757l-10.1,10.188l-2.946,-2.941l6.134,-5.172l-22.555,-0l0,-4.167Z" style="fill-rule:nonzero;"/></g></g></svg>