<?xml version="1.0" encoding="UTF-8" standalone="no"?><!DOCTYPE svg PUBLIC "-//W3C//DTD SVG 1.1//EN" "http://www.w3.org/Graphics/SVG/1.1/DTD/svg11.dtd"><svg width="100%" height="100%" viewBox="0 0 84 84" version="1.1" xmlns="http://www.w3.org/2000/svg" xmlns:xlink="http://www.w3.org/1999/xlink" xml:space="preserve" xmlns:serif="http://www.serif.com/" style="fill-rule:evenodd;clip-rule:evenodd;stroke-linejoin:round;stroke-miterlimit:2;"><g id="_3DToolBar_DiffractionEdgeReceptors_CheckedDisabled" serif:id="3DToolBar_DiffractionEdgeReceptors_CheckedDisabled" opacity="0.3"><rect id="Transparent-BG" serif:id="Transparent BG" x="4.106" y="1.471" width="79.167" height="79.167" style="fill:none;"/><g><rect x="69.19" y="44.429" width="8.306" height="4.175"/><rect x="52.453" y="44.429" width="8.302" height="4.175"/><path d="M69.188,52.623l-0,9.977c-0,2.331 -1.89,4.217 -4.217,4.217c-2.328,-0 -4.217,-1.886 -4.217,-4.217l-0,-9.977l-8.303,-0l0,9.977c0,6.917 5.606,12.523 12.52,12.523c6.914,-0 12.519,-5.606 12.519,-12.523l0,-9.977l-8.302,-0Z" style="fill-rule:nonzero;"/><rect x="35.862" y="3.186" width="4.221" height="24.327"/><rect x="6.567" y="32.037" width="25.058" height="3.735"/><path d="M48.242,40.038l8.229,-0l-0.003,-8.001l-20.606,0l0,20.618l12.381,0l-0.001,-12.617Z" style="fill-rule:nonzero;"/></g></g></svg>