<?xml version="1.0" encoding="UTF-8" standalone="no"?><!DOCTYPE svg PUBLIC "-//W3C//DTD SVG 1.1//EN" "http://www.w3.org/Graphics/SVG/1.1/DTD/svg11.dtd"><svg width="100%" height="100%" viewBox="0 0 84 84" version="1.1" xmlns="http://www.w3.org/2000/svg" xmlns:xlink="http://www.w3.org/1999/xlink" xml:space="preserve" xmlns:serif="http://www.serif.com/" style="fill-rule:evenodd;clip-rule:evenodd;stroke-linejoin:round;stroke-miterlimit:2;"><g id="_3DToolBar_GeometryOpacity_Checked" serif:id="3DToolBar_GeometryOpacity_Checked"><rect id="Transparent-BG" serif:id="Transparent BG" x="4.099" y="5.619" width="79.167" height="79.167" style="fill:none;"/><g id="Calque-16" serif:id="Calque 16"><g><g opacity="0.5"><rect x="72.188" y="60.404" width="9.524" height="9.524"/></g><rect x="48.379" y="72.308" width="9.525" height="9.525"/><g opacity="0.5"><rect x="60.283" y="72.309" width="9.524" height="9.524"/></g><rect x="72.187" y="48.5" width="9.525" height="9.525"/><rect x="48.379" y="48.5" width="9.525" height="9.525"/><rect x="60.283" y="60.404" width="9.525" height="9.525"/><g opacity="0.5"><rect x="48.379" y="60.404" width="9.524" height="9.524"/></g><rect x="72.187" y="72.308" width="9.525" height="9.525"/><g opacity="0.5"><rect x="60.283" y="48.5" width="9.524" height="9.524"/></g></g><path d="M42.225,8.369l-32.179,55.75l-0.005,0.004l-2.975,5.154l37.5,0l0,-4.312l-27.079,-0l24.704,-13.517l2.375,1.388l0,-4.992l-0.183,-0.108l0,-27.009l14.504,25.142l4.979,-0l-21.641,-37.5Zm-2.159,12.358l0,26.967l-22.741,12.442l22.741,-39.409Z" style="fill-rule:nonzero;"/></g></g></svg>