<?xml version="1.0" encoding="UTF-8" standalone="no"?><!DOCTYPE svg PUBLIC "-//W3C//DTD SVG 1.1//EN" "http://www.w3.org/Graphics/SVG/1.1/DTD/svg11.dtd"><svg width="100%" height="100%" viewBox="0 0 84 84" version="1.1" xmlns="http://www.w3.org/2000/svg" xmlns:xlink="http://www.w3.org/1999/xlink" xml:space="preserve" xmlns:serif="http://www.serif.com/" style="fill-rule:evenodd;clip-rule:evenodd;stroke-linejoin:round;stroke-miterlimit:2;"><g id="_3DToolBar_RoomExtentOpacity_Disabled" serif:id="3DToolBar_RoomExtentOpacity_Disabled" opacity="0.3"><rect id="Transparent-BG" serif:id="Transparent BG" x="4.216" y="3.025" width="79.167" height="79.167" style="fill:none;"/><g id="Calque-3" serif:id="Calque 3"><path d="M32.968,43.05c-2.908,-0 -5.271,-2.513 -5.271,-5.604l0,-6.875c0,-3.092 2.363,-5.605 5.271,-5.605l6.463,0c2.912,0 5.275,2.513 5.275,5.605l-0,6.875c-0,3.091 -2.363,5.604 -5.275,5.604l-6.463,-0Zm10.967,1.333l9.271,0l-0,-10.375l8.504,0c1.875,0 3.529,-1.304 4.071,-3.212c0.541,-1.905 -0.15,-3.967 -1.713,-5.071l-25.508,-18.084c-1.429,-1.012 -3.292,-1.012 -4.721,0l-25.508,18.084c-1.563,1.104 -2.254,3.166 -1.713,5.071c0.542,1.908 2.196,3.212 4.071,3.212l8.504,0l0,13.563c0,2.495 1.904,4.52 4.25,4.52l20.492,0l-0,-7.708Z"/><g><g opacity="0.5"><rect x="60.316" y="48.426" width="9.524" height="9.524"/></g><g opacity="0.5"><rect x="72.221" y="60.331" width="9.524" height="9.524"/></g><rect x="48.411" y="72.234" width="9.525" height="9.525"/><g opacity="0.5"><rect x="60.316" y="72.235" width="9.524" height="9.524"/></g><rect x="72.22" y="48.426" width="9.525" height="9.525"/><rect x="48.411" y="48.426" width="9.525" height="9.525"/><rect x="60.316" y="60.33" width="9.525" height="9.525"/><g opacity="0.5"><rect x="48.411" y="60.331" width="9.524" height="9.524"/></g><rect x="72.22" y="72.234" width="9.525" height="9.525"/></g></g></g></svg>