<?xml version="1.0" encoding="UTF-8" standalone="no"?><!DOCTYPE svg PUBLIC "-//W3C//DTD SVG 1.1//EN" "http://www.w3.org/Graphics/SVG/1.1/DTD/svg11.dtd"><svg width="100%" height="100%" viewBox="0 0 84 84" version="1.1" xmlns="http://www.w3.org/2000/svg" xmlns:xlink="http://www.w3.org/1999/xlink" xml:space="preserve" xmlns:serif="http://www.serif.com/" style="fill-rule:evenodd;clip-rule:evenodd;stroke-linejoin:round;stroke-miterlimit:2;"><g id="_3DToolBar_ReflectionPaths_Normal" serif:id="3DToolBar_ReflectionPaths_Normal" opacity="0.45"><rect id="Transparent-BG" serif:id="Transparent BG" x="4.109" y="3.873" width="79.167" height="79.167" style="fill:none;"/><g id="Calque-6" serif:id="Calque 6"><rect x="65.048" y="15.26" width="3.992" height="49.54"/><path d="M34.839,23.752l19.079,18.004l4.913,-2.271l-20.5,-19.345l-3.492,3.612Z" style="fill:#222;"/><path d="M36.806,52.321l22.079,-12.796l-4.521,-2.195l-22.079,12.795l4.521,2.196Z"/><path d="M34.761,23.678l19.158,18.079l4.913,-2.27l-20.584,-19.425l-3.487,3.616Z"/><path d="M28.549,62.145c-3.133,1.441 -6.85,0.066 -8.292,-3.067c-1.441,-3.133 -0.066,-6.846 3.067,-8.288c3.133,-1.441 6.85,-0.07 8.292,3.063c1.441,3.133 0.066,6.85 -3.067,8.292" style="fill:#222;"/><path d="M28.549,62.145c-3.133,1.441 -6.85,0.066 -8.292,-3.067c-1.441,-3.133 -0.066,-6.846 3.067,-8.288c3.133,-1.441 6.85,-0.07 8.292,3.063c1.441,3.133 0.066,6.85 -3.067,8.292"/></g></g></svg>