<?xml version="1.0" encoding="UTF-8" standalone="no"?><!DOCTYPE svg PUBLIC "-//W3C//DTD SVG 1.1//EN" "http://www.w3.org/Graphics/SVG/1.1/DTD/svg11.dtd"><svg width="100%" height="100%" viewBox="0 0 84 84" version="1.1" xmlns="http://www.w3.org/2000/svg" xmlns:xlink="http://www.w3.org/1999/xlink" xml:space="preserve" xmlns:serif="http://www.serif.com/" style="fill-rule:evenodd;clip-rule:evenodd;stroke-miterlimit:10;"><g id="_3DToolBar_GameObjectVoices_Normal" serif:id="3DToolBar_GameObjectVoices_Normal" opacity="0.45"><rect id="Transparent-BG" serif:id="Transparent BG" x="2.27" y="2.1" width="79.167" height="79.167" style="fill:none;"/><g id="Calque-11" serif:id="Calque 11"><path d="M33.264,75.077l0,-41.322l41.685,0" style="fill:none;fill-rule:nonzero;stroke:#000;stroke-width:4.17px;"/><path d="M35.487,36.577l-22.934,-22.935" style="fill:none;fill-rule:nonzero;stroke:#000;stroke-width:4.17px;"/><path d="M56.335,12.829l-43.783,0l-0,44.384l17.867,18.237l44.604,0l-0,-44.158l-18.688,-18.463Z" style="fill:none;fill-rule:nonzero;stroke:#000;stroke-width:4.17px;"/><g id="Mode-Isolation" serif:id="Mode Isolation"><path d="M33.264,76.202l0,-43.571l43.784,-0l-0,43.571l-43.784,-0Zm23.059,-26.107c-1.457,-1.39 -2.949,-2.634 -4.428,-3.718l5.934,-11.001l-7.488,0l-1.231,9.14c-5.356,-3.233 -10.215,-4.143 -12.48,-1.878c-3.384,3.389 0.338,12.609 8.314,20.59c7.977,7.985 17.188,11.711 20.572,8.323c2.226,-2.23 1.382,-6.978 -1.723,-12.236l9.016,-1.47l0,-7.493l-10.854,6.16c-1.075,-1.492 -2.314,-2.997 -3.7,-4.472l14.554,-9.176l0,-7.488l-4.992,0l-11.494,14.719Zm-4.743,6.662c2.989,2.993 4.552,6.209 3.495,7.172c-1.066,0.969 -4.348,-0.675 -7.342,-3.668c-2.989,-2.989 -4.547,-6.2 -3.49,-7.168c1.066,-0.969 4.348,0.67 7.337,3.664Zm-13.564,3.295l-2.176,2.154c-0.609,0.604 -0.471,0.529 -0.453,1.71c0.031,1.679 0.839,4.139 2.727,6.014c1.714,1.692 3.868,2.558 5.493,2.753c1.622,0.196 1.537,0.267 2.19,-0.373l2.354,-2.332c-2.074,-0.381 -4.623,-1.518 -6.693,-3.566c-1.95,-1.932 -3.038,-4.335 -3.442,-6.36Z" style="fill-rule:nonzero;"/></g></g></g></svg>