<?xml version="1.0" encoding="UTF-8" standalone="no"?><!DOCTYPE svg PUBLIC "-//W3C//DTD SVG 1.1//EN" "http://www.w3.org/Graphics/SVG/1.1/DTD/svg11.dtd"><svg width="100%" height="100%" viewBox="0 0 67 67" version="1.1" xmlns="http://www.w3.org/2000/svg" xmlns:xlink="http://www.w3.org/1999/xlink" xml:space="preserve" xmlns:serif="http://www.serif.com/" style="fill-rule:evenodd;clip-rule:evenodd;stroke-linejoin:round;stroke-miterlimit:2;"><g id="ObjectIcons_SideChainMix_dis" opacity="0.3"><g id="Base-Block" serif:id="Base Block"><path d="M66.521,10.478c-0,-4.958 -4.025,-8.983 -8.983,-8.983l-48.701,-0c-4.958,-0 -8.983,4.025 -8.983,8.983l0,46.197c0,4.958 4.025,8.983 8.983,8.983l48.701,0c4.958,0 8.983,-4.025 8.983,-8.983l-0,-46.197Z" style="fill-opacity:0;"/></g><g><circle cx="32.797" cy="33.543" r="25.391" style="fill:#222;"/><path d="M32.797,3.985c16.313,0 29.557,13.245 29.557,29.558c0,16.314 -13.244,29.558 -29.557,29.558c-16.314,-0 -29.558,-13.244 -29.558,-29.558c-0,-16.313 13.244,-29.558 29.558,-29.558Zm-0,4.167c-14.014,0 -25.392,11.377 -25.392,25.391c0,14.014 11.378,25.391 25.392,25.391c14.013,0 25.391,-11.377 25.391,-25.391c-0,-14.014 -11.378,-25.391 -25.391,-25.391Z" style="fill:#222;"/><path d="M19.413,31.851c0.355,0.613 0.558,1.324 0.558,2.083l-0,4.167c-0,0.759 -0.203,1.47 -0.558,2.083c0.355,0.613 0.558,1.325 0.558,2.084l-0,4.166c-0,2.301 -1.866,4.167 -4.167,4.167l-11.783,-0c-2.301,-0 -4.167,-1.866 -4.167,-4.167l0,-4.166c0,-0.759 0.203,-1.471 0.558,-2.084c-0.355,-0.613 -0.558,-1.324 -0.558,-2.083l0,-4.167c0,-0.759 0.203,-1.47 0.558,-2.083c-0.355,-0.613 -0.558,-1.324 -0.558,-2.083l0,-4.167c0,-2.301 1.866,-4.167 4.167,-4.167l11.783,0c2.301,0 4.167,1.866 4.167,4.167l-0,4.167c-0,0.759 -0.203,1.47 -0.558,2.083Zm-3.609,-6.25l-11.783,-0l-0,4.167l11.783,-0l0,-4.167Zm0,16.667l-11.783,-0l-0,4.166l11.783,0l0,-4.166Zm0,-8.334l-11.783,0l-0,4.167l11.783,-0l0,-4.167Z" style="fill:#222;"/><path d="M15.804,42.268l-11.783,-0l-0,4.166l11.783,0l0,-4.166Zm0,-8.334l-11.783,0l-0,4.167l11.783,-0l0,-4.167Zm0,-8.333l-11.783,-0l-0,4.167l11.783,-0l0,-4.167Z" style="fill:#c8c8c8;"/><path d="M65.964,31.851c0.354,0.613 0.557,1.324 0.557,2.083l-0,4.167c-0,0.759 -0.203,1.47 -0.557,2.083c0.354,0.613 0.557,1.325 0.557,2.084l-0,4.166c-0,2.301 -1.865,4.167 -4.167,4.167l-12.5,-0c-2.301,-0 -4.166,-1.866 -4.166,-4.167l-0,-4.166c-0,-0.759 0.203,-1.471 0.557,-2.084c-0.354,-0.613 -0.557,-1.324 -0.557,-2.083l-0,-4.167c-0,-0.759 0.203,-1.47 0.557,-2.083c-0.354,-0.613 -0.557,-1.324 -0.557,-2.083l-0,-4.167c-0,-2.301 1.865,-4.167 4.166,-4.167l12.5,0c2.302,0 4.167,1.866 4.167,4.167l-0,4.167c-0,0.759 -0.203,1.47 -0.557,2.083Zm-16.11,-2.083l12.5,-0l0,-4.167l-12.5,-0l0,4.167Zm0,16.666l12.5,0l0,-4.166l-12.5,-0l0,4.166Zm0,-8.333l12.5,-0l0,-4.167l-12.5,0l0,4.167Z" style="fill:#222;"/><path d="M49.854,29.768l12.5,-0l0,-4.167l-12.5,-0l0,4.167Zm0,8.333l12.5,-0l0,-4.167l-12.5,0l0,4.167Zm0,8.333l12.5,0l0,-4.166l-12.5,-0l0,4.166Z" style="fill:#c8c8c8;"/><g><circle cx="32.372" cy="33.968" r="25.033" style="fill:#c8c8c8;"/><path d="M20.688,46.409l-0,-16.641c-0,-1.017 0.004,-4.701 2.028,-4.701c2.142,-0 2.091,3.684 2.091,4.701l0,12.5c0,3.049 0.145,8.567 6.393,8.567c6.252,-0 6.085,-5.518 6.085,-8.567l0,-16.667c0,-1.017 -0.013,-4.719 2.106,-4.719c2.048,-0 2.157,3.702 2.157,4.719l0,20.325l4.167,-0l-0,-20.325c-0,-3.05 -0.11,-8.846 -6.324,-8.846c-6.286,-0 -6.272,5.796 -6.272,8.846l-0,16.667c-0,-0 0.166,4.356 -1.919,4.329c-2.081,-0.028 -2.179,-3.313 -2.179,-4.329l-0,-12.5c-0,-1.115 -0.113,-8.886 -6.305,-8.886c-6.191,-0 -6.195,5.836 -6.195,8.886l-0,16.641l4.167,-0Z" style="fill:#222;"/><rect x="16.49" y="38.101" width="4.167" height="3.542" style="fill:#fff;fill-opacity:0.5;"/><rect x="41.521" y="38.101" width="4.167" height="3.542" style="fill:#fff;fill-opacity:0.5;"/></g></g></g></svg>