<?xml version="1.0" encoding="UTF-8" standalone="no"?><!DOCTYPE svg PUBLIC "-//W3C//DTD SVG 1.1//EN" "http://www.w3.org/Graphics/SVG/1.1/DTD/svg11.dtd"><svg width="100%" height="100%" viewBox="0 0 67 67" version="1.1" xmlns="http://www.w3.org/2000/svg" xmlns:xlink="http://www.w3.org/1999/xlink" xml:space="preserve" xmlns:serif="http://www.serif.com/" style="fill-rule:evenodd;clip-rule:evenodd;stroke-linejoin:round;stroke-miterlimit:2;"><g id="ObjectIcons_Database_dis" opacity="0.3"><g id="Base-Block" serif:id="Base Block"><path d="M66.635,12.917c0,-4.83 -3.921,-8.75 -8.75,-8.75l-45,-0c-4.829,-0 -8.75,3.92 -8.75,8.75l0,45c0,4.829 3.921,8.75 8.75,8.75l45,-0c4.829,-0 8.75,-3.921 8.75,-8.75l0,-45Z" style="fill-opacity:0;"/></g><path d="M29.111,16.66l33.399,0l-0,45.835l-54.1,0l0,-54.191l20.701,0l0,8.356Z" style="fill:#fff;"/><path d="M33.278,12.494l29.232,-0c2.301,-0 4.166,1.865 4.166,4.166l0,45.835c0,2.301 -1.865,4.167 -4.166,4.167l-54.1,-0c-2.301,-0 -4.166,-1.866 -4.166,-4.167l-0,-54.191c-0,-2.301 1.865,-4.166 4.166,-4.166l20.701,-0c2.301,-0 4.167,1.865 4.167,4.166l-0,4.19Zm-4.167,4.166l0,-8.356l-20.701,0l0,54.191l54.1,0l-0,-45.835l-33.399,0Z" style="fill:#222;"/><path d="M38.216,33.68c2.283,1.838 3.616,3.855 3.66,6.002c0.045,2.168 -1.225,4.34 -3.708,6.475l2.517,2.928c3.576,-3.074 5.116,-6.361 5.052,-9.482c-0.065,-3.142 -1.76,-6.242 -5.1,-8.93l-2.421,3.007Zm2.937,-8.566c5.748,4.754 8.976,9.542 9.087,14.546c0.11,5.01 -2.916,10.065 -9.111,15.359l2.509,2.936c7.336,-6.27 10.592,-12.447 10.462,-18.38c-0.131,-5.937 -3.667,-11.797 -10.486,-17.436l-2.461,2.975Zm-16.498,8.237l-7.989,-0l0,12.355l7.989,0l12.834,11.87l-0,-35.816l-12.834,11.591Z" style="fill:#222;"/></g></svg>