<?xml version="1.0" encoding="UTF-8" standalone="no"?><!DOCTYPE svg PUBLIC "-//W3C//DTD SVG 1.1//EN" "http://www.w3.org/Graphics/SVG/1.1/DTD/svg11.dtd"><svg width="100%" height="100%" viewBox="0 0 67 67" version="1.1" xmlns="http://www.w3.org/2000/svg" xmlns:xlink="http://www.w3.org/1999/xlink" xml:space="preserve" xmlns:serif="http://www.serif.com/" style="fill-rule:evenodd;clip-rule:evenodd;stroke-linecap:square;stroke-linejoin:round;stroke-miterlimit:1.41421;"><g id="ObjectIcons_PropHighShelfSend_nor"><g id="Icons"><g id="Base-Block" serif:id="Base Block"><rect x="-0.878" y="4.167" width="62.5" height="62.5" style="fill-opacity:0;"/></g><path d="M43.213,39.718l-0.303,-0.395" style="fill:none;stroke:#222;stroke-width:8.33px;"/><path d="M66.783,43.99c-0,-3.542 -2.876,-6.417 -6.417,-6.417l-33,0c-3.541,0 -6.417,2.875 -6.417,6.417l0,16.333c0,3.542 2.876,6.417 6.417,6.417l33,-0c3.541,-0 6.417,-2.875 6.417,-6.417l-0,-16.333Z" style="fill:#222;"/><path d="M4.03,22.493l23.83,-0.116l10.734,-15.154c1.328,-1.875 3.482,-2.989 5.779,-2.989l17.886,0l-0,5.661l-17.886,-0c-0.461,-0 -0.893,0.223 -1.16,0.6l-10.46,14.767l8.679,12.254l-6.852,0.118l-6.716,-9.481l-23.822,0l-0.012,-5.66Z" style="fill:#c8c8c8;"/><path d="M45.793,14.061l-7.934,11.201l6.973,9.845c0.893,1.261 1.015,2.912 0.318,4.29c-0.698,1.379 -2.101,2.258 -3.646,2.285l-6.852,0.118c-1.377,0.024 -2.677,-0.634 -3.472,-1.757c-0,-0 -5.471,-7.723 -5.471,-7.723l-21.667,-0c-2.298,-0 -4.162,-1.86 -4.167,-4.158l-0.011,-5.66c-0.005,-2.297 1.849,-4.164 4.146,-4.176c-0,0 21.688,-0.105 21.688,-0.105l9.496,-13.407c2.109,-2.977 5.53,-4.746 9.179,-4.746l17.886,-0c2.301,-0 4.166,1.865 4.166,4.166l0,5.661c0,2.301 -1.865,4.166 -4.166,4.166l-16.466,0Zm-41.763,8.432l0.012,5.66l23.822,0l6.716,9.481l6.852,-0.118l-8.679,-12.254l10.46,-14.767c0.267,-0.377 0.699,-0.6 1.16,-0.6l17.886,-0l-0,-5.661l-17.886,0c-2.297,0 -4.451,1.114 -5.779,2.989l-10.734,15.154l-23.83,0.116Z" style="fill:#222;"/><path d="M39.407,48.198l-12.5,0l-0,-4.166l33.333,-0l0,4.166l-16.666,0l-0,6.105l2.231,2.229l14.435,-0l0,4.166l-16.666,0l-4.167,-4.166l-0,-8.334Z" style="fill:#c8c8c8;"/></g></g></svg>