<?xml version="1.0" encoding="UTF-8" standalone="no"?><!DOCTYPE svg PUBLIC "-//W3C//DTD SVG 1.1//EN" "http://www.w3.org/Graphics/SVG/1.1/DTD/svg11.dtd"><svg width="100%" height="100%" viewBox="0 0 67 67" version="1.1" xmlns="http://www.w3.org/2000/svg" xmlns:xlink="http://www.w3.org/1999/xlink" xml:space="preserve" xmlns:serif="http://www.serif.com/" style="fill-rule:evenodd;clip-rule:evenodd;stroke-linejoin:round;stroke-miterlimit:2;"><g id="ObjectIcons_DatabaseScanning_dis" opacity="0.3"><path d="M62.649,10.54c0,-4.829 -3.92,-8.75 -8.75,-8.75l-45,-0c-4.829,-0 -8.75,3.921 -8.75,8.75l0,45c0,4.829 3.921,8.75 8.75,8.75l45,-0c4.83,-0 8.75,-3.921 8.75,-8.75l0,-45Z" style="fill-opacity:0;"/><g><path d="M29.305,33.382l-8.328,8.656l0,7.867l20.874,-0l0,-7.867l-8.312,-8.656l8.312,-9.204l0,-7.522l-20.874,-0l0,7.522l8.328,9.204Z" style="fill:#fff;fill-rule:nonzero;"/><path d="M23.607,33.295l-5.719,-6.321c-0.694,-0.766 -1.077,-1.763 -1.077,-2.796l-0,-7.522c-0,-2.301 1.865,-4.167 4.166,-4.167l20.874,0c2.302,0 4.167,1.866 4.167,4.167l0,7.522c0,1.032 -0.383,2.027 -1.074,2.793c-0,-0 -5.712,6.324 -5.712,6.324l5.625,5.857c0.745,0.776 1.161,1.81 1.161,2.886l0,7.867c0,2.301 -1.865,4.167 -4.167,4.167l-20.874,-0c-2.301,-0 -4.166,-1.866 -4.166,-4.167l-0,-7.867c-0,-1.077 0.417,-2.112 1.164,-2.889l5.632,-5.854Zm5.698,0.087l-8.328,8.656l0,7.867l20.874,-0l0,-7.867l-8.312,-8.656l8.312,-9.204l0,-7.522l-20.874,-0l0,7.522l8.328,9.204Z" style="fill:#222;"/><rect x="16.801" y="8.333" width="29.197" height="4.129" style="fill:#fff;"/><path d="M16.801,4.167l29.197,-0c2.301,-0 4.166,1.865 4.166,4.166l0,4.129c0,2.301 -1.865,4.167 -4.166,4.167l-29.197,-0c-2.301,-0 -4.167,-1.866 -4.167,-4.167l0,-4.129c0,-2.301 1.866,-4.166 4.167,-4.166Zm-0,4.166l-0,4.129l29.197,0l-0,-4.129l-29.197,0Z" style="fill:#222;"/><rect x="16.801" y="54.13" width="29.197" height="4.134" style="fill:#fff;"/><path d="M16.801,49.963l29.197,0c2.301,0 4.166,1.866 4.166,4.167l0,4.134c0,2.302 -1.865,4.167 -4.166,4.167l-29.197,0c-2.301,0 -4.167,-1.865 -4.167,-4.167l0,-4.134c0,-2.301 1.866,-4.167 4.167,-4.167Zm-0,4.167l-0,4.134l29.197,0l-0,-4.134l-29.197,0Z" style="fill:#222;"/></g></g></svg>