<?xml version="1.0" encoding="UTF-8" standalone="no"?><!DOCTYPE svg PUBLIC "-//W3C//DTD SVG 1.1//EN" "http://www.w3.org/Graphics/SVG/1.1/DTD/svg11.dtd"><svg width="100%" height="100%" viewBox="0 0 67 67" version="1.1" xmlns="http://www.w3.org/2000/svg" xmlns:xlink="http://www.w3.org/1999/xlink" xml:space="preserve" xmlns:serif="http://www.serif.com/" style="fill-rule:evenodd;clip-rule:evenodd;stroke-linecap:square;stroke-linejoin:round;stroke-miterlimit:1.41421;"><g id="ObjectIcons_PropHighShelfOutputBus_nor" opacity="0.3"><g id="Icons"><g id="Base-Block" serif:id="Base Block"><rect x="2.509" y="-0.001" width="62.5" height="62.5" style="fill-opacity:0;"/></g><path d="M43.213,39.451l-0.303,-0.394" style="fill:none;stroke:#222;stroke-width:8.33px;"/><path d="M66.528,44.041c-0,-3.541 -2.876,-6.417 -6.417,-6.417l-33,0c-3.542,0 -6.417,2.876 -6.417,6.417l0,16.333c0,3.542 2.875,6.417 6.417,6.417l33,0c3.541,0 6.417,-2.875 6.417,-6.417l-0,-16.333Z" style="fill:#222;"/><path d="M4.218,22.335l23.818,-0.116l10.734,-15.154c1.327,-1.874 3.482,-2.988 5.779,-2.988l17.886,-0l-0,5.66l-17.887,0c-0.46,0 -0.893,0.224 -1.159,0.6l-10.461,14.768l8.68,12.253l-6.853,0.119l-6.715,-9.481l-23.811,-0l-0.011,-0l-0.012,-5.661l0.012,0Z" style="fill:#c8c8c8;"/><path d="M4.726,22.333c0.173,-2.084 0.173,-4.167 -0.522,-4.164c0.443,-0.003 21.669,-0.106 21.669,-0.106l9.497,-13.406c2.108,-2.977 5.53,-4.747 9.179,-4.747l17.886,0c2.301,0 4.166,1.866 4.166,4.167l0,5.66c0,2.301 -1.865,4.167 -4.166,4.167l-16.467,-0l-7.934,11.201l6.974,9.845c0.893,1.26 1.015,2.911 0.317,4.29c-0.697,1.378 -2.1,2.257 -3.645,2.284l-6.852,0.119c-1.377,0.024 -2.677,-0.634 -3.473,-1.758c0,0 -5.47,-7.723 -5.47,-7.723l-21.656,0l-0.011,0c-2.298,0 -4.162,-1.86 -4.167,-4.158l-0.012,-5.66c0.005,2.298 1.869,4.158 4.167,4.158c-2.292,-0.006 -4.149,-1.863 -4.155,-4.157c-0.005,-1.993 1.391,-3.663 3.261,-4.078c-3.707,0.914 0.666,7.86 0.896,8.22c0.002,-0.008 0.004,-0.021 0.006,-0.037l0.004,1.546l0.011,-0l23.811,-0l6.715,9.481l6.853,-0.119l-8.68,-12.253l10.461,-14.768c0.266,-0.376 0.699,-0.6 1.159,-0.6l17.887,0l-0,-5.66l-17.886,-0c-2.297,-0 -4.452,1.114 -5.779,2.988l-10.734,15.154l-23.31,0.114Z" style="fill:#222;"/><g><path d="M41.546,47.623l0,9.169c0,3.225 -2.618,5.842 -5.842,5.842l-5.008,0c-3.224,0 -5.842,-2.617 -5.842,-5.842l-0,-9.169c-0,-3.224 2.618,-5.842 5.842,-5.842l5.008,0c3.224,0 5.842,2.618 5.842,5.842Zm-4.137,1.855c0,-1.859 -1.509,-3.368 -3.367,-3.368l-1.684,0c-1.858,0 -3.367,1.509 -3.367,3.368l-0,5.46c-0,1.858 1.509,3.367 3.367,3.367l1.684,-0c1.858,-0 3.367,-1.509 3.367,-3.367l0,-5.46Z" style="fill:#c8c8c8;"/><path d="M62.368,47.519c0,1.293 -0.525,2.465 -1.373,3.315c-0.848,0.85 -2.019,1.377 -3.313,1.377c1.294,-0 2.465,0.527 3.314,1.378c0.847,0.851 1.372,2.024 1.372,3.317l0,0.008c0,1.514 -0.601,2.966 -1.672,4.036c-1.07,1.071 -2.522,1.672 -4.036,1.672c-4.826,0 -10.96,0 -10.96,0l-0,-20.829l10.943,0c3.162,0 5.725,2.563 5.725,5.725c0,0.001 0,0.001 0,0.001Zm-4.232,-0c-0,-1.135 -0.922,-2.056 -2.056,-2.056l-6.259,-0l-0,4.185l6.185,0c1.175,0 2.13,-0.954 2.13,-2.129Zm-0,9.387c-0,-1.134 -0.922,-2.056 -2.056,-2.056l-6.259,0l-0,4.186l6.185,-0c1.175,-0 2.13,-0.955 2.13,-2.13Z" style="fill:#c8c8c8;"/></g></g></g></svg>