<?xml version="1.0" encoding="UTF-8" standalone="no"?><!DOCTYPE svg PUBLIC "-//W3C//DTD SVG 1.1//EN" "http://www.w3.org/Graphics/SVG/1.1/DTD/svg11.dtd"><svg width="100%" height="100%" viewBox="0 0 67 67" version="1.1" xmlns="http://www.w3.org/2000/svg" xmlns:xlink="http://www.w3.org/1999/xlink" xml:space="preserve" xmlns:serif="http://www.serif.com/" style="fill-rule:evenodd;clip-rule:evenodd;stroke-linejoin:round;stroke-miterlimit:2;"><g id="ObjectIcons_SideChainMix_nor"><g id="Base-Block" serif:id="Base Block"><path d="M66.667,9.657c-0,-4.957 -4.025,-8.982 -8.983,-8.982l-48.701,-0c-4.958,-0 -8.983,4.025 -8.983,8.982l0,46.198c0,4.958 4.025,8.983 8.983,8.983l48.701,-0c4.958,-0 8.983,-4.025 8.983,-8.983l-0,-46.198Z" style="fill-opacity:0;"/></g><g><circle cx="32.942" cy="32.723" r="25.391" style="fill:#222;"/><path d="M32.942,3.165c16.314,0 29.558,13.245 29.558,29.558c0,16.313 -13.244,29.558 -29.558,29.558c-16.313,-0 -29.557,-13.245 -29.557,-29.558c-0,-16.313 13.244,-29.558 29.557,-29.558Zm0,4.167c-14.013,-0 -25.391,11.377 -25.391,25.391c0,14.014 11.378,25.391 25.391,25.391c14.014,0 25.391,-11.377 25.391,-25.391c0,-14.014 -11.377,-25.391 -25.391,-25.391Z" style="fill:#222;"/><path d="M19.559,31.031c0.355,0.613 0.558,1.324 0.558,2.083l-0,4.167c-0,0.759 -0.203,1.47 -0.558,2.083c0.355,0.613 0.558,1.325 0.558,2.083l-0,4.167c-0,2.301 -1.866,4.167 -4.167,4.167l-11.783,-0c-2.302,-0 -4.167,-1.866 -4.167,-4.167l-0,-4.167c0,-0.758 0.203,-1.47 0.557,-2.083c-0.354,-0.613 -0.557,-1.324 -0.557,-2.083l-0,-4.167c0,-0.759 0.203,-1.47 0.557,-2.083c-0.354,-0.613 -0.557,-1.325 -0.557,-2.084l-0,-4.166c0,-2.301 1.865,-4.167 4.167,-4.167l11.783,0c2.301,0 4.167,1.866 4.167,4.167l-0,4.166c-0,0.759 -0.203,1.471 -0.558,2.084Zm-3.609,2.083l-11.783,0l-0,4.167l11.783,-0l-0,-4.167Zm-0,-8.333l-11.783,-0l-0,4.166l11.783,0l-0,-4.166Zm-0,16.666l-11.783,0l-0,4.167l11.783,0l-0,-4.167Z" style="fill:#222;"/><path d="M15.95,41.447l-11.783,0l-0,4.167l11.783,0l-0,-4.167Zm-0,-8.333l-11.783,0l-0,4.167l11.783,-0l-0,-4.167Zm-0,-8.333l-11.783,-0l-0,4.166l11.783,0l-0,-4.166Z" style="fill:#c8c8c8;"/><path d="M66.109,31.031c0.355,0.613 0.558,1.324 0.558,2.083l-0,4.167c-0,0.759 -0.203,1.47 -0.558,2.083c0.355,0.613 0.558,1.325 0.558,2.083l-0,4.167c-0,2.301 -1.866,4.167 -4.167,4.167l-12.5,-0c-2.301,-0 -4.167,-1.866 -4.167,-4.167l0,-4.167c0,-0.758 0.203,-1.47 0.558,-2.083c-0.355,-0.613 -0.558,-1.324 -0.558,-2.083l0,-4.167c0,-0.759 0.203,-1.47 0.558,-2.083c-0.355,-0.613 -0.558,-1.325 -0.558,-2.084l0,-4.166c0,-2.301 1.866,-4.167 4.167,-4.167l12.5,0c2.301,0 4.167,1.866 4.167,4.167l-0,4.166c-0,0.759 -0.203,1.471 -0.558,2.084Zm-16.109,-2.084l12.5,0l-0,-4.166l-12.5,-0l-0,4.166Zm-0,8.334l12.5,-0l-0,-4.167l-12.5,0l-0,4.167Zm-0,8.333l12.5,0l-0,-4.167l-12.5,0l-0,4.167Z" style="fill:#222;"/><path d="M50,28.947l12.5,0l-0,-4.166l-12.5,-0l-0,4.166Zm-0,8.334l12.5,-0l-0,-4.167l-12.5,0l-0,4.167Zm0,8.333l12.5,0l0,-4.167l-12.5,0l0,4.167Z" style="fill:#c8c8c8;"/><g><circle cx="32.518" cy="33.147" r="25.033" style="fill:#c8c8c8;"/><path d="M20.833,45.589l0,-16.642c0,-1.016 0.004,-4.7 2.029,-4.7c2.142,-0 2.091,3.684 2.091,4.7l0,12.5c0,3.05 0.145,8.568 6.393,8.568c6.252,-0 6.085,-5.518 6.085,-8.568l-0,-16.666c-0,-1.017 -0.013,-4.719 2.106,-4.719c2.047,-0 2.157,3.702 2.157,4.719l-0,20.325l4.167,-0l-0,-20.325c-0,-3.05 -0.11,-8.846 -6.324,-8.846c-6.286,-0 -6.273,5.796 -6.273,8.846l0,16.666c0,0 0.167,4.357 -1.918,4.33c-2.081,-0.028 -2.179,-3.313 -2.179,-4.33l-0,-12.5c-0,-1.114 -0.114,-8.885 -6.305,-8.885c-6.191,-0 -6.195,5.836 -6.195,8.885l-0,16.642l4.166,-0Z" style="fill:#222;"/><rect x="16.636" y="37.281" width="4.167" height="3.542" style="fill:#fff;fill-opacity:0.5;"/><rect x="41.667" y="37.281" width="4.167" height="3.542" style="fill:#fff;fill-opacity:0.5;"/></g></g></g></svg>