<?xml version="1.0" encoding="UTF-8" standalone="no"?><!DOCTYPE svg PUBLIC "-//W3C//DTD SVG 1.1//EN" "http://www.w3.org/Graphics/SVG/1.1/DTD/svg11.dtd"><svg width="100%" height="100%" viewBox="0 0 67 67" version="1.1" xmlns="http://www.w3.org/2000/svg" xmlns:xlink="http://www.w3.org/1999/xlink" xml:space="preserve" xmlns:serif="http://www.serif.com/" style="fill-rule:evenodd;clip-rule:evenodd;stroke-linejoin:round;stroke-miterlimit:2;"><g id="Filter_Field_Normal"><rect id="Transparent-BG" serif:id="Transparent BG" x="4.138" y="4.161" width="62.5" height="62.5" style="fill:none;"/><g><path d="M62.472,27.913l-0,5.979l-18.132,8.461l18.132,7.203l-0,5.954l-24.865,-10.947l0,-4.371l24.865,-12.279Zm-0,34.526l-24.865,0l0,-3.037l24.865,-0l-0,3.037Z" style="fill:#bdbdbd;fill-rule:nonzero;"/><path d="M66.157,57.455c0.307,0.581 0.481,1.243 0.481,1.947l0,3.037c0,2.301 -1.865,4.167 -4.166,4.167l-24.865,-0c-2.301,-0 -4.166,-1.866 -4.166,-4.167l-0,-3.037c-0,-2.302 1.865,-4.167 4.166,-4.167l13.899,-0l-15.578,-6.858c-1.512,-0.666 -2.487,-2.162 -2.487,-3.814l-0,-4.371c-0,-1.586 0.9,-3.034 2.321,-3.736l24.865,-12.279c1.291,-0.638 2.821,-0.564 4.044,0.197c1.223,0.76 1.967,2.098 1.967,3.539l0,5.979c0,1.619 -0.937,3.091 -2.404,3.776l-9.382,4.377l9.158,3.638c1.587,0.631 2.628,2.165 2.628,3.873l0,5.954c0,0.689 -0.17,1.354 -0.481,1.945Zm-3.685,-29.542l-24.865,12.279l0,4.371l24.865,10.947l-0,-5.954l-18.132,-7.203l18.132,-8.461l-0,-5.979Zm-0,34.526l-0,-3.037l-24.865,-0l0,3.037l24.865,0Z" style="fill:#3a3a3a;"/><path d="M25.061,29.517l0,20.916l8.206,11.067l0,-31.983l17.143,-17.027l0,-4.162l-42.105,-0l-0,4.162l16.756,17.027Z" style="fill:#bdbdbd;"/><path d="M20.895,31.223l-15.56,-15.81c-0.767,-0.78 -1.197,-1.829 -1.197,-2.923l0,-4.162c0,-2.302 1.866,-4.167 4.167,-4.167l42.105,-0c2.301,-0 4.167,1.865 4.167,4.167l-0,4.162c-0,1.11 -0.443,2.174 -1.23,2.957l-15.913,15.804l0,30.249c0,1.798 -1.153,3.393 -2.86,3.956c-1.707,0.564 -3.583,-0.03 -4.654,-1.474l-8.206,-11.067c-0.532,-0.718 -0.819,-1.588 -0.819,-2.482l-0,-19.21Zm4.166,-1.706l0,20.916l8.206,11.067l0,-31.983l17.143,-17.027l0,-4.162l-42.105,-0l-0,4.162l16.756,17.027Z" style="fill:#3a3a3a;"/></g></g></svg>