<?xml version="1.0" encoding="UTF-8" standalone="no"?><!DOCTYPE svg PUBLIC "-//W3C//DTD SVG 1.1//EN" "http://www.w3.org/Graphics/SVG/1.1/DTD/svg11.dtd"><svg width="100%" height="100%" viewBox="0 0 67 67" version="1.1" xmlns="http://www.w3.org/2000/svg" xmlns:xlink="http://www.w3.org/1999/xlink" xml:space="preserve" xmlns:serif="http://www.serif.com/" style="fill-rule:evenodd;clip-rule:evenodd;stroke-linejoin:round;stroke-miterlimit:2;"><g id="Filter_AudioSimilarity_Normal"><rect id="Transparent-BG" serif:id="Transparent BG" x="3.968" y="4.161" width="62.5" height="62.5" style="fill:none;"/><g><path d="M37.488,29.253l4.165,0l0,24.86l-4.165,0l0,-24.86Zm16.69,8.357l4.149,-0l0,12.444l-4.149,-0l0,-12.444Zm-8.351,-4.194l4.178,0l-0,12.405l-4.178,-0l-0,-12.405Z" style="fill:#bdbdbd;"/><path d="M45.82,29.251c0.002,0 0.005,-0.001 0.007,-0.001l4.178,-0c2.301,-0 4.167,1.865 4.167,4.166l-0,0.027l4.155,0c2.302,0 4.167,1.866 4.167,4.167l0,12.444c0,2.301 -1.865,4.167 -4.167,4.167l-4.149,-0c-2.301,-0 -4.167,-1.866 -4.167,-4.167l0,-0.067l-4.191,0l0,4.126c0,2.302 -1.865,4.167 -4.167,4.167l-4.165,0c-2.301,0 -4.166,-1.865 -4.166,-4.167l-0,-24.86c-0,-2.301 1.865,-4.166 4.166,-4.166l4.165,-0c2.302,-0 4.167,1.863 4.167,4.164Zm8.358,8.359l0,12.444l4.149,-0l0,-12.444l-4.149,-0Zm-8.351,-4.194l-0,12.405l4.178,-0l-0,-12.405l-4.178,0Zm-8.339,-4.163l0,24.86l4.165,0l0,-24.86l-4.165,0Z" style="fill:#3a3a3a;"/><path d="M25.016,29.459l-0,20.859l8.183,11.036l0,-31.895l17.096,-16.98l0,-4.151l-41.99,-0l-0,4.151l16.711,16.98Z" style="fill:#bdbdbd;"/><path d="M20.849,31.166l-15.514,-15.765c-0.767,-0.779 -1.197,-1.829 -1.197,-2.922l0,-4.151c0,-2.302 1.866,-4.167 4.167,-4.167l41.99,-0c2.301,-0 4.167,1.865 4.167,4.167l-0,4.151c-0,1.11 -0.443,2.174 -1.231,2.956l-15.865,15.758l-0,30.161c-0,1.798 -1.153,3.393 -2.86,3.957c-1.707,0.564 -3.583,-0.031 -4.654,-1.475l-8.183,-11.037c-0.533,-0.718 -0.82,-1.588 -0.82,-2.481l-0,-19.152Zm4.167,-1.707l-0,20.859l8.183,11.036l0,-31.895l17.096,-16.98l0,-4.151l-41.99,-0l-0,4.151l16.711,16.98Z" style="fill:#3a3a3a;"/></g></g></svg>