<?xml version="1.0" encoding="UTF-8" standalone="no"?><!DOCTYPE svg PUBLIC "-//W3C//DTD SVG 1.1//EN" "http://www.w3.org/Graphics/SVG/1.1/DTD/svg11.dtd"><svg width="100%" height="100%" viewBox="0 0 67 67" version="1.1" xmlns="http://www.w3.org/2000/svg" xmlns:xlink="http://www.w3.org/1999/xlink" xml:space="preserve" xmlns:serif="http://www.serif.com/" style="fill-rule:evenodd;clip-rule:evenodd;stroke-linejoin:round;stroke-miterlimit:2;"><g id="ObjectIcons_DragRegion_nor"><g id="Base-Block" serif:id="Base Block"><path d="M66.667,12.903c-0,-4.829 -3.921,-8.75 -8.75,-8.75l-45,0c-4.83,0 -8.75,3.921 -8.75,8.75l-0,45c-0,4.829 3.92,8.75 8.75,8.75l45,0c4.829,0 8.75,-3.921 8.75,-8.75l-0,-45Z" style="fill-opacity:0;"/></g><g id="ObjectIcons_AudioFile_nor"><g id="Icons"><path d="M45.846,37.301c-0.114,0.009 -0.23,0.013 -0.346,0.013l-3.5,0c-0.112,0 -0.223,-0.004 -0.333,-0.012l-0,7.948c-0,2.483 -2.017,4.5 -4.5,4.5l-3.5,-0c-0.112,-0 -0.224,-0.005 -0.334,-0.013l0,3.803c0,2.484 -2.016,4.5 -4.5,4.5l-3.5,-0c-2.368,-0 -4.312,-1.834 -4.487,-4.158c-0.114,0.008 -0.23,0.013 -0.346,0.013l-3.5,-0c-2.484,-0 -4.5,-2.017 -4.5,-4.5l0,-7.948c-0.11,0.008 -0.221,0.012 -0.333,0.012l-3.5,0c-2.484,0 -4.5,-2.016 -4.5,-4.5l-0,-11.725c-0,-2.484 2.016,-4.5 4.5,-4.5l3.5,-0c2.368,-0 4.312,1.834 4.487,4.158c0.114,-0.009 0.23,-0.013 0.346,-0.013l3.5,-0c0.112,-0 0.223,0.004 0.333,0.012l0,-7.948c0,-2.483 2.017,-4.5 4.5,-4.5l3.5,0c0.112,0 0.224,0.004 0.334,0.012l-0,-3.802c-0,-2.484 2.016,-4.5 4.5,-4.5l3.5,0c2.368,0 4.312,1.834 4.487,4.158c0.114,-0.008 0.23,-0.013 0.346,-0.013l3.5,0c2.484,0 4.5,2.017 4.5,4.5l0,7.948c0.11,-0.008 0.221,-0.012 0.333,-0.012l3.5,-0c2.484,-0 4.5,2.016 4.5,4.5l0,11.725c0,2.484 -2.016,4.5 -4.5,4.5l-3.5,0c-2.368,0 -4.312,-1.834 -4.487,-4.158Zm-20.846,-20.713l0,37.307l4.167,-0l-0,-37.307l-4.167,0Zm16.667,-4.145l-0,20.726l4.166,0l0,-20.726l-4.166,0Zm-8.334,-4.145l0,37.306l4.167,0l0,-37.306l-4.167,0Zm16.667,16.581l0,12.435l4.167,0l-0,-12.435l-4.167,-0Zm-41.667,-0l0,12.435l4.167,0l0,-12.435l-4.167,-0Zm8.334,4.145l-0,20.726l4.166,-0l0,-20.726l-4.166,-0Z" style="fill:#222;"/><rect x="8.333" y="24.986" width="4.167" height="12.5" style="fill:#e2e2e2;"/><rect x="50" y="24.986" width="4.167" height="12.5" style="fill:#e2e2e2;"/><rect x="16.667" y="29.153" width="4.167" height="20.833" style="fill:#e2e2e2;"/><rect x="25" y="16.653" width="4.167" height="37.5" style="fill:#e2e2e2;"/><rect x="33.333" y="8.32" width="4.167" height="37.5" style="fill:#e2e2e2;"/><rect x="41.667" y="12.486" width="4.167" height="20.833" style="fill:#e2e2e2;"/></g></g><g><path d="M41.488,39.439l6.4,-6.399l6.375,6.375l-2.055,2.055l-2.176,-2.055l-0,6.03l6.069,0l-2.055,-2.113l2.055,-2.055l6.399,6.399l-6.375,6.376l-2.056,-2.055l2.056,-2.385l-6.093,-0l-0,6.219l2.176,-2.078l2.055,2.055l-6.399,6.399l-6.376,-6.376l2.055,-2.055l2.322,2.055l-0,-6.219l-6.156,-0l2.079,2.385l-2.056,2.055l-6.399,-6.4l6.376,-6.375l2.054,2.055l-2.054,2.113l6.156,0l-0,-6.03l-2.322,2.079l-2.055,-2.055Z" style="fill:#fff;fill-rule:nonzero;"/><path d="M37.748,37.601c0.196,-0.401 0.461,-0.776 0.794,-1.108l6.399,-6.399c1.628,-1.628 4.266,-1.628 5.893,-0l6.375,6.375c0.33,0.33 0.594,0.702 0.79,1.099c0.383,0.196 0.738,0.452 1.048,0.763l6.399,6.399c1.627,1.627 1.627,4.265 0,5.892l-6.375,6.376c-0.346,0.346 -0.738,0.618 -1.156,0.817c-0.185,0.337 -0.421,0.653 -0.706,0.939l-6.399,6.399c-1.627,1.627 -4.265,1.627 -5.893,-0l-6.375,-6.376c-0.315,-0.314 -0.569,-0.667 -0.762,-1.043c-0.357,-0.19 -0.693,-0.435 -0.994,-0.736l-6.399,-6.399c-0.782,-0.782 -1.221,-1.842 -1.221,-2.947c0,-1.105 0.439,-2.165 1.221,-2.946l6.376,-6.375c0.293,-0.294 0.625,-0.539 0.985,-0.73Zm8.117,12.011l-0,6.219l-2.322,-2.055l-2.055,2.055l6.376,6.376l6.399,-6.399l-2.055,-2.055l-2.176,2.078l-0,-6.219l6.093,-0l-2.056,2.385l2.056,2.055l6.375,-6.376l-6.399,-6.399l-2.055,2.055l2.055,2.113l-6.069,0l-0,-6.03l2.176,2.055l2.055,-2.055l-6.375,-6.375l-6.4,6.399l2.055,2.055l2.322,-2.079l-0,6.03l-6.156,0l2.054,-2.113l-2.054,-2.055l-6.376,6.375l6.399,6.4l2.056,-2.055l-2.079,-2.385l6.156,-0Z" style="fill:#222;"/></g></g></svg>