<?xml version="1.0" encoding="UTF-8" standalone="no"?><!DOCTYPE svg PUBLIC "-//W3C//DTD SVG 1.1//EN" "http://www.w3.org/Graphics/SVG/1.1/DTD/svg11.dtd"><svg width="100%" height="100%" viewBox="0 0 20 20" version="1.1" xmlns="http://www.w3.org/2000/svg" xmlns:xlink="http://www.w3.org/1999/xlink" xml:space="preserve" xmlns:serif="http://www.serif.com/" style="fill-rule:evenodd;clip-rule:evenodd;stroke-linejoin:round;stroke-miterlimit:2;"><g id="General_Browse_Pressed"><rect id="Transparent-BG" serif:id="Transparent BG" x="0.896" y="0.461" width="19" height="19" style="fill:#fff;fill-opacity:0;"/><path d="M10.28,2.236c4.2,-0 7.61,3.41 7.61,7.61c0,4.2 -3.41,7.609 -7.61,7.609c-4.2,0 -7.609,-3.409 -7.609,-7.609c-0,-4.2 3.409,-7.61 7.609,-7.61Zm0,2c-3.096,-0 -5.609,2.514 -5.609,5.61c-0,3.096 2.513,5.609 5.609,5.609c3.097,0 5.61,-2.513 5.61,-5.609c0,-3.096 -2.513,-5.61 -5.61,-5.61Z"/><circle cx="10.28" cy="9.846" r="3.281"/></g></svg>