<?xml version="1.0" encoding="UTF-8" standalone="no"?><!DOCTYPE svg PUBLIC "-//W3C//DTD SVG 1.1//EN" "http://www.w3.org/Graphics/SVG/1.1/DTD/svg11.dtd"><svg width="100%" height="100%" viewBox="0 0 134 134" version="1.1" xmlns="http://www.w3.org/2000/svg" xmlns:xlink="http://www.w3.org/1999/xlink" xml:space="preserve" xmlns:serif="http://www.serif.com/" style="fill-rule:evenodd;clip-rule:evenodd;stroke-linejoin:round;stroke-miterlimit:2;"><g id="View_Large_Question_nor"><rect id="Transparent-BG" serif:id="Transparent BG" x="3.539" y="3.192" width="129.167" height="129.167" style="fill:none;"/><g><path d="M68.123,21.049c25.789,-0 46.727,20.937 46.727,46.726c-0,25.79 -20.938,46.727 -46.727,46.727c-25.79,0 -46.727,-20.937 -46.727,-46.727c-0,-25.789 20.937,-46.726 46.727,-46.726Zm-0,4.166c-23.49,0 -42.561,19.071 -42.561,42.56c0,23.49 19.071,42.561 42.561,42.561c23.489,-0 42.56,-19.071 42.56,-42.561c-0,-23.489 -19.071,-42.56 -42.56,-42.56Z" style="fill:#22599a;"/><circle cx="68.123" cy="67.775" r="42.56" style="fill:#3079d0;"/><path d="M74.109,82.966l-0,12.857l-12.762,0l-0,-12.857l12.762,-0Zm0.046,-8.004c0,1.257 -0.043,2.098 -0.043,2.098l-12.762,0l-0,-3.134c-0,-4.189 2.97,-7.945 4.378,-9.353c1.408,-1.408 3.957,-2.946 5.189,-4.102c1.412,-1.324 2.303,-2.863 2.303,-4.335c-0,-3.918 -2.975,-5.012 -5.113,-5.012c-2.137,0 -5.322,1.363 -5.322,5.012c-0.174,0.002 -12.607,0.194 -12.607,0.194c0,0 -0.376,-5.671 3.448,-10.434c2.597,-3.235 7.349,-6.168 14.629,-6.168c5.666,-0 9.544,1.898 12.199,4.001c5.779,4.578 5.615,11.282 5.615,12c0,-0 0.159,3.248 -0.935,5.865c-0.98,2.345 -2.936,4.275 -5.173,5.916c-4.432,3.251 -5.806,5.082 -5.806,7.452Z" style="fill:#fff;"/></g></g></svg>